<svg xmlns="http://www.w3.org/2000/svg" xmlns:xlink="http://www.w3.org/1999/xlink" width="130" height="130" viewBox="0 0 130 130">
  <defs>
    <clipPath id="clip-path">
      <rect id="Rectángulo_361763" data-name="Rectángulo 361763" width="65.133" height="71.646" fill="none"/>
    </clipPath>
  </defs>
  <g id="Grupo_86326" data-name="Grupo 86326" transform="translate(-473 -7506)">
    <circle id="Elipse_4923" data-name="Elipse 4923" cx="53" cy="53" r="53" transform="translate(485 7521)" fill="#ffe9e1"/>
    <g id="Grupo_86320" data-name="Grupo 86320" transform="translate(153 -27)">
      <rect id="Rectángulo_34475" data-name="Rectángulo 34475" width="130" height="130" transform="translate(320 7533)" fill="none"/>
      <g id="Grupo_1084920" data-name="Grupo 1084920" transform="translate(355 7564.177)">
        <g id="Grupo_1084184" data-name="Grupo 1084184" clip-path="url(#clip-path)">
          <path id="Trazado_717048" data-name="Trazado 717048" d="M57.159,142.539c2.047,5.393,2.334,10.427-1.91,15.184,1.211,0,2.259-.009,3.307,0a8.054,8.054,0,0,1,.655,16.084c-.346.026-.693.03-1.04.03q-23.887,0-47.775,0a8.058,8.058,0,1,1-.3-16.107c9.139-.025,18.277-.007,27.416-.007h1.906c-3.294-2.564-4.111-5.85-3.9-9.511.286-4.963,3.7-9.161,8.124-10.038.151-.03.318-.117.451-.081,1.75.474,2.472-.66,3.37-1.877,2.157-2.924,5.363-3.513,8.7-3.173a46.511,46.511,0,0,1,6.876,1.433c1.478.383,1.651,1.1.764,2.385a16.754,16.754,0,0,1-5.794,5.211l-.851.467M34.252,171.6h3.121q10.462,0,20.925,0a5.823,5.823,0,1,0,.161-11.637q-24.161-.021-48.322,0c-.193,0-.386,0-.578.013A5.853,5.853,0,0,0,4.2,165.641a5.788,5.788,0,0,0,6.011,5.95c8.015.029,16.03.009,24.046.01m7.99-15.2c1.072-1.3,1.336-1.231,2.6-.16a6.228,6.228,0,0,0,2.594,1.384,7.283,7.283,0,0,0,8.545-5.616,20.548,20.548,0,0,0-.115-6.391,4.473,4.473,0,0,0-4.465-3.5,6.71,6.71,0,0,0-6.729,5.2c-.178.7-.559,1.14-1.286,1.016a1.053,1.053,0,0,1-.885-1.471,17.81,17.81,0,0,1,1.591-3.407,23.45,23.45,0,0,1,2.328-2.681,7.473,7.473,0,0,0-2.151-.417,5.751,5.751,0,0,0-2.251.817c-4.129,2.382-5.673,8.633-3.172,12.7a5.3,5.3,0,0,0,3.4,2.515m6.021-16.576a12.173,12.173,0,0,1,1.116-.631c1.758-.754,3.511-1.525,5.3-2.211a1.058,1.058,0,0,1,1.512.815c.169.73-.262,1.141-.949,1.337-.764.218-1.519.463-2.279.7.79.5,1.691,1.13,2.341.934a12.445,12.445,0,0,0,6.146-4.527c-1.176-.277-2.131-.546-3.1-.72a13.2,13.2,0,0,0-6.4.121c-1.85.583-3.617,2.5-3.683,4.187" transform="translate(-1.512 -102.195)"/>
          <path id="Trazado_717049" data-name="Trazado 717049" d="M14.187,11.544c-2.046-.122-2.175-.259-2.176-2.133,0-.8,0-1.6,0-2.548-1.5,0-2.875-.025-4.249.008C6.682,6.9,6.206,6.409,6.226,5.341c.024-1.311.015-2.622,0-3.933C6.221.44,6.7,0,7.65,0q7.809,0,15.617,0A1.23,1.23,0,0,1,24.66,1.43c-.016,1.35-.01,2.7,0,4.049,0,.972-.493,1.395-1.437,1.388-1.383-.011-2.767,0-4.341,0,0,.8,0,1.51,0,2.225,0,2.23,0,2.23-2.224,2.5a8.468,8.468,0,0,0-.087.871c-.006,4.049.007,8.1-.016,12.146a1.173,1.173,0,0,0,.815,1.3A4.045,4.045,0,0,1,19.9,29.124a1.962,1.962,0,0,0,1.162,1.543c2.883,1.633,5.75,3.3,8.62,4.952,1.415.817,1.51,1.159.7,2.557q-2.569,4.457-5.149,8.908c-.665,1.145-1.1,1.262-2.243.624-.74-.413-1.457-.869-2.208-1.261a1.387,1.387,0,0,1-.7-2.014c.586-1.466,1.081-2.97,1.674-4.433.241-.6.229-.967-.366-1.336-1.8-1.118-3.553-2.313-5.366-3.41a1.386,1.386,0,0,0-1.2.012c-1.813,1.1-3.57,2.287-5.367,3.41A.846.846,0,0,0,9.075,39.9c.615,1.537,1.145,3.108,1.745,4.652a1.3,1.3,0,0,1-.648,1.834c-.845.462-1.673.956-2.506,1.439A1.207,1.207,0,0,1,5.8,47.37Q3.018,42.57.251,37.76c-.525-.91-.19-1.492.662-1.976,3.014-1.714,6.025-3.436,9-5.222A2.449,2.449,0,0,0,10.9,29.2a4.989,4.989,0,0,1,2.718-3.4,1.387,1.387,0,0,0,.676-.988c.046-4.2.031-8.406.023-12.609a3.489,3.489,0,0,0-.13-.661M12.763,33.9l-1.4-1.55L2.627,37.4,7.314,45.48,8.48,44.7c-.635-1.721-1.177-3.365-1.85-4.953a1.706,1.706,0,0,1,.852-2.469c1.776-1.061,3.489-2.228,5.281-3.384m15.489,3.488-8.739-5.039L18.134,33.9c1.842,1.193,3.592,2.384,5.4,3.477a1.6,1.6,0,0,1,.735,2.31c-.68,1.66-1.251,3.363-1.881,5.084l1.216.658,4.646-8.043M22.377,2.325H8.561V4.543H22.377ZM15.418,27.691a2.342,2.342,0,0,0,.046,4.684,2.342,2.342,0,0,0-.046-4.684M16.551,6.957H14.338V9.208h2.213Z" transform="translate(0 0)"/>
          <path id="Trazado_717050" data-name="Trazado 717050" d="M41.654,261.291c-8.015,0-16.031.019-24.046-.01a5.788,5.788,0,0,1-6.011-5.95,5.853,5.853,0,0,1,5.364-5.671c.192-.014.385-.013.578-.013q24.161,0,48.322.005a5.823,5.823,0,1,1-.161,11.636q-10.462.016-20.925,0H41.654m-12.725-9.244a3.424,3.424,0,1,0,3.475,3.4,3.412,3.412,0,0,0-3.475-3.4m-8.087,3.382a3.429,3.429,0,1,0-3.416,3.473,3.428,3.428,0,0,0,3.416-3.473m23.134.08a3.426,3.426,0,1,0-3.495,3.388,3.421,3.421,0,0,0,3.495-3.388m8.111,3.391a3.427,3.427,0,1,0-3.393-3.491,3.429,3.429,0,0,0,3.393,3.491m11.622,0a3.424,3.424,0,1,0-3.446-3.436,3.42,3.42,0,0,0,3.446,3.436" transform="translate(-8.913 -191.885)" fill="#727997"/>
          <path id="Trazado_717051" data-name="Trazado 717051" d="M160.752,180.981a5.3,5.3,0,0,1-3.4-2.515c-2.5-4.069-.958-10.321,3.172-12.7a5.75,5.75,0,0,1,2.251-.817,7.471,7.471,0,0,1,2.151.417,23.445,23.445,0,0,0-2.327,2.681,17.8,17.8,0,0,0-1.591,3.407,1.053,1.053,0,0,0,.885,1.471c.727.124,1.108-.312,1.286-1.016a6.71,6.71,0,0,1,6.729-5.2,4.472,4.472,0,0,1,4.464,3.5,20.535,20.535,0,0,1,.115,6.391,7.282,7.282,0,0,1-8.545,5.616,6.228,6.228,0,0,1-2.594-1.384c-1.266-1.071-1.529-1.135-2.6.16" transform="translate(-120.021 -126.777)" fill="#ffa686"/>
          <path id="Trazado_717052" data-name="Trazado 717052" d="M202.066,147.217c.067-1.687,1.833-3.6,3.683-4.187a13.2,13.2,0,0,1,6.4-.121c.972.174,1.927.444,3.1.72a12.445,12.445,0,0,1-6.146,4.527c-.65.2-1.55-.437-2.341-.934.759-.233,1.515-.479,2.279-.7.687-.2,1.118-.607.949-1.337a1.058,1.058,0,0,0-1.512-.815c-1.785.686-3.537,1.457-5.3,2.211a12.18,12.18,0,0,0-1.116.631" transform="translate(-155.315 -109.589)" fill="#adce32"/>
          <path id="Trazado_717053" data-name="Trazado 717053" d="M21.49,141.355c-1.792,1.157-3.5,2.323-5.281,3.384a1.705,1.705,0,0,0-.852,2.469c.673,1.588,1.215,3.232,1.85,4.953l-1.165.777-4.688-8.084,8.737-5.05,1.4,1.55" transform="translate(-8.727 -107.459)" fill="#ffd947"/>
          <path id="Trazado_717054" data-name="Trazado 717054" d="M88.5,144.841l-4.646,8.043-1.216-.658c.63-1.72,1.2-3.424,1.881-5.084a1.6,1.6,0,0,0-.735-2.31c-1.81-1.092-3.56-2.284-5.4-3.477l1.378-1.553,8.739,5.039" transform="translate(-60.244 -107.456)" fill="#ffd947"/>
          <rect id="Rectángulo_361761" data-name="Rectángulo 361761" width="13.816" height="2.218" transform="translate(8.561 2.325)" fill="#b0c0d2"/>
          <path id="Trazado_717055" data-name="Trazado 717055" d="M58.938,119.683a2.342,2.342,0,1,1-2.318,2.369,2.344,2.344,0,0,1,2.318-2.369" transform="translate(-43.521 -91.992)" fill="#fff"/>
          <rect id="Rectángulo_361762" data-name="Rectángulo 361762" width="2.213" height="2.251" transform="translate(14.338 6.957)" fill="#b0c0d2"/>
          <path id="Trazado_717056" data-name="Trazado 717056" d="M75.314,260.025a3.424,3.424,0,1,1-3.37,3.5,3.411,3.411,0,0,1,3.37-3.5m.35,2.073-.522-.017c-.318.444-.916.914-.878,1.325a1.581,1.581,0,0,0,1.072,1.13,1.568,1.568,0,0,0,1.129-1.062c.059-.412-.509-.914-.8-1.376" transform="translate(-55.298 -199.863)"/>
          <path id="Trazado_717057" data-name="Trazado 717057" d="M28.77,263.412a3.43,3.43,0,1,1-3.5-3.38,3.44,3.44,0,0,1,3.5,3.38M25.026,264.8l.538.016c.315-.441.911-.91.871-1.316-.043-.439-.68-.819-1.058-1.225-.4.382-1.065.721-1.139,1.158-.067.4.5.907.788,1.367" transform="translate(-16.841 -199.868)"/>
          <path id="Trazado_717058" data-name="Trazado 717058" d="M128.784,263.488a3.426,3.426,0,1,1-3.414-3.463,3.434,3.434,0,0,1,3.414,3.463m-2.086.283q.011-.264.022-.528c-.438-.325-.9-.933-1.309-.9-.438.037-.824.679-1.233,1.057.376.406.708,1.071,1.14,1.144.4.068.915-.491,1.379-.774" transform="translate(-93.722 -199.864)"/>
          <path id="Trazado_717059" data-name="Trazado 717059" d="M175.325,266.876a3.427,3.427,0,1,1,3.456-3.426,3.436,3.436,0,0,1-3.456,3.426m.3-4.789-.525,0c-.307.453-.893.939-.845,1.35a1.1,1.1,0,0,0,2.207,0c.051-.41-.532-.9-.836-1.352" transform="translate(-132.151 -199.861)"/>
          <path id="Trazado_717060" data-name="Trazado 717060" d="M225.385,266.887a3.424,3.424,0,1,1,3.4-3.478,3.424,3.424,0,0,1-3.4,3.478m.194-4.794-.523.017c-.29.462-.857.968-.793,1.376a1.58,1.58,0,0,0,1.14,1.06c.38,0,1.018-.7,1.053-1.13.034-.414-.559-.88-.877-1.323" transform="translate(-170.59 -199.874)"/>
          <path id="Trazado_717061" data-name="Trazado 717061" d="M83.365,268.929c.292.462.861.965.8,1.376a1.1,1.1,0,0,1-2.2-.068c-.038-.411.56-.881.878-1.325l.522.017" transform="translate(-63 -206.695)" fill="#fff"/>
          <path id="Trazado_717062" data-name="Trazado 717062" d="M32.741,272.247c-.288-.46-.855-.967-.788-1.367.073-.438.734-.777,1.139-1.158.378.406,1.015.787,1.058,1.225.04.407-.556.875-.871,1.316l-.538-.016" transform="translate(-24.556 -207.316)" fill="#fff"/>
          <path id="Trazado_717063" data-name="Trazado 717063" d="M134.16,271.469c-.464.283-.974.842-1.379.774-.432-.073-.764-.738-1.14-1.144.409-.378.795-1.019,1.233-1.057.408-.035.87.573,1.309.9q-.011.264-.022.528" transform="translate(-101.184 -207.562)" fill="#fff"/>
          <path id="Trazado_717064" data-name="Trazado 717064" d="M183.318,268.94c.3.454.887.943.836,1.352a1.1,1.1,0,0,1-2.207,0c-.048-.412.538-.9.845-1.35l.525,0" transform="translate(-139.849 -206.715)" fill="#fff"/>
          <path id="Trazado_717065" data-name="Trazado 717065" d="M233.281,268.918c.317.443.91.909.877,1.323-.035.431-.673,1.126-1.053,1.13a1.581,1.581,0,0,1-1.14-1.06c-.064-.407.5-.913.793-1.376l.523-.017" transform="translate(-178.292 -206.699)" fill="#fff"/>
        </g>
      </g>
    </g>
  </g>
</svg>
