<svg xmlns="http://www.w3.org/2000/svg" width="86.462" height="86.462" viewBox="0 0 86.462 86.462">
  <g id="Grupo_1084951" data-name="Grupo 1084951" transform="translate(-2334.015 -380.397)">
    <g id="Grupo_17793" data-name="Grupo 17793" transform="translate(2335.281 381.663)">
      <circle id="Elipse_1093" data-name="Elipse 1093" cx="18.952" cy="18.952" r="18.952" transform="translate(0)" fill="#afafaf"/>
      <path id="Trazado_28387" data-name="Trazado 28387" d="M2357.1,417.544a18.948,18.948,0,0,1-14.683-30.928,18.948,18.948,0,1,0,26.659,26.659A18.865,18.865,0,0,1,2357.1,417.544Z" transform="translate(-2335.438 -382.348)" fill="#afafaf"/>
      <circle id="Elipse_1094" data-name="Elipse 1094" cx="18.952" cy="18.952" r="18.952" transform="translate(0 46.025)" fill="#ffd947"/>
      <path id="Trazado_28388" data-name="Trazado 28388" d="M2357.1,469.261a18.947,18.947,0,0,1-14.683-30.927,18.948,18.948,0,1,0,26.659,26.659,18.864,18.864,0,0,1-11.976,4.268Z" transform="translate(-2335.438 -388.04)" fill="#f0d352"/>
      <circle id="Elipse_1095" data-name="Elipse 1095" cx="18.952" cy="18.952" r="18.952" transform="translate(46.026)" fill="#ffa686"/>
      <path id="Trazado_28389" data-name="Trazado 28389" d="M2408.815,417.544a18.948,18.948,0,0,1-14.684-30.928,18.948,18.948,0,1,0,26.659,26.659,18.864,18.864,0,0,1-11.975,4.269Z" transform="translate(-2341.13 -382.348)" fill="#ffa686"/>
      <circle id="Elipse_1096" data-name="Elipse 1096" cx="18.952" cy="18.952" r="18.952" transform="translate(46.026 46.025)" fill="#adce32"/>
      <path id="Trazado_28390" data-name="Trazado 28390" d="M2408.815,469.261a18.947,18.947,0,0,1-14.684-30.927,18.948,18.948,0,1,0,26.659,26.659,18.863,18.863,0,0,1-11.975,4.268Z" transform="translate(-2341.13 -388.04)" fill="#adce32"/>
      <g id="Grupo_17792" data-name="Grupo 17792" transform="translate(10.83 8.122)">
        <path id="Trazado_28391" data-name="Trazado 28391" d="M2405.951,443.341l-9.378,16.244a1.354,1.354,0,0,0,1.172,2.031H2416.5a1.354,1.354,0,0,0,1.172-2.031l-9.378-16.244A1.354,1.354,0,0,0,2405.951,443.341Z" transform="translate(-2352.976 -396.639)" fill="#fff"/>
        <path id="Trazado_28392" data-name="Trazado 28392" d="M2351.836,390.947h9.475l-4.061,8.122h5.415l-10.829,13.537,1.353-9.475h-4.061Z" transform="translate(-2347.775 -390.947)" fill="#fff"/>
        <path id="Trazado_28393" data-name="Trazado 28393" d="M2347.607,452.14l8.122-9.476,8.123,9.476h-4.062v12.183h-8.122V452.14Z" transform="translate(-2347.607 -396.639)" fill="#fff"/>
      </g>
    </g>
    <g id="Grupo_17794" data-name="Grupo 17794" transform="translate(2334.015 380.397)">
      <path id="Trazado_28394" data-name="Trazado 28394" d="M2406.968,441.241a2.592,2.592,0,0,0-2.269,1.31l-9.379,16.244a2.62,2.62,0,0,0,2.269,3.931h18.757a2.62,2.62,0,0,0,2.27-3.93l-9.378-16.245A2.594,2.594,0,0,0,2406.968,441.241Zm9.454,18.909a.075.075,0,0,1-.075.044h-18.757a.076.076,0,0,1-.076-.044.077.077,0,0,1,0-.087l9.379-16.244a.076.076,0,0,1,.076-.044.074.074,0,0,1,.075.044l9.379,16.244A.076.076,0,0,1,2416.421,460.149Z" transform="translate(-2340.723 -387.094)" fill="#00223d"/>
      <path id="Trazado_28395" data-name="Trazado 28395" d="M2407.028,451.634v2.707a1.267,1.267,0,0,0,2.533,0v-2.707a1.267,1.267,0,0,0-2.533,0Z" transform="translate(-2342.051 -388.098)" fill="#00223d"/>
      <path id="Trazado_28396" data-name="Trazado 28396" d="M2408.309,457.973h-.013a1.273,1.273,0,1,0,.013,0Z" transform="translate(-2342.052 -388.935)" fill="#00223d"/>
      <path id="Trazado_28397" data-name="Trazado 28397" d="M2351.176,413.611a1.263,1.263,0,0,0,1.492-.371L2363.5,399.7a1.267,1.267,0,0,0-.99-2.058h-3.365l3.144-6.289a1.267,1.267,0,0,0-1.133-1.833h-9.475a1.268,1.268,0,0,0-1.237.992l-2.707,12.183a1.267,1.267,0,0,0,1.236,1.541h2.6l-1.147,8.03A1.266,1.266,0,0,0,2351.176,413.611Zm-.625-11.9,2.144-9.65h6.411l-3.145,6.289a1.266,1.266,0,0,0,1.133,1.832h2.779l-6.284,7.855.7-4.881a1.267,1.267,0,0,0-1.254-1.446Z" transform="translate(-2335.521 -381.401)" fill="#00223d"/>
      <path id="Trazado_28398" data-name="Trazado 28398" d="M2396.222,413.889a4.657,4.657,0,0,0,6.577,0l1.914-1.914a4.652,4.652,0,0,0,.772-5.558l.78-.78a1.266,1.266,0,0,0-1.791-1.791l-.782.78a4.658,4.658,0,0,0-5.556.771l-1.915,1.915a4.656,4.656,0,0,0,0,6.577Zm1.791-4.786,1.914-1.914a2.118,2.118,0,0,1,2.995,2.995l-1.914,1.914a2.118,2.118,0,0,1-2.995-2.995Z" transform="translate(-2340.712 -382.937)" fill="#00223d"/>
      <path id="Trazado_28399" data-name="Trazado 28399" d="M2410.554,400.875a1.261,1.261,0,0,0,.9-.371l.781-.78a4.654,4.654,0,0,0,5.558-.772l1.49-1.49a4.651,4.651,0,1,0-6.577-6.578l-1.49,1.49a4.658,4.658,0,0,0-.771,5.557l-.781.781a1.267,1.267,0,0,0,.9,2.163Zm2.447-6.708,1.49-1.49a2.118,2.118,0,1,1,2.995,2.995l-1.49,1.49a2.118,2.118,0,0,1-2.995-2.995Z" transform="translate(-2342.3 -381.401)" fill="#00223d"/>
      <path id="Trazado_28400" data-name="Trazado 28400" d="M2404.19,400.645a1.266,1.266,0,1,0,1.791-1.791l-1.354-1.354a1.266,1.266,0,1,0-1.791,1.791Z" transform="translate(-2341.549 -382.239)" fill="#00223d"/>
      <path id="Trazado_28401" data-name="Trazado 28401" d="M2412.233,405.105a1.267,1.267,0,0,0-1.791,1.791l1.354,1.354a1.266,1.266,0,0,0,1.791-1.791Z" transform="translate(-2342.386 -383.076)" fill="#00223d"/>
      <path id="Trazado_28402" data-name="Trazado 28402" d="M2356.534,441.683a1.265,1.265,0,0,0-1.922,0l-8.122,9.476a1.266,1.266,0,0,0,.961,2.09h2.794v10.917a1.267,1.267,0,0,0,1.267,1.266h8.122a1.266,1.266,0,0,0,1.266-1.266V453.25h2.794a1.266,1.266,0,0,0,.962-2.09Zm3.1,9.034a1.266,1.266,0,0,0-1.266,1.266V462.9h-5.589V451.983a1.266,1.266,0,0,0-1.266-1.266H2350.2l5.369-6.263,5.368,6.263Z" transform="translate(-2335.354 -387.094)" fill="#00223d"/>
      <path id="Trazado_28403" data-name="Trazado 28403" d="M2414.663,434.292a1.267,1.267,0,0,0-.254,1.773,17.526,17.526,0,0,1,3.536,10.575,17.685,17.685,0,1,1-17.685-17.685,17.522,17.522,0,0,1,10.574,3.536,1.267,1.267,0,0,0,1.519-2.028,20.148,20.148,0,0,0-25.459,1.021l-7.856-7.856,7.856-7.856a20.241,20.241,0,1,0-1.791-1.791l-7.856,7.856-7.856-7.856a20.144,20.144,0,0,0,1.02-25.458,1.266,1.266,0,1,0-2.027,1.518,17.523,17.523,0,0,1,3.536,10.575,17.685,17.685,0,1,1-17.685-17.686,17.526,17.526,0,0,1,10.575,3.536,1.266,1.266,0,0,0,1.518-2.027,20.037,20.037,0,0,0-12.093-4.041,20.218,20.218,0,1,0,13.365,35.374l7.856,7.856-7.856,7.856a20.251,20.251,0,1,0,1.791,1.791l7.856-7.856,7.856,7.856a20.226,20.226,0,1,0,31.333,1.272,1.267,1.267,0,0,0-1.773-.255Zm-14.4-51.363a17.685,17.685,0,1,1-17.686,17.686,17.705,17.705,0,0,1,17.686-17.686Zm-46.026,81.4a17.685,17.685,0,1,1,17.685-17.685A17.7,17.7,0,0,1,2354.233,464.325Z" transform="translate(-2334.015 -380.397)" fill="#00223d"/>
    </g>
  </g>
</svg>
