<svg id="Grupo_1085011" data-name="Grupo 1085011" xmlns="http://www.w3.org/2000/svg" xmlns:xlink="http://www.w3.org/1999/xlink" width="70.127" height="84.72" viewBox="0 0 70.127 84.72">
  <defs>
    <clipPath id="clip-path">
      <rect id="Rectángulo_380937" data-name="Rectángulo 380937" width="70.127" height="84.72" fill="none"/>
    </clipPath>
  </defs>
  <g id="Grupo_1085000" data-name="Grupo 1085000" clip-path="url(#clip-path)">
    <path id="Trazado_794429" data-name="Trazado 794429" d="M54.748,84.72H50.779c-.039-.183-.191-.156-.321-.176a16.717,16.717,0,0,1-9.428-4.686,1.589,1.589,0,0,0-1.254-.438q-19.056.01-38.112,0c-1.241,0-1.653-.4-1.653-1.611Q.01,47.334,0,16.856a1.45,1.45,0,0,1,1.169-1.634c1.154.317,1.325.548,1.325,1.816q0,29.53-.016,59.06c0,.685.159.855.849.853q17.2-.036,34.4-.022c.25,0,.529.1.758-.078l-1.424-2.721a17.923,17.923,0,0,1-1.012-9.305,16.345,16.345,0,0,1,6.34-10.721c5.536-4.2,11.556-4.818,17.909-2,.582.258.719.193.718-.463q-.025-16.909,0-33.819c0-.638-.186-.768-.789-.765-4.435.026-8.871.015-13.307.014-1.493,0-1.842-.346-1.843-1.841,0-3.941-.024-7.883.019-11.824.008-.768-.209-.932-.948-.93Q25.139,2.515,6.129,2.5c-.275,0-.55.017-.825.026-.714-.008-1.431.016-2.143-.036-.537-.039-.688.129-.681.673C2.511,5.582,2.5,8,2.492,10.425c0,1-.327,1.363-1.325,1.531A1.322,1.322,0,0,1,0,10.432C.021,7.538.01,4.644.011,1.751.012.363.366.014,1.779.014Q23.762.013,45.744,0a2.6,2.6,0,0,1,1.91.752q7.441,6.865,14.925,13.683a2.587,2.587,0,0,1,.935,2.079q-.032,18.354-.026,36.708a1.538,1.538,0,0,0,.589,1.33,16.888,16.888,0,0,1,5.278,8.005,31.367,31.367,0,0,0,.772,3.136v.662c-.306.154-.1.434-.159.648.049.391-.162.817.159,1.171V69.5c-.224.062-.152.257-.179.405-1.373,7.516-5.7,12.328-13.09,14.367a11.071,11.071,0,0,0-2.11.448m-11.755-27.8L43,56.913a1.5,1.5,0,0,0-.269.179c-4.19,4.314-5.536,9.438-3.628,15.093,2.063,6.111,6.606,9.422,13.029,10a12.5,12.5,0,0,0,7.082-1.44,4.159,4.159,0,0,0,.536-.2,14.636,14.636,0,0,0,2.233-24.485,14.188,14.188,0,0,0-11.632-2.9,13.189,13.189,0,0,0-7.178,3.583l-.179.186m16-42.34L47.591,4.121c0,3.5.007,6.775-.008,10.049,0,.507.316.41.6.41q3.429,0,6.857,0H59" transform="translate(0 0)" fill="#080809"/>
    <path id="Trazado_794430" data-name="Trazado 794430" d="M421.956,405.213c-.321-.354-.11-.78-.159-1.171l.079.016.08,0Z" transform="translate(-351.829 -337.038)" fill="#171717"/>
    <path id="Trazado_794431" data-name="Trazado 794431" d="M422.005,400.794l-.08,0-.079-.016c.06-.214-.147-.494.159-.648Z" transform="translate(-351.879 -333.776)" fill="#555252"/>
    <path id="Trazado_794432" data-name="Trazado 794432" d="M31.882,15c.275-.009.55-.026.825-.026q19.01,0,38.019-.018c.738,0,.956.162.948.93-.043,3.941-.022,7.882-.019,11.824,0,1.5.351,1.84,1.843,1.841,4.436,0,8.871.012,13.307-.013.6,0,.79.127.789.765q-.031,16.909,0,33.818c0,.657-.136.722-.718.464-6.353-2.821-12.373-2.206-17.909,2A16.344,16.344,0,0,0,62.622,77.3a17.922,17.922,0,0,0,1.012,9.3q-15.418,0-30.835.017c-.711,0-.938-.165-.937-.913q.032-35.356.021-70.712M51.6,34.983q0-5.085,0-10.169c0-1.328-.4-1.728-1.714-1.728q-7.479,0-14.958,0c-1.289,0-1.716.438-1.717,1.748q0,10.087,0,20.173c0,1.388.378,1.786,1.738,1.788q7.479.007,14.958,0c1.329,0,1.691-.377,1.693-1.725q.006-5.043,0-10.087m.134,18.472q8.224,0,16.448,0a6.409,6.409,0,0,0,.984-.075,1.209,1.209,0,0,0,.076-2.353,5.19,5.19,0,0,0-1.062-.1q-16.489-.007-32.979,0c-1.341,0-2.022.451-1.989,1.314.032.828.67,1.222,1.991,1.222H51.729m-.011,6.777q-8.263,0-16.526,0a6.079,6.079,0,0,0-.986.062,1.12,1.12,0,0,0-.98,1.151,1.148,1.148,0,0,0,.846,1.182,3.435,3.435,0,0,0,1.143.116q9.668,0,19.335,0,6.858,0,13.716,0c1.282,0,1.853-.381,1.872-1.237.02-.894-.541-1.271-1.894-1.274H51.718m-3.949,9.3q-6.317,0-12.634,0c-.275,0-.551,0-.825.025a1.126,1.126,0,0,0-1.074,1.065,1.144,1.144,0,0,0,.81,1.281,2.619,2.619,0,0,0,.975.125q12.676,0,25.351,0a2.9,2.9,0,0,0,.977-.112,1.122,1.122,0,0,0,.823-1.263,1.1,1.1,0,0,0-1.027-1.087,6.707,6.707,0,0,0-.906-.032q-6.235,0-12.469,0m-1.4,9.281q-5.828,0-11.656,0c-.91,0-1.471.459-1.5,1.179-.034.747.561,1.272,1.488,1.312.137.006.275,0,.413,0H57.683a2.694,2.694,0,0,0,1.059-.12,1.132,1.132,0,0,0,.769-1.3,1.114,1.114,0,0,0-1.069-1.052,7.324,7.324,0,0,0-.826-.02H46.374M62.233,44.134v.009c2.147,0,4.293.011,6.44,0,.964-.007,1.441-.421,1.462-1.191a1.236,1.236,0,0,0-1.384-1.3c-4.293-.023-8.586-.014-12.879,0a1.614,1.614,0,0,0-.792.189,1.225,1.225,0,0,0,.631,2.3c2.174.008,4.348,0,6.522,0m.034-18.56c2.174,0,4.348.012,6.522-.005a1.211,1.211,0,0,0,1.284-1.626,1.329,1.329,0,0,0-1.44-.86q-6.316,0-12.631,0c-.988,0-1.611.527-1.58,1.293s.581,1.191,1.571,1.193c2.092.005,4.183,0,6.274,0m.048,9.278c2.119,0,4.238.007,6.356,0,.954,0,1.439-.413,1.463-1.184s-.518-1.3-1.466-1.3q-6.356-.02-12.713,0c-.933,0-1.538.529-1.537,1.262,0,.755.569,1.218,1.54,1.222,2.119.008,4.237,0,6.356,0" transform="translate(-26.577 -12.477)" fill="#f7f4ef"/>
    <path id="Trazado_794433" data-name="Trazado 794433" d="M249.434,322.889a13.188,13.188,0,0,1,7.178-3.583,14.187,14.187,0,0,1,11.633,2.9,14.636,14.636,0,0,1-2.233,24.485,4.16,4.16,0,0,1-.536.2,32.773,32.773,0,0,1-4.206-.036,15.766,15.766,0,0,1-11-6.521,8.978,8.978,0,0,1-1.815-3.559q1.969,2.593,3.938,5.186c1.435,1.884,3.425,2.183,5.135.678,4.384-3.858,8.735-7.752,13.092-11.64a1.286,1.286,0,0,0,.143-2.078c-.677-.8-1.374-1.58-2.074-2.357-1.041-1.157-1.526-1.168-2.677-.142-3.269,2.914-6.552,5.813-9.815,8.734-.369.331-.547.388-.867-.074-.753-1.084-1.579-2.118-2.372-3.174-.816-1.086-1.372-1.164-2.47-.346q-1.422,1.059-2.845,2.115a1.309,1.309,0,0,1-.182-.349,15.718,15.718,0,0,1,.8-7.761,11.416,11.416,0,0,0,1-2.5l-.006.008.179-.186" transform="translate(-206.262 -266.153)" fill="#adce32"/>
    <path id="Trazado_794434" data-name="Trazado 794434" d="M11.174,15.012q0,35.356-.021,70.712c0,.748.226.914.938.913q15.417-.034,30.835-.017L44.35,89.34c-.229.174-.508.078-.758.078q-17.2.009-34.4.022c-.691,0-.85-.168-.849-.854q.031-29.53.016-59.06c0-1.268-.171-1.5-1.325-1.816q0-1.633,0-3.266c1-.168,1.322-.529,1.325-1.531.007-2.421.02-4.843-.011-7.264-.007-.544.144-.712.681-.673.711.052,1.428.028,2.143.036" transform="translate(-5.869 -12.488)" fill="#ecdecb"/>
    <path id="Trazado_794435" data-name="Trazado 794435" d="M235.412,343.19a11.408,11.408,0,0,1-1,2.5,15.72,15.72,0,0,0-.8,7.761,1.308,1.308,0,0,0,.182.349,1.447,1.447,0,0,0,.029,1.98c.279.359.523.744.783,1.117a8.974,8.974,0,0,0,1.815,3.559,15.766,15.766,0,0,0,11,6.521,32.8,32.8,0,0,0,4.206.036,12.5,12.5,0,0,1-7.082,1.44c-6.423-.574-10.966-3.885-13.029-10-1.909-5.655-.562-10.779,3.628-15.093a1.5,1.5,0,0,1,.269-.179" transform="translate(-192.413 -286.277)" fill="#0b481e"/>
    <path id="Trazado_794436" data-name="Trazado 794436" d="M298.346,35.311h-3.954q-3.429,0-6.857,0c-.286,0-.6.1-.6-.41.015-3.274.008-6.547.008-10.049l11.406,10.46" transform="translate(-239.349 -20.73)" fill="#ebdeca"/>
    <path id="Trazado_794437" data-name="Trazado 794437" d="M259.428,342.121l-.179.186.179-.186" transform="translate(-216.256 -285.385)" fill="#4b67ad"/>
    <path id="Trazado_794438" data-name="Trazado 794438" d="M58.351,75.855q0,5.043,0,10.087c0,1.348-.363,1.723-1.693,1.724q-7.479.009-14.958,0c-1.36,0-1.738-.4-1.738-1.788q0-10.087,0-20.173c0-1.31.427-1.747,1.717-1.748q7.479,0,14.958,0c1.314,0,1.712.4,1.714,1.728q.007,5.084,0,10.169m-15.9-.081c0,2.892.009,5.784-.009,8.677,0,.487.054.727.649.723q6.071-.042,12.142,0c.536,0,.625-.173.624-.657q-.023-8.718,0-17.436c0-.508-.133-.645-.644-.642q-6.03.033-12.059,0c-.6,0-.721.186-.716.746.027,2.864.012,5.729.012,8.594" transform="translate(-33.333 -53.349)" fill="#090908"/>
    <path id="Trazado_794439" data-name="Trazado 794439" d="M58.5,234.342H41.97c-1.32,0-1.959-.394-1.99-1.222-.033-.863.648-1.314,1.989-1.314q16.489,0,32.979,0a5.194,5.194,0,0,1,1.062.1,1.209,1.209,0,0,1-.076,2.353,6.424,6.424,0,0,1-.984.075q-8.224.007-16.448,0" transform="translate(-33.348 -193.364)" fill="#171717"/>
    <path id="Trazado_794440" data-name="Trazado 794440" d="M58.575,287.965H75.1c1.353,0,1.913.38,1.894,1.274-.019.856-.59,1.237-1.872,1.237q-6.858,0-13.717,0-9.668,0-19.335,0a3.431,3.431,0,0,1-1.143-.117,1.148,1.148,0,0,1-.846-1.182,1.12,1.12,0,0,1,.98-1.151,6.06,6.06,0,0,1,.986-.062q8.263-.005,16.526,0" transform="translate(-33.435 -240.21)" fill="#0f0f0f"/>
    <path id="Trazado_794441" data-name="Trazado 794441" d="M54.616,344.039q6.235,0,12.469,0a6.687,6.687,0,0,1,.906.032,1.1,1.1,0,0,1,1.027,1.087,1.122,1.122,0,0,1-.823,1.263,2.913,2.913,0,0,1-.977.112q-12.676,0-25.351,0a2.62,2.62,0,0,1-.975-.125,1.144,1.144,0,0,1-.81-1.28,1.126,1.126,0,0,1,1.074-1.065c.274-.023.55-.025.825-.025q6.317,0,12.634,0" transform="translate(-33.424 -286.985)" fill="#0c0d0c"/>
    <path id="Trazado_794442" data-name="Trazado 794442" d="M53.17,399.994H64.413a7.332,7.332,0,0,1,.826.02,1.114,1.114,0,0,1,1.069,1.052,1.132,1.132,0,0,1-.769,1.3,2.691,2.691,0,0,1-1.058.12H41.912c-.138,0-.276,0-.413,0-.928-.039-1.522-.564-1.488-1.311.033-.72.594-1.177,1.5-1.179q5.828-.01,11.656,0" transform="translate(-33.374 -333.66)" fill="#090a0a"/>
    <path id="Trazado_794443" data-name="Trazado 794443" d="M175.812,178.323c-2.174,0-4.348.005-6.522,0a1.225,1.225,0,0,1-.631-2.3,1.616,1.616,0,0,1,.792-.189c4.293-.011,8.586-.02,12.879,0a1.236,1.236,0,0,1,1.384,1.3c-.021.77-.5,1.184-1.462,1.191-2.147.015-4.293,0-6.44,0v-.009" transform="translate(-140.157 -146.666)" fill="#0c0d0c"/>
    <path id="Trazado_794444" data-name="Trazado 794444" d="M175.744,66.446c-2.092,0-4.183,0-6.274,0-.99,0-1.54-.429-1.571-1.193s.592-1.291,1.58-1.293q6.316-.009,12.631,0a1.329,1.329,0,0,1,1.44.86,1.211,1.211,0,0,1-1.284,1.626c-2.174.017-4.348.005-6.522.006" transform="translate(-140.054 -53.349)" fill="#080809"/>
    <path id="Trazado_794445" data-name="Trazado 794445" d="M175.781,122.37c-2.119,0-4.238.006-6.356,0-.971,0-1.539-.467-1.54-1.222,0-.733.6-1.26,1.537-1.262q6.356-.016,12.713,0c.948,0,1.49.519,1.466,1.3s-.509,1.18-1.463,1.184c-2.119.009-4.238,0-6.356,0" transform="translate(-140.043 -99.995)" fill="#090a0a"/>
    <path id="Trazado_794446" data-name="Trazado 794446" d="M248.427,370.028c-.26-.373-.5-.759-.783-1.117a1.447,1.447,0,0,1-.029-1.98q1.423-1.057,2.845-2.115c1.1-.818,1.655-.74,2.471.346.794,1.056,1.62,2.089,2.372,3.174.32.461.5.4.867.074,3.263-2.921,6.546-5.82,9.815-8.734,1.151-1.026,1.636-1.015,2.677.142.7.778,1.4,1.559,2.074,2.357a1.286,1.286,0,0,1-.144,2.078c-4.357,3.888-8.708,7.782-13.092,11.64-1.71,1.5-3.7,1.205-5.135-.678q-1.973-2.59-3.938-5.186m18.758-8.044c-.1.084-.206.166-.306.255l-10.187,9.054c-1.007.9-1.653.834-2.462-.24-.827-1.1-1.688-2.175-2.46-3.312-.4-.594-.65-.274-1.017-.022-.39.268-.578.447-.2.929,1.256,1.6,2.458,3.246,3.678,4.874.781,1.042.968,1.073,1.941.211q5.53-4.907,11.047-9.828c1.018-.908,1.009-.917-.033-1.921" transform="translate(-206.237 -299.404)" fill="#090a0a"/>
    <path id="Trazado_794447" data-name="Trazado 794447" d="M54.924,88.246c0-2.865.015-5.73-.012-8.594-.005-.559.116-.75.716-.746q6.029.042,12.059,0c.511,0,.646.134.644.642q-.026,8.718,0,17.436c0,.484-.088.66-.624.657q-6.071-.037-12.142,0c-.6,0-.652-.235-.649-.723.017-2.892.009-5.784.009-8.677" transform="translate(-45.805 -65.821)" fill="#ffa686"/>
    <path id="Trazado_794448" data-name="Trazado 794448" d="M282.823,377.362c1.042,1,1.051,1.014.033,1.921q-5.518,4.921-11.047,9.828c-.973.863-1.159.832-1.941-.211-1.221-1.629-2.422-3.273-3.678-4.874-.378-.482-.19-.661.2-.929.367-.253.613-.572,1.017.022.772,1.136,1.633,2.213,2.46,3.312.809,1.075,1.455,1.135,2.462.24l10.187-9.054c.1-.089.205-.171.306-.255" transform="translate(-221.876 -314.782)" fill="#f9d868"/>
  </g>
</svg>
