<svg xmlns="http://www.w3.org/2000/svg" width="134.685" height="135.626" viewBox="0 0 134.685 135.626">
  <g id="Grupo_1084940" data-name="Grupo 1084940" transform="translate(4201 9622)">
    <path id="Trazado_712755" data-name="Trazado 712755" d="M202.833,234.76l-29.36-16.647a.945.945,0,0,0-.94,0l-29.458,16.7,3.867,9.256L172.9,251.73l30.126-7.938Z" transform="translate(-4306.662 -9782.268)" fill="#c3e937"/>
    <path id="Trazado_712756" data-name="Trazado 712756" d="M194.2,352.576l-40.592-7.156-36.779,8.833v12.021l36.4,21.194a.949.949,0,0,0,.956,0l36.255-21.109-.05-.085Z" transform="translate(-4287.362 -9875.957)" fill="#c3e937"/>
    <g id="Grupo_1008309" data-name="Grupo 1008309" transform="translate(-4199.014 -9547.506)">
      <path id="Trazado_712757" data-name="Trazado 712757" d="M320.7,301.2a.952.952,0,0,1,.011,1.65l-28.152,16.39-.05-.085L255.726,298.3l29.929-16.97Z" transform="translate(-190.469 -281.33)" fill="#adce32"/>
      <path id="Trazado_712758" data-name="Trazado 712758" d="M44.706,281.54l29.828,16.915L37.755,319.309h0L9.751,303a.951.951,0,0,1,.008-1.65Z" transform="translate(-9.277 -281.484)" fill="#adce32"/>
    </g>
    <path id="Trazado_712759" data-name="Trazado 712759" d="M192.353,42.889A35.39,35.39,0,1,0,151.171,77.8l4.613,5.429a1.549,1.549,0,0,0,2.361,0l4.613-5.429A35.4,35.4,0,0,0,192.353,42.889Z" transform="translate(-4290.854 -9627.513)" fill="#f37c7c"/>
    <path id="Trazado_712760" data-name="Trazado 712760" d="M137.247,50.444A40.465,40.465,0,0,1,171.255,10.5a35.4,35.4,0,1,0-24.179,66.372A40.3,40.3,0,0,1,137.247,50.444Z" transform="translate(-4290.854 -9627.515)" fill="#ee6161"/>
    <g id="Grupo_1008311" data-name="Grupo 1008311" transform="translate(-4159.855 -9610.587)">
      <path id="Trazado_712761" data-name="Trazado 712761" d="M165.409,88.035a25.96,25.96,0,1,1,17.722,6.993A25.873,25.873,0,0,1,165.409,88.035Z" transform="translate(-157.166 -43.1)" fill="#c8effe"/>
    </g>
    <path id="Trazado_712762" data-name="Trazado 712762" d="M157.166,69.281a25.866,25.866,0,0,0,7.745,18.495A40.508,40.508,0,0,1,181.1,43.4,25.967,25.967,0,0,0,157.166,69.281Z" transform="translate(-4317.021 -9653.905)" fill="#99e6fc"/>
    <g id="XMLID_286_" transform="translate(-4151.612 -9575.059)">
      <g id="Grupo_1008312" data-name="Grupo 1008312" transform="translate(0 0)">
        <path id="Trazado_712763" data-name="Trazado 712763" d="M223.73,186.276l.2.228a25.96,25.96,0,0,1-35.638.177L194,181.8a18.845,18.845,0,0,1,24.5,0Z" transform="translate(-188.296 -177.275)" fill="#fdd79b"/>
      </g>
    </g>
    <g id="Grupo_1008313" data-name="Grupo 1008313" transform="translate(-4145.763 -9596.668)">
      <path id="Trazado_712764" data-name="Trazado 712764" d="M261.272,105.8H256.1v-3.192a6.936,6.936,0,0,1,6.936-6.936h4.042a1.127,1.127,0,0,1,1.127,1.127v2.065A6.936,6.936,0,0,1,261.272,105.8Z" transform="translate(-243.998 -95.672)" fill="#fee97d"/>
      <path id="Trazado_712765" data-name="Trazado 712765" d="M217.323,116.53h5.169v-3.192a6.936,6.936,0,0,0-6.936-6.936h-4.042a1.127,1.127,0,0,0-1.127,1.127v2.065A6.936,6.936,0,0,0,217.323,116.53Z" transform="translate(-210.387 -103.561)" fill="#fee97d"/>
    </g>
    <g id="Grupo_1008315" data-name="Grupo 1008315" transform="translate(-4189.757 -9560.251)">
      <circle id="Elipse_5143" data-name="Elipse 5143" cx="6.756" cy="6.756" r="6.756" transform="translate(49.343 40.428)" fill="#f37c7c"/>
      <circle id="Elipse_5144" data-name="Elipse 5144" cx="6.756" cy="6.756" r="6.756" transform="translate(0 0)" fill="#f37c7c"/>
      <circle id="Elipse_5145" data-name="Elipse 5145" cx="6.756" cy="6.756" r="6.756" transform="translate(98.488 0)" fill="#f37c7c"/>
    </g>
    <g id="Grupo_1008317" data-name="Grupo 1008317" transform="translate(-4201 -9622)">
      <path id="Trazado_712766" data-name="Trazado 712766" d="M134.973,258.576l-14.724-8.348v-7.27a8.742,8.742,0,1,0-3.972,0v5.018L95.75,236.337a1.986,1.986,0,0,0-1.959,3.455l1.131.641-25.9,14.687-25.8-14.63.965-.547a1.986,1.986,0,1,0-1.959-3.455l-20.461,11.6v-5.131a8.741,8.741,0,1,0-3.972,0v7.383L3.265,258.576a2.937,2.937,0,0,0-.029,5.093l28.016,16.312h0l36.387,21.186a2.943,2.943,0,0,0,2.956,0l44.2-25.734a1.986,1.986,0,1,0-2-3.432l-6.907,4.022L73.046,257.4l25.9-14.687,17.329,9.826v7.76a1.986,1.986,0,1,0,3.972,0v-5.508l11.2,6.349L120.361,267.6a1.986,1.986,0,1,0,2,3.432L135,263.669a2.937,2.937,0,0,0-.03-5.093Zm-21.479-24.129a4.77,4.77,0,1,1,4.77,4.77A4.775,4.775,0,0,1,113.494,234.447Zm-98.488,0a4.77,4.77,0,1,1,4.77,4.77A4.775,4.775,0,0,1,15.006,234.447Zm2.784,20.46v5.4a1.986,1.986,0,1,0,3.972,0v-7.647l17.429-9.882,25.8,14.63L32.251,275.968,6.791,261.143Zm84.126,23.431-32.8,19.1L36.224,278.281l32.8-18.6Z" transform="translate(-1.777 -165.941)"/>
      <path id="Trazado_712767" data-name="Trazado 712767" d="M158.385,83.807v0a1.986,1.986,0,0,0,.331.307,27.94,27.94,0,1,0-2.3-38.778,1.986,1.986,0,1,0,3.012,2.589,23.972,23.972,0,1,1,36,31.655l-1.621-1.387a1.986,1.986,0,1,0-2.582,3.018l1.292,1.105a23.926,23.926,0,0,1-29.557.19l3.932-3.364a16.921,16.921,0,0,1,17.877-2.561,1.986,1.986,0,0,0,1.631-3.622,20.683,20.683,0,0,0-6.564-1.73V63.616h3.183a8.932,8.932,0,0,0,8.922-8.922V52.629a3.116,3.116,0,0,0-3.113-3.113h-4.042a8.932,8.932,0,0,0-8.027,5.031,8.882,8.882,0,0,0-5.845-2.19h-4.042a3.117,3.117,0,0,0-3.113,3.113v2.065a8.932,8.932,0,0,0,8.922,8.922h3.183v4.78a20.839,20.839,0,0,0-11.554,4.888l-4.3,3.678a23.971,23.971,0,0,1-4.649-25.2,1.986,1.986,0,1,0-3.685-1.481,27.943,27.943,0,0,0,6.709,30.681Zm21.451-25.368a4.956,4.956,0,0,1,4.95-4.95h3.183V54.7a4.956,4.956,0,0,1-4.95,4.95h-3.183Zm-7.155,4.048a4.956,4.956,0,0,1-4.95-4.95V56.329h3.183a4.956,4.956,0,0,1,4.95,4.95v1.207Z" transform="translate(-110.508 -26.17)"/>
      <path id="Trazado_712768" data-name="Trazado 712768" d="M144.607,74.123l4.148,4.882a3.535,3.535,0,0,0,5.388,0l4.148-4.882a37.369,37.369,0,1,0-13.684,0ZM118.051,36.776a33.5,33.5,0,0,1,33.156-32.8h.244a33.405,33.405,0,0,1,5.469,66.359,1.987,1.987,0,0,0-1.191.674l-4.28,5.037L147.169,71a1.986,1.986,0,0,0-1.191-.674,33.41,33.41,0,0,1-27.928-33.555Z" transform="translate(-84.339 0)"/>
      <path id="Trazado_712769" data-name="Trazado 712769" d="M229.846,395.639v6.233a1.986,1.986,0,0,0,3.972,0v-6.233a8.741,8.741,0,1,0-3.972,0Zm1.986-13.281a4.77,4.77,0,1,1-4.77,4.77A4.775,4.775,0,0,1,231.831,382.358Z" transform="translate(-164.489 -278.194)"/>
    </g>
  </g>
</svg>
