<svg id="Grupo_1084950" data-name="Grupo 1084950" xmlns="http://www.w3.org/2000/svg" xmlns:xlink="http://www.w3.org/1999/xlink" width="81" height="80.949" viewBox="0 0 81 80.949">
  <defs>
    <clipPath id="clip-path">
      <rect id="Rectángulo_380919" data-name="Rectángulo 380919" width="81" height="80.949" fill="none"/>
    </clipPath>
  </defs>
  <g id="Grupo_1084950-2" data-name="Grupo 1084950" clip-path="url(#clip-path)">
    <path id="Trazado_794314" data-name="Trazado 794314" d="M73.409,80.949Q68.432,76,63.461,71.042a1.3,1.3,0,0,1,0-2.074c.47-.5.951-.988,1.456-1.45.3-.278.381-.455.039-.792-2.066-2.033-4.124-4.074-6.144-6.153-.413-.425-.611-.169-.875.068a34.413,34.413,0,0,1-18.133,8.475,32.921,32.921,0,0,1-16.692-1.631C11.235,62.972,3.549,54.533.884,42.085c-2.718-12.7.869-23.738,10.215-32.767A32.6,32.6,0,0,1,29.048.459,34.61,34.61,0,0,1,65.291,18.042a33.141,33.141,0,0,1,4.019,12.667A34.753,34.753,0,0,1,65.88,50.3a31.937,31.937,0,0,1-5.146,7.53c-.4.438-.38.685.049,1.1q2.973,2.9,5.868,5.871c.422.435.649.417,1.013-.02a17.15,17.15,0,0,1,1.222-1.236c.887-.867,1.458-.864,2.358.018.64.627,1.269,1.265,1.9,1.9q3.382,3.382,6.766,6.762A6.544,6.544,0,0,1,81,73.517v.791q-3.2,3.447-6.642,6.642Zm2.543-5.209c.547-.526,1.082-1.066,1.646-1.573.282-.253.191-.406-.03-.626q-3.6-3.586-7.187-7.187c-.22-.221-.374-.311-.626-.03-.507.564-1.047,1.1-1.574,1.645-.547.53-1.076,1.08-1.648,1.581-.385.338-.387.557-.01.926,1.843,1.8,3.647,3.649,5.486,5.458.631.621,1.252,1.812,1.921,1.691.763-.138,1.356-1.215,2.022-1.884M57.6,57.379a30.751,30.751,0,0,0,2.852-3.256,31.608,31.608,0,0,0,5.915-25.477A30.783,30.783,0,0,0,55.129,9.83,31.471,31.471,0,0,0,28.437,3.2a30.738,30.738,0,0,0-16.23,8.643.6.6,0,0,0-.132.081C3.958,20.469,1.026,30.524,3.52,42.05a30.751,30.751,0,0,0,11.5,18.057,31.31,31.31,0,0,0,16.053,6.582A32,32,0,0,0,57.6,57.379" transform="translate(0 0)" fill="#090a0b"/>
    <path id="Trazado_794315" data-name="Trazado 794315" d="M71.708,120.241a32,32,0,0,1-26.524,9.311,31.31,31.31,0,0,1-16.053-6.582,30.751,30.751,0,0,1-11.5-18.057c-2.494-11.525.437-21.581,8.555-30.128a.6.6,0,0,1,.132-.081A33.781,33.781,0,0,0,31.4,79.788c-.648.725-1.339,1.417-1.937,2.182a24.591,24.591,0,0,0-5.216,19.3,24.829,24.829,0,0,0,20.712,20.926,24.886,24.886,0,0,0,13.881-1.741,27.129,27.129,0,0,0,7.794-5.281q2.448,2.622,5.07,5.069" transform="translate(-14.109 -62.863)" fill="#ffd947"/>
    <path id="Trazado_794316" data-name="Trazado 794316" d="M122.407,70.96q-2.62-2.449-5.07-5.069c.113-.142.218-.292.341-.425A24.685,24.685,0,0,0,124.193,52.1a23.9,23.9,0,0,0-2.614-15.477,25,25,0,0,0-32.2-11.028A26.906,26.906,0,0,0,82.1,30.507a33.794,33.794,0,0,1-5.087-5.084,30.735,30.735,0,0,1,16.23-8.643,31.47,31.47,0,0,1,26.692,6.632,30.783,30.783,0,0,1,11.238,18.815A31.608,31.608,0,0,1,125.26,67.7a30.766,30.766,0,0,1-2.852,3.256M99.746,18.715a1.269,1.269,0,0,0-1.381,1.014,1.21,1.21,0,0,0,1,1.453,3.983,3.983,0,0,0,.934.114,25.462,25.462,0,0,1,8.555,1.6,26.79,26.79,0,0,1,10.382,6.833c.873.919,1.637,1.92,2.432,2.9a1.278,1.278,0,1,0,1.992-1.589,29.914,29.914,0,0,0-10.767-9.184,28.9,28.9,0,0,0-13.143-3.142M129.2,47.541l.043,0c-.119-1.148-.221-2.3-.362-3.443a28.118,28.118,0,0,0-1.9-7.045,1.245,1.245,0,0,0-1.411-.879,1.192,1.192,0,0,0-1.05,1.026,1.977,1.977,0,0,0,.226,1.137,27.966,27.966,0,0,1,1.5,5.453,41.9,41.9,0,0,1,.42,4.463,1.267,1.267,0,1,0,2.529,0c.009-.236,0-.473,0-.71" transform="translate(-64.808 -13.582)" fill="#ffd947"/>
    <path id="Trazado_794317" data-name="Trazado 794317" d="M427.612,436.569c-.667.669-1.26,1.746-2.022,1.884-.67.121-1.29-1.07-1.921-1.69-1.839-1.809-3.643-3.653-5.486-5.458-.377-.369-.376-.588.01-.926.572-.5,1.1-1.052,1.648-1.581q3.809,3.963,7.772,7.771" transform="translate(-351.66 -360.829)" fill="#566c6f"/>
    <path id="Trazado_794318" data-name="Trazado 794318" d="M437.9,426.9q-3.964-3.808-7.772-7.771c.527-.547,1.066-1.081,1.574-1.645.253-.281.406-.192.626.03q3.586,3.6,7.187,7.187c.221.22.311.373.03.626-.564.507-1.1,1.047-1.646,1.573" transform="translate(-361.952 -351.161)" fill="#869797"/>
    <path id="Trazado_794319" data-name="Trazado 794319" d="M69.665,69.1a26.906,26.906,0,0,1,7.273-4.913,25,25,0,0,1,32.2,11.029A23.9,23.9,0,0,1,111.756,90.7a24.685,24.685,0,0,1-6.515,13.367c-.123.133-.228.283-.341.425A27.129,27.129,0,0,1,97.1,109.77a24.886,24.886,0,0,1-13.881,1.741A24.829,24.829,0,0,1,62.512,90.584a24.591,24.591,0,0,1,5.216-19.3c.6-.765,1.289-1.456,1.937-2.182m33.226,33.633a12.578,12.578,0,0,0,1.807-1.977,21.95,21.95,0,0,0,4.486-17.337A22.284,22.284,0,0,0,83.855,64.835a21.446,21.446,0,0,0-12.32,6.139.546.546,0,0,0-.133.077c-6.279,6.665-8.206,14.427-5.344,23.115,2.255,6.844,7.034,11.443,13.845,13.859a21.431,21.431,0,0,0,10.875.918,21.748,21.748,0,0,0,12.113-6.206" transform="translate(-52.37 -52.179)" fill="#080a0b"/>
    <path id="Trazado_794320" data-name="Trazado 794320" d="M212.965,32.369a28.894,28.894,0,0,1,13.143,3.141,29.916,29.916,0,0,1,10.767,9.184,1.278,1.278,0,1,1-1.992,1.589c-.794-.982-1.558-1.983-2.432-2.9a26.79,26.79,0,0,0-10.382-6.834,25.466,25.466,0,0,0-8.555-1.6,3.989,3.989,0,0,1-.934-.114,1.21,1.21,0,0,1-1-1.453,1.269,1.269,0,0,1,1.381-1.014" transform="translate(-178.028 -27.236)" fill="#fafdfe"/>
    <path id="Trazado_794321" data-name="Trazado 794321" d="M381.3,153.794c0,.237.008.474,0,.71a1.267,1.267,0,1,1-2.529,0,41.9,41.9,0,0,0-.42-4.463,27.966,27.966,0,0,0-1.5-5.453,1.977,1.977,0,0,1-.226-1.137,1.191,1.191,0,0,1,1.05-1.026,1.245,1.245,0,0,1,1.411.879,28.118,28.118,0,0,1,1.9,7.045c.141,1.145.242,2.3.362,3.443l-.043,0" transform="translate(-316.907 -119.835)" fill="#fafdfe"/>
    <path id="Trazado_794322" data-name="Trazado 794322" d="M120.907,84.608a22.294,22.294,0,0,1,37.649,12.449,21.951,21.951,0,0,1-4.486,17.337,12.585,12.585,0,0,1-1.807,1.977,1.658,1.658,0,0,0-.57-.737q-2.421-2.43-4.847-4.855c-.2-.2-.469-.358-.475-.693q3.554-.014,7.108-.028c1.27,0,1.884-.411,1.907-1.27.025-.9-.58-1.366-1.914-1.31-.687.029-.8-.2-.8-.83.025-6.188.016-12.377.014-18.565,0-1.366-.418-1.785-1.788-1.79q-2.528-.009-5.056,0c-1.525,0-1.868.34-1.869,1.839,0,6.188-.008,12.377.012,18.565,0,.617-.122.91-.781.7a10.532,10.532,0,0,0-2.8-2.862q-.018-5.255-.037-10.509c0-1.056-.413-1.562-1.422-1.583q-2.923-.06-5.848,0c-.988.019-1.413.521-1.435,1.5-.009.421-.014.842-.021,1.263-.338,0-.493-.278-.693-.474-.955-.942-1.9-1.893-2.85-2.841-.064-.687-.248-1.289-1.045-1.439-.306-.058-.617-.091-.926-.136.005-.371-.3-.541-.513-.758-1.391-1.4-2.792-2.793-4.184-4.194-.217-.218-.513-.391-.524-.756" transform="translate(-101.742 -65.813)" fill="#dee3e3"/>
    <path id="Trazado_794323" data-name="Trazado 794323" d="M84.959,118.575c.011.365.307.538.524.756,1.392,1.4,2.793,2.793,4.184,4.194.216.217.518.387.513.758-1.6.019-3.209.043-4.813.055-1.572.012-1.974.4-1.974,1.948q0,6.837,0,13.674c0,.468.2,1.056-.109,1.367-.216.219-.8.066-1.211.1-.879.081-1.393.584-1.374,1.32a1.365,1.365,0,0,0,1.436,1.274c.21.014.421,0,.632,0q12.8,0,25.609,0c.684,0,1.368.017,2.053.026.006.335.277.494.475.693q2.42,2.431,4.847,4.855a1.657,1.657,0,0,1,.57.737,21.749,21.749,0,0,1-12.113,6.206,21.432,21.432,0,0,1-10.875-.918c-6.811-2.416-11.591-7.016-13.845-13.859-2.862-8.688-.935-16.45,5.344-23.115a.546.546,0,0,1,.133-.077" transform="translate(-65.794 -99.78)" fill="#c3cbcb"/>
    <path id="Trazado_794324" data-name="Trazado 794324" d="M123.72,152.988c-.684-.009-1.368-.026-2.053-.026q-12.8,0-25.609,0c-.211,0-.422.011-.632,0a1.365,1.365,0,0,1-1.436-1.274c-.019-.736.5-1.238,1.374-1.32.415-.038,1,.115,1.211-.1.306-.311.109-.9.109-1.367q.011-6.837,0-13.674c0-1.547.4-1.936,1.974-1.948,1.6-.012,3.209-.036,4.813-.055.309.045.62.078.926.136.8.149.981.752,1.045,1.439q-.017,7.542-.041,15.083c0,.4.157.494.514.488.869-.015,1.738-.02,2.606,0,.377.01.495-.11.493-.492-.02-3.922-.022-7.845-.029-11.767.007-.421.012-.842.021-1.263.022-.981.447-1.483,1.435-1.5q2.923-.057,5.848,0c1.009.021,1.417.527,1.422,1.583q.022,5.255.037,10.509c-.011.811-.016,1.622-.037,2.433-.008.3.033.505.413.489.809-.034,1.619-.042,2.428-.06.659.212.783-.08.781-.7-.02-6.188-.013-12.377-.012-18.565,0-1.5.344-1.836,1.869-1.839q2.528,0,5.056,0c1.37,0,1.788.424,1.788,1.79,0,6.188.011,12.377-.014,18.565,0,.633.111.859.8.83,1.334-.056,1.938.408,1.914,1.31-.023.859-.638,1.265-1.907,1.27q-3.554.012-7.108.028m.156-11.868c0,2.842.02,5.684-.016,8.525-.008.612.176.77.752.733.734-.047,1.473-.03,2.209,0,.449.015.658-.088.657-.605q-.024-8.722,0-17.445c0-.482-.192-.568-.608-.555a20.391,20.391,0,0,1-2.288-.008c-.629-.051-.724.2-.719.756.027,2.868.013,5.736.013,8.6m-21.03,2.024c0-2.213-.012-4.427.01-6.64,0-.464-.091-.662-.6-.634-.814.044-1.633.026-2.45.006-.381-.01-.5.135-.5.505q.013,6.719,0,13.438c0,.439.195.527.575.519.79-.017,1.582-.035,2.371.006.511.027.611-.175.606-.639-.021-2.187-.009-4.374-.009-6.561m12.319,1.057c0-1.869-.016-3.738.011-5.606.007-.514-.142-.7-.666-.669-.787.04-1.579.022-2.368.006-.372-.008-.583.062-.581.51q.019,5.685,0,11.37c0,.447.214.52.586.513.789-.015,1.581-.036,2.368.006.539.029.665-.183.659-.683-.024-1.816-.009-3.632-.009-5.448" transform="translate(-79.091 -108.714)" fill="#0b0a09"/>
    <path id="Trazado_794325" data-name="Trazado 794325" d="M169.6,167.832c.007,3.922.01,7.845.029,11.767,0,.382-.115.5-.493.492-.868-.023-1.738-.017-2.606,0-.356.006-.515-.092-.514-.488q.033-7.542.041-15.083c.949.948,1.9,1.9,2.85,2.841.2.2.354.474.693.474" transform="translate(-139.702 -138.44)" fill="#bfc7c7"/>
    <path id="Trazado_794326" data-name="Trazado 794326" d="M246.5,247.138c-.809.018-1.619.026-2.428.06-.38.016-.421-.187-.413-.489.022-.811.026-1.622.037-2.433a10.535,10.535,0,0,1,2.8,2.862" transform="translate(-205.04 -205.556)" fill="#c3cbcb"/>
    <path id="Trazado_794327" data-name="Trazado 794327" d="M282.451,154.724c0-2.868.015-5.736-.013-8.6-.005-.559.09-.807.719-.756a20.394,20.394,0,0,0,2.288.008c.416-.013.609.073.608.555q-.022,8.722,0,17.445c0,.517-.208.62-.657.605-.736-.025-1.476-.042-2.209,0-.576.037-.76-.121-.753-.732.036-2.841.016-5.683.016-8.525" transform="translate(-237.666 -122.317)" fill="#ffa686"/>
    <path id="Trazado_794328" data-name="Trazado 794328" d="M131.058,178.59c0,2.187-.012,4.374.009,6.561,0,.464-.1.666-.606.639-.788-.041-1.581-.023-2.371-.006-.38.008-.576-.079-.575-.519q.017-6.719,0-13.438c0-.371.116-.515.5-.505.816.021,1.635.038,2.45-.006.513-.028.609.17.6.634-.021,2.213-.01,4.426-.01,6.64" transform="translate(-107.303 -144.159)" fill="#ffd947"/>
    <path id="Trazado_794329" data-name="Trazado 794329" d="M208.449,190.564c0,1.816-.014,3.632.009,5.448.006.5-.12.711-.659.683-.787-.042-1.579-.021-2.368-.006-.372.007-.587-.066-.586-.513q.017-5.685,0-11.37c0-.448.209-.518.581-.51.789.016,1.58.035,2.368-.006.524-.027.673.155.666.669-.027,1.868-.011,3.737-.011,5.606" transform="translate(-172.375 -155.076)" fill="#556b6e"/>
  </g>
</svg>
