<svg xmlns="http://www.w3.org/2000/svg" width="399.857" height="63.723" viewBox="0 0 399.857 63.723">
  <g id="Grupo_1085506" data-name="Grupo 1085506" transform="translate(-810.144 -4558.83)">
    <g id="Grupo_1085505" data-name="Grupo 1085505">
      <g id="Grupo_1085504" data-name="Grupo 1085504">
        <g id="Grupo_1085503" data-name="Grupo 1085503">
          <g id="Grupo_1085502" data-name="Grupo 1085502">
            <g id="Grupo_1085501" data-name="Grupo 1085501">
              <g id="Grupo_1085500" data-name="Grupo 1085500">
                <path id="Trazado_794960" data-name="Trazado 794960" d="M2.762-3.507,2.146,0h-2L1.873-9.953l3.486.007a3.488,3.488,0,0,1,2.536.9A2.777,2.777,0,0,1,8.7-6.713a3.143,3.143,0,0,1-1.22,2.338A4.44,4.44,0,0,1,4.648-3.5Zm.28-1.661,1.668.014a2.109,2.109,0,0,0,1.34-.417A1.678,1.678,0,0,0,6.686-6.7a1.441,1.441,0,0,0-.229-1.135,1.24,1.24,0,0,0-.981-.451L3.589-8.292Zm10.384,4.4a2.554,2.554,0,0,1-2.037.9A1.9,1.9,0,0,1,9.775-.629a2.8,2.8,0,0,1-.424-1.982l.8-4.785h1.928l-.813,4.811a1.9,1.9,0,0,0-.007.424.7.7,0,0,0,.759.7A1.762,1.762,0,0,0,13.5-2.147L14.424-7.4h1.941L15.08,0h-1.8ZM19.564-7.4l-.164.875a2.661,2.661,0,0,1,2.153-1,1.774,1.774,0,0,1,1.545.766A3.085,3.085,0,0,1,23.461-4.7L22.682,0H20.754l.793-4.724a2.212,2.212,0,0,0,.014-.485.783.783,0,0,0-.875-.718,1.659,1.659,0,0,0-1.36.7L18.4,0H16.475L17.76-7.4ZM28.1-9.215,27.781-7.4h1.23l-.253,1.449h-1.23L26.9-2.242a.942.942,0,0,0,.055.533q.1.185.465.2.109.007.588-.034L27.87-.034a3.242,3.242,0,0,1-1.107.157,1.737,1.737,0,0,1-1.415-.595,2.149,2.149,0,0,1-.383-1.572l.636-3.9H24.555L24.808-7.4h1.046l.314-1.818Zm4.771,1.682a2.967,2.967,0,0,1,1.685.5A2.83,2.83,0,0,1,35.6-5.684a4.166,4.166,0,0,1,.236,1.9A4.5,4.5,0,0,1,34.607-.926,3.465,3.465,0,0,1,31.965.137a2.958,2.958,0,0,1-1.668-.5A2.819,2.819,0,0,1,29.258-1.7a4.075,4.075,0,0,1-.239-1.887,4.633,4.633,0,0,1,1.244-2.912A3.393,3.393,0,0,1,32.874-7.533ZM30.926-2.883a1.707,1.707,0,0,0,.308,1.034,1.022,1.022,0,0,0,.827.392,1.5,1.5,0,0,0,1.395-.816,4.066,4.066,0,0,0,.472-2.215,1.856,1.856,0,0,0-.318-1.048,1,1,0,0,0-.831-.406,1.5,1.5,0,0,0-1.377.809A4.024,4.024,0,0,0,30.926-2.883ZM43.511-7.54a2.1,2.1,0,0,1,1.668.827L45.9-10.5h1.935L46.02,0H44.3l.109-.793a2.394,2.394,0,0,1-1.928.937,2.129,2.129,0,0,1-1.21-.362,2.281,2.281,0,0,1-.8-1.022,4.116,4.116,0,0,1-.311-1.487,5.6,5.6,0,0,1,.021-.834l.041-.308a5.921,5.921,0,0,1,.632-2A3.3,3.3,0,0,1,42-7.144,2.708,2.708,0,0,1,43.511-7.54Zm-1.4,3.979a5.536,5.536,0,0,0-.034.875q.068,1.2.971,1.224a1.65,1.65,0,0,0,1.415-.766l.526-2.939a1.092,1.092,0,0,0-1.066-.766,1.4,1.4,0,0,0-1.172.543A3.654,3.654,0,0,0,42.109-3.562Zm8.962,3.7a3.218,3.218,0,0,1-1.719-.475,2.88,2.88,0,0,1-1.118-1.285,3.582,3.582,0,0,1-.287-1.8l.021-.273A4.782,4.782,0,0,1,48.6-5.681,3.8,3.8,0,0,1,49.95-7.072a3.349,3.349,0,0,1,1.832-.461,2.559,2.559,0,0,1,2.164,1.051A3.6,3.6,0,0,1,54.5-3.891l-.109.842H49.861A1.587,1.587,0,0,0,50.21-1.9a1.331,1.331,0,0,0,1.025.444,2.365,2.365,0,0,0,1.846-.82l.882,1.094a2.743,2.743,0,0,1-1.2.981A3.934,3.934,0,0,1,51.071.137Zm.615-6.077a1.37,1.37,0,0,0-.947.335A2.943,2.943,0,0,0,50-4.4H52.65l.041-.178a1.812,1.812,0,0,0,.007-.52.992.992,0,0,0-.335-.619A1.05,1.05,0,0,0,51.687-5.94ZM61.934.137a3.218,3.218,0,0,1-1.719-.475A2.88,2.88,0,0,1,59.1-1.624a3.582,3.582,0,0,1-.287-1.8L58.83-3.7a4.782,4.782,0,0,1,.629-1.982,3.8,3.8,0,0,1,1.354-1.391,3.349,3.349,0,0,1,1.832-.461,2.559,2.559,0,0,1,2.164,1.051,3.6,3.6,0,0,1,.557,2.591l-.109.842H60.724A1.587,1.587,0,0,0,61.072-1.9a1.331,1.331,0,0,0,1.025.444,2.365,2.365,0,0,0,1.846-.82l.882,1.094a2.743,2.743,0,0,1-1.2.981A3.934,3.934,0,0,1,61.934.137Zm.615-6.077a1.37,1.37,0,0,0-.947.335A2.943,2.943,0,0,0,60.86-4.4h2.652l.041-.178a1.812,1.812,0,0,0,.007-.52.992.992,0,0,0-.335-.619A1.05,1.05,0,0,0,62.549-5.94ZM69.5-7.54a2.053,2.053,0,0,1,1.757.93l.314-.793,1.723.007L71.518,2.844H69.576l.69-3.493a2.316,2.316,0,0,1-1.8.786,2.129,2.129,0,0,1-1.21-.362,2.277,2.277,0,0,1-.8-1.029,4.141,4.141,0,0,1-.311-1.48,5.711,5.711,0,0,1,.021-.841l.041-.3a5.934,5.934,0,0,1,.632-2.01,3.214,3.214,0,0,1,1.148-1.268A2.757,2.757,0,0,1,69.5-7.54ZM68.072-2.7q.068,1.219.971,1.239a1.646,1.646,0,0,0,1.395-.719L71-5.256a1.087,1.087,0,0,0-1.073-.691,1.41,1.41,0,0,0-1.2.572,3.291,3.291,0,0,0-.608,1.653A7.2,7.2,0,0,0,68.072-2.7ZM78.148-.766a2.554,2.554,0,0,1-2.037.9A1.9,1.9,0,0,1,74.5-.629a2.8,2.8,0,0,1-.424-1.982l.8-4.785H76.8l-.813,4.811a1.9,1.9,0,0,0-.007.424.7.7,0,0,0,.759.7,1.762,1.762,0,0,0,1.483-.691L79.146-7.4h1.941L79.8,0H78ZM83.275,0H81.334l1.285-7.4h1.941Zm-.431-9.276a.963.963,0,0,1,.3-.759,1.058,1.058,0,0,1,.759-.3,1.063,1.063,0,0,1,.759.267A.959.959,0,0,1,85-9.345a.99.99,0,0,1-.284.738,1.063,1.063,0,0,1-.776.328,1.081,1.081,0,0,1-.755-.26A.954.954,0,0,1,82.845-9.276ZM86.946,0H85L86.83-10.5h1.935Zm3.671,0H88.676l1.285-7.4H91.9Zm-.431-9.276a.963.963,0,0,1,.3-.759,1.058,1.058,0,0,1,.759-.3,1.063,1.063,0,0,1,.759.267.959.959,0,0,1,.335.725.99.99,0,0,1-.284.738,1.063,1.063,0,0,1-.776.328,1.081,1.081,0,0,1-.755-.26A.954.954,0,0,1,90.187-9.276Zm9.174,5.6a5.3,5.3,0,0,1-1.066,2.8A2.654,2.654,0,0,1,96.065.144,2.063,2.063,0,0,1,94.288-.8l-.28.8H92.251l1.818-10.5H96l-.745,3.78a2.3,2.3,0,0,1,1.8-.813,2.087,2.087,0,0,1,1.685.769A3.4,3.4,0,0,1,99.4-4.676,7.99,7.99,0,0,1,99.36-3.678Zm-1.914-.144a5.735,5.735,0,0,0,.041-.905Q97.412-5.92,96.5-5.94a1.6,1.6,0,0,0-1.415.775l-.533,2.948a1.1,1.1,0,0,0,1.107.768q1.422.041,1.743-2.071Zm7.581-1.722a3.98,3.98,0,0,0-.649-.068,1.869,1.869,0,0,0-1.634.772L101.89,0H99.962l1.285-7.4,1.812-.007-.178.9A2.034,2.034,0,0,1,104.6-7.547a2.812,2.812,0,0,1,.67.1Zm2,5.544h-1.941l1.285-7.4h1.941Zm-.431-9.276a.963.963,0,0,1,.3-.759,1.058,1.058,0,0,1,.759-.3,1.063,1.063,0,0,1,.759.267.959.959,0,0,1,.335.725.99.99,0,0,1-.284.738,1.063,1.063,0,0,1-.776.328,1.081,1.081,0,0,1-.755-.26A.954.954,0,0,1,106.593-9.276Zm6.3,1.743a2.967,2.967,0,0,1,1.685.5,2.83,2.83,0,0,1,1.039,1.347,4.166,4.166,0,0,1,.236,1.9,4.5,4.5,0,0,1-1.227,2.854A3.465,3.465,0,0,1,111.979.137a2.958,2.958,0,0,1-1.668-.5A2.819,2.819,0,0,1,109.272-1.7a4.075,4.075,0,0,1-.239-1.887,4.633,4.633,0,0,1,1.244-2.912A3.393,3.393,0,0,1,112.889-7.533ZM110.94-2.883a1.707,1.707,0,0,0,.308,1.034,1.022,1.022,0,0,0,.827.392,1.5,1.5,0,0,0,1.395-.816,4.066,4.066,0,0,0,.472-2.215,1.856,1.856,0,0,0-.318-1.048,1,1,0,0,0-.831-.406,1.5,1.5,0,0,0-1.377.809A4.024,4.024,0,0,0,110.94-2.883Z" transform="translate(810 4579.277)" fill="#12263f"/>
                <path id="Trazado_794961" data-name="Trazado 794961" d="M8.848-3.56A3.988,3.988,0,0,1,8.093-1.6,4.1,4.1,0,0,1,6.453-.289,5,5,0,0,1,4.27.146,3.69,3.69,0,0,1,2.432-.341,3.228,3.228,0,0,1,1.2-1.688,4.98,4.98,0,0,1,.688-3.721,9.969,9.969,0,0,1,.875-5.962a7.1,7.1,0,0,1,.85-2.38A5.312,5.312,0,0,1,3.179-9.99a4.386,4.386,0,0,1,2.71-.82A3.6,3.6,0,0,1,8.514-9.789,4.11,4.11,0,0,1,9.58-7.031L7.441-7.039a2.241,2.241,0,0,0-.4-1.479,1.643,1.643,0,0,0-1.252-.5,2.174,2.174,0,0,0-1.805.784,4.713,4.713,0,0,0-.948,2.4,13.271,13.271,0,0,0-.205,2.292A2.282,2.282,0,0,0,3.259-2.12a1.446,1.446,0,0,0,1.106.48,2.209,2.209,0,0,0,1.571-.465,2.461,2.461,0,0,0,.78-1.439Zm5.3-4.512a3.179,3.179,0,0,1,1.805.538A3.032,3.032,0,0,1,17.069-6.09a4.464,4.464,0,0,1,.253,2.04A4.822,4.822,0,0,1,16.007-.992,3.712,3.712,0,0,1,13.176.146a3.169,3.169,0,0,1-1.787-.531,3.02,3.02,0,0,1-1.113-1.432,4.366,4.366,0,0,1-.256-2.021,4.964,4.964,0,0,1,1.333-3.12A3.636,3.636,0,0,1,14.15-8.071ZM12.063-3.089a1.829,1.829,0,0,0,.33,1.108,1.1,1.1,0,0,0,.886.421,1.605,1.605,0,0,0,1.494-.874,4.356,4.356,0,0,0,.505-2.373,1.989,1.989,0,0,0-.341-1.122,1.077,1.077,0,0,0-.89-.435,1.607,1.607,0,0,0-1.476.867A4.311,4.311,0,0,0,12.063-3.089Zm10.444.855q.117-.586-.813-.85l-.667-.168q-2.366-.652-2.3-2.3a2.276,2.276,0,0,1,.992-1.827,3.7,3.7,0,0,1,2.3-.692,3.315,3.315,0,0,1,2.168.71,2.341,2.341,0,0,1,.842,1.853l-2.051-.007a.9.9,0,0,0-1.011-1.033,1.455,1.455,0,0,0-.839.242,1,1,0,0,0-.436.652q-.11.586.886.828l.293.066a5.892,5.892,0,0,1,1.545.553,2.332,2.332,0,0,1,.824.773,1.912,1.912,0,0,1,.267,1.106,2.111,2.111,0,0,1-.487,1.318,2.981,2.981,0,0,1-1.274.872,4.44,4.44,0,0,1-1.7.286,3.345,3.345,0,0,1-2.2-.758,2.444,2.444,0,0,1-.894-1.923l1.948.015a1.071,1.071,0,0,0,1.216,1.15,1.73,1.73,0,0,0,.941-.234A.926.926,0,0,0,22.507-2.234Zm7.148-7.639-.344,1.948H30.63l-.271,1.553H29.041L28.367-2.4a1.009,1.009,0,0,0,.059.571q.1.2.5.212.117.007.63-.037L29.407-.037A3.474,3.474,0,0,1,28.22.132,1.861,1.861,0,0,1,26.7-.505a2.3,2.3,0,0,1-.41-1.685l.681-4.182H25.854l.271-1.553h1.121l.337-1.948Zm5.112,1.8a3.179,3.179,0,0,1,1.805.538A3.032,3.032,0,0,1,37.687-6.09a4.464,4.464,0,0,1,.253,2.04A4.822,4.822,0,0,1,36.625-.992,3.712,3.712,0,0,1,33.794.146a3.169,3.169,0,0,1-1.787-.531,3.02,3.02,0,0,1-1.113-1.432,4.366,4.366,0,0,1-.256-2.021,4.964,4.964,0,0,1,1.333-3.12A3.636,3.636,0,0,1,34.768-8.071ZM32.681-3.089a1.829,1.829,0,0,0,.33,1.108,1.1,1.1,0,0,0,.886.421,1.605,1.605,0,0,0,1.494-.874A4.356,4.356,0,0,0,35.9-4.807a1.989,1.989,0,0,0-.341-1.122,1.077,1.077,0,0,0-.89-.435A1.607,1.607,0,0,0,33.19-5.5,4.311,4.311,0,0,0,32.681-3.089Zm10.444.855q.117-.586-.813-.85l-.667-.168q-2.366-.652-2.3-2.3a2.276,2.276,0,0,1,.992-1.827,3.7,3.7,0,0,1,2.3-.692,3.315,3.315,0,0,1,2.168.71,2.341,2.341,0,0,1,.842,1.853L43.6-5.515A.9.9,0,0,0,42.59-6.548a1.455,1.455,0,0,0-.839.242,1,1,0,0,0-.436.652q-.11.586.886.828l.293.066a5.892,5.892,0,0,1,1.545.553,2.332,2.332,0,0,1,.824.773,1.912,1.912,0,0,1,.267,1.106,2.111,2.111,0,0,1-.487,1.318,2.981,2.981,0,0,1-1.274.872,4.44,4.44,0,0,1-1.7.286,3.345,3.345,0,0,1-2.2-.758,2.444,2.444,0,0,1-.894-1.923l1.948.015a1.071,1.071,0,0,0,1.216,1.15,1.73,1.73,0,0,0,.941-.234A.926.926,0,0,0,43.125-2.234ZM50.281,0l1.106-6.372h-1.15l.278-1.553h1.069l.066-.381a3.724,3.724,0,0,1,1.267-2.311,3.84,3.84,0,0,1,2.556-.8,6.22,6.22,0,0,1,1.19.143q.582.128,1.161.289l-.447,1.765a6.035,6.035,0,0,0-1.868-.366,1.95,1.95,0,0,0-1.194.348,1.6,1.6,0,0,0-.608.978l-.066.337h1.6l-.278,1.553H53.459L52.354,0Zm6.672,0h-2.08L56.25-7.925h2.073Zm5.325-7.925L60.857.432A3.3,3.3,0,0,1,59.9,2.5a2.8,2.8,0,0,1-2.032.725,6.375,6.375,0,0,1-1.1-.139L56.938,1.4a4.04,4.04,0,0,0,.637.1A1.12,1.12,0,0,0,58.762.439L60.2-7.925ZM60.4-9.939a1.034,1.034,0,0,1,.308-.8,1.179,1.179,0,0,1,.828-.333,1.179,1.179,0,0,1,.831.3,1.038,1.038,0,0,1,.341.762A1.043,1.043,0,0,1,62.4-9.2a1.179,1.179,0,0,1-.828.333,1.158,1.158,0,0,1-.809-.278A1.023,1.023,0,0,1,60.4-9.939Zm6.7,1.868a3.179,3.179,0,0,1,1.805.538A3.032,3.032,0,0,1,70.016-6.09a4.464,4.464,0,0,1,.253,2.04A4.822,4.822,0,0,1,68.954-.992,3.712,3.712,0,0,1,66.123.146a3.169,3.169,0,0,1-1.787-.531,3.02,3.02,0,0,1-1.113-1.432,4.366,4.366,0,0,1-.256-2.021A4.964,4.964,0,0,1,64.3-6.958,3.636,3.636,0,0,1,67.1-8.071ZM65.01-3.089a1.829,1.829,0,0,0,.33,1.108,1.1,1.1,0,0,0,.886.421,1.605,1.605,0,0,0,1.494-.874,4.356,4.356,0,0,0,.505-2.373,1.989,1.989,0,0,0-.341-1.122,1.077,1.077,0,0,0-.89-.435,1.607,1.607,0,0,0-1.476.867A4.311,4.311,0,0,0,65.01-3.089Zm10.444.855q.117-.586-.813-.85l-.667-.168q-2.366-.652-2.3-2.3a2.276,2.276,0,0,1,.992-1.827,3.7,3.7,0,0,1,2.3-.692,3.315,3.315,0,0,1,2.168.71,2.341,2.341,0,0,1,.842,1.853L75.93-5.515a.9.9,0,0,0-1.011-1.033,1.455,1.455,0,0,0-.839.242,1,1,0,0,0-.436.652q-.11.586.886.828l.293.066a5.892,5.892,0,0,1,1.545.553,2.332,2.332,0,0,1,.824.773,1.912,1.912,0,0,1,.267,1.106,2.111,2.111,0,0,1-.487,1.318A2.981,2.981,0,0,1,75.7-.139,4.44,4.44,0,0,1,74,.146a3.345,3.345,0,0,1-2.2-.758,2.444,2.444,0,0,1-.894-1.923l1.948.015A1.071,1.071,0,0,0,74.07-1.37a1.73,1.73,0,0,0,.941-.234A.926.926,0,0,0,75.454-2.234ZM86.3-9.873l-.344,1.948h1.318L87-6.372H85.686L85.012-2.4a1.009,1.009,0,0,0,.059.571q.1.2.5.212.117.007.63-.037L86.052-.037a3.474,3.474,0,0,1-1.187.168A1.861,1.861,0,0,1,83.35-.505a2.3,2.3,0,0,1-.41-1.685l.681-4.182H82.5l.271-1.553h1.121l.337-1.948Zm5.112,1.8a3.179,3.179,0,0,1,1.805.538A3.032,3.032,0,0,1,94.332-6.09a4.464,4.464,0,0,1,.253,2.04A4.822,4.822,0,0,1,93.27-.992,3.712,3.712,0,0,1,90.439.146a3.169,3.169,0,0,1-1.787-.531,3.02,3.02,0,0,1-1.113-1.432,4.366,4.366,0,0,1-.256-2.021,4.964,4.964,0,0,1,1.333-3.12A3.636,3.636,0,0,1,91.414-8.071ZM89.326-3.089a1.829,1.829,0,0,0,.33,1.108,1.1,1.1,0,0,0,.886.421,1.605,1.605,0,0,0,1.494-.874,4.356,4.356,0,0,0,.505-2.373A1.989,1.989,0,0,0,92.2-5.93a1.077,1.077,0,0,0-.89-.435,1.607,1.607,0,0,0-1.476.867A4.311,4.311,0,0,0,89.326-3.089ZM99.368-9.873l-.344,1.948h1.318l-.271,1.553H98.752L98.079-2.4a1.009,1.009,0,0,0,.059.571q.1.2.5.212.117.007.63-.037L99.119-.037a3.474,3.474,0,0,1-1.187.168,1.861,1.861,0,0,1-1.516-.637,2.3,2.3,0,0,1-.41-1.685l.681-4.182H95.566l.271-1.553h1.121l.337-1.948ZM104.751,0a2.138,2.138,0,0,1-.081-.718,2.684,2.684,0,0,1-2.021.864,2.432,2.432,0,0,1-1.725-.677,2.05,2.05,0,0,1-.641-1.637,2.369,2.369,0,0,1,1.088-1.989,4.937,4.937,0,0,1,2.78-.692l.967.015.1-.476a1.654,1.654,0,0,0,.022-.461.793.793,0,0,0-.26-.538.9.9,0,0,0-.59-.2,1.261,1.261,0,0,0-.82.238,1.154,1.154,0,0,0-.432.729l-2.073.007a2.3,2.3,0,0,1,1.044-1.842,4.042,4.042,0,0,1,2.45-.692,2.922,2.922,0,0,1,2.109.8,2.346,2.346,0,0,1,.637,1.989L106.7-1.487l-.037.469a2.261,2.261,0,0,0,.125.879L106.78,0Zm-1.589-1.458a1.891,1.891,0,0,0,1.56-.776l.256-1.37-.718-.007a2.005,2.005,0,0,0-1.648.7,1.211,1.211,0,0,0-.227.593.7.7,0,0,0,.165.626A.835.835,0,0,0,103.162-1.458ZM110.222,0h-2.08L110.1-11.25h2.073Zm5.515.146A3.448,3.448,0,0,1,113.9-.363a3.086,3.086,0,0,1-1.2-1.377,3.838,3.838,0,0,1-.308-1.93l.022-.293a5.123,5.123,0,0,1,.674-2.124,4.07,4.07,0,0,1,1.45-1.49,3.588,3.588,0,0,1,1.963-.494,2.741,2.741,0,0,1,2.318,1.126,3.859,3.859,0,0,1,.6,2.776l-.117.9h-4.856a1.7,1.7,0,0,0,.374,1.23,1.426,1.426,0,0,0,1.1.476,2.534,2.534,0,0,0,1.978-.879l.945,1.172a2.939,2.939,0,0,1-1.289,1.051A4.215,4.215,0,0,1,115.737.146Zm.659-6.511a1.468,1.468,0,0,0-1.014.359,3.153,3.153,0,0,0-.795,1.3h2.842l.044-.19a1.941,1.941,0,0,0,.007-.557,1.063,1.063,0,0,0-.359-.663A1.125,1.125,0,0,0,116.4-6.365ZM124.5-2.234q.117-.586-.813-.85l-.667-.168q-2.366-.652-2.3-2.3a2.276,2.276,0,0,1,.992-1.827,3.7,3.7,0,0,1,2.3-.692,3.315,3.315,0,0,1,2.168.71,2.341,2.341,0,0,1,.842,1.853l-2.051-.007a.9.9,0,0,0-1.011-1.033,1.455,1.455,0,0,0-.839.242,1,1,0,0,0-.436.652q-.11.586.886.828l.293.066a5.892,5.892,0,0,1,1.545.553,2.332,2.332,0,0,1,.824.773,1.912,1.912,0,0,1,.267,1.106,2.111,2.111,0,0,1-.487,1.318,2.981,2.981,0,0,1-1.274.872,4.44,4.44,0,0,1-1.7.286,3.345,3.345,0,0,1-2.2-.758,2.444,2.444,0,0,1-.894-1.923l1.948.015a1.071,1.071,0,0,0,1.216,1.15,1.73,1.73,0,0,0,.941-.234A.926.926,0,0,0,124.5-2.234Z" transform="translate(1022.606 4570.249)" fill="#12263f"/>
                <path id="Trazado_794962" data-name="Trazado 794962" d="M8.848-3.56A3.988,3.988,0,0,1,8.093-1.6,4.1,4.1,0,0,1,6.453-.289,5,5,0,0,1,4.27.146,3.69,3.69,0,0,1,2.432-.341,3.228,3.228,0,0,1,1.2-1.688,4.98,4.98,0,0,1,.688-3.721,9.969,9.969,0,0,1,.875-5.962a7.1,7.1,0,0,1,.85-2.38A5.312,5.312,0,0,1,3.179-9.99a4.386,4.386,0,0,1,2.71-.82A3.6,3.6,0,0,1,8.514-9.789,4.11,4.11,0,0,1,9.58-7.031L7.441-7.039a2.241,2.241,0,0,0-.4-1.479,1.643,1.643,0,0,0-1.252-.5,2.174,2.174,0,0,0-1.805.784,4.713,4.713,0,0,0-.948,2.4,13.271,13.271,0,0,0-.205,2.292A2.282,2.282,0,0,0,3.259-2.12a1.446,1.446,0,0,0,1.106.48,2.209,2.209,0,0,0,1.571-.465,2.461,2.461,0,0,0,.78-1.439Zm5.3-4.512a3.179,3.179,0,0,1,1.805.538A3.032,3.032,0,0,1,17.069-6.09a4.464,4.464,0,0,1,.253,2.04A4.822,4.822,0,0,1,16.007-.992,3.712,3.712,0,0,1,13.176.146a3.169,3.169,0,0,1-1.787-.531,3.02,3.02,0,0,1-1.113-1.432,4.366,4.366,0,0,1-.256-2.021,4.964,4.964,0,0,1,1.333-3.12A3.636,3.636,0,0,1,14.15-8.071ZM12.063-3.089a1.829,1.829,0,0,0,.33,1.108,1.1,1.1,0,0,0,.886.421,1.605,1.605,0,0,0,1.494-.874,4.356,4.356,0,0,0,.505-2.373,1.989,1.989,0,0,0-.341-1.122,1.077,1.077,0,0,0-.89-.435,1.607,1.607,0,0,0-1.476.867A4.311,4.311,0,0,0,12.063-3.089Zm10.444.855q.117-.586-.813-.85l-.667-.168q-2.366-.652-2.3-2.3a2.276,2.276,0,0,1,.992-1.827,3.7,3.7,0,0,1,2.3-.692,3.315,3.315,0,0,1,2.168.71,2.341,2.341,0,0,1,.842,1.853l-2.051-.007a.9.9,0,0,0-1.011-1.033,1.455,1.455,0,0,0-.839.242,1,1,0,0,0-.436.652q-.11.586.886.828l.293.066a5.892,5.892,0,0,1,1.545.553,2.332,2.332,0,0,1,.824.773,1.912,1.912,0,0,1,.267,1.106,2.111,2.111,0,0,1-.487,1.318,2.981,2.981,0,0,1-1.274.872,4.44,4.44,0,0,1-1.7.286,3.345,3.345,0,0,1-2.2-.758,2.444,2.444,0,0,1-.894-1.923l1.948.015a1.071,1.071,0,0,0,1.216,1.15,1.73,1.73,0,0,0,.941-.234A.926.926,0,0,0,22.507-2.234Zm7.148-7.639-.344,1.948H30.63l-.271,1.553H29.041L28.367-2.4a1.009,1.009,0,0,0,.059.571q.1.2.5.212.117.007.63-.037L29.407-.037A3.474,3.474,0,0,1,28.22.132,1.861,1.861,0,0,1,26.7-.505a2.3,2.3,0,0,1-.41-1.685l.681-4.182H25.854l.271-1.553h1.121l.337-1.948Zm5.112,1.8a3.179,3.179,0,0,1,1.805.538A3.032,3.032,0,0,1,37.687-6.09a4.464,4.464,0,0,1,.253,2.04A4.822,4.822,0,0,1,36.625-.992,3.712,3.712,0,0,1,33.794.146a3.169,3.169,0,0,1-1.787-.531,3.02,3.02,0,0,1-1.113-1.432,4.366,4.366,0,0,1-.256-2.021,4.964,4.964,0,0,1,1.333-3.12A3.636,3.636,0,0,1,34.768-8.071ZM32.681-3.089a1.829,1.829,0,0,0,.33,1.108,1.1,1.1,0,0,0,.886.421,1.605,1.605,0,0,0,1.494-.874A4.356,4.356,0,0,0,35.9-4.807a1.989,1.989,0,0,0-.341-1.122,1.077,1.077,0,0,0-.89-.435A1.607,1.607,0,0,0,33.19-5.5,4.311,4.311,0,0,0,32.681-3.089Zm10.444.855q.117-.586-.813-.85l-.667-.168q-2.366-.652-2.3-2.3a2.276,2.276,0,0,1,.992-1.827,3.7,3.7,0,0,1,2.3-.692,3.315,3.315,0,0,1,2.168.71,2.341,2.341,0,0,1,.842,1.853L43.6-5.515A.9.9,0,0,0,42.59-6.548a1.455,1.455,0,0,0-.839.242,1,1,0,0,0-.436.652q-.11.586.886.828l.293.066a5.892,5.892,0,0,1,1.545.553,2.332,2.332,0,0,1,.824.773,1.912,1.912,0,0,1,.267,1.106,2.111,2.111,0,0,1-.487,1.318,2.981,2.981,0,0,1-1.274.872,4.44,4.44,0,0,1-1.7.286,3.345,3.345,0,0,1-2.2-.758,2.444,2.444,0,0,1-.894-1.923l1.948.015a1.071,1.071,0,0,0,1.216,1.15,1.73,1.73,0,0,0,.941-.234A.926.926,0,0,0,43.125-2.234Zm9.99-.381,2.256-5.31H57.6L53.767,0H51.79L50.435-7.925h2.095ZM61.685,0A2.138,2.138,0,0,1,61.6-.718a2.684,2.684,0,0,1-2.021.864,2.432,2.432,0,0,1-1.725-.677,2.05,2.05,0,0,1-.641-1.637A2.369,2.369,0,0,1,58.3-4.156a4.937,4.937,0,0,1,2.78-.692l.967.015.1-.476a1.654,1.654,0,0,0,.022-.461.793.793,0,0,0-.26-.538.9.9,0,0,0-.59-.2,1.261,1.261,0,0,0-.82.238,1.154,1.154,0,0,0-.432.729L58-5.537a2.3,2.3,0,0,1,1.044-1.842,4.042,4.042,0,0,1,2.45-.692,2.922,2.922,0,0,1,2.109.8,2.346,2.346,0,0,1,.637,1.989l-.608,3.794-.037.469a2.261,2.261,0,0,0,.125.879L63.713,0ZM60.1-1.458a1.891,1.891,0,0,0,1.56-.776l.256-1.37-.718-.007a2.005,2.005,0,0,0-1.648.7,1.211,1.211,0,0,0-.227.593.7.7,0,0,0,.165.626A.835.835,0,0,0,60.1-1.458ZM70.4-5.94a4.264,4.264,0,0,0-.7-.073,2,2,0,0,0-1.75.828L67.039,0H64.973L66.35-7.925l1.941-.007-.19.967a2.179,2.179,0,0,1,1.846-1.121,3.013,3.013,0,0,1,.718.1ZM72.539,0h-2.08l1.377-7.925h2.08Zm-.461-9.939a1.032,1.032,0,0,1,.322-.813,1.134,1.134,0,0,1,.813-.322,1.139,1.139,0,0,1,.813.286,1.027,1.027,0,0,1,.359.776,1.061,1.061,0,0,1-.3.791,1.139,1.139,0,0,1-.831.352,1.158,1.158,0,0,1-.809-.278A1.023,1.023,0,0,1,72.078-9.939ZM78.875,0a2.138,2.138,0,0,1-.081-.718,2.684,2.684,0,0,1-2.021.864,2.432,2.432,0,0,1-1.725-.677,2.05,2.05,0,0,1-.641-1.637,2.369,2.369,0,0,1,1.088-1.989,4.937,4.937,0,0,1,2.78-.692l.967.015.1-.476a1.654,1.654,0,0,0,.022-.461.793.793,0,0,0-.26-.538.9.9,0,0,0-.59-.2,1.261,1.261,0,0,0-.82.238,1.154,1.154,0,0,0-.432.729l-2.073.007a2.3,2.3,0,0,1,1.044-1.842,4.042,4.042,0,0,1,2.45-.692,2.922,2.922,0,0,1,2.109.8,2.346,2.346,0,0,1,.637,1.989l-.608,3.794-.037.469a2.261,2.261,0,0,0,.125.879L80.9,0ZM77.285-1.458a1.891,1.891,0,0,0,1.56-.776L79.1-3.6l-.718-.007a2.005,2.005,0,0,0-1.648.7,1.211,1.211,0,0,0-.227.593.7.7,0,0,0,.165.626A.835.835,0,0,0,77.285-1.458ZM89.78-3.94a5.682,5.682,0,0,1-1.143,3A2.843,2.843,0,0,1,86.25.154a2.21,2.21,0,0,1-1.9-1.011l-.3.857H82.163l1.948-11.25h2.073l-.8,4.05a2.469,2.469,0,0,1,1.934-.872,2.236,2.236,0,0,1,1.805.824,3.647,3.647,0,0,1,.7,2.238A8.562,8.562,0,0,1,89.78-3.94Zm-2.051-.154a6.144,6.144,0,0,0,.044-.97q-.081-1.278-1.055-1.3a1.719,1.719,0,0,0-1.516.83l-.571,3.159a1.179,1.179,0,0,0,1.187.823q1.523.044,1.868-2.219ZM92.607,0h-2.08l1.956-11.25h2.073Zm5.515.146a3.448,3.448,0,0,1-1.842-.509,3.086,3.086,0,0,1-1.2-1.377,3.838,3.838,0,0,1-.308-1.93l.022-.293a5.123,5.123,0,0,1,.674-2.124,4.07,4.07,0,0,1,1.45-1.49,3.588,3.588,0,0,1,1.963-.494A2.741,2.741,0,0,1,101.2-6.945a3.859,3.859,0,0,1,.6,2.776l-.117.9H96.826a1.7,1.7,0,0,0,.374,1.23,1.426,1.426,0,0,0,1.1.476,2.534,2.534,0,0,0,1.978-.879l.945,1.172A2.939,2.939,0,0,1,99.932-.216,4.215,4.215,0,0,1,98.123.146Zm.659-6.511a1.468,1.468,0,0,0-1.014.359,3.153,3.153,0,0,0-.795,1.3h2.842l.044-.19a1.941,1.941,0,0,0,.007-.557,1.063,1.063,0,0,0-.359-.663A1.125,1.125,0,0,0,98.782-6.365Zm8.108,4.131q.117-.586-.813-.85l-.667-.168q-2.366-.652-2.3-2.3a2.276,2.276,0,0,1,.992-1.827,3.7,3.7,0,0,1,2.3-.692,3.315,3.315,0,0,1,2.168.71,2.341,2.341,0,0,1,.842,1.853l-2.051-.007a.9.9,0,0,0-1.011-1.033,1.455,1.455,0,0,0-.839.242,1,1,0,0,0-.436.652q-.11.586.886.828l.293.066a5.892,5.892,0,0,1,1.545.553,2.332,2.332,0,0,1,.824.773,1.912,1.912,0,0,1,.267,1.106,2.111,2.111,0,0,1-.487,1.318,2.981,2.981,0,0,1-1.274.872,4.44,4.44,0,0,1-1.7.286,3.345,3.345,0,0,1-2.2-.758,2.444,2.444,0,0,1-.894-1.923l1.948.015a1.071,1.071,0,0,0,1.216,1.15,1.73,1.73,0,0,0,.941-.234A.926.926,0,0,0,106.89-2.234Zm10.847-7.639-.344,1.948h1.318l-.271,1.553h-1.318l-.674,3.97a1.009,1.009,0,0,0,.059.571q.1.2.5.212.117.007.63-.037l-.146,1.619A3.474,3.474,0,0,1,116.3.132a1.861,1.861,0,0,1-1.516-.637,2.3,2.3,0,0,1-.41-1.685l.681-4.182h-1.121l.271-1.553h1.121l.337-1.948Zm5.112,1.8a3.179,3.179,0,0,1,1.805.538,3.032,3.032,0,0,1,1.113,1.443,4.464,4.464,0,0,1,.253,2.04,4.822,4.822,0,0,1-1.315,3.058A3.712,3.712,0,0,1,121.875.146a3.169,3.169,0,0,1-1.787-.531,3.02,3.02,0,0,1-1.113-1.432,4.366,4.366,0,0,1-.256-2.021,4.964,4.964,0,0,1,1.333-3.12A3.636,3.636,0,0,1,122.849-8.071Zm-2.087,4.983a1.829,1.829,0,0,0,.33,1.108,1.1,1.1,0,0,0,.886.421,1.605,1.605,0,0,0,1.494-.874,4.356,4.356,0,0,0,.505-2.373,1.989,1.989,0,0,0-.341-1.122,1.077,1.077,0,0,0-.89-.435,1.607,1.607,0,0,0-1.476.867A4.311,4.311,0,0,0,120.762-3.089ZM130.8-9.873l-.344,1.948h1.318l-.271,1.553h-1.318l-.674,3.97a1.009,1.009,0,0,0,.059.571q.1.2.5.212.117.007.63-.037l-.146,1.619a3.474,3.474,0,0,1-1.187.168,1.861,1.861,0,0,1-1.516-.637,2.3,2.3,0,0,1-.41-1.685l.681-4.182H127l.271-1.553h1.121l.337-1.948ZM136.187,0a2.138,2.138,0,0,1-.081-.718,2.684,2.684,0,0,1-2.021.864,2.432,2.432,0,0,1-1.725-.677,2.05,2.05,0,0,1-.641-1.637,2.369,2.369,0,0,1,1.088-1.989,4.937,4.937,0,0,1,2.78-.692l.967.015.1-.476a1.654,1.654,0,0,0,.022-.461.793.793,0,0,0-.26-.538.9.9,0,0,0-.59-.2,1.261,1.261,0,0,0-.82.238,1.154,1.154,0,0,0-.432.729l-2.073.007a2.3,2.3,0,0,1,1.044-1.842A4.042,4.042,0,0,1,136-8.071a2.922,2.922,0,0,1,2.109.8,2.346,2.346,0,0,1,.637,1.989l-.608,3.794-.037.469a2.261,2.261,0,0,0,.125.879L138.215,0ZM134.6-1.458a1.891,1.891,0,0,0,1.56-.776l.256-1.37-.718-.007a2.005,2.005,0,0,0-1.648.7,1.211,1.211,0,0,0-.227.593.7.7,0,0,0,.165.626A.835.835,0,0,0,134.6-1.458ZM141.658,0h-2.08l1.956-11.25h2.073Zm5.515.146a3.448,3.448,0,0,1-1.842-.509,3.086,3.086,0,0,1-1.2-1.377,3.838,3.838,0,0,1-.308-1.93l.022-.293a5.123,5.123,0,0,1,.674-2.124,4.07,4.07,0,0,1,1.45-1.49,3.588,3.588,0,0,1,1.963-.494,2.741,2.741,0,0,1,2.318,1.126,3.859,3.859,0,0,1,.6,2.776l-.117.9h-4.856a1.7,1.7,0,0,0,.374,1.23,1.426,1.426,0,0,0,1.1.476,2.534,2.534,0,0,0,1.978-.879l.945,1.172a2.939,2.939,0,0,1-1.289,1.051A4.215,4.215,0,0,1,147.173.146Zm.659-6.511a1.468,1.468,0,0,0-1.014.359,3.153,3.153,0,0,0-.795,1.3h2.842l.044-.19a1.941,1.941,0,0,0,.007-.557,1.063,1.063,0,0,0-.359-.663A1.125,1.125,0,0,0,147.832-6.365Zm8.108,4.131q.117-.586-.813-.85l-.667-.168q-2.366-.652-2.3-2.3a2.276,2.276,0,0,1,.992-1.827,3.7,3.7,0,0,1,2.3-.692,3.315,3.315,0,0,1,2.168.71,2.341,2.341,0,0,1,.842,1.853l-2.051-.007a.9.9,0,0,0-1.011-1.033,1.455,1.455,0,0,0-.839.242,1,1,0,0,0-.436.652q-.11.586.886.828l.293.066a5.892,5.892,0,0,1,1.545.553,2.332,2.332,0,0,1,.824.773,1.912,1.912,0,0,1,.267,1.106,2.111,2.111,0,0,1-.487,1.318,2.981,2.981,0,0,1-1.274.872,4.44,4.44,0,0,1-1.7.286,3.345,3.345,0,0,1-2.2-.758,2.444,2.444,0,0,1-.894-1.923l1.948.015a1.071,1.071,0,0,0,1.216,1.15A1.73,1.73,0,0,0,155.5-1.6.926.926,0,0,0,155.94-2.234Z" transform="translate(1012.578 4601.337)" fill="#12263f"/>
                <path id="Trazado_794963" data-name="Trazado 794963" d="M4.438-2.666l3.589-8h2.461L5.222,0H2.981L1.062-10.664H3.369Zm9.368-5.405a3.179,3.179,0,0,1,1.805.538A3.032,3.032,0,0,1,16.725-6.09a4.464,4.464,0,0,1,.253,2.04A4.822,4.822,0,0,1,15.663-.992,3.712,3.712,0,0,1,12.832.146a3.169,3.169,0,0,1-1.787-.531A3.02,3.02,0,0,1,9.932-1.816a4.366,4.366,0,0,1-.256-2.021,4.964,4.964,0,0,1,1.333-3.12A3.636,3.636,0,0,1,13.806-8.071ZM11.719-3.089a1.829,1.829,0,0,0,.33,1.108,1.1,1.1,0,0,0,.886.421,1.605,1.605,0,0,0,1.494-.874,4.356,4.356,0,0,0,.505-2.373,1.989,1.989,0,0,0-.341-1.122,1.077,1.077,0,0,0-.89-.435,1.607,1.607,0,0,0-1.476.867A4.311,4.311,0,0,0,11.719-3.089ZM19.753,0h-2.08l1.956-11.25H21.7Zm6.658-.82a2.736,2.736,0,0,1-2.183.967A2.036,2.036,0,0,1,22.5-.674,3,3,0,0,1,22.046-2.8L22.9-7.925h2.065L24.1-2.77a2.039,2.039,0,0,0-.007.455.753.753,0,0,0,.813.755A1.888,1.888,0,0,0,26.492-2.3l.989-5.624h2.08L28.184,0H26.257Zm6.606-7.112-.168.9a2.918,2.918,0,0,1,2.322-1.04,2.23,2.23,0,0,1,1.216.337,1.574,1.574,0,0,1,.652.872A3.052,3.052,0,0,1,39.5-8.071a1.993,1.993,0,0,1,1.644.747,3.067,3.067,0,0,1,.465,2.095l-.015.183L40.752,0H38.679l.842-5.067a3.664,3.664,0,0,0,.022-.506.785.785,0,0,0-.879-.792,1.744,1.744,0,0,0-1.458.909l-.022.169L36.262,0H34.2l.842-5.046a3.655,3.655,0,0,0,.022-.505.784.784,0,0,0-.872-.8,1.75,1.75,0,0,0-1.414.74L31.787,0H29.722l1.37-7.925ZM46.157.146a3.448,3.448,0,0,1-1.842-.509,3.086,3.086,0,0,1-1.2-1.377,3.838,3.838,0,0,1-.308-1.93l.022-.293a5.123,5.123,0,0,1,.674-2.124,4.07,4.07,0,0,1,1.45-1.49,3.588,3.588,0,0,1,1.963-.494,2.741,2.741,0,0,1,2.318,1.126,3.859,3.859,0,0,1,.6,2.776l-.117.9H44.861a1.7,1.7,0,0,0,.374,1.23,1.426,1.426,0,0,0,1.1.476,2.534,2.534,0,0,0,1.978-.879l.945,1.172A2.939,2.939,0,0,1,47.966-.216,4.215,4.215,0,0,1,46.157.146Zm.659-6.511a1.468,1.468,0,0,0-1.014.359,3.153,3.153,0,0,0-.795,1.3h2.842l.044-.19a1.941,1.941,0,0,0,.007-.557,1.063,1.063,0,0,0-.359-.663A1.125,1.125,0,0,0,46.816-6.365ZM53.6-7.932l-.176.938A2.852,2.852,0,0,1,55.73-8.071a1.9,1.9,0,0,1,1.655.82,3.305,3.305,0,0,1,.388,2.212L56.938,0H54.873l.85-5.061a2.37,2.37,0,0,0,.015-.52A.839.839,0,0,0,54.8-6.35a1.778,1.778,0,0,0-1.458.754L52.354,0H50.288l1.377-7.925ZM66.445-9.873,66.1-7.925h1.318l-.271,1.553H65.83L65.156-2.4a1.009,1.009,0,0,0,.059.571q.1.2.5.212.117.007.63-.037L66.2-.037A3.474,3.474,0,0,1,65.01.132a1.861,1.861,0,0,1-1.516-.637,2.3,2.3,0,0,1-.41-1.685l.681-4.182H62.644l.271-1.553h1.121l.337-1.948Zm5.112,1.8a3.179,3.179,0,0,1,1.805.538A3.032,3.032,0,0,1,74.476-6.09a4.464,4.464,0,0,1,.253,2.04A4.822,4.822,0,0,1,73.414-.992,3.712,3.712,0,0,1,70.583.146,3.169,3.169,0,0,1,68.8-.385a3.02,3.02,0,0,1-1.113-1.432,4.366,4.366,0,0,1-.256-2.021,4.964,4.964,0,0,1,1.333-3.12A3.636,3.636,0,0,1,71.558-8.071ZM69.47-3.089a1.829,1.829,0,0,0,.33,1.108,1.1,1.1,0,0,0,.886.421,1.605,1.605,0,0,0,1.494-.874,4.356,4.356,0,0,0,.505-2.373,1.989,1.989,0,0,0-.341-1.122,1.077,1.077,0,0,0-.89-.435,1.607,1.607,0,0,0-1.476.867A4.311,4.311,0,0,0,69.47-3.089ZM79.512-9.873l-.344,1.948h1.318l-.271,1.553H78.9L78.223-2.4a1.009,1.009,0,0,0,.059.571q.1.2.5.212.117.007.63-.037L79.263-.037a3.474,3.474,0,0,1-1.187.168A1.861,1.861,0,0,1,76.56-.505a2.3,2.3,0,0,1-.41-1.685l.681-4.182H75.71l.271-1.553H77.1l.337-1.948ZM84.9,0a2.138,2.138,0,0,1-.081-.718,2.684,2.684,0,0,1-2.021.864,2.432,2.432,0,0,1-1.725-.677,2.05,2.05,0,0,1-.641-1.637,2.369,2.369,0,0,1,1.088-1.989,4.937,4.937,0,0,1,2.78-.692l.967.015.1-.476a1.654,1.654,0,0,0,.022-.461.793.793,0,0,0-.26-.538.9.9,0,0,0-.59-.2,1.261,1.261,0,0,0-.82.238,1.154,1.154,0,0,0-.432.729l-2.073.007a2.3,2.3,0,0,1,1.044-1.842,4.042,4.042,0,0,1,2.45-.692,2.922,2.922,0,0,1,2.109.8,2.346,2.346,0,0,1,.637,1.989l-.608,3.794-.037.469a2.261,2.261,0,0,0,.125.879L86.924,0ZM83.306-1.458a1.891,1.891,0,0,0,1.56-.776l.256-1.37L84.4-3.611a2.005,2.005,0,0,0-1.648.7,1.211,1.211,0,0,0-.227.593.7.7,0,0,0,.165.626A.835.835,0,0,0,83.306-1.458ZM90.366,0h-2.08l1.956-11.25h2.073Zm9.382-8.079a2.255,2.255,0,0,1,1.787.886l.776-4.058h2.073L102.437,0h-1.846l.117-.85a2.565,2.565,0,0,1-2.065,1,2.281,2.281,0,0,1-1.3-.388,2.444,2.444,0,0,1-.861-1.095,4.41,4.41,0,0,1-.333-1.593,6,6,0,0,1,.022-.894l.044-.33A6.344,6.344,0,0,1,96.9-6.284a3.531,3.531,0,0,1,1.23-1.37A2.9,2.9,0,0,1,99.749-8.079Zm-1.5,4.263a5.932,5.932,0,0,0-.037.938q.073,1.289,1.04,1.311a1.768,1.768,0,0,0,1.516-.82l.564-3.149a1.17,1.17,0,0,0-1.143-.82,1.505,1.505,0,0,0-1.256.582A3.915,3.915,0,0,0,98.247-3.816Zm9.6,3.962a3.448,3.448,0,0,1-1.842-.509,3.086,3.086,0,0,1-1.2-1.377,3.838,3.838,0,0,1-.308-1.93l.022-.293a5.123,5.123,0,0,1,.674-2.124,4.07,4.07,0,0,1,1.45-1.49,3.588,3.588,0,0,1,1.963-.494,2.741,2.741,0,0,1,2.318,1.126,3.859,3.859,0,0,1,.6,2.776l-.117.9h-4.856a1.7,1.7,0,0,0,.374,1.23,1.426,1.426,0,0,0,1.1.476A2.534,2.534,0,0,0,110-2.439l.945,1.172a2.939,2.939,0,0,1-1.289,1.051A4.215,4.215,0,0,1,107.849.146Zm.659-6.511a1.468,1.468,0,0,0-1.014.359,3.153,3.153,0,0,0-.795,1.3h2.842l.044-.19a1.941,1.941,0,0,0,.007-.557,1.063,1.063,0,0,0-.359-.663A1.125,1.125,0,0,0,108.508-6.365Zm10.547,3.75,2.256-5.31h2.227L119.707,0h-1.978l-1.355-7.925h2.095ZM126.914.146a3.448,3.448,0,0,1-1.842-.509,3.086,3.086,0,0,1-1.2-1.377,3.838,3.838,0,0,1-.308-1.93l.022-.293a5.123,5.123,0,0,1,.674-2.124,4.07,4.07,0,0,1,1.45-1.49,3.588,3.588,0,0,1,1.963-.494,2.741,2.741,0,0,1,2.318,1.126,3.859,3.859,0,0,1,.6,2.776l-.117.9h-4.856a1.7,1.7,0,0,0,.374,1.23,1.426,1.426,0,0,0,1.1.476,2.534,2.534,0,0,0,1.978-.879l.945,1.172a2.939,2.939,0,0,1-1.289,1.051A4.215,4.215,0,0,1,126.914.146Zm.659-6.511a1.468,1.468,0,0,0-1.014.359,3.153,3.153,0,0,0-.795,1.3h2.842l.044-.19a1.941,1.941,0,0,0,.007-.557,1.063,1.063,0,0,0-.359-.663A1.125,1.125,0,0,0,127.573-6.365Zm6.782-1.567-.176.938a2.852,2.852,0,0,1,2.307-1.077,1.9,1.9,0,0,1,1.655.82,3.305,3.305,0,0,1,.388,2.212L137.7,0H135.63l.85-5.061a2.37,2.37,0,0,0,.015-.52.839.839,0,0,0-.937-.769A1.778,1.778,0,0,0,134.1-5.6L133.11,0h-2.065l1.377-7.925ZM143.5-9.873l-.344,1.948h1.318l-.271,1.553h-1.318l-.674,3.97a1.009,1.009,0,0,0,.059.571q.1.2.5.212.117.007.63-.037l-.146,1.619a3.474,3.474,0,0,1-1.187.168,1.861,1.861,0,0,1-1.516-.637,2.3,2.3,0,0,1-.41-1.685l.681-4.182H139.7l.271-1.553h1.121l.337-1.948ZM148.887,0a2.138,2.138,0,0,1-.081-.718,2.684,2.684,0,0,1-2.021.864,2.432,2.432,0,0,1-1.725-.677,2.05,2.05,0,0,1-.641-1.637,2.369,2.369,0,0,1,1.088-1.989,4.937,4.937,0,0,1,2.78-.692l.967.015.1-.476a1.654,1.654,0,0,0,.022-.461.793.793,0,0,0-.26-.538.9.9,0,0,0-.59-.2,1.261,1.261,0,0,0-.82.238,1.154,1.154,0,0,0-.432.729l-2.073.007a2.3,2.3,0,0,1,1.044-1.842,4.042,4.042,0,0,1,2.45-.692,2.922,2.922,0,0,1,2.109.8,2.346,2.346,0,0,1,.637,1.989l-.608,3.794-.037.469a2.261,2.261,0,0,0,.125.879L150.916,0ZM147.3-1.458a1.891,1.891,0,0,0,1.56-.776l.256-1.37-.718-.007a2.005,2.005,0,0,0-1.648.7,1.211,1.211,0,0,0-.227.593.7.7,0,0,0,.165.626A.835.835,0,0,0,147.3-1.458Zm9.47-.776q.117-.586-.813-.85l-.667-.168q-2.366-.652-2.3-2.3a2.276,2.276,0,0,1,.992-1.827,3.7,3.7,0,0,1,2.3-.692,3.315,3.315,0,0,1,2.168.71,2.341,2.341,0,0,1,.842,1.853l-2.051-.007a.9.9,0,0,0-1.011-1.033,1.455,1.455,0,0,0-.839.242,1,1,0,0,0-.436.652q-.11.586.886.828l.293.066a5.892,5.892,0,0,1,1.545.553,2.332,2.332,0,0,1,.824.773,1.912,1.912,0,0,1,.267,1.106,2.111,2.111,0,0,1-.487,1.318,2.981,2.981,0,0,1-1.274.872,4.44,4.44,0,0,1-1.7.286,3.345,3.345,0,0,1-2.2-.758,2.444,2.444,0,0,1-.894-1.923l1.948.015a1.071,1.071,0,0,0,1.216,1.15,1.73,1.73,0,0,0,.941-.234A.926.926,0,0,0,156.768-2.234Z" transform="translate(1012.578 4622.397)" fill="#12263f"/>
                <path id="Trazado_794964" data-name="Trazado 794964" d="M1.938-9.25a23.979,23.979,0,0,1,.953-6.812A17.978,17.978,0,0,1,5.7-21.789,10.5,10.5,0,0,1,9.734-25.25l.875,2.438a10.876,10.876,0,0,0-3.562,5.219,24.164,24.164,0,0,0-1.281,8.25v.484A24.626,24.626,0,0,0,7.031-.578a11.088,11.088,0,0,0,3.578,5.3L9.734,7.109A10.506,10.506,0,0,1,5.773,3.742a17.677,17.677,0,0,1-2.8-5.57A23.837,23.837,0,0,1,1.938-8.422Z" transform="translate(989.512 4614.323)" fill="#12263f"/>
                <path id="Trazado_794965" data-name="Trazado 794965" d="M9.516-8.891A22.754,22.754,0,0,1,8.5-2.094,18.45,18.45,0,0,1,5.578,3.672,10.527,10.527,0,0,1,1.5,7.109L.625,4.719a10.987,10.987,0,0,0,3.5-5.156A23.877,23.877,0,0,0,5.453-8.453v-.828A24.417,24.417,0,0,0,4.18-17.516,11.453,11.453,0,0,0,.625-22.859L1.5-25.25a10.53,10.53,0,0,1,4.008,3.344A18.212,18.212,0,0,1,8.43-16.266,22.592,22.592,0,0,1,9.516-9.594Z" transform="translate(1190.084 4614.323)" fill="#12263f"/>
                <path id="Trazado_794966" data-name="Trazado 794966" d="M7.507-5.464H1.143L1.45-7.192H7.815ZM6.958-2.292H.593L.9-4.021H7.266Z" transform="translate(951.403 4580.277)" fill="#12263f"/>
                <path id="Trazado_794900" data-name="Trazado 794900" d="M3309-7000.836h240.545" transform="translate(-2339.545 11581.324)" fill="none" stroke="#12263f" stroke-width="2"/>
                <path id="Trazado_794901" data-name="Trazado 794901" d="M3309-7000.836h180.656" transform="translate(-2302.58 11608.236)" fill="none" stroke="#12263f" stroke-width="2"/>
              </g>
            </g>
          </g>
        </g>
      </g>
    </g>
  </g>
</svg>
