<svg xmlns="http://www.w3.org/2000/svg" xmlns:xlink="http://www.w3.org/1999/xlink" width="145" height="145.999" viewBox="0 0 145 145.999">
  <defs>
    <clipPath id="clip-path">
      <rect id="Rect치ngulo_361583" data-name="Rect치ngulo 361583" width="145" height="67" transform="translate(0.497 -0.37)" fill="#ffa686" stroke="#707070" stroke-width="1"/>
    </clipPath>
    <clipPath id="clip-path-2">
      <rect id="Rect치ngulo_361582" data-name="Rect치ngulo 361582" width="145" height="75" transform="translate(0.497 0.201)" fill="#f2f7df" stroke="#707070" stroke-width="1"/>
    </clipPath>
    <filter id="Elipse_5267" x="16" y="15" width="111" height="110" filterUnits="userSpaceOnUse">
      <feOffset dy="3" input="SourceAlpha"/>
      <feGaussianBlur stdDeviation="3" result="blur"/>
      <feFlood flood-opacity="0.161"/>
      <feComposite operator="in" in2="blur"/>
      <feComposite in="SourceGraphic"/>
    </filter>
  </defs>
  <g id="Grupo_1085501" data-name="Grupo 1085501" transform="translate(-308 -2398)">
    <g id="Grupo_1084212" data-name="Grupo 1084212" transform="translate(307.503 2398.37)">
      <g id="Enmascarar_grupo_1083814" data-name="Enmascarar grupo 1083814" transform="translate(0 0)" clip-path="url(#clip-path)">
        <ellipse id="Elipse_5268" data-name="Elipse 5268" cx="66.5" cy="67" rx="66.5" ry="67" transform="translate(5.497 -0.37)" fill="#ffd947"/>
        <ellipse id="Elipse_5269" data-name="Elipse 5269" cx="46.5" cy="46" rx="46.5" ry="46" transform="translate(25.497 20.63)" fill="#fff"/>
      </g>
      <g id="Enmascarar_grupo_1083813" data-name="Enmascarar grupo 1083813" transform="translate(0 70.429)" clip-path="url(#clip-path-2)">
        <ellipse id="Elipse_5265" data-name="Elipse 5265" cx="66.5" cy="67" rx="66.5" ry="67" transform="translate(5.497 -70.799)" fill="#fff1ba"/>
        <ellipse id="Elipse_5266" data-name="Elipse 5266" cx="46.5" cy="46" rx="46.5" ry="46" transform="translate(25.497 -49.799)" fill="#fff"/>
      </g>
      <g transform="matrix(1, 0, 0, 1, 0.5, -0.37)" filter="url(#Elipse_5267)">
        <ellipse id="Elipse_5267-2" data-name="Elipse 5267" cx="46.5" cy="46" rx="46.5" ry="46" transform="translate(25 21)" fill="#fff"/>
      </g>
    </g>
    <g id="Grupo_1084928" data-name="Grupo 1084928" transform="translate(358 2440)">
      <g id="Grupo_17578" data-name="Grupo 17578" transform="translate(0.732 0.732)">
        <g id="Grupo_17576" data-name="Grupo 17576">
          <path id="Trazado_28051" data-name="Trazado 28051" d="M817.011,51.522V83.859a4.3,4.3,0,0,0,4.3,4.3h33.724a4.3,4.3,0,0,0,4.3-4.3V43.919a4.3,4.3,0,0,0-4.3-4.3H828.91Z" transform="translate(-817.011 -39.622)" fill="#f9f6f9"/>
          <g id="Grupo_17575" data-name="Grupo 17575">
            <path id="Trazado_28052" data-name="Trazado 28052" d="M823.979,100.914h-2.671a4.3,4.3,0,0,1-4.3-4.3V64.279l2.672-2.672V96.616A4.3,4.3,0,0,0,823.979,100.914Z" transform="translate(-817.011 -52.379)" fill="#dddaec"/>
            <path id="Trazado_28053" data-name="Trazado 28053" d="M817.011,51.522h7.6a4.3,4.3,0,0,0,4.3-4.3v-7.6" transform="translate(-817.011 -39.622)" fill="#dddaec"/>
          </g>
        </g>
        <g id="Grupo_17577" data-name="Grupo 17577" transform="translate(26.819 7.93)">
          <path id="Trazado_28054" data-name="Trazado 28054" d="M906.689,66.536l-10.27,10.27c.03-.555-3.041-1.251-3.762-.981.27-.721-1.462-2.768-2.022-2.733-.2.012-1.013-3.668-1.568-3.637l10.27-10.27a2.281,2.281,0,0,1,3.227,0l4.125,4.125a2.282,2.282,0,0,1,0,3.227Z" transform="translate(-885.641 -58.516)" fill="#ffd947"/>
          <path id="Trazado_28055" data-name="Trazado 28055" d="M890.635,73.091c-.2.012-1.013-3.668-1.568-3.637l10.27-10.27a2.281,2.281,0,0,1,3.227,0l.758.758L891.075,72.189Z" transform="translate(-885.641 -58.516)" fill="#fef0b9"/>
          <path id="Trazado_28056" data-name="Trazado 28056" d="M893.311,91.923l-6.959,2.248-2.64-2.64,2.248-6.959a2.027,2.027,0,0,1,2.008,2.735,2.026,2.026,0,0,1,2.609,2.609,2.026,2.026,0,0,1,2.735,2.007Z" transform="translate(-882.534 -73.633)" fill="#f6eeda"/>
          <path id="Trazado_28057" data-name="Trazado 28057" d="M884.8,92.619l-1.089-1.089,2.248-6.959a2.027,2.027,0,0,1,2.008,2.735l-1.874,3.839Z" transform="translate(-882.534 -73.633)" fill="#efe1c1"/>
          <path id="Trazado_28058" data-name="Trazado 28058" d="M884.826,102.8l-1.852,1.852a.8.8,0,0,1-1.314-.3l-.44-1.234-.234-.655a1.372,1.372,0,0,1,.322-1.43l.878-.878a1.869,1.869,0,0,1,2.28-.283,1.9,1.9,0,0,1,.361.282,1.868,1.868,0,0,1,0,2.641Z" transform="translate(-880.906 -82.359)" fill="#4a80aa"/>
          <path id="Trazado_28059" data-name="Trazado 28059" d="M884.465,99.872l-3.246,3.246-.234-.655a1.371,1.371,0,0,1,.322-1.43l.878-.878A1.869,1.869,0,0,1,884.465,99.872Z" transform="translate(-880.906 -82.359)" fill="#407093"/>
        </g>
      </g>
      <path id="Trazado_28060" data-name="Trazado 28060" d="M864.382,50.816l-4.125-4.126a2.989,2.989,0,0,0-1.208-.736V42.907a5.035,5.035,0,0,0-5.029-5.03H827.9a.733.733,0,0,0-.518.214l-11.9,11.9a.731.731,0,0,0-.214.518V82.846a5.035,5.035,0,0,0,5.029,5.03H854.02a5.035,5.035,0,0,0,5.029-5.03V60.41l2.518-2.518a.732.732,0,0,0-1.036-1.036l-6.539,6.54a2.757,2.757,0,0,0-2.276-1.432,2.754,2.754,0,0,0-2.609-2.608,2.757,2.757,0,0,0-1.432-2.275l9.354-9.355a1.552,1.552,0,0,1,2.191,0l4.126,4.126a1.547,1.547,0,0,1,0,2.189l-.757.757a.732.732,0,0,0,1.035,1.036l.757-.756a3.012,3.012,0,0,0,0-4.262ZM827.165,40.377v5.834a3.569,3.569,0,0,1-3.564,3.565h-5.834Zm20.568,20.354a.732.732,0,0,0,.775.167,1.293,1.293,0,0,1,1.665,1.666.733.733,0,0,0,.943.943,1.288,1.288,0,0,1,1.682.809l-4.79,1.547c.005-.069.009-.139.009-.209a2.6,2.6,0,0,0-2.6-2.6c-.07,0-.14,0-.21.009l1.548-4.79a1.29,1.29,0,0,1,.809,1.683.733.733,0,0,0,.168.775Zm-9.843,11.71h7.882a18.078,18.078,0,0,1-1.551,2.11c-1.391,1.619-3.579,3.523-6.33,3.818Zm0-1.464V63.609h5.6l-.14.434-.651.651a2.113,2.113,0,0,0-.494,2.194l.675,1.889a1.529,1.529,0,0,0,2.522.567l1.625-1.625,1.047-.338a20.583,20.583,0,0,1-1.461,3.595Zm7.835-14.016a.733.733,0,0,0-.178.293h0l-1.58,4.892H837.89V51.264a11.6,11.6,0,0,1,8.713,4.818Zm.5,9.5-1.852,1.852c-.013.034-.109.013-.106-.024l-.674-1.889a.642.642,0,0,1,.15-.666l.878-.878a1.135,1.135,0,1,1,1.605,1.605Zm-9.8-4.313h-10.88a11.652,11.652,0,0,1,10.88-10.88Zm0,1.465v7.367H827.7a18.728,18.728,0,0,1-2.153-7.367ZM856,46.69l-8.343,8.344A13.049,13.049,0,0,0,837.89,49.8V47.735a.732.732,0,0,0-1.465,0V49.8a13.119,13.119,0,0,0-12.347,12.348h-2.907a.732.732,0,0,0,0,1.465h2.905a19.963,19.963,0,0,0,1.987,7.367H824.79a.732.732,0,0,0,0,1.465h2.042a20.144,20.144,0,0,0,1.919,2.788.732.732,0,1,0,1.13-.932,18.346,18.346,0,0,1-1.34-1.856h7.885V78.37a8.713,8.713,0,0,1-4.581-2.092.733.733,0,0,0-.931,1.132,10.22,10.22,0,0,0,5.511,2.431v2.076a.732.732,0,1,0,1.465,0V79.842c2.635-.233,5.193-1.719,7.442-4.336a19.992,19.992,0,0,0,2.151-3.065h2.043a.732.732,0,1,0,0-1.465H848.25a21.674,21.674,0,0,0,1.49-4.132l4.064-1.313h0l.012,0h0a.732.732,0,0,0,.293-.178l3.472-3.473V82.847a3.569,3.569,0,0,1-3.564,3.565H820.295a3.57,3.57,0,0,1-3.564-3.566v-31.6h6.87a5.035,5.035,0,0,0,5.029-5.03v-6.87h25.39a3.569,3.569,0,0,1,3.564,3.565v2.951a3,3,0,0,0-1.59.832Z" transform="translate(-815.266 -37.877)" fill="#00223d"/>
    </g>
  </g>
</svg>
