<svg xmlns="http://www.w3.org/2000/svg" width="106" height="106" viewBox="0 0 106 106">
  <g id="Grupo_1084820" data-name="Grupo 1084820" transform="translate(-1007 -7521)">
    <circle id="Elipse_4924" data-name="Elipse 4924" cx="53" cy="53" r="53" transform="translate(1007 7521)" fill="#adce32"/>
    <g id="Grupo_1084821" data-name="Grupo 1084821" transform="translate(-88.184 4025.369)">
      <rect id="Rectángulo_4349" data-name="Rectángulo 4349" width="103" height="103" transform="translate(1097.184 3497.184)" fill="none"/>
      <g id="Grupo_17261" data-name="Grupo 17261" transform="translate(1115.792 3508.587)">
        <path id="Trazado_27285" data-name="Trazado 27285" d="M-303.447,1423.278l-17.15-25.061h34.458Z" transform="translate(336.181 -1388.82)" fill="#c8e7f9"/>
        <path id="Trazado_27286" data-name="Trazado 27286" d="M-294.545,1417.013l-6.186-18.8h12.53Z" transform="translate(327.279 -1388.82)" fill="#e6e6e6"/>
        <path id="Trazado_27287" data-name="Trazado 27287" d="M-288.343,1427.187a6.265,6.265,0,0,1-6.265,6.265,6.266,6.266,0,0,1-6.265-6.265,6.265,6.265,0,0,1,6.265-6.265A6.265,6.265,0,0,1-288.343,1427.187Z" transform="translate(327.343 -1398.994)" fill="#fad79b"/>
        <path id="Trazado_27288" data-name="Trazado 27288" d="M-312.412,1432.274a28.194,28.194,0,0,0-28.193,28.193h6.265a21.928,21.928,0,0,1,21.928-21.928,21.928,21.928,0,0,1,21.928,21.928h6.265A28.194,28.194,0,0,0-312.412,1432.274Z" transform="translate(345.147 -1404.081)" fill="#fac800"/>
        <path id="Trazado_27289" data-name="Trazado 27289" d="M-346,1478.25h62.651v25.06H-346Z" transform="translate(347.563 -1424.683)" fill="#e6e6e6"/>
        <path id="Trazado_27290" data-name="Trazado 27290" d="M-286.139,1391.859H-320.6l4.72-7.831h25.018Z" transform="translate(336.181 -1382.462)" fill="#e6e6e6"/>
        <path id="Trazado_27291" data-name="Trazado 27291" d="M-293.327,1391.859h-12.451l-6.3-7.831h25.06Z" transform="translate(332.366 -1382.462)" fill="#c8e7f9"/>
        <path id="Trazado_27292" data-name="Trazado 27292" d="M-284.618,1433.19h-1.89a29.845,29.845,0,0,0-21.623-24.332,7.73,7.73,0,0,0-.229-1.435l11.014-15.946a1.609,1.609,0,0,0,.052-1.7l-4.6-7.636c-.008-.021-.014-.042-.024-.062a1.566,1.566,0,0,0-1.413-.89H-328.4a1.567,1.567,0,0,0-1.413.89c-.009.02-.016.042-.025.062l-4.6,7.637a1.578,1.578,0,0,0-.221.843,1.589,1.589,0,0,0,.27.85l10.877,15.893a7.789,7.789,0,0,0-.245,1.493,29.844,29.844,0,0,0-21.622,24.332h-1.892a1.566,1.566,0,0,0-1.566,1.566v25.061a1.566,1.566,0,0,0,1.566,1.566h62.651a1.566,1.566,0,0,0,1.567-1.566v-25.061A1.566,1.566,0,0,0-284.618,1433.19Zm-25.384-28.9a7.882,7.882,0,0,0-2.005-1.672l3.532-10.463h6.854Zm-5.941.4a4.7,4.7,0,0,1,4.536,3.48,29.813,29.813,0,0,0-4.536-.347,29.778,29.778,0,0,0-4.537.348A4.705,4.705,0,0,1-315.943,1404.684Zm-4.022-12.53h8.184l-3.193,9.46a7.854,7.854,0,0,0-.969-.062,7.873,7.873,0,0,0-.912.055Zm16.434-6.655,2.123,3.522h-4.959Zm-3.074-1.177-3.783,4.7h-10.952l-3.783-4.7ZM-328.2,1385.5l2.836,3.522h-4.959Zm-1.926,6.655h6.861l3.434,10.434a7.905,7.905,0,0,0-2.018,1.659Zm14.181,18.8a26.669,26.669,0,0,1,26.263,22.241h-3.182a23.532,23.532,0,0,0-23.081-19.109,23.534,23.534,0,0,0-23.082,19.109h-3.181A26.668,26.668,0,0,1-315.943,1410.949Zm19.883,22.241h-39.766a20.4,20.4,0,0,1,19.883-15.976A20.394,20.394,0,0,1-296.06,1433.19Zm9.876,25.06H-345.7v-21.928h59.518Z" transform="translate(348.835 -1381.19)" fill="#00223d"/>
        <path id="Trazado_27293" data-name="Trazado 27293" d="M-244.959,1498.116a1.569,1.569,0,0,0-1.566,1.566,1.569,1.569,0,0,0,1.566,1.567,1.569,1.569,0,0,0,1.566-1.567A1.568,1.568,0,0,0-244.959,1498.116Z" transform="translate(302.989 -1433.585)" fill="#00223d"/>
        <path id="Trazado_27294" data-name="Trazado 27294" d="M-301.719,1501.249h25.06a1.569,1.569,0,0,0,1.566-1.567,1.568,1.568,0,0,0-1.566-1.566h-25.06a1.569,1.569,0,0,0-1.566,1.566A1.569,1.569,0,0,0-301.719,1501.249Z" transform="translate(328.424 -1433.585)" fill="#00223d"/>
        <path id="Trazado_27295" data-name="Trazado 27295" d="M-301.719,1512.6h15.663a1.566,1.566,0,0,0,1.566-1.566,1.566,1.566,0,0,0-1.566-1.566h-15.663a1.566,1.566,0,0,0-1.566,1.566A1.566,1.566,0,0,0-301.719,1512.6Z" transform="translate(328.424 -1438.672)" fill="#00223d"/>
        <path id="Trazado_27296" data-name="Trazado 27296" d="M-252.589,1509.468h-9.4a1.566,1.566,0,0,0-1.566,1.566,1.566,1.566,0,0,0,1.566,1.566h9.4a1.566,1.566,0,0,0,1.566-1.566A1.566,1.566,0,0,0-252.589,1509.468Z" transform="translate(310.62 -1438.672)" fill="#00223d"/>
        <path id="Trazado_27297" data-name="Trazado 27297" d="M-301.719,1489.9h9.4a1.566,1.566,0,0,0,1.566-1.566,1.566,1.566,0,0,0-1.566-1.566h-9.4a1.566,1.566,0,0,0-1.566,1.566A1.566,1.566,0,0,0-301.719,1489.9Z" transform="translate(328.424 -1428.498)" fill="#00223d"/>
        <path id="Trazado_27298" data-name="Trazado 27298" d="M-273.339,1489.9h15.663a1.566,1.566,0,0,0,1.566-1.566,1.566,1.566,0,0,0-1.566-1.566h-15.663a1.566,1.566,0,0,0-1.566,1.566A1.566,1.566,0,0,0-273.339,1489.9Z" transform="translate(315.707 -1428.498)" fill="#00223d"/>
        <path id="Trazado_27299" data-name="Trazado 27299" d="M-332.64,1501.781a1.556,1.556,0,0,0,.908.291,1.563,1.563,0,0,0,1.276-.657l6.657-9.338a1.565,1.565,0,0,0-.366-2.184,1.566,1.566,0,0,0-2.185.366l-6.656,9.338A1.567,1.567,0,0,0-332.64,1501.781Z" transform="translate(341.872 -1429.77)" fill="#00223d"/>
        <path id="Trazado_27300" data-name="Trazado 27300" d="M-318.894,1508.2a1.569,1.569,0,0,0,1.566,1.566,1.569,1.569,0,0,0,1.566-1.566,1.569,1.569,0,0,0-1.566-1.566A1.569,1.569,0,0,0-318.894,1508.2Z" transform="translate(335.418 -1437.4)" fill="#00223d"/>
        <path id="Trazado_27301" data-name="Trazado 27301" d="M-333.961,1492.835a1.569,1.569,0,0,0,1.566-1.566,1.569,1.569,0,0,0-1.566-1.566,1.568,1.568,0,0,0-1.566,1.566A1.569,1.569,0,0,0-333.961,1492.835Z" transform="translate(342.872 -1429.815)" fill="#00223d"/>
      </g>
    </g>
  </g>
</svg>
