<svg xmlns="http://www.w3.org/2000/svg" xmlns:xlink="http://www.w3.org/1999/xlink" width="145" height="144" viewBox="0 0 145 144">
  <defs>
    <clipPath id="clip-path">
      <rect id="Rectángulo_361583" data-name="Rectángulo 361583" width="145" height="66" transform="translate(0 0.052)" fill="#afafaf" stroke="#707070" stroke-width="1"/>
    </clipPath>
    <clipPath id="clip-path-2">
      <rect id="Rectángulo_361582" data-name="Rectángulo 361582" width="145" height="74" transform="translate(0 -0.079)" fill="#f2f7df" stroke="#707070" stroke-width="1"/>
    </clipPath>
    <filter id="Elipse_5267" x="17" y="14.001" width="110" height="110" filterUnits="userSpaceOnUse">
      <feOffset dy="3" input="SourceAlpha"/>
      <feGaussianBlur stdDeviation="3" result="blur"/>
      <feFlood flood-opacity="0.161"/>
      <feComposite operator="in" in2="blur"/>
      <feComposite in="SourceGraphic"/>
    </filter>
  </defs>
  <g id="Grupo_1085503" data-name="Grupo 1085503" transform="translate(-1148 -2396.999)">
    <g id="Grupo_1084213" data-name="Grupo 1084213" transform="translate(1148 2396.947)">
      <g id="Enmascarar_grupo_1083814" data-name="Enmascarar grupo 1083814" transform="translate(0 0)" clip-path="url(#clip-path)">
        <ellipse id="Elipse_5268" data-name="Elipse 5268" cx="66" cy="66.5" rx="66" ry="66.5" transform="translate(5 0.052)" fill="#afafaf"/>
        <circle id="Elipse_5269" data-name="Elipse 5269" cx="46" cy="46" r="46" transform="translate(26 20.052)" fill="#afafaf"/>
      </g>
      <g id="Enmascarar_grupo_1083813" data-name="Enmascarar grupo 1083813" transform="translate(0 70.131)" clip-path="url(#clip-path-2)">
        <ellipse id="Elipse_5265" data-name="Elipse 5265" cx="66" cy="66.5" rx="66" ry="66.5" transform="translate(5 -70.079)" fill="#e8e8e8"/>
        <circle id="Elipse_5266" data-name="Elipse 5266" cx="46" cy="46" r="46" transform="translate(26 -50.078)" fill="#fff"/>
      </g>
      <g transform="matrix(1, 0, 0, 1, 0, 0.05)" filter="url(#Elipse_5267)">
        <circle id="Elipse_5267-2" data-name="Elipse 5267" cx="46" cy="46" r="46" transform="translate(26 20)" fill="#fff"/>
      </g>
    </g>
    <g id="Grupo_1084930" data-name="Grupo 1084930" transform="translate(1200.077 2434)">
      <path id="Trazado_28066" data-name="Trazado 28066" d="M1020.828,247.012V235.829l-4.792-9.585h-12.779l-.8,10.383-5.591,11.981,4.792-1.6,5.191-7.416a4.782,4.782,0,0,0,.62-1.232l2.176-6.527,5.591,5.591,1.6,11.182Z" transform="translate(-996.068 -203.881)" fill="#718799"/>
      <path id="Trazado_28067" data-name="Trazado 28067" d="M1026.676,200.353a6.3,6.3,0,0,1-2.043,4.645l-3.79,3.475-1.355-1.355h-11.981v-3.993a3.2,3.2,0,0,1-3.195-3.2v-2.4a4.792,4.792,0,0,1,4.792-4.792h11.524a3.993,3.993,0,0,1,3.249,1.672l1.625,2.275A6.291,6.291,0,0,1,1026.676,200.353Z" transform="translate(-1000.319 -184.755)" fill="#ffa100"/>
      <path id="Trazado_28068" data-name="Trazado 28068" d="M1046.38,225.208v.3h-.3a22.6,22.6,0,0,1-14.88-5.591l-28.754-35.942v-2.4h2.4l35.942,28.754a22.6,22.6,0,0,1,5.591,14.88Z" transform="translate(-999.256 -178.38)" fill="#ffa686"/>
      <path id="Trazado_28069" data-name="Trazado 28069" d="M996.867,276.235v2.4h7.987v-1.6l-3.195-2.4Z" transform="translate(-996.068 -231.507)" fill="#d1e4ff"/>
      <path id="Trazado_28070" data-name="Trazado 28070" d="M1027.182,188.228h0a2.4,2.4,0,0,1-2.4-2.4v-.8l1.6-1.6h3.195v2.4A2.4,2.4,0,0,1,1027.182,188.228Z" transform="translate(-1012.006 -179.442)" fill="#ffceb6"/>
      <path id="Trazado_28071" data-name="Trazado 28071" d="M1029.578,179.186l.662-1.325a1.292,1.292,0,0,0,.136-.578h0a1.292,1.292,0,0,0-1.292-1.292h-1.9a2.4,2.4,0,0,0-2.4,2.4v2.4l1.6-1.6Z" transform="translate(-1012.006 -175.192)" fill="#c47220"/>
      <path id="Trazado_28072" data-name="Trazado 28072" d="M1026.647,205.507l1.432-1.432a.564.564,0,0,1,.4-.165h0a.565.565,0,0,1,.565.565h0v1.032h2.4v2.4a1.6,1.6,0,0,1-1.6,1.6h-3.195Z" transform="translate(-1013.069 -191.13)" fill="#ffceb6"/>
      <rect id="Rectángulo_4399" data-name="Rectángulo 4399" width="6.39" height="3.994" transform="translate(7.188 14.377)" fill="#ffa100"/>
      <path id="Trazado_28073" data-name="Trazado 28073" d="M1084.631,263.46v.3h-.3a22.6,22.6,0,0,1-14.88-5.591l4.227-4.227,1.13-1.13,4.227-4.227a22.594,22.594,0,0,1,5.591,14.88Z" transform="translate(-1037.508 -216.631)" fill="#ffc431"/>
      <path id="Trazado_28074" data-name="Trazado 28074" d="M1031.7,222.522l-2.516.629a.9.9,0,0,0-.679.87h0a.9.9,0,0,0,.9.9h.7l-1.6,1.6,1.314,1.314a1.6,1.6,0,0,0,2.209.048l2.623-2.4Z" transform="translate(-1014.132 -201.755)" fill="#ffceb6"/>
      <path id="Trazado_28075" data-name="Trazado 28075" d="M1043.4,276.235v2.4h7.987v-1.6l-3.994-2.4Z" transform="translate(-1022.632 -231.507)" fill="#d1e4ff"/>
      <path id="Trazado_28076" data-name="Trazado 28076" d="M1044.739,206.611a6.3,6.3,0,0,1-2.043,4.645l-3.79,3.476-2.952-2.952,8.075-8.075A6.276,6.276,0,0,1,1044.739,206.611Z" transform="translate(-1018.382 -191.013)" fill="#ffa100"/>
      <circle id="Elipse_1079" data-name="Elipse 1079" cx="1.597" cy="1.597" r="1.597" transform="translate(38.338 38.339)" fill="#ffa100"/>
      <rect id="Rectángulo_4400" data-name="Rectángulo 4400" width="1.597" height="1.597" transform="translate(31.948 46.326)" fill="#00223d"/>
      <path id="Trazado_28077" data-name="Trazado 28077" d="M1037.14,205.552a.778.778,0,0,0-.1-.1l-15.645-12.517a7.093,7.093,0,0,0-.553-7.338l-1.625-2.275a4.8,4.8,0,0,0-3.9-2.007h-2.04a3.2,3.2,0,0,0,.1-.8v-2.208l.578-1.156a2.091,2.091,0,0,0-1.871-3.027h-1.9a3.2,3.2,0,0,0-3.195,3.2v3.195a3.178,3.178,0,0,0,.1.8h-.158v.05L1001.1,176.7a.8.8,0,0,0-.5-.175h-2.4a.8.8,0,0,0-.8.8v2.4a.8.8,0,0,0,.175.5L999.8,183a5.541,5.541,0,0,0-1.6,3.912v2.4a4,4,0,0,0,3.195,3.914v3.244l-.785,10.208-5.53,11.849a.8.8,0,0,0-.075.338v2.4a.8.8,0,0,0,.8.8h7.987a.8.8,0,0,0,.8-.8v-1.6a.8.8,0,0,0-.32-.639l-2.577-1.932,4.748-6.783a5.574,5.574,0,0,0,.724-1.438l1.767-5.3,4.489,4.489,1.552,10.862v2.34a.8.8,0,0,0,.8.8h7.987a.8.8,0,0,0,.8-.8v-1.6a.8.8,0,0,0-.388-.685l-3.606-2.163v-7.854l5.766,7.208a.816.816,0,0,0,.1.1,23.387,23.387,0,0,0,6.912,4.191h-3.191v1.6h11.981a.8.8,0,0,0,.8-.8v-.3A23.39,23.39,0,0,0,1037.14,205.552Zm4.185,14.9a21.792,21.792,0,0,1-13.189-4.838l3.611-3.611,1.033,1.033a2.4,2.4,0,1,0,1.129-1.129l-1.033-1.033,3.611-3.611A21.788,21.788,0,0,1,1041.325,220.449Zm-6.384-7.183a.8.8,0,1,1-.8.8A.8.8,0,0,1,1034.941,213.266Zm-17.027-29.013,1.625,2.275a5.5,5.5,0,0,1-.76,7.256l-3.227,2.958-1.846-1.847,3.872-3.872a.8.8,0,0,0-.066-1.188l-7.674-6.14a3.249,3.249,0,0,0,.342.019,3.179,3.179,0,0,0,2.11-.8h3.024A3.2,3.2,0,0,1,1017.914,184.253Zm-5.548,15.41a.8.8,0,0,1-1.1-.024l-.75-.75,1.032-1.033a.8.8,0,0,0-.565-1.363h-.7a.1.1,0,0,1-.024-.194l2.077-.519,2.042,2.042Zm-3.631-3.969h-5.743v-2.4h5.047l1.332,1.665A1.692,1.692,0,0,0,1008.735,195.695Zm.648-6.858.8-.8v.468a.8.8,0,0,0,.8.8h1.6v1.6a.8.8,0,0,1-.8.8h-2.4Zm2.786,5.338-1.152.288-.931-1.164h1.693a2.4,2.4,0,0,0,2.4-2.4v-1.693l1.644,1.315Zm-.405-6.894.534.427h-.519v-.234a1.4,1.4,0,0,0-.015-.193Zm-3.18-6.761v-.468l1.129-1.129h2.065v1.6a1.6,1.6,0,0,1-3.195,0Zm1.6-4.792h1.9a.493.493,0,0,1,.442.714l-.442.883h-2.7a.8.8,0,0,0-.565.234l-.234.234v-.468A1.6,1.6,0,0,1,1010.181,175.727ZM999,178.123h1.317l9.99,7.992a1.353,1.353,0,0,0-.856.394l-1.2,1.2h-2.64L999,179.44Zm.8,11.182v-2.4a3.962,3.962,0,0,1,1.008-2.653l2.761,3.451h-1.373v1.6h5.591v2.4h-5.591A2.4,2.4,0,0,1,999.8,189.3Zm3.195,30.751v.4H996.6v-1.022l3.849-1.283Zm19.968.053v.347h-6.39V219.4l3.124-1.249Zm-3.993-3.389-2.548,1.019-1.453-10.176a.8.8,0,0,0-.226-.452l-5.591-5.591a.8.8,0,0,0-1.322.312l-2.176,6.527a3.983,3.983,0,0,1-.517,1.027l-5.04,7.2-2.78.927,4.806-10.3a.805.805,0,0,0,.073-.276l.742-9.646h5.907a1.716,1.716,0,0,0,.5.513l-.52.52a.8.8,0,0,0,0,1.13l1.315,1.314a2.391,2.391,0,0,0,3.313.072l.363-.332,5.159,6.448Zm-3.979-17.292,4.87-4.465a6.91,6.91,0,0,0,.65-.685l14.834,11.867-8.322,8.323Z" transform="translate(-995.006 -174.129)" fill="#00223d"/>
    </g>
  </g>
</svg>
