<svg xmlns="http://www.w3.org/2000/svg" width="819" height="436" viewBox="0 0 819 436">
  <g id="Grupo_1085472" data-name="Grupo 1085472" transform="translate(-566 -4780.363)">
    <path id="Trazado_794904" data-name="Trazado 794904" d="M3215.511-6912.754v393.066h522.473" transform="translate(-2471.548 11702.583)" fill="none" stroke="#12263f" stroke-width="2"/>
    <path id="Trazado_794907" data-name="Trazado 794907" d="M3597.887-6709.917V-6816.63" transform="translate(-2331.451 11737.8)" fill="none" stroke="#12263f" stroke-width="2"/>
    <path id="Trazado_794908" data-name="Trazado 794908" d="M3597.887-6799.109v-17.521" transform="translate(-2331.451 11876.185)" fill="none" stroke="#12263f" stroke-width="2"/>
    <path id="Trazado_794909" data-name="Trazado 794909" d="M0,17.52V0" transform="translate(1266.745 5128.356) rotate(180)" fill="none" stroke="#12263f" stroke-width="2"/>
    <path id="Trazado_794910" data-name="Trazado 794910" d="M3597.887-6799.109v-17.521" transform="translate(-2331.451 11965.935)" fill="none" stroke="#12263f" stroke-width="2"/>
    <path id="Polígono_5" data-name="Polígono 5" d="M5.5,0,11,17H0Z" transform="translate(1261 4909.363)" fill="#12263f"/>
    <path id="Polígono_12" data-name="Polígono 12" d="M4.1,0,8.2,13.664H0Z" transform="matrix(0.545, -0.839, 0.839, 0.545, 1205.607, 4934.205)" fill="#12263f"/>
    <path id="Polígono_13" data-name="Polígono 13" d="M4.1,0,8.2,13.664H0Z" transform="matrix(-0.978, 0.208, -0.208, -0.978, 1164.678, 4858.389)" fill="#12263f"/>
    <path id="Polígono_6" data-name="Polígono 6" d="M5.5,0,11,15H0Z" transform="translate(1272 5089.363) rotate(180)" fill="#12263f"/>
    <path id="Polígono_7" data-name="Polígono 7" d="M5.466,0l5.466,16.4H0Z" transform="translate(1261.125 5097.814)" fill="#12263f"/>
    <path id="Polígono_8" data-name="Polígono 8" d="M5.466,0l5.466,16.4H0Z" transform="translate(1272.056 5179.847) rotate(180)" fill="#12263f"/>
    <path id="Trazado_794912" data-name="Trazado 794912" d="M3372.113-6683.045l307.64-234.341v119.364Z" transform="translate(-2414.172 11700.886)" fill="#dee4f0"/>
    <path id="Trazado_794913" data-name="Trazado 794913" d="M3418.412-6742.8l-191.45,71.675h97.555Z" transform="translate(-2467.353 11764.854)" fill="#dee4f0"/>
    <path id="Trazado_794914" data-name="Trazado 794914" d="M3737.961-6917.008l-522.387,395.832" transform="translate(-2471.526 11701.023)" fill="none" stroke="#12263f" stroke-width="2"/>
    <path id="Trazado_794915" data-name="Trazado 794915" d="M3734.874-6829.812,3224-6638.282h510.874" transform="translate(-2468.438 11732.972)" fill="none" stroke="#12263f" stroke-width="2"/>
    <path id="Trazado_794916" data-name="Trazado 794916" d="M3241.6-6696v7.928" transform="translate(-2461.991 11782)" fill="none" stroke="#12263f" stroke-width="1"/>
    <path id="Trazado_794917" data-name="Trazado 794917" d="M3241.6-6696v14.641" transform="translate(-2444.228 11775.286)" fill="none" stroke="#12263f" stroke-width="1"/>
    <path id="Trazado_794918" data-name="Trazado 794918" d="M3241.6-6696v23.051" transform="translate(-2425.098 11766.879)" fill="none" stroke="#12263f" stroke-width="1"/>
    <path id="Trazado_794919" data-name="Trazado 794919" d="M3241.6-6696v30.179" transform="translate(-2405.969 11759.75)" fill="none" stroke="#12263f" stroke-width="1"/>
    <path id="Trazado_794920" data-name="Trazado 794920" d="M3241.6-6696v36.039" transform="translate(-2389.573 11753.891)" fill="none" stroke="#12263f" stroke-width="1"/>
    <path id="Trazado_794921" data-name="Trazado 794921" d="M3241.6-6696v31.834" transform="translate(-2369.893 11746.568)" fill="none" stroke="#12263f" stroke-width="1"/>
    <path id="Trazado_794922" data-name="Trazado 794922" d="M3241.6-6696v23.888" transform="translate(-2350.764 11740.075)" fill="none" stroke="#12263f" stroke-width="1"/>
    <path id="Trazado_794923" data-name="Trazado 794923" d="M3241.6-6696v16.9" transform="translate(-2331.635 11731.878)" fill="none" stroke="#12263f" stroke-width="1"/>
    <path id="Trazado_794924" data-name="Trazado 794924" d="M3241.6-6696v10.146" transform="translate(-2312.505 11725.046)" fill="none" stroke="#12263f" stroke-width="1"/>
    <path id="Trazado_794925" data-name="Trazado 794925" d="M3575-6899.6l31.989,30.252" transform="translate(-2339.837 11707.403)" fill="none" stroke="#12263f" stroke-width="1" stroke-dasharray="2"/>
    <path id="Trazado_794928" data-name="Trazado 794928" d="M3575-6899.6l42.919,40.9" transform="translate(-2350.768 11715.602)" fill="none" stroke="#12263f" stroke-width="1" stroke-dasharray="2"/>
    <path id="Trazado_794929" data-name="Trazado 794929" d="M3575-6899.6l52.735,50.8" transform="translate(-2361.297 11725.166)" fill="none" stroke="#12263f" stroke-width="1" stroke-dasharray="2"/>
    <path id="Trazado_794930" data-name="Trazado 794930" d="M3575-6899.6l61.975,64.306" transform="translate(-2371.391 11731.998)" fill="none" stroke="#12263f" stroke-width="1" stroke-dasharray="2"/>
    <path id="Trazado_794931" data-name="Trazado 794931" d="M3575-6899.6l61.975,64.306" transform="translate(-2381.64 11740.196)" fill="none" stroke="#12263f" stroke-width="1" stroke-dasharray="2"/>
    <path id="Trazado_794932" data-name="Trazado 794932" d="M3575-6899.6l61.713,62.984" transform="translate(-2392.285 11748.395)" fill="none" stroke="#12263f" stroke-width="1" stroke-dasharray="2"/>
    <path id="Trazado_794933" data-name="Trazado 794933" d="M3575-6899.6l60.358,59.885" transform="translate(-2404.582 11756.593)" fill="none" stroke="#12263f" stroke-width="1" stroke-dasharray="2"/>
    <path id="Trazado_794934" data-name="Trazado 794934" d="M3575-6899.6l56.424,57.546" transform="translate(-2414.147 11764.15)" fill="none" stroke="#12263f" stroke-width="1" stroke-dasharray="2"/>
    <path id="Trazado_794935" data-name="Trazado 794935" d="M3575-6899.6l53.7,53.248" transform="translate(-2426.444 11773.984)" fill="none" stroke="#12263f" stroke-width="1" stroke-dasharray="2"/>
    <path id="Trazado_794936" data-name="Trazado 794936" d="M3575-6899.6l51.888,51" transform="translate(-2438.742 11782.183)" fill="none" stroke="#12263f" stroke-width="1" stroke-dasharray="2"/>
    <path id="Trazado_794937" data-name="Trazado 794937" d="M3575-6899.6l48.089,45.994" transform="translate(-2448.306 11790.979)" fill="none" stroke="#12263f" stroke-width="1" stroke-dasharray="2"/>
    <path id="Trazado_794938" data-name="Trazado 794938" d="M3575-6899.6l47.206,45.243" transform="translate(-2460.604 11797.812)" fill="none" stroke="#12263f" stroke-width="1" stroke-dasharray="2"/>
    <path id="Trazado_794939" data-name="Trazado 794939" d="M3575-6899.6l43.724,41.835" transform="translate(-2470.169 11806.009)" fill="none" stroke="#12263f" stroke-width="1" stroke-dasharray="2"/>
    <path id="Trazado_794940" data-name="Trazado 794940" d="M3575-6899.6l40.369,38.556" transform="translate(-2481.1 11813.976)" fill="none" stroke="#12263f" stroke-width="1" stroke-dasharray="2"/>
    <path id="Trazado_794941" data-name="Trazado 794941" d="M3575-6899.6l36.24,34.318" transform="translate(-2492.031 11823.541)" fill="none" stroke="#12263f" stroke-width="1" stroke-dasharray="2"/>
    <path id="Trazado_794942" data-name="Trazado 794942" d="M3575-6899.6l33.665,31.634" transform="translate(-2502.962 11831.738)" fill="none" stroke="#12263f" stroke-width="1" stroke-dasharray="2"/>
    <path id="Trazado_794943" data-name="Trazado 794943" d="M3575-6899.6l30.74,28.106" transform="translate(-2513.893 11839.937)" fill="none" stroke="#12263f" stroke-width="1" stroke-dasharray="2"/>
    <path id="Trazado_794944" data-name="Trazado 794944" d="M3575-6899.6l27.557,26.146" transform="translate(-2524.824 11847.556)" fill="none" stroke="#12263f" stroke-width="1" stroke-dasharray="2"/>
    <path id="Trazado_794945" data-name="Trazado 794945" d="M3575-6899.6l26.076,24.684" transform="translate(-2537.122 11855.755)" fill="none" stroke="#12263f" stroke-width="1" stroke-dasharray="2"/>
    <path id="Trazado_794946" data-name="Trazado 794946" d="M3575-6899.6l20.242,20.153" transform="translate(-2546.686 11863.371)" fill="none" stroke="#12263f" stroke-width="1" stroke-dasharray="2"/>
    <path id="Trazado_794947" data-name="Trazado 794947" d="M3575-6899.6l16.874,18.082" transform="translate(-2557.363 11871.569)" fill="none" stroke="#12263f" stroke-width="1" stroke-dasharray="2"/>
    <path id="Trazado_794948" data-name="Trazado 794948" d="M3575-6899.6l14.705,14.25" transform="translate(-2566.928 11879.768)" fill="none" stroke="#12263f" stroke-width="1" stroke-dasharray="2"/>
    <path id="Trazado_794949" data-name="Trazado 794949" d="M3575-6899.6l12.377,11.107" transform="translate(-2577.859 11887.966)" fill="none" stroke="#12263f" stroke-width="1" stroke-dasharray="2"/>
    <path id="Trazado_794950" data-name="Trazado 794950" d="M3575-6899.6l10.187,9.306" transform="translate(-2588.79 11894.799)" fill="none" stroke="#12263f" stroke-width="1" stroke-dasharray="2"/>
    <path id="Trazado_794926" data-name="Trazado 794926" d="M3575-6899.6l20.5,18.374" transform="translate(-2328.906 11699.204)" fill="none" stroke="#12263f" stroke-width="1" stroke-dasharray="2"/>
    <path id="Trazado_794927" data-name="Trazado 794927" d="M3575-6899.6l11.817,9.946" transform="translate(-2319.666 11691.005)" fill="none" stroke="#12263f" stroke-width="1" stroke-dasharray="2"/>
    <path id="Trazado_794951" data-name="Trazado 794951" d="M0,107.016V0" transform="translate(1266.745 4889.375) rotate(180)" fill="none" stroke="#12263f" stroke-width="2"/>
    <path id="Polígono_9" data-name="Polígono 9" d="M5.466,0l5.466,16.4H0Z" transform="translate(1272.056 4900.811) rotate(180)" fill="#12263f"/>
    <path id="Polígono_10" data-name="Polígono 10" d="M5.466,0l5.466,16.4H0Z" transform="translate(972.052 5009.418) rotate(180)" fill="#12263f"/>
    <path id="Polígono_11" data-name="Polígono 11" d="M5.466,0l5.466,16.4H0Z" transform="translate(972.052 5181.213) rotate(180)" fill="#12263f"/>
    <path id="Trazado_794952" data-name="Trazado 794952" d="M3368.674-6839.186v34.485l13.344-12.611v91.491" transform="translate(-2415.431 11729.536)" fill="none" stroke="#12263f" stroke-width="2"/>
    <path id="Trazado_794953" data-name="Trazado 794953" d="M3378.44-6745.882v151.669" transform="translate(-2411.854 11763.722)" fill="none" stroke="#12263f" stroke-width="2" stroke-dasharray="2"/>
    <path id="Trazado_794955" data-name="Trazado 794955" d="M3674.528-6816.63s-42.453,39.191-113.851,15.959" transform="translate(-2345.084 11737.8)" fill="none" stroke="#12263f" stroke-width="2"/>
    <path id="Trazado_794956" data-name="Trazado 794956" d="M3508.937-6877.408s12.081-2.884,13.75,14.119" transform="translate(-2364.041 11715.464)" fill="none" stroke="#12263f" stroke-width="2"/>
    <text id="Ingresos_y_costos" data-name="Ingresos y costos" transform="translate(649 4802.363)" fill="#12263f" font-size="21" font-family="Roboto-Regular, Roboto"><tspan x="-82.267" y="0">Ingresos y costos</tspan></text>
    <text id="Punto_de_equilibrio" data-name="Punto de equilibrio" transform="translate(954 4882.363)" fill="#12263f" font-size="21" font-family="Roboto-Regular, Roboto"><tspan x="-87.148" y="0">Punto de equilibrio</tspan></text>
    <text id="Ingreso" transform="translate(1097 4840.363)" fill="#12263f" font-size="21" font-family="Roboto-Regular, Roboto"><tspan x="-35.058" y="0">Ingreso</tspan></text>
    <text id="Costo_total" data-name="Costo total" transform="translate(1333 4911.363)" fill="#12263f" font-size="21" font-family="Roboto-Regular, Roboto"><tspan x="-51.157" y="0">Costo total</tspan></text>
    <text id="Costos_variables" data-name="Costos variables" transform="translate(1270 5048.363)" fill="#12263f" font-size="21" font-family="Roboto-Regular, Roboto"><tspan x="-77.514" y="0">Costos variables</tspan></text>
    <text id="Costos_fijos" data-name="Costos fijos" transform="translate(1266 5144.363)" fill="#12263f" font-size="21" font-family="Roboto-Regular, Roboto"><tspan x="-55.289" y="0">Costos fijos</tspan></text>
    <text id="Unidades_producidas_y_vendidas" data-name="Unidades producidas y vendidas" transform="translate(1111 5210.363)" fill="#12263f" font-size="21" font-family="Roboto-Regular, Roboto"><tspan x="-150.538" y="0">Unidades producidas y vendidas</tspan></text>
    <text id="Beneficio_neto" data-name="Beneficio
neto" transform="translate(1282 4837.363)" fill="#12263f" font-size="21" font-family="Roboto-Regular, Roboto"><tspan x="0" y="0">Beneficio</tspan><tspan x="0" y="23">neto</tspan></text>
  </g>
</svg>
