<svg id="Grupo_1084983" data-name="Grupo 1084983" xmlns="http://www.w3.org/2000/svg" xmlns:xlink="http://www.w3.org/1999/xlink" width="87.121" height="84.624" viewBox="0 0 87.121 84.624">
  <defs>
    <clipPath id="clip-path">
      <rect id="Rectángulo_380932" data-name="Rectángulo 380932" width="87.121" height="84.623" fill="none"/>
    </clipPath>
  </defs>
  <g id="Grupo_1084981" data-name="Grupo 1084981" clip-path="url(#clip-path)">
    <path id="Trazado_794378" data-name="Trazado 794378" d="M49.148,64.92c.365,1.068-.3,1.482-1.115,1.9q-4.85,2.492-9.661,5.06a4.039,4.039,0,0,1-4.086-.048Q18.3,63.529,2.255,55.345A3.557,3.557,0,0,1,.011,51.781Q.062,35.712,0,19.642a3.729,3.729,0,0,1,2.437-3.729Q18.2,8.3,33.919.617A4.808,4.808,0,0,1,38.5.547q15.833,7.734,31.71,15.38a3.952,3.952,0,0,1,2.466,4.023q-.155,7.522.008,15.047c.038,1.647-.468,2.345-2.076,2.261-3.536-.316-3.536-.316-3.536-4.116V23.419c-9.225,4.448-18.04,8.729-26.892,12.93-1.2.57-1.214,1.4-1.211,2.445.024,7.911.009,15.821.047,23.731,0,.78-.338,1.655.416,2.515,1.054-.538,2.1-1.063,3.132-1.6C46.7,61.3,46.7,61.294,49.148,64.92m-26.916-42.9c7.9-3.532,15.477-7.7,23.59-11.726-2.584-1.234-4.536-2.547-6.827-3.153-1.548-1.393-3.077-1.48-4.98-.456-3.716,2-7.569,3.747-11.365,5.6-4.363,2.132-8.723,4.267-13.513,6.61,2.679,1.33,5.007,2.293,7.131,3.591a4.565,4.565,0,0,0,5.963-.468M14.405,55.2a.437.437,0,0,0,.57.368.435.435,0,0,0,.413.141.473.473,0,0,0,.609.378.443.443,0,0,0,.41.134.48.48,0,0,0,.611.383.4.4,0,0,0,.4.134.5.5,0,0,0,.626.384c4.57,2.394,9.161,4.748,13.7,7.2,1.485.8,1.827.5,1.813-1.123-.068-8.246-.054-16.492-.07-24.738,0-.756.107-1.528-.789-1.954-3.562-1.693-7.113-3.41-10.958-5.257,0,2.508-.15,4.625.041,6.711.2,2.191-.4,2.944-2.743,2.863-2.03-.071-2.961-.439-2.7-2.64a36.383,36.383,0,0,0,.032-4.331c0-5.686,0-5.686-5.485-7.781a17.8,17.8,0,0,0-5.488-2.526c0,8.732.009,17.235-.013,25.739,0,.923.138,1.632,1.084,2.059,2.689,1.211,5.145,2.907,7.959,3.864ZM39,30.7c4.5-2.117,9.02-4.209,13.51-6.357,3.54-1.694,7.049-3.455,11.086-5.44-3.966-1.931-7.435-3.582-10.86-5.318a1.567,1.567,0,0,0-1.637.2Q39.94,19.444,28.787,25.125L25.374,26.81c3.1,1.53,5.952,2.794,8.655,4.324A3.826,3.826,0,0,0,39,30.7" transform="translate(0 0)" fill="#12263f"/>
    <path id="Trazado_794379" data-name="Trazado 794379" d="M86.1,87.139c-2.449-3.626-2.449-3.625-6.583-1.48-1.036.537-2.078,1.062-3.132,1.6-.753-.86-.412-1.735-.416-2.515-.037-7.91-.023-15.821-.047-23.731,0-1.047.009-1.875,1.211-2.445,8.853-4.2,17.667-8.482,26.893-12.93v9.724c0,3.8,0,3.8,3.536,4.116.307,3.408-.63,6.876.5,10.244q-.2.43-.408.861c.664,4-1.93,5.675-4.954,7.235-5.639,2.909-11.249,5.885-16.6,9.322" transform="translate(-36.949 -22.219)" fill="#eeeeec"/>
    <path id="Trazado_794380" data-name="Trazado 794380" d="M122.2,91.091l.407-.861c3.324-3.269,3.324-3.27,6.922-.131,2.5,2.179,5.026,4.327,7.486,6.55,2.139,1.932,2.133,3.438.032,5.286-3.318,2.921-6.7,5.77-9.98,8.735-.947.857-1.568,1.057-2.329-.1a6.48,6.48,0,0,0-1.19-1.326c-1.226-1.054-1.311-1.9.087-2.986a21.815,21.815,0,0,0,4.514-4.161,17.858,17.858,0,0,0-16.74,17.462c-.036,1.36-.015,2.723-.015,4.084,0,3.18-1.732,4.362-4.819,3.363-.655-.211-.694-.6-.72-1.12-.417-8.573.7-16.659,7.376-22.939a22.128,22.128,0,0,1,12.823-6.153c.662-.077,1.314-.247,2.374-.453l-6.23-5.25" transform="translate(-51.498 -42.728)" fill="#ffd947"/>
    <path id="Trazado_794381" data-name="Trazado 794381" d="M27.688,81.485a.4.4,0,0,1-.4-.134l-.611-.383a.443.443,0,0,1-.41-.134l-.609-.378a.434.434,0,0,1-.413-.141l-.57-.368.019.014a1.116,1.116,0,0,0-.786-1.176c-2.693-.771-2.84-2.774-2.806-5.138.107-7.606.046-15.215.049-22.822,5.485,2.1,5.485,2.1,5.485,7.781a36.382,36.382,0,0,1-.032,4.331c-.265,2.2.666,2.569,2.7,2.64,2.341.081,2.943-.672,2.743-2.863-.191-2.086-.041-4.2-.041-6.711,3.844,1.847,7.4,3.564,10.958,5.258.9.425.787,1.2.789,1.953.015,8.246,0,16.492.069,24.738.014,1.623-.329,1.927-1.813,1.124-4.536-2.457-9.127-4.811-13.7-7.205l-.626-.384" transform="translate(-10.275 -24.744)" fill="#ededeb"/>
    <path id="Trazado_794382" data-name="Trazado 794382" d="M56.1,37.858q11.157-5.674,22.317-11.343a1.567,1.567,0,0,1,1.637-.2c3.425,1.736,6.894,3.388,10.86,5.319-4.038,1.984-7.546,3.745-11.087,5.439-4.489,2.147-9.005,4.241-13.509,6.357-3.163-2.3-7-3.376-10.218-5.572" transform="translate(-27.312 -12.733)" fill="#adce32"/>
    <path id="Trazado_794383" data-name="Trazado 794383" d="M15.988,48.427c0,7.607.058,15.216-.049,22.822-.033,2.365.112,4.367,2.806,5.139a1.117,1.117,0,0,1,.786,1.175c-2.815-.957-5.269-2.653-7.959-3.864-.946-.426-1.086-1.136-1.084-2.058.022-8.5.013-17.008.013-25.739a17.8,17.8,0,0,1,5.487,2.526" transform="translate(-5.106 -22.347)" fill="#c1c8cf"/>
    <path id="Trazado_794384" data-name="Trazado 794384" d="M53.716,13.907c2.291.607,4.244,1.919,6.827,3.153C52.43,21.09,44.854,25.254,36.952,28.787a35.676,35.676,0,0,1-6.716-3.179c4.591-2.231,8.521-4.167,12.474-6.055a97.77,97.77,0,0,0,11-5.646" transform="translate(-14.721 -6.771)" fill="#adce32"/>
    <path id="Trazado_794385" data-name="Trazado 794385" d="M47.664,12.82a97.77,97.77,0,0,1-11,5.646c-3.953,1.887-7.883,3.823-12.474,6.055A35.677,35.677,0,0,0,30.9,27.7a4.565,4.565,0,0,1-5.963.468c-2.124-1.3-4.452-2.262-7.131-3.591,4.79-2.344,9.15-4.478,13.513-6.61,3.8-1.854,7.648-3.6,11.365-5.6,1.9-1.024,3.431-.938,4.979.456" transform="translate(-8.669 -5.683)" fill="#0b481e"/>
    <path id="Trazado_794386" data-name="Trazado 794386" d="M52.86,48.963c3.222,2.2,7.055,3.269,10.218,5.572a3.825,3.825,0,0,1-4.975.438c-2.7-1.531-5.557-2.794-8.656-4.324l3.413-1.686" transform="translate(-24.074 -23.838)" fill="#0b481e"/>
    <path id="Trazado_794387" data-name="Trazado 794387" d="M28.073,107.576l.57.368a.437.437,0,0,1-.57-.368" transform="translate(-13.668 -52.374)" fill="#c1c8cf"/>
    <path id="Trazado_794388" data-name="Trazado 794388" d="M29.987,108.569l.608.378a.473.473,0,0,1-.608-.378" transform="translate(-14.599 -52.858)" fill="#c1c8cf"/>
    <path id="Trazado_794389" data-name="Trazado 794389" d="M31.972,109.567l.611.383a.48.48,0,0,1-.611-.383" transform="translate(-15.566 -53.344)" fill="#c1c8cf"/>
    <path id="Trazado_794390" data-name="Trazado 794390" d="M33.934,110.575l.626.384a.5.5,0,0,1-.626-.384" transform="translate(-16.521 -53.834)" fill="#c1c8cf"/>
  </g>
</svg>
