<svg xmlns="http://www.w3.org/2000/svg" width="106" height="106" viewBox="0 0 106 106">
  <g id="Grupo_1084821" data-name="Grupo 1084821" transform="translate(-1007 -7521)">
    <circle id="Elipse_4924" data-name="Elipse 4924" cx="53" cy="53" r="53" transform="translate(1007 7521)" fill="#d2e1f1"/>
    <g id="Grupo_1084822" data-name="Grupo 1084822" transform="translate(1025.046 7538.931)">
      <g id="Grupo_17262" data-name="Grupo 17262" transform="translate(4.028 1.026)">
        <path id="Trazado_27302" data-name="Trazado 27302" d="M-161.761,1420.189l15.511,1.873,19.108-1.873a2.688,2.688,0,0,0,2.684-2.684,2.689,2.689,0,0,0-2.684-2.688h-1.687l-20.663-4.354,20.663-4.35h1.687a2.69,2.69,0,0,0,2.684-2.688,2.686,2.686,0,0,0-2.684-2.684h-34.619a9.741,9.741,0,0,0-9.726,9.722,9.7,9.7,0,0,0,2.853,6.872A9.7,9.7,0,0,0-161.761,1420.189Z" transform="translate(171.487 -1400.741)" fill="#ffe07d" fill-rule="evenodd"/>
      </g>
      <g id="Grupo_17263" data-name="Grupo 17263" transform="translate(9.4 6.399)">
        <path id="Trazado_27303" data-name="Trazado 27303" d="M-157.959,1418.62h32.932a9.687,9.687,0,0,1,0-8.7h-32.932a4.367,4.367,0,0,0-4.354,4.35,4.34,4.34,0,0,0,1.278,3.077A4.34,4.34,0,0,0-157.959,1418.62Z" transform="translate(162.313 -1409.915)" fill="#f9f7f8" fill-rule="evenodd"/>
      </g>
      <g id="Grupo_17264" data-name="Grupo 17264" transform="translate(9.4 6.399)">
        <path id="Trazado_27304" data-name="Trazado 27304" d="M-125.027,1409.915h-32.932a4.367,4.367,0,0,0-4.354,4.35,4.34,4.34,0,0,0,.434,1.89,4.37,4.37,0,0,1,3.92-2.469l31.915,0A10.227,10.227,0,0,1-125.027,1409.915Z" transform="translate(162.313 -1409.915)" fill="#dddaec" fill-rule="evenodd"/>
      </g>
      <g id="Grupo_17265" data-name="Grupo 17265" transform="translate(35.588 1.026)">
        <path id="Trazado_27305" data-name="Trazado 27305" d="M-104.806,1400.741h-12.786a20.85,20.85,0,0,1,1.654,5.372h11.132a2.69,2.69,0,0,0,2.684-2.688A2.686,2.686,0,0,0-104.806,1400.741Z" transform="translate(117.592 -1400.741)" fill="#ffd064" fill-rule="evenodd"/>
      </g>
      <g id="Grupo_17266" data-name="Grupo 17266" transform="translate(4.028 20.475)">
        <path id="Trazado_27306" data-name="Trazado 27306" d="M-144.373,1457.946l23.5-2.622a4.986,4.986,0,0,0,4.97-4.97v-11.43a4.986,4.986,0,0,0-4.97-4.971h-47.993a2.628,2.628,0,0,0-2.622,2.622,2.628,2.628,0,0,0,2.622,2.622h2.469l45.251,5.442-45.251,5.442h-2.469a2.628,2.628,0,0,0-2.622,2.622,2.628,2.628,0,0,0,2.622,2.622Z" transform="translate(171.487 -1433.953)" fill="#a7e9a6" fill-rule="evenodd"/>
      </g>
      <g id="Grupo_17267" data-name="Grupo 17267" transform="translate(9.119 25.718)">
        <path id="Trazado_27307" data-name="Trazado 27307" d="M-162.794,1453.792h43.928a1.327,1.327,0,0,0,1.323-1.323v-8.238a1.327,1.327,0,0,0-1.323-1.324h-43.928a12.473,12.473,0,0,1,1.295,5.442A12.6,12.6,0,0,1-162.794,1453.792Z" transform="translate(162.794 -1442.907)" fill="#f9f7f8" fill-rule="evenodd"/>
      </g>
      <g id="Grupo_17268" data-name="Grupo 17268" transform="translate(9.119 25.718)">
        <path id="Trazado_27308" data-name="Trazado 27308" d="M-118.866,1442.908h-43.928a13.489,13.489,0,0,1,.96,2.667h39.9a1.326,1.326,0,0,1,1.319,1.323v6.894h1.749a1.327,1.327,0,0,0,1.323-1.323v-8.238a1.327,1.327,0,0,0-1.323-1.323Z" transform="translate(162.794 -1442.908)" fill="#dddaec" fill-rule="evenodd"/>
      </g>
      <g id="Grupo_17269" data-name="Grupo 17269" transform="translate(34.852 15.103)">
        <path id="Trazado_27309" data-name="Trazado 27309" d="M-107.014,1424.78h-9.73a20.185,20.185,0,0,1-2.1,5.372h13.521a2.688,2.688,0,0,0,2.684-2.684,2.689,2.689,0,0,0-2.684-2.688Z" transform="translate(118.848 -1424.78)" fill="#ffd064" fill-rule="evenodd"/>
      </g>
      <g id="Grupo_17270" data-name="Grupo 17270" transform="translate(43.585 20.475)">
        <path id="Trazado_27310" data-name="Trazado 27310" d="M-92.877,1433.953h-10.272a20.4,20.4,0,0,1,1.944,5.244h6.732a1.327,1.327,0,0,1,1.323,1.323v8.237a1.327,1.327,0,0,1-1.323,1.323h-7.071a19.674,19.674,0,0,1-2.39,5.243h11.057a4.986,4.986,0,0,0,4.97-4.97v-11.43a4.986,4.986,0,0,0-4.97-4.971Z" transform="translate(103.934 -1433.953)" fill="#7fdbae" fill-rule="evenodd"/>
      </g>
      <g id="Grupo_17271" data-name="Grupo 17271" transform="translate(1.027 41.846)">
        <path id="Trazado_27311" data-name="Trazado 27311" d="M-170.99,1470.449h-.657a4.982,4.982,0,0,0-4.966,4.971v11.43a4.985,4.985,0,0,0,4.966,4.97h60.418a2.633,2.633,0,0,0,2.427-1.633,2.632,2.632,0,0,0,.194-.989,2.637,2.637,0,0,0-.194-.992,2.629,2.629,0,0,0-2.427-1.629H-113.7l-57.673-4.963,57.673-5.921h2.468a2.63,2.63,0,0,0,2.428-1.629,2.647,2.647,0,0,0,.194-.992,2.641,2.641,0,0,0-.194-.989,2.635,2.635,0,0,0-2.428-1.634Z" transform="translate(176.613 -1470.449)" fill="#ffe07d" fill-rule="evenodd"/>
      </g>
      <g id="Grupo_17272" data-name="Grupo 17272" transform="translate(50.275 57.973)">
        <path id="Trazado_27312" data-name="Trazado 27312" d="M-78.842,1497.991h-10.8a19.087,19.087,0,0,1-2.866,5.243h16.135a2.634,2.634,0,0,0,2.428-1.633,2.643,2.643,0,0,0,.194-.989,2.644,2.644,0,0,0-.194-.993,2.631,2.631,0,0,0-2.428-1.629Z" transform="translate(92.509 -1497.991)" fill="#ffd064" fill-rule="evenodd"/>
      </g>
      <g id="Grupo_17273" data-name="Grupo 17273" transform="translate(52.559 41.846)">
        <path id="Trazado_27313" data-name="Trazado 27313" d="M-74.758,1470.449H-88.61a20.759,20.759,0,0,1,1.563,5.244h12.289a2.63,2.63,0,0,0,2.428-1.63,2.643,2.643,0,0,0,.194-.992,2.638,2.638,0,0,0-.194-.988,2.634,2.634,0,0,0-2.428-1.634Z" transform="translate(88.61 -1470.449)" fill="#ffd064" fill-rule="evenodd"/>
      </g>
      <g id="Grupo_17274" data-name="Grupo 17274" transform="translate(6.27 47.089)">
        <path id="Trazado_27314" data-name="Trazado 27314" d="M-111.281,1484.845a12.46,12.46,0,0,1,1.295-5.443h-56.35a1.327,1.327,0,0,0-1.323,1.323v8.238a1.327,1.327,0,0,0,1.323,1.323h56.35a12.6,12.6,0,0,1-1.295-5.442Z" transform="translate(167.659 -1479.403)" fill="#f9f7f8" fill-rule="evenodd"/>
      </g>
      <g id="Grupo_17275" data-name="Grupo 17275" transform="translate(6.27 47.089)">
        <path id="Trazado_27315" data-name="Trazado 27315" d="M-155.142,1479.4h-11.194a1.327,1.327,0,0,0-1.323,1.323v4.118a1.327,1.327,0,0,1,1.323-1.323h55.13a13,13,0,0,1,1.22-4.118h-45.156Z" transform="translate(167.659 -1479.404)" fill="#dddaec" fill-rule="evenodd"/>
      </g>
      <g id="Grupo_17276" data-name="Grupo 17276" transform="translate(18.781 31.16)">
        <path id="Trazado_27316" data-name="Trazado 27316" d="M-146.287,1472.563c-.05.628.194.831.723.347l3.577-3.412,3.577,3.412c.529.484.778.281.724-.347q.006-10.179.008-20.362h-8.613Q-146.292,1462.381-146.287,1472.563Z" transform="translate(146.294 -1452.201)" fill="#eb5468" fill-rule="evenodd"/>
      </g>
      <g id="Grupo_17277" data-name="Grupo 17277" transform="translate(24.452 31.16)">
        <path id="Trazado_27317" data-name="Trazado 27317" d="M-133.665,1452.2h-2.94q-.006,9.3,0,18.6l1.522,1.452.691.661c.529.484.777.282.723-.347v-.314q.006-10.024.008-20.048Z" transform="translate(136.609 -1452.201)" fill="#e5384f" fill-rule="evenodd"/>
      </g>
      <path id="Trazado_27318" data-name="Trazado 27318" d="M-111.954,1455.935h-1.8a10.862,10.862,0,0,1,0-8.832h1.805a3.652,3.652,0,0,0,3.648-3.648,3.652,3.652,0,0,0-3.648-3.648h-7.258a5.971,5.971,0,0,0,1.485-3.944v-11.429a6,6,0,0,0-6-6h-2.951a3.681,3.681,0,0,0,.392-1.657,3.716,3.716,0,0,0-3.71-3.714h-1.015a8.486,8.486,0,0,1,0-6.652h1.017a3.717,3.717,0,0,0,3.71-3.714,3.715,3.715,0,0,0-3.71-3.71h-34.619a10.762,10.762,0,0,0-10.752,10.748,10.679,10.679,0,0,0,3.154,7.6,10.859,10.859,0,0,0,1.289,1.1h-.8a3.652,3.652,0,0,0-3.648,3.648,3.652,3.652,0,0,0,3.648,3.648h1.805a10.862,10.862,0,0,1,0,8.832h-1.8a3.651,3.651,0,0,0-3.648,3.647,3.629,3.629,0,0,0,.648,2.073,6.007,6.007,0,0,0-3.65,5.52v11.43a6,6,0,0,0,5.993,6h60.418a3.652,3.652,0,0,0,3.648-3.648,3.652,3.652,0,0,0-3.648-3.648Zm0-14.075a1.6,1.6,0,0,1,1.6,1.6,1.6,1.6,0,0,1-1.6,1.6h-18.522a1.027,1.027,0,0,0-1.027,1.026,1.027,1.027,0,0,0,1.027,1.027h14.515a13.308,13.308,0,0,0-.739,3.389,11.544,11.544,0,0,0,.741,5.442h-54.814a.3.3,0,0,1-.3-.3V1447.4a.3.3,0,0,1,.3-.3h10.167v3.37a1.454,1.454,0,0,0,.731,1.555,1.471,1.471,0,0,0,1.712-.413l.016-.015,2.869-2.736,2.869,2.736.016.015a1.749,1.749,0,0,0,1.176.537,1.228,1.228,0,0,0,.54-.125,1.45,1.45,0,0,0,.726-1.556V1447.1h14.421a1.026,1.026,0,0,0,1.026-1.026,1.026,1.026,0,0,0-1.026-1.026H-149.95l0-3.191Zm-55.016-12.738a13.342,13.342,0,0,0-.743-3.39h42.394a.3.3,0,0,1,.3.3v8.238a.3.3,0,0,1-.3.3h-24.626v-3.39h7.183a1.026,1.026,0,0,0,1.026-1.026,1.026,1.026,0,0,0-1.026-1.026H-166.97Zm6.362,5.442h-7.107a13.416,13.416,0,0,0,.744-3.389h6.362Zm8.612-3.389-.008,17.976-2.567-2.448a1.026,1.026,0,0,0-1.417,0l-2.566,2.448,0-17.976Zm-21.315-21.438a8.707,8.707,0,0,1,8.7-8.7h34.619a1.659,1.659,0,0,1,1.658,1.657,1.662,1.662,0,0,1-1.658,1.662h-18.918a1.027,1.027,0,0,0-1.027,1.027,1.027,1.027,0,0,0,1.027,1.026H-133.2a10.441,10.441,0,0,0,0,6.652h-31.418a3.317,3.317,0,0,1-2.349-.975,3.32,3.32,0,0,1-.979-2.353,3.33,3.33,0,0,1,3.328-3.324h10.648a1.026,1.026,0,0,0,1.026-1.026,1.026,1.026,0,0,0-1.026-1.027h-10.648a5.385,5.385,0,0,0-5.381,5.377,5.36,5.36,0,0,0,1.58,3.8,5.358,5.358,0,0,0,3.8,1.576h34.619a1.662,1.662,0,0,1,1.658,1.662,1.66,1.66,0,0,1-1.658,1.658h-34.619a8.637,8.637,0,0,1-6.147-2.553,8.639,8.639,0,0,1-2.552-6.147Zm1.6,13.943a1.6,1.6,0,0,1-1.6-1.6,1.6,1.6,0,0,1,1.6-1.6h47.993a3.948,3.948,0,0,1,3.944,3.944v11.43a3.948,3.948,0,0,1-3.944,3.944h-26.224v-3.191h24.627a2.352,2.352,0,0,0,2.349-2.349v-8.237a2.352,2.352,0,0,0-2.349-2.349h-46.4Zm0,12.936h11.108v3.191h-11.108a1.6,1.6,0,0,1-1.6-1.6,1.6,1.6,0,0,1,1.6-1.6Zm59.762,24.562h-60.419a3.947,3.947,0,0,1-3.94-3.944V1445.8a3.947,3.947,0,0,1,3.94-3.945h11.766v3.191h-10.166a2.352,2.352,0,0,0-2.349,2.349v8.237a2.352,2.352,0,0,0,2.349,2.35h58.818a1.6,1.6,0,0,1,1.6,1.6,1.6,1.6,0,0,1-1.6,1.6Z" transform="translate(178.366 -1398.988)" fill="#00223d"/>
    </g>
  </g>
</svg>
