<svg xmlns="http://www.w3.org/2000/svg" xmlns:xlink="http://www.w3.org/1999/xlink" width="145" height="145.999" viewBox="0 0 145 145.999">
  <defs>
    <clipPath id="clip-path">
      <rect id="Rectángulo_361583" data-name="Rectángulo 361583" width="145" height="67" transform="translate(0.497 -0.37)" fill="#ffa686" stroke="#707070" stroke-width="1"/>
    </clipPath>
    <clipPath id="clip-path-2">
      <rect id="Rectángulo_361582" data-name="Rectángulo 361582" width="145" height="75" transform="translate(0.497 0.201)" fill="#f2f7df" stroke="#707070" stroke-width="1"/>
    </clipPath>
    <filter id="Elipse_5267" x="16" y="15" width="111" height="110" filterUnits="userSpaceOnUse">
      <feOffset dy="3" input="SourceAlpha"/>
      <feGaussianBlur stdDeviation="3" result="blur"/>
      <feFlood flood-opacity="0.161"/>
      <feComposite operator="in" in2="blur"/>
      <feComposite in="SourceGraphic"/>
    </filter>
  </defs>
  <g id="Grupo_1085502" data-name="Grupo 1085502" transform="translate(-728 -2398)">
    <g id="Grupo_1084927" data-name="Grupo 1084927" transform="translate(727.503 2398.37)">
      <g id="Enmascarar_grupo_1083814" data-name="Enmascarar grupo 1083814" transform="translate(0 0)" clip-path="url(#clip-path)">
        <ellipse id="Elipse_5268" data-name="Elipse 5268" cx="66.5" cy="67" rx="66.5" ry="67" transform="translate(5.497 -0.37)" fill="#ffa686"/>
        <ellipse id="Elipse_5269" data-name="Elipse 5269" cx="46.5" cy="46" rx="46.5" ry="46" transform="translate(25.497 20.63)" fill="#fff"/>
      </g>
      <g id="Enmascarar_grupo_1083813" data-name="Enmascarar grupo 1083813" transform="translate(0 70.429)" clip-path="url(#clip-path-2)">
        <path id="Trazado_794311" data-name="Trazado 794311" d="M66.5,0C103.227,0,133,30,133,67s-29.773,67-66.5,67S0,104,0,67,29.773,0,66.5,0Z" transform="translate(5.497 -70.799)" fill="#ffe4da"/>
        <ellipse id="Elipse_5266" data-name="Elipse 5266" cx="46.5" cy="46" rx="46.5" ry="46" transform="translate(25.497 -49.799)" fill="#fff"/>
      </g>
      <g transform="matrix(1, 0, 0, 1, 0.5, -0.37)" filter="url(#Elipse_5267)">
        <ellipse id="Elipse_5267-2" data-name="Elipse 5267" cx="46.5" cy="46" rx="46.5" ry="46" transform="translate(25 21)" fill="#fff"/>
      </g>
    </g>
    <g id="Grupo_1084929" data-name="Grupo 1084929" transform="translate(768.801 2427.796)">
      <rect id="Rectángulo_4397" data-name="Rectángulo 4397" width="10.112" height="5.416" transform="translate(31.952 20.742)" fill="#80c4ec"/>
      <path id="Trazado_28061" data-name="Trazado 28061" d="M897.278,179.056v-6.323h-7.641v6.323l1.188,1.463v11.7h5.266v-11.7Z" transform="translate(-856.45 -171.48)" fill="#c3c1c7"/>
      <path id="Trazado_28062" data-name="Trazado 28062" d="M863.178,262.585a29.193,29.193,0,0,1-10.172-1.7,19.422,19.422,0,0,0-4.471-.852l-1.353-.1V241.367l1.28-.157a15.688,15.688,0,0,0,8.091-3.2,20.626,20.626,0,0,1,12.276-4.2v5.057H882.8a3.232,3.232,0,0,1,.007,6.465,3.231,3.231,0,0,1-2.036,5.735,3.231,3.231,0,0,1-2.036,5.735,3.231,3.231,0,0,1-2.042,5.736S864.075,262.585,863.178,262.585Z" transform="translate(-836.877 -199.635)" fill="#ffc388"/>
      <path id="Trazado_28063" data-name="Trazado 28063" d="M887.344,232.011h10.112v-8.673l-2.24-.971v-3.426h-5.633v3.426l-2.24.971Z" transform="translate(-855.393 -192.782)" fill="#ffa686"/>
      <rect id="Rectángulo_4398" data-name="Rectángulo 4398" width="9.05" height="23.659" transform="translate(1.254 39.291)" fill="#adce32"/>
      <path id="Trazado_28064" data-name="Trazado 28064" d="M837.713,251.307a1.248,1.248,0,0,1-.245-.024,1.322,1.322,0,0,1-.234-.072,1.285,1.285,0,0,1-.217-.115,1.244,1.244,0,0,1-.346-.347,1.264,1.264,0,0,1-.187-.451,1.246,1.246,0,0,1,.072-.724,1.277,1.277,0,0,1,.115-.217,1.2,1.2,0,0,1,.346-.346,1.276,1.276,0,0,1,.451-.187,1.251,1.251,0,0,1,.49,0,1.276,1.276,0,0,1,.451.187,1.241,1.241,0,0,1,.462.563,1.254,1.254,0,0,1,.071.234,1.208,1.208,0,0,1,.024.246,1.245,1.245,0,0,1-.095.479,1.307,1.307,0,0,1-.115.216,1.263,1.263,0,0,1-.156.19,1.241,1.241,0,0,1-.408.272,1.334,1.334,0,0,1-.234.072A1.266,1.266,0,0,1,837.713,251.307Z" transform="translate(-831.934 -206.548)" fill="#00223d"/>
      <path id="Trazado_28065" data-name="Trazado 28065" d="M878.472,212.868a4.491,4.491,0,0,0-4.486-4.486h-2.6v-7.419a1.253,1.253,0,0,0-.755-1.15l-1.485-.644V197.82h.986a1.254,1.254,0,0,0,1.254-1.254V191.15a1.254,1.254,0,0,0-1.254-1.254h-1.169v-10l.907-1.118a1.256,1.256,0,0,0,.28-.79v-6.323a1.254,1.254,0,0,0-1.254-1.254h-7.641A1.254,1.254,0,0,0,860,171.661v6.323a1.255,1.255,0,0,0,.28.79l.907,1.118v10h-1.169a1.254,1.254,0,0,0-1.254,1.254v5.416a1.254,1.254,0,0,0,1.254,1.254H861v1.349l-1.485.644a1.253,1.253,0,0,0-.755,1.15v2.44a21.678,21.678,0,0,0-11.7,4.324l-.027.018a14.454,14.454,0,0,1-7.412,2.976V209.7a1.254,1.254,0,0,0-1.254-1.254h-9.05a1.254,1.254,0,0,0-1.254,1.254v23.659a1.254,1.254,0,0,0,1.254,1.254h9.05a1.254,1.254,0,0,0,1.254-1.254v-1.3h.009a18.456,18.456,0,0,1,4.131.78,30.5,30.5,0,0,0,10.6,1.779c.889,0,13-.049,13.515-.051A4.488,4.488,0,0,0,872,228.308a4.487,4.487,0,0,0,2.036-5.735,4.489,4.489,0,0,0,2.036-5.736A4.492,4.492,0,0,0,878.472,212.868Zm-17.2-17.556V192.4h7.6v2.908Zm2.143-16.655-.908-1.118v-4.624h5.133v4.624l-.907,1.118a1.251,1.251,0,0,0-.28.79V189.9h-2.758V179.447A1.254,1.254,0,0,0,863.412,178.657Zm3.221,19.163v2.172a1.254,1.254,0,0,0,.755,1.151l1.485.644v6.6h-7.6v-6.6l1.485-.644a1.254,1.254,0,0,0,.755-1.151V197.82ZM837.114,232.1H835.1V218.428a1.254,1.254,0,1,0-2.508,0V232.1h-2.016V210.951h6.541Zm36.877-17.257H863.872a1.254,1.254,0,0,0,0,2.508h9.611a1.976,1.976,0,0,1-1.528,3.227,1.368,1.368,0,0,0-.157.01h-7.982a1.254,1.254,0,1,0,0,2.508h7.64a1.977,1.977,0,0,1-1.536,3.218,1.259,1.259,0,0,0-.217.019h-5.757a1.254,1.254,0,0,0,0,2.508h5.482a1.977,1.977,0,0,1-1.553,3.208c-.126,0-12.626.051-13.51.051a27.918,27.918,0,0,1-9.711-1.615l-.052-.019a20.677,20.677,0,0,0-4.791-.917l-.189-.014v-16.29l.178-.022a16.94,16.94,0,0,0,8.645-3.408l.027-.018a18.981,18.981,0,0,1,10.289-3.881v3.717a1.254,1.254,0,0,0,1.254,1.254h13.97a1.978,1.978,0,0,1,0,3.956Z" transform="translate(-828.064 -170.407)" fill="#00223d"/>
    </g>
  </g>
</svg>
