<svg xmlns="http://www.w3.org/2000/svg" width="102.469" height="102.69" viewBox="0 0 102.469 102.69">
  <g id="Grupo_17648" data-name="Grupo 17648" transform="translate(-1950.171 -164.436)">
    <path id="Trazado_28159" data-name="Trazado 28159" d="M2029.705,183.333v60.6c0,.121,0,.241-.008.363a7.824,7.824,0,0,1-7.816,7.458H1977.9a7.823,7.823,0,0,1-7.825-7.821V173.771a7.814,7.814,0,0,1,7.825-7.824h34.937a7.8,7.8,0,0,1,3.4.779c2.114,1.017,2.708,2.3,6.507,6.186,4.37,4.745,5.413,5.231,6.3,7.285A7.737,7.737,0,0,1,2029.705,183.333Z" transform="translate(1.352 0.103)" fill="#ffc477"/>
    <path id="Trazado_28160" data-name="Trazado 28160" d="M2029.321,183.333v60.6c0,.121,0,.241-.007.363a7.846,7.846,0,0,1-1.767.2h-43.983a7.824,7.824,0,0,1-7.824-7.822V166.511c0-.123,0-.243.009-.365a7.894,7.894,0,0,1,1.767-.2h34.937a7.825,7.825,0,0,1,5.717,2.484l4.188,4.481,4.795,5.017a7.865,7.865,0,0,1,2.17,5.4Z" transform="translate(1.736 0.103)" fill="#ffdaaa"/>
    <path id="Trazado_28161" data-name="Trazado 28161" d="M2047.941,208.34v43.986a11.056,11.056,0,0,1-11.056,11.057h-28.73a11.057,11.057,0,0,1-11.056-11.057V208.34a11.049,11.049,0,0,1,11.056-11.056h28.73A11.054,11.054,0,0,1,2047.941,208.34Z" transform="translate(3.187 2.231)" fill="#4cba68"/>
    <path id="Trazado_28162" data-name="Trazado 28162" d="M2047.65,208.34v43.986a11,11,0,0,1-2.141,6.54,11.018,11.018,0,0,1-4.343.887h-28.731a11.057,11.057,0,0,1-11.056-11.056V204.71a11,11,0,0,1,2.142-6.54,11.012,11.012,0,0,1,4.344-.886h28.729A11.054,11.054,0,0,1,2047.65,208.34Z" transform="translate(3.477 2.231)" fill="#7ccc92"/>
    <path id="Trazado_28163" data-name="Trazado 28163" d="M2025.41,234.823v5.165a1.653,1.653,0,0,1-1.652,1.654h-5.168a1.653,1.653,0,0,1-1.654-1.654v-5.165a1.653,1.653,0,0,1,1.654-1.654h5.168A1.653,1.653,0,0,1,2025.41,234.823Z" transform="translate(4.534 4.668)" fill="#2c733f"/>
    <path id="Trazado_28164" data-name="Trazado 28164" d="M2039.861,206.893v5.535a3.566,3.566,0,0,1-3.565,3.566h-28.517a3.566,3.566,0,0,1-3.565-3.566v-5.535a3.565,3.565,0,0,1,3.565-3.565H2036.3A3.565,3.565,0,0,1,2039.861,206.893Z" transform="translate(3.67 2.641)" fill="#1e81ce"/>
    <path id="Trazado_28165" data-name="Trazado 28165" d="M2039.476,206.893v5.535a3.566,3.566,0,0,1-3.565,3.566h-22.467a3.567,3.567,0,0,1-3.565-3.566v-5.535a3.566,3.566,0,0,1,3.565-3.565h22.467A3.565,3.565,0,0,1,2039.476,206.893Z" transform="translate(4.055 2.641)" fill="#3d9ae2"/>
    <g id="Grupo_17644" data-name="Grupo 17644" transform="translate(2007.884 224.327)">
      <path id="Trazado_28166" data-name="Trazado 28166" d="M2012.689,234.823v5.165a1.654,1.654,0,0,1-1.655,1.654h-5.167a1.655,1.655,0,0,1-1.653-1.654v-5.165a1.655,1.655,0,0,1,1.653-1.654h5.167A1.654,1.654,0,0,1,2012.689,234.823Z" transform="translate(-2004.214 -219.659)" fill="#2c733f"/>
      <path id="Trazado_28167" data-name="Trazado 28167" d="M2025.41,222.171v5.167a1.653,1.653,0,0,1-1.652,1.653h-5.168a1.653,1.653,0,0,1-1.654-1.653v-5.167a1.653,1.653,0,0,1,1.654-1.653h5.168A1.653,1.653,0,0,1,2025.41,222.171Z" transform="translate(-2003.35 -220.518)" fill="#2c733f"/>
    </g>
    <path id="Trazado_28168" data-name="Trazado 28168" d="M2038.285,222.171v5.167a1.653,1.653,0,0,1-1.653,1.653h-5.166a1.653,1.653,0,0,1-1.654-1.653v-5.167a1.653,1.653,0,0,1,1.654-1.653h5.166A1.653,1.653,0,0,1,2038.285,222.171Z" transform="translate(5.408 3.809)" fill="#ee8700"/>
    <g id="Grupo_17645" data-name="Grupo 17645" transform="translate(2007.884 224.327)">
      <path id="Trazado_28169" data-name="Trazado 28169" d="M2012.689,222.171v5.167a1.654,1.654,0,0,1-1.655,1.653h-5.167a1.655,1.655,0,0,1-1.653-1.653v-5.167a1.655,1.655,0,0,1,1.653-1.653h5.167A1.654,1.654,0,0,1,2012.689,222.171Z" transform="translate(-2004.214 -220.518)" fill="#2c733f"/>
      <path id="Trazado_28170" data-name="Trazado 28170" d="M2025.41,246.852v5.169a1.653,1.653,0,0,1-1.652,1.653h-5.168a1.653,1.653,0,0,1-1.654-1.653v-5.169a1.653,1.653,0,0,1,1.654-1.651h5.168A1.652,1.652,0,0,1,2025.41,246.852Z" transform="translate(-2003.35 -218.842)" fill="#2c733f"/>
      <path id="Trazado_28171" data-name="Trazado 28171" d="M2012.689,246.852v5.169a1.654,1.654,0,0,1-1.655,1.653h-5.167a1.655,1.655,0,0,1-1.653-1.653v-5.169a1.654,1.654,0,0,1,1.653-1.651h5.167A1.653,1.653,0,0,1,2012.689,246.852Z" transform="translate(-2004.214 -218.842)" fill="#2c733f"/>
    </g>
    <path id="Trazado_28172" data-name="Trazado 28172" d="M2038.285,235.625v16.045a2.819,2.819,0,0,1-2.818,2.82h-2.835a2.82,2.82,0,0,1-2.82-2.82V235.625a2.457,2.457,0,0,1,2.456-2.456h3.562A2.455,2.455,0,0,1,2038.285,235.625Z" transform="translate(5.408 4.668)" fill="#ee8700"/>
    <g id="Grupo_17646" data-name="Grupo 17646" transform="translate(2007.884 224.327)">
      <path id="Trazado_28173" data-name="Trazado 28173" d="M2025.41,234.823v1.536a1.653,1.653,0,0,1-1.652,1.654h-5.168a1.653,1.653,0,0,1-1.654-1.654v-1.536a1.653,1.653,0,0,1,1.654-1.654h5.168A1.653,1.653,0,0,1,2025.41,234.823Z" transform="translate(-2003.35 -219.659)" fill="#317f46"/>
      <path id="Trazado_28174" data-name="Trazado 28174" d="M2012.689,234.823v1.536a1.654,1.654,0,0,1-1.655,1.654h-5.167a1.655,1.655,0,0,1-1.653-1.654v-1.536a1.655,1.655,0,0,1,1.653-1.654h5.167A1.654,1.654,0,0,1,2012.689,234.823Z" transform="translate(-2004.214 -219.659)" fill="#317f46"/>
      <path id="Trazado_28175" data-name="Trazado 28175" d="M2025.41,222.171v1.537a1.653,1.653,0,0,1-1.652,1.654h-5.168a1.653,1.653,0,0,1-1.654-1.654v-1.537a1.653,1.653,0,0,1,1.654-1.653h5.168A1.653,1.653,0,0,1,2025.41,222.171Z" transform="translate(-2003.35 -220.518)" fill="#317f46"/>
    </g>
    <path id="Trazado_28176" data-name="Trazado 28176" d="M2038.285,222.171v1.537a1.653,1.653,0,0,1-1.653,1.654h-5.166a1.653,1.653,0,0,1-1.654-1.654v-1.537a1.653,1.653,0,0,1,1.654-1.653h5.166A1.653,1.653,0,0,1,2038.285,222.171Z" transform="translate(5.408 3.809)" fill="#ff9811"/>
    <g id="Grupo_17647" data-name="Grupo 17647" transform="translate(2007.884 224.327)">
      <path id="Trazado_28177" data-name="Trazado 28177" d="M2012.689,222.171v1.537a1.654,1.654,0,0,1-1.655,1.654h-5.167a1.655,1.655,0,0,1-1.653-1.654v-1.537a1.655,1.655,0,0,1,1.653-1.653h5.167A1.654,1.654,0,0,1,2012.689,222.171Z" transform="translate(-2004.214 -220.518)" fill="#317f46"/>
      <path id="Trazado_28178" data-name="Trazado 28178" d="M2025.41,246.852v1.539a1.653,1.653,0,0,1-1.652,1.653h-5.168a1.653,1.653,0,0,1-1.654-1.653v-1.539a1.653,1.653,0,0,1,1.654-1.651h5.168A1.652,1.652,0,0,1,2025.41,246.852Z" transform="translate(-2003.35 -218.842)" fill="#317f46"/>
      <path id="Trazado_28179" data-name="Trazado 28179" d="M2012.689,246.852v1.539a1.654,1.654,0,0,1-1.655,1.653h-5.167a1.655,1.655,0,0,1-1.653-1.653v-1.539a1.654,1.654,0,0,1,1.653-1.651h5.167A1.653,1.653,0,0,1,2012.689,246.852Z" transform="translate(-2004.214 -218.842)" fill="#317f46"/>
    </g>
    <path id="Trazado_28180" data-name="Trazado 28180" d="M2038.285,235.625v12.416a2.819,2.819,0,0,1-2.818,2.82h-2.835a2.82,2.82,0,0,1-2.82-2.82V235.625a2.457,2.457,0,0,1,2.456-2.456h3.562A2.455,2.455,0,0,1,2038.285,235.625Z" transform="translate(5.408 4.668)" fill="#ff9811"/>
    <path id="Trazado_28181" data-name="Trazado 28181" d="M2026.109,180.147h-9.8a3.008,3.008,0,0,1-3.007-3.007V166.675a7.813,7.813,0,0,1,2.319,1.705l4.191,4.481,4.794,5.018A7.738,7.738,0,0,1,2026.109,180.147Z" transform="translate(4.287 0.152)" fill="#ffb655"/>
    <path id="Trazado_28182" data-name="Trazado 28182" d="M1994.247,254.971a3.843,3.843,0,0,1-3.832,3.832h-23.471a3.832,3.832,0,0,1,0-7.663h23.471A3.844,3.844,0,0,1,1994.247,254.971Z" transform="translate(0.879 5.888)" fill="#aa6100"/>
    <path id="Trazado_28183" data-name="Trazado 28183" d="M1994.247,247.8a3.842,3.842,0,0,1-3.832,3.831h-23.471a3.831,3.831,0,0,1,0-7.662h23.471A3.844,3.844,0,0,1,1994.247,247.8Z" transform="translate(0.879 5.401)" fill="#cc7400"/>
    <path id="Trazado_28184" data-name="Trazado 28184" d="M1994.247,240.621a3.842,3.842,0,0,1-3.832,3.831h-23.471a3.831,3.831,0,0,1,0-7.662h23.471A3.843,3.843,0,0,1,1994.247,240.621Z" transform="translate(0.879 4.914)" fill="#ee8700"/>
    <path id="Trazado_28185" data-name="Trazado 28185" d="M1994.247,233.445a3.843,3.843,0,0,1-3.832,3.832h-23.471a3.843,3.843,0,0,1-3.831-3.832,3.841,3.841,0,0,1,3.831-3.832h23.471A3.844,3.844,0,0,1,1994.247,233.445Z" transform="translate(0.879 4.426)" fill="#ff9811"/>
    <path id="Trazado_28186" data-name="Trazado 28186" d="M1990.414,230.1h-23.471a3.843,3.843,0,0,1-3.831-3.832h0a3.842,3.842,0,0,1,3.831-3.831h23.471a3.842,3.842,0,0,1,3.831,3.831h0A3.843,3.843,0,0,1,1990.414,230.1Z" transform="translate(0.879 3.939)" fill="#ffa733"/>
    <path id="Trazado_28187" data-name="Trazado 28187" d="M1981.544,247.306a12.467,12.467,0,0,0-12.991-11.937h-4.885c-11.075.481-16.238,14.275-7.756,21.8a12.441,12.441,0,0,0,8.823,3.142h3.816v0c.349.014.7.017,1.054,0a12.608,12.608,0,0,0,2.319-.317,12.482,12.482,0,0,0,9.621-11.7v-.014C1981.557,247.955,1981.557,247.633,1981.544,247.306Z" transform="translate(0.103 4.816)" fill="#cc7400"/>
    <path id="Trazado_28188" data-name="Trazado 28188" d="M1980.871,248.256v.014a9.794,9.794,0,1,1-19.229.082c0-.028,0-.054,0-.082v-.014a9.882,9.882,0,1,1,19.231-.971C1980.882,247.612,1980.882,247.934,1980.871,248.256Z" transform="translate(0.778 4.837)" fill="#ee8700"/>
    <path id="Trazado_28189" data-name="Trazado 28189" d="M2040.072,198h-7.4V183.435a9.461,9.461,0,0,0-2.615-6.52l-4.783-5c-4.059-4.183-4.572-5.364-6.989-6.538a9.46,9.46,0,0,0-4.1-.938h-34.936a9.447,9.447,0,0,0-9.438,9.437v50.891h-1.99a5.442,5.442,0,0,0-3.864,9.276,5.426,5.426,0,0,0-1.58,3.831,5.612,5.612,0,0,0,.107,1.078c-11.814,1.2-16.521,15.824-7.874,23.761a13.635,13.635,0,0,0,9.835,3.6l26.847-.011a5.441,5.441,0,0,0,3.864-9.275,5.422,5.422,0,0,0,1.573-3.561h2.042v1.09a12.584,12.584,0,0,0,12.569,12.569h28.73a12.583,12.583,0,0,0,12.568-12.569V210.571A12.582,12.582,0,0,0,2040.072,198ZM2019.2,170.141c6.336,6.7,7.764,8.207,8.032,8.491l0,0h0l.008.01,0,0a.026.026,0,0,0,.011.012l.007.009,0,0,.005.005.009.009H2019.2v-8.545Zm-51.375,57.85h23.471a2.218,2.218,0,0,1,0,4.436h-23.471a2.218,2.218,0,0,1,0-4.436Zm0,7.662h23.471a2.218,2.218,0,0,1,0,4.436h-16.212a13.254,13.254,0,0,0-2.043-.738,13.641,13.641,0,0,0-3.226-.474c-.317-.007-.633-.005-.95.009h-3.01a2.184,2.184,0,0,1-.248-1.014A2.222,2.222,0,0,1,1967.823,235.653Zm25.689,9.881a2.221,2.221,0,0,1-2.218,2.218h-9.027a13.548,13.548,0,0,0-2.739-4.436h11.766A2.222,2.222,0,0,1,1993.512,245.534Zm-33.538-2.9a13.931,13.931,0,0,0-2.54,3.259h-1.88A10.66,10.66,0,0,1,1959.974,242.638Zm-6.136,6.284h2.349a14,14,0,0,0-.44,2.418h-2.482A10.6,10.6,0,0,1,1953.839,248.922Zm.26,8a10.612,10.612,0,0,1-.758-2.553h2.463a12.3,12.3,0,0,0,.577,2.553Zm2.012,3.024c.99,0,1.565,0,1.7,0a13.606,13.606,0,0,0,2.17,2.626A10.674,10.674,0,0,1,1956.111,259.942Zm13.764,3.349a10.7,10.7,0,1,1,6.781-18.573A10.692,10.692,0,0,1,1969.875,263.29Zm21.419-.214h-13.02a13.822,13.822,0,0,0,3.466-4.436h9.554a2.218,2.218,0,0,1,0,4.436Zm2.2-9.61a2.218,2.218,0,0,1-2.2,1.948h-8.44a13.866,13.866,0,0,0,.2-4.436h8.245A2.219,2.219,0,0,1,1993.494,253.467Zm5.279-3.226h-2.911a5.344,5.344,0,0,0-.7-.876,5.432,5.432,0,0,0,0-7.662,5.434,5.434,0,0,0,0-7.662,5.449,5.449,0,0,0-3.864-9.276h-18.255V173.873a6.219,6.219,0,0,1,6.211-6.211h36.721V180.3a1.613,1.613,0,0,0,1.614,1.613h11.667c.336,1.307.129.876.191,16.089h-18.1a12.583,12.583,0,0,0-12.569,12.568v39.671Zm50.843,4.316a9.553,9.553,0,0,1-9.544,9.544h-28.73a9.556,9.556,0,0,1-9.544-9.544V210.571a9.555,9.555,0,0,1,9.544-9.544h28.73a9.553,9.553,0,0,1,9.544,9.544v43.986Z" transform="translate(0)" fill="#00223d"/>
    <path id="Trazado_28190" data-name="Trazado 28190" d="M2013.362,214.577h-5.487a2.06,2.06,0,0,1-2.053-2.054v-5.535a2.059,2.059,0,0,1,2.053-2.053h28.516a2.054,2.054,0,0,1,2.052,2.053v5.535a2.055,2.055,0,0,1-2.052,2.054h-16.509a1.512,1.512,0,0,0,0,3.024h16.509a5.083,5.083,0,0,0,5.078-5.078v-5.535a5.082,5.082,0,0,0-5.078-5.077h-28.516a5.076,5.076,0,0,0-5.077,5.077v5.535a5.077,5.077,0,0,0,5.077,5.078h5.487a1.512,1.512,0,0,0,0-3.024Z" transform="translate(3.574 2.545)" fill="#00223d"/>
    <path id="Trazado_28191" data-name="Trazado 28191" d="M2005.963,243.251h5.168a3.169,3.169,0,0,0,3.166-3.166v-5.165a3.168,3.168,0,0,0-3.166-3.166h-5.168a3.17,3.17,0,0,0-3.165,3.166v5.165A3.17,3.17,0,0,0,2005.963,243.251Zm-.141-8.332a.142.142,0,0,1,.141-.142h5.168a.143.143,0,0,1,.142.142v5.165a.142.142,0,0,1-.142.141h-5.168a.141.141,0,0,1-.141-.141Z" transform="translate(3.574 4.572)" fill="#00223d"/>
    <path id="Trazado_28192" data-name="Trazado 28192" d="M2036.728,219.1h-5.165a3.168,3.168,0,0,0-3.167,3.165v5.167a3.168,3.168,0,0,0,3.167,3.165h5.165a3.169,3.169,0,0,0,3.166-3.165v-5.167A3.169,3.169,0,0,0,2036.728,219.1Zm.141,8.332a.14.14,0,0,1-.141.141h-5.165a.141.141,0,0,1-.142-.141c.063-5.111-.132-5.308.142-5.308h5.165a.14.14,0,0,1,.141.141Z" transform="translate(5.312 3.712)" fill="#00223d"/>
    <path id="Trazado_28193" data-name="Trazado 28193" d="M2005.963,230.6h5.168a3.169,3.169,0,0,0,3.166-3.166v-5.167a3.168,3.168,0,0,0-3.166-3.165h-5.168a3.169,3.169,0,0,0-3.165,3.165v5.167A3.17,3.17,0,0,0,2005.963,230.6Zm-.141-8.333a.142.142,0,0,1,.141-.141h5.168a.143.143,0,0,1,.142.141v5.167a.142.142,0,0,1-.142.141h-5.168a.141.141,0,0,1-.141-.141Z" transform="translate(3.574 3.712)" fill="#00223d"/>
    <path id="Trazado_28194" data-name="Trazado 28194" d="M2013.5,244.852a3.163,3.163,0,0,0-2.37-1.067h-5.167a3.155,3.155,0,0,0-2.367,1.067c-1.1,1.231-.726,2.575-.8,3.226v4.039a3.169,3.169,0,0,0,3.165,3.165h5.167a3.168,3.168,0,0,0,3.167-3.165v-4.039C2014.225,247.44,2014.594,246.083,2013.5,244.852Zm-2.37,7.406c-5.1-.063-5.308.131-5.308-.141,0-5.471-.061-5.308.141-5.308h5.167c.249,0,.095.345.142,1.269C2011.273,248.078,2011.4,252.258,2011.131,252.258Z" transform="translate(3.574 5.389)" fill="#00223d"/>
    <path id="Trazado_28195" data-name="Trazado 28195" d="M2035.926,231.753h-3.562a3.973,3.973,0,0,0-3.968,3.968v16.045a4.337,4.337,0,0,0,4.331,4.333h2.836a4.336,4.336,0,0,0,4.331-4.333V235.721A3.972,3.972,0,0,0,2035.926,231.753Zm.943,20.014a1.307,1.307,0,0,1-1.306,1.308h-2.836a1.309,1.309,0,0,1-1.307-1.308V235.721a.946.946,0,0,1,.944-.944h3.562a.945.945,0,0,1,.943.944v16.045Z" transform="translate(5.312 4.572)" fill="#00223d"/>
    <path id="Trazado_28196" data-name="Trazado 28196" d="M1987.032,206.232h0c-1.844-.677-3.176-1.167-3.176-2.875,0-1.557,1.034-2.347,3.073-2.347,2.165,0,2.748.954,3.51.954a1.452,1.452,0,0,0,1.289-1.49c0-1.26-2.055-1.885-3.892-2.05v-1.135a1.433,1.433,0,0,0-2.866,0V198.6a4.687,4.687,0,0,0-3.893,4.9c0,3.52,2.592,4.494,4.674,5.277,2.039.766,3.649,1.371,3.649,3.7,0,1.922-1.067,2.9-3.173,2.9-3.083,0-3.112-2.08-4.287-2.08a1.513,1.513,0,0,0-1.315,1.49c0,1.192,1.775,2.757,4.344,3.164v1.1a1.433,1.433,0,0,0,2.866,0v-1.128c2.763-.52,4.343-2.549,4.343-5.592C1992.18,208.123,1989.326,207.074,1987.032,206.232Z" transform="translate(2.068 2.134)" fill="#00223d"/>
    <path id="Trazado_28197" data-name="Trazado 28197" d="M2023.854,243.785h-5.167a3.164,3.164,0,0,0-2.37,1.067c-1.094,1.233-.724,2.575-.8,3.226v4.039a3.169,3.169,0,0,0,3.167,3.165h5.167a3.168,3.168,0,0,0,3.164-3.165v-5.169a3.167,3.167,0,0,0-3.164-3.163Zm0,8.473c-5.106-.063-5.31.131-5.31-.141v-5.169a.142.142,0,0,1,.142-.139h5.167a.14.14,0,0,1,.14.139C2023.933,252.067,2024.122,252.258,2023.854,252.258Z" transform="translate(4.438 5.389)" fill="#00223d"/>
    <path id="Trazado_28198" data-name="Trazado 28198" d="M2023.854,219.1h-5.168a3.168,3.168,0,0,0-3.167,3.165v5.167a3.169,3.169,0,0,0,3.167,3.165h5.168a3.118,3.118,0,0,0,1.151-.217,3.171,3.171,0,0,0,2.013-2.948v-5.167A3.17,3.17,0,0,0,2023.854,219.1Zm.14,8.332a.14.14,0,0,1-.14.141h-5.168a.142.142,0,0,1-.142-.141v-5.167c0-.271.188-.08,5.31-.141a.14.14,0,0,1,.14.141v5.167Z" transform="translate(4.438 3.712)" fill="#00223d"/>
    <path id="Trazado_28199" data-name="Trazado 28199" d="M2025.005,231.971a3.118,3.118,0,0,0-1.151-.218h-5.168a3.168,3.168,0,0,0-3.167,3.165v5.167a3.17,3.17,0,0,0,3.167,3.166h5.168a3.168,3.168,0,0,0,3.164-3.166v-5.167A3.169,3.169,0,0,0,2025.005,231.971Zm-1.011,8.114a.14.14,0,0,1-.14.141h-5.168a.142.142,0,0,1-.142-.141v-5.167a.142.142,0,0,1,.142-.141h5.168a.14.14,0,0,1,.14.141Z" transform="translate(4.438 4.572)" fill="#00223d"/>
    <path id="Trazado_28200" data-name="Trazado 28200" d="M2011.689,186.813h3.8a1.512,1.512,0,0,0,0-3.024h-3.8a1.512,1.512,0,0,0,0,3.024Z" transform="translate(4.075 1.314)" fill="#00223d"/>
    <path id="Trazado_28201" data-name="Trazado 28201" d="M1980.911,186.813h26.818a1.512,1.512,0,1,0,0-3.024h-26.818a1.512,1.512,0,0,0,0,3.024Z" transform="translate(1.985 1.314)" fill="#00223d"/>
    <path id="Trazado_28202" data-name="Trazado 28202" d="M1985.718,193.843a1.513,1.513,0,0,0,0-3.025h-4.807a1.513,1.513,0,0,0,0,3.025Z" transform="translate(1.985 1.792)" fill="#00223d"/>
    <path id="Trazado_28203" data-name="Trazado 28203" d="M2018.4,192.33a1.513,1.513,0,0,0-1.512-1.512h-25.811a1.513,1.513,0,0,0,0,3.025h25.811A1.513,1.513,0,0,0,2018.4,192.33Z" transform="translate(2.675 1.792)" fill="#00223d"/>
    <path id="Trazado_28204" data-name="Trazado 28204" d="M1967.883,244.426c0-.38.14-.489.271-.562a2.6,2.6,0,0,1,2.192.148,1.728,1.728,0,0,0,.818.249c1.492,0,2.672-2.772-.892-3.384v-.1a1.532,1.532,0,1,0-3.065,0v.292a3.439,3.439,0,0,0-2.338,3.444c0,2.579,1.874,3.283,3.242,3.8,1.3.49,1.757.7,1.757,1.592,0,.555-.149,1.069-1.234,1.069-1.581,0-1.392-1.249-2.575-1.249a1.58,1.58,0,0,0-1.461,1.567c0,1.048,1.09,2.042,2.609,2.444v.115a1.532,1.532,0,1,0,3.065,0V253.7a3.789,3.789,0,0,0,2.609-3.881C1972.882,245.221,1967.883,245.911,1967.883,244.426Z" transform="translate(0.98 5.081)" fill="#00223d"/>
  </g>
</svg>
