<svg xmlns="http://www.w3.org/2000/svg" width="52" height="45" viewBox="0 0 52 45">
  <g id="Grupo_1085502" data-name="Grupo 1085502" transform="translate(8486 8805)">
    <g id="Rectángulo_380860" data-name="Rectángulo 380860" transform="translate(-8486 -8805)" fill="#fff" stroke="#0b481e" stroke-width="1">
      <rect width="52" height="45" rx="5" stroke="none"/>
      <rect x="0.5" y="0.5" width="51" height="44" rx="4.5" fill="none"/>
    </g>
    <g id="Grupo_1085501" data-name="Grupo 1085501" transform="translate(60 -0.999)">
      <path id="Trazado_27319" data-name="Trazado 27319" d="M57.673,1431.54l-.7,1.25-.638,1.128-1.321,2.346H31.773a2.572,2.572,0,0,1-1.115-4.893,2.5,2.5,0,0,1-.174-.909,2.578,2.578,0,0,1,2.578-2.578,2.533,2.533,0,0,1,.7.11,2.579,2.579,0,0,1,2.25-2.018,2.536,2.536,0,0,1-.373-1.315,2.578,2.578,0,0,1,2.578-2.579,3.075,3.075,0,0,1,.341.032,2.557,2.557,0,0,1,2.237-1.322,2.5,2.5,0,0,1,.908.174,2.562,2.562,0,0,1,4.628,0,2.508,2.508,0,0,1,.909-.174,2.556,2.556,0,0,1,2.236,1.322,3.083,3.083,0,0,1,.342-.032,2.579,2.579,0,0,1,2.572,2.417,1.379,1.379,0,0,1,.007.161,2.544,2.544,0,0,1-.374,1.315,2.578,2.578,0,0,1,2.25,2.018,2.536,2.536,0,0,1,.7-.11,2.579,2.579,0,0,1,2.579,2.578,2.514,2.514,0,0,1-.174.909A2.119,2.119,0,0,1,57.673,1431.54Z" transform="translate(-8562.116 -10214.556)" fill="#7ca540"/>
      <path id="Trazado_27320" data-name="Trazado 27320" d="M98.873,1420.837c.7-1.638.464-3.305-.52-3.722-.778-.33-1.788.228-2.523,1.289a1.717,1.717,0,0,0-1.518-.838c-1.06.129-1.741,1.668-1.528,3.435s1.251,3.094,2.311,2.965a1.532,1.532,0,0,0,1.088-.826C97.12,1423.225,98.257,1422.288,98.873,1420.837Z" transform="translate(-8600.592 -10213.05)" fill="#88bf40"/>
      <path id="Trazado_27321" data-name="Trazado 27321" d="M86.867,1431.88a4.083,4.083,0,0,1-.077.787,4.24,4.24,0,0,1-.445,1.192l-.006.02-1.528,2.707-.7,1.25-.638,1.128-1.321,2.346-4.087,7.278a2.16,2.16,0,0,1-3.952-1.676l1.676-5.6,2.237-7.464.367-1.238.567-1.888a3.9,3.9,0,0,1,.574-1.174,4.039,4.039,0,0,1,7.336,2.333Z" transform="translate(-8589.254 -10219.602)" fill="#faac2b"/>
      <path id="Trazado_27322" data-name="Trazado 27322" d="M56.789,1468.425a6.446,6.446,0,1,1-6.446-6.446A6.446,6.446,0,0,1,56.789,1468.425Z" transform="translate(-8571.018 -10240.27)" fill="#9f1f5a"/>
      <path id="Trazado_27323" data-name="Trazado 27323" d="M60.972,1447.13a6.343,6.343,0,0,0,.681-7.708,1.289,1.289,0,1,0-1.823-1.8,1.228,1.228,0,0,0-.082.117,6.6,6.6,0,0,0-8.251,9.532,1.285,1.285,0,1,0,1.845,1.786,1.225,1.225,0,0,0,.1-.142A6.342,6.342,0,0,0,60.972,1447.13Z" transform="translate(-8574.974 -10225.208)" fill="#fde700"/>
      <path id="Trazado_27324" data-name="Trazado 27324" d="M22.489,1446.9c.2,3.554,3.344,8.207,6.9,8.011s6.17-5.168,5.973-8.723-3.2-5.633-6.756-5.437S22.292,1443.344,22.489,1446.9Z" transform="translate(-8558.051 -10227.409)" fill="#9f1f5a"/>
      <path id="Trazado_27325" data-name="Trazado 27325" d="M20.13,1409.5a3.868,3.868,0,0,0-3.659,6.794,3.857,3.857,0,0,0,5.682,3.534,3.721,3.721,0,0,0,.728-.505l1.764-.1a3.672,3.672,0,0,0,.779.422,3.857,3.857,0,0,0,5.259-4.138,3.867,3.867,0,0,0-4.383-6.348Z" transform="translate(-8553.32 -10207.971)" fill="#88bf40"/>
      <path id="Trazado_27326" data-name="Trazado 27326" d="M26.854,1410.574a38.5,38.5,0,1,0,.628,1.9A3.846,3.846,0,0,1,26.854,1410.574Z" transform="translate(-8560.696 -10206.674)" fill="#7ca540"/>
      <path id="Trazado_27327" data-name="Trazado 27327" d="M38.952,1455.445H41.53a3.223,3.223,0,1,1,0,6.446H38.952a3.223,3.223,0,0,1,0-6.446Z" transform="translate(-8566.072 -10236.313)" fill="#ecaf4a"/>
      <path id="Trazado_27328" data-name="Trazado 27328" d="M66.723,1476.682H69.3a3.223,3.223,0,1,1,0,6.446H66.723a3.223,3.223,0,1,1,0-6.446Z" transform="translate(-8582.886 -10249.171)" fill="#ecaf4a"/>
      <path id="Trazado_27329" data-name="Trazado 27329" d="M75.448,1454.067a5.157,5.157,0,1,1-5.157-5.157A5.157,5.157,0,0,1,75.448,1454.067Z" transform="translate(-8583.875 -10232.357)" fill="#ffc018"/>
      <path id="Trazado_27330" data-name="Trazado 27330" d="M42.776,1475.3a5.157,5.157,0,1,1-5.157-5.157A5.157,5.157,0,0,1,42.776,1475.3Z" transform="translate(-8564.095 -10245.215)" fill="#fde700"/>
      <path id="Trazado_27331" data-name="Trazado 27331" d="M21.026,1468.514h32.23v5.157H21.026Z" transform="translate(-8557.171 -10244.226)" fill="#8e662b"/>
      <path id="Trazado_27332" data-name="Trazado 27332" d="M21.026,1488.117h32.23v5.157H21.026Z" transform="translate(-8557.171 -10256.094)" fill="#8e662b"/>
      <path id="Trazado_27333" data-name="Trazado 27333" d="M34.351,1477.449v-12.892a2.578,2.578,0,1,0-5.157,0v12.892" transform="translate(-8562.116 -10240.27)" fill="#a2783b"/>
      <path id="Trazado_27334" data-name="Trazado 27334" d="M81.47,1477.449v-12.892a2.578,2.578,0,1,1,5.157,0v12.892" transform="translate(-8593.765 -10240.27)" fill="#a2783b"/>
      <g id="Grupo_17282" data-name="Grupo 17282" transform="translate(-8527.766 -8775.712)">
        <path id="Trazado_27335" data-name="Trazado 27335" d="M42.263,1468.514h1.289v5.157H42.263Z" transform="translate(-42.263 -1468.514)" fill="#80582f"/>
        <path id="Trazado_27336" data-name="Trazado 27336" d="M42.263,1488.117h1.289v5.157H42.263Z" transform="translate(-42.263 -1480.382)" fill="#80582f"/>
        <path id="Trazado_27337" data-name="Trazado 27337" d="M94.539,1468.514h1.289v5.157H94.539Z" transform="translate(-73.912 -1468.514)" fill="#80582f"/>
        <path id="Trazado_27338" data-name="Trazado 27338" d="M94.539,1488.117h1.289v5.157H94.539Z" transform="translate(-73.912 -1480.382)" fill="#80582f"/>
      </g>
      <path id="Trazado_27339" data-name="Trazado 27339" d="M34.1,1493.018h1.289v1.289H34.1Z" transform="translate(-8565.083 -10259.061)" fill="#00223d"/>
      <path id="Trazado_27340" data-name="Trazado 27340" d="M34.1,1473.414h1.289v1.289H34.1Z" transform="translate(-8565.083 -10247.192)" fill="#00223d"/>
      <path id="Trazado_27341" data-name="Trazado 27341" d="M86.371,1493.018H87.66v1.289H86.371Z" transform="translate(-8596.732 -10259.061)" fill="#00223d"/>
      <path id="Trazado_27342" data-name="Trazado 27342" d="M86.371,1473.414H87.66v1.289H86.371Z" transform="translate(-8596.732 -10247.192)" fill="#00223d"/>
      <path id="Trazado_27343" data-name="Trazado 27343" d="M50.309,1409.167a2.55,2.55,0,0,0-2.813.9,2.062,2.062,0,0,0-1.561-.5c-1.431.174-2.349,2-2.091,4.141,0,.013.005.025.006.038a4.646,4.646,0,0,0-.967.625,3.243,3.243,0,0,0-2.9-1.794,3.206,3.206,0,0,0-3.175-1.225,3.2,3.2,0,0,0-5.166-.075,4.507,4.507,0,0,0-6.248-5.183,4.49,4.49,0,0,0-6.507.359,4.51,4.51,0,0,0-4.087,7.913,4.481,4.481,0,0,0,7.234,3.361l.095.006.04.718c-3.751.476-6.277,3.234-6.082,6.764a10.077,10.077,0,0,0,1.246,4.12H16.15a.644.644,0,0,0-.645.645v5.157a.644.644,0,0,0,.645.644h2.579v1.289H16.15a.645.645,0,0,0-.645.645v5.157a.645.645,0,0,0,.645.645H48.38a.645.645,0,0,0,.645-.645v-5.157a.645.645,0,0,0-.645-.645H45.8v-1.289H48.38a.644.644,0,0,0,.645-.644v-5.157a.644.644,0,0,0-.645-.645H45.737a3.173,3.173,0,0,0-.362-.928l4.573-8.141a4.641,4.641,0,0,0-.056-4.678,5.444,5.444,0,0,0,1.28-1.858,4.609,4.609,0,0,0,.219-3.411A2.028,2.028,0,0,0,50.309,1409.167Zm-5.884,5.73a3.376,3.376,0,0,1,4.788,3.6l-1.25-.529-.5,1.187,1.314.556-2.225,3.961-2.63-1.121-.5,1.187,2.5,1.065-1.413,2.517a5.754,5.754,0,0,0-3.422-5.208l.575-1.922,2.169.924.505-1.186-2.3-.981.585-1.955A3.4,3.4,0,0,1,44.425,1414.9Zm-18.606,11.86v-1.289h1.289v2.579H28.4v-2.487a2.579,2.579,0,0,1,1.934,2.487,2.549,2.549,0,0,1-.353,1.289H25.109a3.222,3.222,0,0,0-2.238-2.428,2.577,2.577,0,0,1,1.658-1.347v1.2Zm12.736-7.34a.645.645,0,0,0-.109.856,4.862,4.862,0,0,1,.645,1.349,5.789,5.789,0,0,0-5.848,7.714H31.4a3.844,3.844,0,0,0-1.153-4.245c.006-.222.018-.448.006-.657a6.283,6.283,0,0,0-.991-3.106,6.341,6.341,0,0,1,.672-.953,5.706,5.706,0,0,1,6.838-1.585.645.645,0,0,0,.8-.157.945.945,0,0,0,.079-.11.632.632,0,0,1,.439-.221.624.624,0,0,1,.47.162.644.644,0,0,1,.079.892Zm.8,17.654H25.174v-1.289H39.355Zm0-2.578H25.174v-3.868H39.355Zm.064-5.157H34.65a4.5,4.5,0,1,1,8.532-2.518A3.2,3.2,0,0,0,39.419,1429.336Zm-17.468-1.289a1.934,1.934,0,0,1,1.934,1.934v12.247H20.017v-12.247A1.933,1.933,0,0,1,21.951,1428.047Zm3.223,10.314H39.355v3.868H25.174Zm15.47-8.38a1.934,1.934,0,0,1,3.868,0v12.247H40.645Zm-8.18-17.594a1.917,1.917,0,0,1,3.468,0,.644.644,0,0,0,.812.322,1.9,1.9,0,0,1,2.353.858.644.644,0,0,0,.632.327l.107-.013a1.276,1.276,0,0,1,.163-.016,1.929,1.929,0,0,1,1.9,1.629,4.628,4.628,0,0,0-.516,1.132l-1.233,4.119a6.19,6.19,0,0,0-.374-.784,1.936,1.936,0,0,0-2.856-2.528,7.071,7.071,0,0,0-7.963,2.1,7.62,7.62,0,0,0-.571.749,7.138,7.138,0,0,0-4.928-1.9l-.04-.721.089-.018a4.446,4.446,0,0,0,.65.33,4.5,4.5,0,0,0,6.174-4.465,4.488,4.488,0,0,0,.751-.915,1.89,1.89,0,0,1,.569.117A.645.645,0,0,0,32.464,1412.387Zm-4-5.184a3.223,3.223,0,0,1,.787,5.525.644.644,0,0,0-.239.6,3.2,3.2,0,0,1-3.885,3.593,16.958,16.958,0,0,0,1.1-9.771,3.224,3.224,0,0,1,2.238.056Zm-6.331-1.042a3.218,3.218,0,0,1,3.051,4.673.644.644,0,0,0,.036.644,3.216,3.216,0,0,1-1.878,4.88l-.3-5.458,1.647-1.838-.96-.86-1.4,1.553-1.559-1.393-.86.96,1.838,1.646.113,2.042-.878-.786-.86.96,1.838,1.649.088,1.6a3.216,3.216,0,0,1-2.4-4.641.645.645,0,0,0-.036-.645,3.218,3.218,0,0,1,2.517-4.98Zm-5.672,9.505a3.2,3.2,0,0,1-.375-1.626.643.643,0,0,0-.3-.568,3.218,3.218,0,0,1,2.392-5.88,4.474,4.474,0,0,0,.177,3.941,4.5,4.5,0,0,0,1.99,5.648,3.222,3.222,0,0,1-3.883-1.516Zm5.779,4.072.071,1.261,1.289-.071-.074-1.262c3.03.082,5.2,1.941,5.414,4.7a3.856,3.856,0,0,0-1.192-.191H25.174a3.873,3.873,0,0,0-3.65,2.622,3.218,3.218,0,0,0-2.72,2.5,9.2,9.2,0,0,1-1.43-4.153c-.155-2.836,1.819-4.988,4.868-5.407Zm-5.45,14.754v-3.868h1.934v3.868Zm0,3.868h1.934v3.868H16.794Zm30.941,0v3.868H45.8v-3.868Zm0-3.868H45.8v-3.868h1.934Zm2.25-21.266a4.189,4.189,0,0,1-.9,1.354,4.606,4.606,0,0,0-3.969-1.225c-.1-1.366.406-2.439.983-2.51.29-.044.621.177.923.58a.637.637,0,0,0,.527.258.643.643,0,0,0,.52-.277c.56-.8,1.289-1.252,1.741-1.055a.764.764,0,0,1,.387.451A3.376,3.376,0,0,1,49.985,1413.226Z" transform="translate(-8552.295 -10205.692)" fill="#00223d"/>
    </g>
  </g>
</svg>
