<svg xmlns="http://www.w3.org/2000/svg" width="91" height="91" viewBox="0 0 91 91">
  <g id="Grupo_1084926" data-name="Grupo 1084926" transform="translate(-309 -6584)">
    <rect id="Rectángulo_347310" data-name="Rectángulo 347310" width="91" height="91" transform="translate(309 6584)" fill="none"/>
    <g id="_011-fertilizer" data-name="011-fertilizer" transform="translate(317.999 6593)">
      <g id="Grupo_1008375" data-name="Grupo 1008375" transform="translate(4.151 1.152)">
        <path id="Trazado_713098" data-name="Trazado 713098" d="M63.4,17.841a2.881,2.881,0,0,1,.841,2.038c0,1.589-1.152,2.879-3.455,2.879H46.325A20.632,20.632,0,0,0,32,17H61.365A2.881,2.881,0,0,1,63.4,17.841Z" transform="translate(0.244 1.425)" fill="#c4804d"/>
        <path id="Trazado_713099" data-name="Trazado 713099" d="M67.474,58.013a3.453,3.453,0,0,1-2.441,5.9H7.455a3.455,3.455,0,0,1,0-6.909H65.033A3.446,3.446,0,0,1,67.474,58.013Z" transform="translate(-4 7.488)" fill="#ae672b"/>
        <path id="Trazado_713100" data-name="Trazado 713100" d="M61.207,50.789H45.557A20.7,20.7,0,0,0,44.44,22H58.9A220.29,220.29,0,0,1,61.207,50.789Z" transform="translate(2.129 2.183)" fill="#d6966b"/>
        <path id="Trazado_713101" data-name="Trazado 713101" d="M49.416,49.05A17.823,17.823,0,0,0,51.535,47h15.65a35.693,35.693,0,0,1-2.3,11.516H7.3A35.693,35.693,0,0,1,5,47H20.65a17.822,17.822,0,0,0,2.119,2.05,20.694,20.694,0,0,0,26.647,0Z" transform="translate(-3.848 5.972)" fill="#c4804d"/>
        <path id="Trazado_713102" data-name="Trazado 713102" d="M33.754,41h2.3a4.6,4.6,0,0,1,4.606,4.606,6.907,6.907,0,0,1,6.414,4.353,20.694,20.694,0,0,1-26.647,0,6.914,6.914,0,0,1,6.414-4.353A4.6,4.6,0,0,1,31.45,41Z" transform="translate(-1.51 5.063)" fill="#9b7868"/>
        <path id="Trazado_713103" data-name="Trazado 713103" d="M32,35.168c0-12.667,13.819-8.061,13.819-8.061C45.819,29.411,44.045,39.775,32,35.168Z" transform="translate(0.244 2.833)" fill="#adce32"/>
        <path id="Trazado_713104" data-name="Trazado 713104" d="M33.819,35.168C21.773,39.775,20,29.411,20,27.107,20,27.107,33.819,22.5,33.819,35.168Z" transform="translate(-1.575 2.833)" fill="#adce32"/>
        <path id="Trazado_713105" data-name="Trazado 713105" d="M21.767,22A20.7,20.7,0,0,0,20.65,50.789H5A220.291,220.291,0,0,1,7.3,22Z" transform="translate(-3.848 2.183)" fill="#d6966b"/>
        <path id="Trazado_713106" data-name="Trazado 713106" d="M12.061,17H36.244a20.632,20.632,0,0,0-14.325,5.758H7.455a3.775,3.775,0,0,1-2.591-.841A2.68,2.68,0,0,1,4,19.879,2.88,2.88,0,0,1,6.879,17Z" transform="translate(-4 1.425)" fill="#c4804d"/>
        <path id="Trazado_713107" data-name="Trazado 713107" d="M34.728,36.577c12.045,4.606,13.819-5.758,13.819-8.061,0,0-13.819-4.606-13.819,8.061,0-12.667-13.819-8.061-13.819-8.061C20.909,30.819,22.683,41.183,34.728,36.577ZM48.052,53.6a6.907,6.907,0,0,0-6.414-4.353,4.6,4.6,0,0,0-4.606-4.606H32.425a4.6,4.6,0,0,0-4.606,4.606A6.914,6.914,0,0,0,21.4,53.6a17.822,17.822,0,0,1-2.119-2.05,20.728,20.728,0,1,1,30.885,0A17.822,17.822,0,0,1,48.052,53.6Z" transform="translate(-2.484 1.425)" fill="#ffd947"/>
        <path id="Trazado_713108" data-name="Trazado 713108" d="M59.366,19.425H11A8.253,8.253,0,0,1,13.787,14.5a8.019,8.019,0,0,1,5.274-1.981,5.76,5.76,0,0,1,5.758-5.758h2.3A5.76,5.76,0,0,1,32.88,1h4.606a5.74,5.74,0,0,1,5.758,5.758h2.3A5.74,5.74,0,0,1,51.3,12.516,8.254,8.254,0,0,1,59.366,19.425Z" transform="translate(-2.939 -1)" fill="#9b7868"/>
      </g>
      <g id="Grupo_1008376" data-name="Grupo 1008376" transform="translate(3.001 0)">
        <circle id="Elipse_5630" data-name="Elipse 5630" cx="1.727" cy="1.727" r="1.727" transform="translate(31.667 6.909)" fill="#252525"/>
        <ellipse id="Elipse_5631" data-name="Elipse 5631" cx="2" cy="1.5" rx="2" ry="1.5" transform="translate(24 11.7)" fill="#252525"/>
        <ellipse id="Elipse_5632" data-name="Elipse 5632" cx="2" cy="1.5" rx="2" ry="1.5" transform="translate(39 11.7)" fill="#252525"/>
        <ellipse id="Elipse_5633" data-name="Elipse 5633" cx="1.5" cy="1" rx="1.5" ry="1" transform="translate(48 64.7)" fill="#252525"/>
        <path id="Trazado_713109" data-name="Trazado 713109" d="M66.722,64.767a35.4,35.4,0,0,0,1.917-10.644,220.149,220.149,0,0,0-2.145-27.781,3.9,3.9,0,0,0,3.3-3.887A4.055,4.055,0,0,0,68.612,19.6a4.006,4.006,0,0,0-2.852-1.178H61.469a9.464,9.464,0,0,0-7.886-6.845,6.889,6.889,0,0,0-6.824-5.822H45.512A6.889,6.889,0,0,0,38.7,0H34.092a6.921,6.921,0,0,0-6.814,5.758H26.031a6.918,6.918,0,0,0-6.823,5.82,9.2,9.2,0,0,0-4.957,2.195,9.44,9.44,0,0,0-2.956,4.652H7.031A4.035,4.035,0,0,0,3,22.455a3.825,3.825,0,0,0,1.245,2.894,4.415,4.415,0,0,0,2.053.987A220.214,220.214,0,0,0,4.153,54.125,35.411,35.411,0,0,0,6.071,64.772,4.6,4.6,0,0,0,7.607,73.7H65.185a4.594,4.594,0,0,0,1.536-8.933ZM19.455,26.486A21.6,21.6,0,0,0,14.515,40.3,21.839,21.839,0,0,0,18.58,52.972H6.46A221.956,221.956,0,0,1,8.6,26.486Zm30.469-.32s0,0,0,0A19.352,19.352,0,0,1,55.972,40.3a19.584,19.584,0,0,1-5,13.06c-.295.337-.606.662-.928.975a7.985,7.985,0,0,0-5.689-3.6A5.751,5.751,0,0,0,38.7,46.061H37.548v-5.3a15.224,15.224,0,0,0,4.372.712,8.806,8.806,0,0,0,5.112-1.5c3.429-2.361,4.334-6.844,4.334-8.885A1.149,1.149,0,0,0,50.579,30c-.3-.1-7.324-2.388-11.818.852A7.7,7.7,0,0,0,36.4,33.66a7.675,7.675,0,0,0-2.365-2.81c-4.5-3.24-11.521-.952-11.818-.852a1.152,1.152,0,0,0-.788,1.092c0,2.041.906,6.525,4.334,8.885a8.806,8.806,0,0,0,5.112,1.5,15.224,15.224,0,0,0,4.372-.712v5.3H34.091a5.768,5.768,0,0,0-5.655,4.673,7.945,7.945,0,0,0-4.649,2.3,8.068,8.068,0,0,0-1.05,1.3c-.32-.312-.63-.636-.927-.974A19.575,19.575,0,0,1,16.817,40.3,19.568,19.568,0,0,1,49.923,26.165ZM37.569,38.353c.14-2.622.991-4.513,2.533-5.628,2.746-1.985,7.076-1.223,8.9-.775-.214,1.657-1.025,4.582-3.274,6.13-1.969,1.355-4.711,1.448-8.157.272Zm-2.345,0c-3.448,1.176-6.189,1.082-8.157-.272-2.249-1.549-3.06-4.473-3.274-6.131,1.823-.447,6.15-1.209,8.9.776,1.542,1.115,2.393,3,2.533,5.628Zm-9.8,16.3a5.678,5.678,0,0,1,4.065-1.686,1.151,1.151,0,0,0,1.152-1.152,3.459,3.459,0,0,1,3.455-3.455H38.7a3.448,3.448,0,0,1,3.455,3.455,1.151,1.151,0,0,0,1.152,1.152,5.718,5.718,0,0,1,4.97,2.86,19.449,19.449,0,0,1-23.741.013,5.77,5.77,0,0,1,.887-1.187ZM58.276,40.3a21.6,21.6,0,0,0-4.939-13.819H64.189a221.84,221.84,0,0,1,2.142,26.486H54.21A21.837,21.837,0,0,0,58.276,40.3Zm8.709-19.072a1.736,1.736,0,0,1,.5,1.223c0,1.1-.839,1.727-2.3,1.727H51.151a21.781,21.781,0,0,0-5-3.455H65.76a1.738,1.738,0,0,1,1.224.5Zm-51.23-5.716a6.884,6.884,0,0,1,4.518-1.7,1.151,1.151,0,0,0,1.152-1.152,4.611,4.611,0,0,1,4.606-4.606h2.3a1.151,1.151,0,0,0,1.152-1.152A4.611,4.611,0,0,1,34.092,2.3H38.7A4.588,4.588,0,0,1,43.3,6.909a1.151,1.151,0,0,0,1.152,1.152h2.3a4.588,4.588,0,0,1,4.606,4.606,1.151,1.151,0,0,0,1.152,1.152,7.1,7.1,0,0,1,6.552,4.606H13.72a7.157,7.157,0,0,1,2.036-2.909ZM5.3,22.455A1.729,1.729,0,0,1,7.03,20.728H26.64a21.81,21.81,0,0,0-5,3.455H7.606a2.694,2.694,0,0,1-1.822-.547A1.549,1.549,0,0,1,5.3,22.455ZM65.184,71.4H7.606a2.3,2.3,0,0,1,0-4.606h40.3a1.152,1.152,0,0,0,0-2.3H8.411a35.423,35.423,0,0,1-1.923-9.213H20.46a18.914,18.914,0,0,0,1.871,1.78,21.848,21.848,0,0,0,28.117.01,19.085,19.085,0,0,0,1.883-1.791H66.3a35.423,35.423,0,0,1-1.923,9.213H57.123a1.152,1.152,0,0,0,0,2.3h8.061a2.3,2.3,0,0,1,0,4.606Z" transform="translate(-3.001 0)" fill="#252525"/>
      </g>
    </g>
  </g>
</svg>
