<svg xmlns="http://www.w3.org/2000/svg" width="52" height="45" viewBox="0 0 52 45">
  <g id="Grupo_1085503" data-name="Grupo 1085503" transform="translate(-285 -3450)">
    <g id="Rectángulo_380858" data-name="Rectángulo 380858" transform="translate(285 3450)" fill="#fff" stroke="#0b481e" stroke-width="1">
      <rect width="52" height="45" rx="5" stroke="none"/>
      <rect x="0.5" y="0.5" width="51" height="44" rx="4.5" fill="none"/>
    </g>
    <g id="Grupo_1084837" data-name="Grupo 1084837" transform="translate(290.734 3452.88)">
      <g id="Grupo_17299" data-name="Grupo 17299" transform="translate(0.623 0.624)">
        <g id="Grupo_17284" data-name="Grupo 17284" transform="translate(9.488 4.364)">
          <path id="Trazado_27344" data-name="Trazado 27344" d="M355.477,1407.008l.561,3.372a2.5,2.5,0,0,0-.667.474l-.73.729a5.235,5.235,0,0,0-1.521-1.041Z" transform="translate(-353.121 -1407.008)" fill="#969faa"/>
        </g>
        <g id="Grupo_17285" data-name="Grupo 17285" transform="translate(2.556 4.364)">
          <path id="Trazado_27345" data-name="Trazado 27345" d="M331.038,1407.008l2.356,3.535a5.24,5.24,0,0,0-1.521,1.041l-.729-.729a2.506,2.506,0,0,0-.667-.474Z" transform="translate(-330.477 -1407.008)" fill="#969faa"/>
        </g>
        <g id="Grupo_17286" data-name="Grupo 17286" transform="translate(11.009 7.481)">
          <path id="Trazado_27346" data-name="Trazado 27346" d="M360.583,1417.189h1.459a3.69,3.69,0,0,1-2.313,3.423l-.387.149a4.952,4.952,0,0,0-1.253-2.113l.73-.729a2.5,2.5,0,0,1,.667-.474,2.444,2.444,0,0,1,1.1-.256Z" transform="translate(-358.089 -1417.189)" fill="#ccd1d9"/>
        </g>
        <g id="Grupo_17287" data-name="Grupo 17287" transform="translate(0 7.481)">
          <path id="Trazado_27347" data-name="Trazado 27347" d="M325.351,1417.918l.729.729a4.958,4.958,0,0,0-1.253,2.113l-.386-.149a3.691,3.691,0,0,1-2.313-3.423h1.459a2.445,2.445,0,0,1,1.1.256A2.5,2.5,0,0,1,325.351,1417.918Z" transform="translate(-322.128 -1417.189)" fill="#ccd1d9"/>
        </g>
        <g id="Grupo_17288" data-name="Grupo 17288" transform="translate(4.987 22.442)">
          <path id="Trazado_27348" data-name="Trazado 27348" d="M343.406,1468.555v1.87a.616.616,0,0,1-.168.424.607.607,0,0,1-.455.2h-3.74a.625.625,0,0,1-.623-.623v-1.87a2.494,2.494,0,1,1,4.987,0Z" transform="translate(-338.419 -1466.061)" fill="#fcd770"/>
        </g>
        <g id="Grupo_17289" data-name="Grupo 17289" transform="translate(1.247 13.715)">
          <path id="Trazado_27349" data-name="Trazado 27349" d="M327.448,1438.394a3.477,3.477,0,0,1,2.282-.842,3.529,3.529,0,0,1,2.494,1.035l.212.212.212-.212a3.527,3.527,0,0,1,4.775-.2c.075.069.144.131.212.2a3.5,3.5,0,0,1,1.035,2.494,5.108,5.108,0,0,1-.237,1.546,5.2,5.2,0,0,1-4.962,3.653H331.4a5.193,5.193,0,0,1-5.2-5.2,3.5,3.5,0,0,1,1.035-2.494c.069-.069.137-.131.212-.193Z" transform="translate(-326.201 -1437.552)" fill="#ccd1d9"/>
        </g>
        <g id="Grupo_17290" data-name="Grupo 17290" transform="translate(2.494 7.481)">
          <path id="Trazado_27350" data-name="Trazado 27350" d="M340.247,1423.148v1.11a3.526,3.526,0,0,0-4.775.2l-.212.212-.212-.212a3.529,3.529,0,0,0-2.494-1.035,3.477,3.477,0,0,0-2.282.842v-2.088a4.829,4.829,0,0,1,.206-1.415,4.958,4.958,0,0,1,1.253-2.113,5.244,5.244,0,0,1,1.521-1.041,5.032,5.032,0,0,1,4.015,0,5.238,5.238,0,0,1,1.521,1.041,4.952,4.952,0,0,1,1.253,2.113,4.828,4.828,0,0,1,.206,1.415Z" transform="translate(-330.273 -1417.189)" fill="#e6e9ed"/>
        </g>
        <g id="Grupo_17291" data-name="Grupo 17291" transform="translate(28.676)">
          <path id="Trazado_27351" data-name="Trazado 27351" d="M420.785,1394a3.744,3.744,0,0,1-3.74,3.74H415.8v-1.247a3.743,3.743,0,0,1,3.74-3.74h1.247Z" transform="translate(-415.798 -1392.754)" fill="#aab2bd"/>
        </g>
        <g id="Grupo_17292" data-name="Grupo 17292" transform="translate(27.43 34.91)">
          <path id="Trazado_27352" data-name="Trazado 27352" d="M415.466,1507.41a1.87,1.87,0,0,1-3.74,0v-.623h3.74Z" transform="translate(-411.726 -1506.787)" fill="#838f9b"/>
        </g>
        <g id="Grupo_17293" data-name="Grupo 17293" transform="translate(13.715 34.91)">
          <path id="Trazado_27353" data-name="Trazado 27353" d="M370.667,1506.787v.623a1.87,1.87,0,0,1-3.74,0v-.623Z" transform="translate(-366.927 -1506.787)" fill="#838f9b"/>
        </g>
        <g id="Grupo_17294" data-name="Grupo 17294" transform="translate(4.987 34.91)">
          <path id="Trazado_27354" data-name="Trazado 27354" d="M342.159,1506.787v.623a1.87,1.87,0,1,1-3.74,0v-.623Z" transform="translate(-338.419 -1506.787)" fill="#838f9b"/>
        </g>
        <g id="Grupo_17295" data-name="Grupo 17295" transform="translate(4.987 13.44)">
          <path id="Trazado_27355" data-name="Trazado 27355" d="M364.876,1443.164h-2.73a5.694,5.694,0,0,1-5.648-4.987h-4.47a13.1,13.1,0,0,1-6.128-1.521v1.11c.075.069.144.131.212.2a3.5,3.5,0,0,1,1.035,2.493,5.107,5.107,0,0,1-.237,1.546,5.2,5.2,0,0,1-4.962,3.653h-1.035a2.49,2.49,0,0,1,2.494,2.494v1.87a.616.616,0,0,1-.168.424.606.606,0,0,1-.455.2h-2.494a9.339,9.339,0,0,0-1.87,5.611v1.87h3.74a6.462,6.462,0,0,1,3.248-5.6l1.091-.617a30.188,30.188,0,0,1,.648,6.215h3.74v-.031a26.608,26.608,0,0,1,.736-6.2h8.584c-.075-.38-.162-.761-.256-1.135l-.231-.941a3.548,3.548,0,0,1-.106-.848,3.426,3.426,0,0,1,.274-1.347l1.939.642a2.239,2.239,0,0,1,1.527,2.12,2.187,2.187,0,0,1-.386,1.247,2.21,2.21,0,0,1-1.016.823l-1.515.6h-.006c.075.443.143.885.193,1.328a28.86,28.86,0,0,1,.237,3.74h3.74v-.729a30.336,30.336,0,0,1,.592-5.96l.48-2.406a9.1,9.1,0,0,0-.8-5.866Z" transform="translate(-338.419 -1436.656)" fill="#aab2bd"/>
        </g>
        <g id="Grupo_17296" data-name="Grupo 17296" transform="translate(23.066 14.962)">
          <path id="Trazado_27356" data-name="Trazado 27356" d="M404.167,1444.281l1.677,2.332H403.12a5.694,5.694,0,0,1-5.648-4.987h.274a9.071,9.071,0,0,1,6.421,2.656Z" transform="translate(-397.472 -1441.625)" fill="#e6e9ed"/>
        </g>
        <g id="Grupo_17297" data-name="Grupo 17297" transform="translate(22.442 28.676)">
          <path id="Trazado_27357" data-name="Trazado 27357" d="M400.185,1488.917h-.717a3.48,3.48,0,0,1-.443-.025,4.42,4.42,0,0,1-2.051-.73,4.519,4.519,0,0,1-1.54-1.739h4.333c.087.386.162.773.224,1.166C400.067,1488.032,400.135,1488.475,400.185,1488.917Z" transform="translate(-395.435 -1486.424)" fill="#e6e9ed"/>
        </g>
        <g id="Grupo_17298" data-name="Grupo 17298" transform="translate(26.183 24.406)">
          <path id="Trazado_27358" data-name="Trazado 27358" d="M409.991,1477.306l-1.515.6h-.006c-.062-.393-.137-.779-.224-1.166s-.162-.761-.256-1.135l-.231-.941a3.55,3.55,0,0,1-.106-.848,3.426,3.426,0,0,1,.274-1.347l1.939.642a2.239,2.239,0,0,1,1.527,2.12,2.187,2.187,0,0,1-.386,1.247,2.21,2.21,0,0,1-1.016.823Z" transform="translate(-407.653 -1472.475)" fill="#e6e9ed"/>
        </g>
      </g>
      <g id="Grupo_17300" data-name="Grupo 17300" transform="translate(0)">
        <path id="Trazado_27359" data-name="Trazado 27359" d="M336.382,1443.661h1.247v1.247h-1.247Z" transform="translate(-331.395 -1427.453)" fill="#00223d"/>
        <path id="Trazado_27360" data-name="Trazado 27360" d="M352.673,1443.661h1.247v1.247h-1.247Z" transform="translate(-342.698 -1427.453)" fill="#00223d"/>
        <path id="Trazado_27361" data-name="Trazado 27361" d="M336.211,1452.421l6.234-.627.125,1.241-6.234.626Z" transform="translate(-331.276 -1433.096)" fill="#00223d"/>
        <circle id="Elipse_1026" data-name="Elipse 1026" cx="0.623" cy="0.623" r="0.623" transform="translate(4.987 11.221)" fill="#00223d"/>
        <circle id="Elipse_1027" data-name="Elipse 1027" cx="0.623" cy="0.623" r="0.623" transform="translate(9.974 11.221)" fill="#00223d"/>
        <path id="Trazado_27362" data-name="Trazado 27362" d="M355.614,1402.613l-6.331-1.407a2.236,2.236,0,0,1-1.761-2.2,2.26,2.26,0,0,1,.9-1.8l.348-.261h1.87a4.369,4.369,0,0,0,4.364-4.364v-1.87h-1.87a4.369,4.369,0,0,0-4.364,4.364v.312l-1.1.821a3.515,3.515,0,0,0-1.4,2.8,3.474,3.474,0,0,0,2.738,3.412l6.331,1.407a2.748,2.748,0,0,1,.425,5.234l-3.391,1.356a9.691,9.691,0,0,0-8.321-4.742h-4.744a12.536,12.536,0,0,1-5.505-1.284v-.586a5.607,5.607,0,0,0-.1-1.044,4.28,4.28,0,0,0,2.595-3.944v-.623h-2.084a3.137,3.137,0,0,0-.6.058l-.443-2.654a.623.623,0,0,0-1.133-.243l-2.085,3.126a5.537,5.537,0,0,0-3.521,0l-2.085-3.127a.623.623,0,0,0-1.133.243l-.443,2.654a3.182,3.182,0,0,0-.6-.058h-2.084v.623a4.279,4.279,0,0,0,2.595,3.944,5.584,5.584,0,0,0-.1,1.044v1.813a4.137,4.137,0,0,0-1.247,2.96,5.832,5.832,0,0,0,4.509,5.669,3.091,3.091,0,0,0-.768,2.026v1.87a1.248,1.248,0,0,0,1.247,1.247h.1a10.039,10.039,0,0,0-1.347,4.987v2.494a2.494,2.494,0,1,0,4.987,0v-.623A5.835,5.835,0,0,1,333,1421.2l.336-.192a29.788,29.788,0,0,1,.471,5.247v.623a2.494,2.494,0,1,0,4.987,0v-.657a25.789,25.789,0,0,1,.617-5.577h2.866l-.806.806.881.882.967-.967a5.024,5.024,0,0,0,.536.539l-.592.889,1.038.692.6-.895a5.084,5.084,0,0,0,1.086.4l-.312,1.248,1.209.3.349-1.4h.118a29.71,29.71,0,0,1,.175,3.117v.623a2.494,2.494,0,1,0,4.987,0v-1.355a29.837,29.837,0,0,1,.578-5.836l.481-2.4a9.759,9.759,0,0,0,.188-1.9,9.637,9.637,0,0,0-.8-3.846l3.275-1.311a3.995,3.995,0,0,0-.617-7.609Zm-5.6-7.533a3.12,3.12,0,0,1,3.117-3.117h.624v.623a3.121,3.121,0,0,1-3.117,3.117h-.623Zm1.055,15.585h-1.639a5.077,5.077,0,0,1-4.881-3.715A8.449,8.449,0,0,1,351.07,1410.666Zm-16.08-11.221a3.034,3.034,0,0,1-1.655,2.12,5.6,5.6,0,0,0-.76-1.254l.318-.318a1.86,1.86,0,0,1,1.323-.548Zm-2.786-2.083.233,1.4a3.2,3.2,0,0,0-.426.35l-.318.318a5.577,5.577,0,0,0-.594-.411Zm-8.017,0,1.1,1.656a5.636,5.636,0,0,0-.594.411l-.318-.318a3.185,3.185,0,0,0-.426-.35Zm-2.785,2.083h.774a1.858,1.858,0,0,1,1.323.547l.318.318a5.635,5.635,0,0,0-.76,1.255A3.034,3.034,0,0,1,321.4,1399.445Zm2.43,4.364a4.364,4.364,0,1,1,8.728,0v.97a4.142,4.142,0,0,0-4.364.657,4.141,4.141,0,0,0-4.364-.657Zm-1.247,4.773a2.9,2.9,0,0,1,4.956-2.053l.655.656.655-.655a2.9,2.9,0,0,1,4.956,2.053,4.583,4.583,0,0,1-4.578,4.578h-2.066a4.583,4.583,0,0,1-4.578-4.578Zm3.74,7.695a1.866,1.866,0,0,1,3.626-.624h-2.379v1.247h2.494v1.247h-3.741Zm1.247,11.845a1.248,1.248,0,0,1-1.247-1.247h2.494A1.248,1.248,0,0,1,327.573,1428.121Zm1.289-2.494h-2.536v-1.247a8.778,8.778,0,0,1,1.574-4.987h2.166a1.236,1.236,0,0,0,.4-.07,6.606,6.606,0,0,0,1.719.923A7.07,7.07,0,0,0,328.861,1425.628Zm7.439,2.494a1.248,1.248,0,0,1-1.247-1.247h2.494A1.248,1.248,0,0,1,336.3,1428.121Zm2.289-9.347a27.088,27.088,0,0,0-1.02,6.853h-2.534a30.985,30.985,0,0,0-.907-6.9l-.235-.943a2.832,2.832,0,0,1-.085-.693c0-.048.011-.093.013-.139a15.083,15.083,0,0,1,4.914,1.258c-.014.072-.026.145-.046.216Zm.281-3.927-.259-.259-.882.882.259.258a2.725,2.725,0,0,1,.659,1.1,16.335,16.335,0,0,0-4.481-1.092,2.843,2.843,0,0,1,.477-.658l.85-.851-.881-.881-.85.851a4.1,4.1,0,0,0-1.08,3.9l.236.943c.013.048.02.1.032.148a5.342,5.342,0,0,1-1.66-.812,1.18,1.18,0,0,0,.023-.222v-1.87a3.091,3.091,0,0,0-.768-2.026,5.844,5.844,0,0,0,4.042-3.388l3.318.766a4.344,4.344,0,0,1,3.383,4.252v3.513H339.72c.025-.092.043-.185.069-.276l.1-.346a4.017,4.017,0,0,0,.153-1.1,3.973,3.973,0,0,0-1.171-2.827Zm8.973,3.884-.236-.943a2.85,2.85,0,0,1-.085-.693,2.921,2.921,0,0,1,.054-.559l1.34.447a1.606,1.606,0,0,1,.089,3.016l-.816.326c-.1-.534-.216-1.067-.347-1.594Zm-.656,3.156a3.865,3.865,0,0,1-2.849-1.246h2.646C347.063,1421.054,347.124,1421.47,347.186,1421.887Zm2.829,6.235a1.248,1.248,0,0,1-1.247-1.247h2.494A1.248,1.248,0,0,1,350.015,1428.121Zm2.329-11.086-.481,2.4a31.109,31.109,0,0,0-.6,6.081v.109h-2.513a31.055,31.055,0,0,0-.349-4.044l1.068-.427a2.853,2.853,0,0,0-.157-5.356l-1.216-.405a2.891,2.891,0,0,1,.264-.321l.85-.851-.882-.881-.85.85a4.1,4.1,0,0,0-1.08,3.9l.236.943c.03.119.05.241.078.36h-4.177v-3.513a5.586,5.586,0,0,0-4.349-5.468l-3.237-.747a5.8,5.8,0,0,0,.105-1.084,4.125,4.125,0,0,0-1.022-2.718,13.8,13.8,0,0,0,5.28,1.061h3.945a6.328,6.328,0,0,0,6.174,4.987h2.326a8.388,8.388,0,0,1,.752,3.465,8.488,8.488,0,0,1-.164,1.657Z" transform="translate(-320.092 -1390.717)" fill="#00223d"/>
      </g>
    </g>
  </g>
</svg>
