<svg xmlns="http://www.w3.org/2000/svg" width="91" height="91" viewBox="0 0 91 91">
  <g id="Grupo_1008374" data-name="Grupo 1008374" transform="translate(-309 -1600.893)">
    <rect id="Rectángulo_347310" data-name="Rectángulo 347310" width="91" height="91" transform="translate(309 1600.893)" fill="none"/>
    <g id="_032-soil" data-name="032-soil" transform="translate(312 1603.893)">
      <g id="Grupo_1008343" data-name="Grupo 1008343" transform="translate(0 1.342)">
        <circle id="Elipse_5174" data-name="Elipse 5174" cx="3.5" cy="3.5" r="3.5" transform="translate(56 37.55)" fill="#af9084"/>
        <path id="Trazado_712837" data-name="Trazado 712837" d="M21.131,39.047a16.793,16.793,0,0,0-6.173,7.086L1,75.337H29.183l8.052-16.132,18.789.027a23.406,23.406,0,0,0,16.185-6.5L83.59,41.826a6.224,6.224,0,0,0,.456-8.589,6.522,6.522,0,0,0-9.233-.845L64.077,43.127H50.67A10.7,10.7,0,0,0,53.032,36.4L30.217,36.39A16.815,16.815,0,0,0,21.131,39.047Z" transform="translate(-1 9.213)" fill="#e09b8d"/>
        <circle id="Elipse_5175" data-name="Elipse 5175" cx="2.5" cy="2.5" r="2.5" transform="translate(39 29.55)" fill="#af9084"/>
        <ellipse id="Elipse_5176" data-name="Elipse 5176" cx="4.5" cy="4" rx="4.5" ry="4" transform="translate(25 9.55)" fill="#9b7868"/>
        <path id="Trazado_712838" data-name="Trazado 712838" d="M9,37.815v6.657a16.815,16.815,0,0,1,9.086-2.657l22.815.013a10.7,10.7,0,0,1-2.362,6.724H51.946L62.682,37.815a9.393,9.393,0,0,0-9.394-9.394,8.059,8.059,0,0,0-8.052-8.052H42.551A5.367,5.367,0,0,0,37.183,15H34.5a5.361,5.361,0,0,0-5.368,5.368H26.447a8.064,8.064,0,0,0-8.052,8.052A9.388,9.388,0,0,0,9,37.815Zm18.789-9.394A2.684,2.684,0,1,1,30.473,31.1,2.692,2.692,0,0,1,27.789,28.421Zm17.447,8.723A3.355,3.355,0,1,1,48.591,40.5,3.356,3.356,0,0,1,45.236,37.144Z" transform="translate(11.131 3.789)" fill="#9b7868"/>
        <circle id="Elipse_5177" data-name="Elipse 5177" cx="3.5" cy="3.5" r="3.5" transform="translate(43 -0.45)" fill="#af9084"/>
        <circle id="Elipse_5178" data-name="Elipse 5178" cx="4" cy="4" r="4" transform="translate(59 6.55)" fill="#9b7868"/>
        <path id="Trazado_712839" data-name="Trazado 712839" d="M53.941,61.844l4.814-9.08a1.342,1.342,0,1,0-2.371-1.258l-4.814,9.08a1.342,1.342,0,0,0,.557,1.814A1.5,1.5,0,0,0,53.941,61.844Z" transform="translate(-42.02 16.032)" fill="#f4baa6"/>
      </g>
      <g id="Grupo_1008344" data-name="Grupo 1008344" transform="translate(0)">
        <circle id="Elipse_5179" data-name="Elipse 5179" cx="2" cy="2" r="2" transform="translate(51 29.892)" fill="#252525"/>
        <circle id="Elipse_5180" data-name="Elipse 5180" cx="2" cy="2" r="2" transform="translate(31 37.892)" fill="#252525"/>
        <path id="Trazado_712840" data-name="Trazado 712840" d="M.131,77.717,12.738,51.338a18.1,18.1,0,0,1,6.05-7.226V38.158A10.752,10.752,0,0,1,28.266,27.5a9.414,9.414,0,0,1,9.311-8.126h1.478A6.7,6.7,0,0,1,45.629,14h2.684a6.721,6.721,0,0,1,6.575,5.368h1.478a9.411,9.411,0,0,1,9.31,8.125,10.737,10.737,0,0,1,9.252,8.466,7.782,7.782,0,0,1,9.135,2.169,7.565,7.565,0,0,1-.544,10.435L72.139,59.475a24.644,24.644,0,0,1-17.115,6.867l-17.957-.025L30.054,80.363a1.342,1.342,0,0,1-2.4-1.2l7.383-14.79a1.342,1.342,0,0,1,1.2-.742h0l18.787.027a21.968,21.968,0,0,0,15.257-6.122L81.673,46.616a4.825,4.825,0,0,0,1.535-3.556,4.88,4.88,0,0,0-1.181-3.182,5.2,5.2,0,0,0-7.314-.718L64.027,49.845a1.341,1.341,0,0,1-.949.393H50.308a11.61,11.61,0,0,1-9.013,4.013l-8.509-.013a1.342,1.342,0,0,1,0-2.684h0l8.506.013a8.972,8.972,0,0,0,7.328-3.511A9.3,9.3,0,0,0,50.6,43.514L29.216,43.5a15.445,15.445,0,0,0-14.049,8.98L2.552,78.875a1.358,1.358,0,0,1-1.789.632,1.341,1.341,0,0,1-.632-1.789Zm29.086-36.9,22.815.013a1.343,1.343,0,0,1,1.342,1.342,11.975,11.975,0,0,1-1.27,5.382H62.522l9.925-9.925A8.035,8.035,0,0,0,64.419,30.1a1.343,1.343,0,0,1-1.342-1.342,6.718,6.718,0,0,0-6.71-6.71H53.683a1.343,1.343,0,0,1-1.342-1.342,4.031,4.031,0,0,0-4.026-4.026H45.63A4.018,4.018,0,0,0,41.6,20.71a1.343,1.343,0,0,1-1.342,1.342H37.578a6.722,6.722,0,0,0-6.71,6.71A1.343,1.343,0,0,1,29.526,30.1a8.06,8.06,0,0,0-8.052,8.052v4.391a18.151,18.151,0,0,1,7.745-1.734Z" transform="translate(0.001 4.789)" fill="#252525"/>
        <path id="Trazado_712841" data-name="Trazado 712841" d="M20.7,28a4.7,4.7,0,0,1,0,9.394,1.342,1.342,0,1,1,0-2.684A2.013,2.013,0,1,0,18.684,32.7,1.342,1.342,0,1,1,16,32.7,4.7,4.7,0,0,1,20.7,28Z" transform="translate(39.024 9.578)" fill="#252525"/>
        <path id="Trazado_712842" data-name="Trazado 712842" d="M43.368,17.736a5.368,5.368,0,1,1,5.368-5.368A5.374,5.374,0,0,1,43.368,17.736Zm0-8.052a2.684,2.684,0,1,0,2.684,2.684A2.687,2.687,0,0,0,43.368,9.684Z" transform="translate(-13.843 2.394)" fill="#252525"/>
        <path id="Trazado_712843" data-name="Trazado 712843" d="M34.026,22a4.031,4.031,0,0,1,4.026,4.026,1.342,1.342,0,0,1-2.684,0,1.342,1.342,0,1,0-2.684,0,1.342,1.342,0,0,1-2.684,0A4.031,4.031,0,0,1,34.026,22Z" transform="translate(7.578 7.525)" fill="#252525"/>
        <path id="Trazado_712844" data-name="Trazado 712844" d="M18.368,15.736a5.368,5.368,0,1,1,5.368-5.368A5.374,5.374,0,0,1,18.368,15.736Zm0-8.052a2.684,2.684,0,1,0,2.684,2.684A2.687,2.687,0,0,0,18.368,7.684Z" transform="translate(44.709 1.71)" fill="#252525"/>
        <path id="Trazado_712845" data-name="Trazado 712845" d="M30.7,9.394a4.7,4.7,0,1,1,4.7-4.7A4.7,4.7,0,0,1,30.7,9.394Zm0-6.71A2.013,2.013,0,1,0,32.71,4.7,2.016,2.016,0,0,0,30.7,2.684Z" transform="translate(15.604)" fill="#252525"/>
      </g>
    </g>
  </g>
</svg>
