<svg xmlns="http://www.w3.org/2000/svg" width="764.012" height="396.513" viewBox="0 0 764.012 396.513">
  <g id="Grupo_1085517" data-name="Grupo 1085517" transform="translate(-422.838 -9415)">
    <rect id="Rectángulo_4411" data-name="Rectángulo 4411" width="286.307" height="133.75" transform="translate(640.142 9460.971) rotate(90)" fill="#ffede7"/>
    <rect id="Rectángulo_4412" data-name="Rectángulo 4412" width="286.307" height="133.75" transform="translate(773.892 9460.971) rotate(90)" fill="#eff5d6"/>
    <rect id="Rectángulo_4413" data-name="Rectángulo 4413" width="286.307" height="133.75" transform="translate(907.642 9460.971) rotate(90)" fill="#fff8da"/>
    <rect id="Rectángulo_4414" data-name="Rectángulo 4414" width="286.307" height="133.75" transform="translate(1041.392 9460.971) rotate(90)" fill="#eff3f6"/>
    <path id="Trazado_794964" data-name="Trazado 794964" d="M52.2,7.523H48.721V17H46.377V7.523H42.939v-1.9H52.2ZM55.775,17H53.51V8.547h2.266Zm-2.4-10.641a1.112,1.112,0,0,1,.34-.836,1.465,1.465,0,0,1,1.848,0,1.105,1.105,0,0,1,.344.836,1.108,1.108,0,0,1-.348.844,1.448,1.448,0,0,1-1.836,0A1.108,1.108,0,0,1,53.377,6.359Zm8.148,10.8A4.15,4.15,0,0,1,58.5,16.016a4.054,4.054,0,0,1-1.168-3.039v-.219a5.106,5.106,0,0,1,.492-2.277,3.612,3.612,0,0,1,1.395-1.547,3.914,3.914,0,0,1,2.059-.543,3.508,3.508,0,0,1,2.73,1.094,4.444,4.444,0,0,1,1,3.1v.922H59.619a2.1,2.1,0,0,0,.66,1.328,2,2,0,0,0,1.395.5,2.437,2.437,0,0,0,2.039-.945l1.109,1.242a3.389,3.389,0,0,1-1.375,1.121A4.511,4.511,0,0,1,61.525,17.156Zm-.258-6.945a1.411,1.411,0,0,0-1.09.455,2.357,2.357,0,0,0-.535,1.3h3.141v-.181a1.681,1.681,0,0,0-.406-1.165A1.456,1.456,0,0,0,61.267,10.211ZM68.4,8.547l.07.945a2.971,2.971,0,0,1,2.43-1.1A2.255,2.255,0,0,1,73.142,9.68a2.9,2.9,0,0,1,2.539-1.289,2.521,2.521,0,0,1,2.047.8A3.681,3.681,0,0,1,78.4,11.6V17H76.135V11.609a1.61,1.61,0,0,0-.281-1.051,1.246,1.246,0,0,0-.992-.332,1.409,1.409,0,0,0-1.406.969l.008,5.8H71.2V11.617a1.59,1.59,0,0,0-.289-1.062,1.259,1.259,0,0,0-.984-.328,1.463,1.463,0,0,0-1.391.8V17H66.283V8.547Zm19.344,4.3a5.07,5.07,0,0,1-.887,3.129,2.843,2.843,0,0,1-2.395,1.176,2.633,2.633,0,0,1-2.07-.891V20.25H80.135V8.547h2.094l.078.828a2.654,2.654,0,0,1,2.141-.984,2.862,2.862,0,0,1,2.43,1.156,5.207,5.207,0,0,1,.867,3.188Zm-2.258-.164a3.327,3.327,0,0,0-.418-1.82,1.361,1.361,0,0,0-1.215-.641,1.478,1.478,0,0,0-1.461.813V14.5a1.5,1.5,0,0,0,1.477.836Q85.486,15.336,85.486,12.688Zm3.3.008a5.013,5.013,0,0,1,.484-2.242A3.546,3.546,0,0,1,90.67,8.93a4.069,4.069,0,0,1,2.113-.539,3.849,3.849,0,0,1,2.793,1.047,4.2,4.2,0,0,1,1.207,2.844l.016.578a4.418,4.418,0,0,1-1.086,3.121,4.209,4.209,0,0,1-5.832,0,4.5,4.5,0,0,1-1.09-3.187Zm2.258.16A3.16,3.16,0,0,0,91.5,14.7a1.628,1.628,0,0,0,2.578.008,3.457,3.457,0,0,0,.461-2.015,3.128,3.128,0,0,0-.461-1.831,1.5,1.5,0,0,0-1.3-.649,1.474,1.474,0,0,0-1.281.646A3.516,3.516,0,0,0,91.049,12.856Z" transform="translate(1090.052 9725.623)" fill="#12263f"/>
    <path id="Trazado_794971" data-name="Trazado 794971" d="M39.682,12.07h-4.5v3.047h5.281V17H32.838V5.625h7.609v1.9H35.182v2.711h4.5Zm6.938,4.07a2.831,2.831,0,0,1-2.312,1.016,2.67,2.67,0,0,1-2.074-.781,3.335,3.335,0,0,1-.73-2.289V8.547H43.76v5.467q0,1.322,1.2,1.322a1.63,1.63,0,0,0,1.578-.8V8.547h2.266V17H46.682Zm8.641-5.477a6.134,6.134,0,0,0-.812-.062,1.654,1.654,0,0,0-1.68.867V17H50.51V8.547h2.133l.063,1.008a2.092,2.092,0,0,1,1.883-1.164,2.366,2.366,0,0,1,.7.1Zm.453,2.031a5.013,5.013,0,0,1,.484-2.242A3.546,3.546,0,0,1,57.592,8.93a4.069,4.069,0,0,1,2.113-.539A3.849,3.849,0,0,1,62.5,9.438a4.2,4.2,0,0,1,1.207,2.844l.016.578a4.418,4.418,0,0,1-1.086,3.121,4.209,4.209,0,0,1-5.832,0,4.5,4.5,0,0,1-1.09-3.187Zm2.258.16a3.16,3.16,0,0,0,.453,1.843A1.628,1.628,0,0,0,61,14.706a3.457,3.457,0,0,0,.461-2.015A3.128,3.128,0,0,0,61,10.86a1.5,1.5,0,0,0-1.3-.649,1.474,1.474,0,0,0-1.281.646A3.516,3.516,0,0,0,57.971,12.856ZM69.69,14.664a.727.727,0,0,0-.41-.652,4.659,4.659,0,0,0-1.316-.426q-3.016-.633-3.016-2.562a2.323,2.323,0,0,1,.934-1.879,3.766,3.766,0,0,1,2.441-.754,4.053,4.053,0,0,1,2.574.758,2.388,2.388,0,0,1,.965,1.969H69.6a1.092,1.092,0,0,0-.312-.8A1.322,1.322,0,0,0,68.315,10a1.351,1.351,0,0,0-.883.258.814.814,0,0,0-.312.656.7.7,0,0,0,.355.605,3.657,3.657,0,0,0,1.2.4A9.8,9.8,0,0,1,70.1,12.3a2.336,2.336,0,0,1,1.789,2.273,2.2,2.2,0,0,1-.992,1.871,4.28,4.28,0,0,1-2.562.715,4.47,4.47,0,0,1-1.887-.379,3.166,3.166,0,0,1-1.293-1.039,2.414,2.414,0,0,1-.469-1.426h2.141a1.179,1.179,0,0,0,.445.922,1.766,1.766,0,0,0,1.109.32,1.635,1.635,0,0,0,.98-.246A.766.766,0,0,0,69.69,14.664Z" transform="translate(390 9436.113)" fill="#12263f"/>
    <path id="Trazado_28139" data-name="Trazado 28139" d="M936.205,1958.95l-1.473,1.582,5.479,5.091H364.743v-326.78l5.089,5.475,1.582-1.474-8.833-9.5-8.831,9.5,1.582,1.474,5.091-5.479v384.031h4.319v-52.927H940.206l-5.474,5.089,1.473,1.582,9.5-8.833Z" transform="translate(144.348 7781.653)" fill="#00223d"/>
    <path id="Trazado_794970" data-name="Trazado 794970" d="M2.93,17H1.43V5.625h1.5ZM6.813,8.547l.047,1.063A3.08,3.08,0,0,1,9.391,8.391q2.68,0,2.7,3.023V17H10.648V11.406a1.946,1.946,0,0,0-.418-1.352,1.675,1.675,0,0,0-1.277-.437,2.086,2.086,0,0,0-1.234.375,2.546,2.546,0,0,0-.828.984V17H5.445V8.547ZM16.234,6.5V8.547h1.578V9.664H16.234v5.249a1.173,1.173,0,0,0,.211.763.888.888,0,0,0,.719.254,3.5,3.5,0,0,0,.688-.094V17a4.215,4.215,0,0,1-1.109.155,1.8,1.8,0,0,1-1.461-.586,2.517,2.517,0,0,1-.492-1.664V9.664H13.25V8.547h1.539V6.5Zm7.352,3.344a4.331,4.331,0,0,0-.711-.055A1.9,1.9,0,0,0,20.945,11v6H19.5V8.547h1.406l.023.977a2.251,2.251,0,0,1,2.016-1.133,1.477,1.477,0,0,1,.641.109Zm.789,2.852a4.993,4.993,0,0,1,.488-2.234A3.643,3.643,0,0,1,26.223,8.93a3.7,3.7,0,0,1,1.988-.539A3.565,3.565,0,0,1,31,9.586a4.6,4.6,0,0,1,1.066,3.18v.1a5.036,5.036,0,0,1-.473,2.215,3.589,3.589,0,0,1-1.352,1.527,3.743,3.743,0,0,1-2.02.547,3.556,3.556,0,0,1-2.785-1.2A4.575,4.575,0,0,1,24.375,12.8Zm1.453.172a3.616,3.616,0,0,0,.652,2.258,2.211,2.211,0,0,0,3.5-.012,3.955,3.955,0,0,0,.648-2.418,3.61,3.61,0,0,0-.66-2.254,2.1,2.1,0,0,0-1.754-.863,2.075,2.075,0,0,0-1.727.852A3.925,3.925,0,0,0,25.828,12.867Zm7.7-.164a4.952,4.952,0,0,1,.922-3.129,3.137,3.137,0,0,1,4.766-.168V5h1.445V17H39.336l-.07-.906a2.943,2.943,0,0,1-2.414,1.063,2.887,2.887,0,0,1-2.395-1.2,5.008,5.008,0,0,1-.926-3.141Zm1.445.164a3.749,3.749,0,0,0,.594,2.25,1.92,1.92,0,0,0,1.641.813A2.108,2.108,0,0,0,39.219,14.7V10.813a2.125,2.125,0,0,0-1.992-1.2,1.929,1.929,0,0,0-1.656.82A4.128,4.128,0,0,0,34.977,12.867Zm13.148,3.3a3.07,3.07,0,0,1-2.477.992,2.628,2.628,0,0,1-2.059-.785,3.4,3.4,0,0,1-.715-2.324v-5.5H44.32v5.461q0,1.922,1.563,1.922a2.163,2.163,0,0,0,2.2-1.234V8.547h1.445V17H48.156Zm6.992-.187a2.082,2.082,0,0,0,1.352-.469,1.649,1.649,0,0,0,.641-1.172h1.367a2.621,2.621,0,0,1-.5,1.383,3.293,3.293,0,0,1-1.23,1.047,3.55,3.55,0,0,1-1.629.391A3.482,3.482,0,0,1,52.371,16a4.59,4.59,0,0,1-1.02-3.152v-.242a5.089,5.089,0,0,1,.453-2.2,3.451,3.451,0,0,1,1.3-1.492,3.7,3.7,0,0,1,2-.531,3.39,3.39,0,0,1,2.363.852,3.043,3.043,0,0,1,1,2.211H57.109a1.992,1.992,0,0,0-.621-1.348,1.932,1.932,0,0,0-1.379-.527,2.023,2.023,0,0,0-1.707.793,3.724,3.724,0,0,0-.605,2.293v.273a3.65,3.65,0,0,0,.6,2.25A2.033,2.033,0,0,0,55.117,15.977Zm8.375,0a2.082,2.082,0,0,0,1.352-.469,1.649,1.649,0,0,0,.641-1.172h1.367a2.621,2.621,0,0,1-.5,1.383,3.293,3.293,0,0,1-1.23,1.047,3.55,3.55,0,0,1-1.629.391A3.482,3.482,0,0,1,60.746,16a4.59,4.59,0,0,1-1.02-3.152v-.242a5.089,5.089,0,0,1,.453-2.2,3.451,3.451,0,0,1,1.3-1.492,3.7,3.7,0,0,1,2-.531,3.39,3.39,0,0,1,2.363.852,3.043,3.043,0,0,1,1,2.211H65.484a1.992,1.992,0,0,0-.621-1.348,1.932,1.932,0,0,0-1.379-.527,2.023,2.023,0,0,0-1.707.793,3.724,3.724,0,0,0-.605,2.293v.273a3.65,3.65,0,0,0,.6,2.25A2.033,2.033,0,0,0,63.492,15.977ZM70.047,17H68.6V8.547h1.445ZM68.484,6.3a.863.863,0,0,1,.215-.594.807.807,0,0,1,.637-.242.819.819,0,0,1,.641.242A.854.854,0,0,1,70.2,6.3a.826.826,0,0,1-.219.586.834.834,0,0,1-.641.234.821.821,0,0,1-.637-.234A.834.834,0,0,1,68.484,6.3ZM71.977,12.7a4.993,4.993,0,0,1,.488-2.234A3.643,3.643,0,0,1,73.824,8.93a3.7,3.7,0,0,1,1.988-.539,3.565,3.565,0,0,1,2.793,1.2,4.6,4.6,0,0,1,1.066,3.18v.1a5.036,5.036,0,0,1-.473,2.215,3.589,3.589,0,0,1-1.352,1.527,3.743,3.743,0,0,1-2.02.547,3.556,3.556,0,0,1-2.785-1.2A4.575,4.575,0,0,1,71.977,12.8Zm1.453.172a3.616,3.616,0,0,0,.652,2.258,2.211,2.211,0,0,0,3.5-.012,3.955,3.955,0,0,0,.648-2.418,3.61,3.61,0,0,0-.66-2.254,2.1,2.1,0,0,0-1.754-.863,2.075,2.075,0,0,0-1.727.852A3.925,3.925,0,0,0,73.43,12.867ZM76.469,5h1.75L76.125,7.3l-1.164,0Zm6.383,3.547L82.9,9.609A3.08,3.08,0,0,1,85.43,8.391q2.68,0,2.7,3.023V17H86.688V11.406a1.946,1.946,0,0,0-.418-1.352,1.675,1.675,0,0,0-1.277-.437,2.086,2.086,0,0,0-1.234.375,2.546,2.546,0,0,0-.828.984V17H81.484V8.547Z" transform="translate(522.12 9481.418)" fill="#12263f"/>
    <path id="Trazado_794969" data-name="Trazado 794969" d="M9.688,13.391a4.185,4.185,0,0,1-1.332,2.785,4.365,4.365,0,0,1-2.98.98,4.008,4.008,0,0,1-3.23-1.445A5.815,5.815,0,0,1,.93,11.844V10.75A6.481,6.481,0,0,1,1.5,7.961,4.231,4.231,0,0,1,3.1,6.113a4.47,4.47,0,0,1,2.406-.645A4.11,4.11,0,0,1,8.414,6.48a4.235,4.235,0,0,1,1.273,2.8H8.18a3.268,3.268,0,0,0-.848-1.975A2.565,2.565,0,0,0,5.508,6.7,2.684,2.684,0,0,0,3.254,7.759a4.882,4.882,0,0,0-.816,3.026v1.1a5.018,5.018,0,0,0,.773,2.948A2.5,2.5,0,0,0,5.375,15.93a2.887,2.887,0,0,0,1.918-.566,3.143,3.143,0,0,0,.887-1.973Zm5.906-3.547a4.331,4.331,0,0,0-.711-.055A1.9,1.9,0,0,0,12.953,11v6H11.508V8.547h1.406l.023.977a2.251,2.251,0,0,1,2.016-1.133,1.477,1.477,0,0,1,.641.109Zm4.836,7.313a3.693,3.693,0,0,1-2.8-1.129,4.19,4.19,0,0,1-1.078-3.02v-.266a5.073,5.073,0,0,1,.48-2.246,3.748,3.748,0,0,1,1.344-1.547,3.378,3.378,0,0,1,1.871-.559,3.166,3.166,0,0,1,2.563,1.086,4.7,4.7,0,0,1,.914,3.109v.6H18a3,3,0,0,0,.73,2.02,2.3,2.3,0,0,0,1.777.77,2.517,2.517,0,0,0,1.3-.312,3.259,3.259,0,0,0,.93-.828l.883.688A3.55,3.55,0,0,1,20.43,17.156Zm-.18-7.578a1.928,1.928,0,0,0-1.469.637A3.1,3.1,0,0,0,18.047,12h4.234v-.109a2.753,2.753,0,0,0-.594-1.707A1.815,1.815,0,0,0,20.25,9.578Zm8.539,6.4a2.082,2.082,0,0,0,1.352-.469,1.649,1.649,0,0,0,.641-1.172h1.367a2.621,2.621,0,0,1-.5,1.383,3.293,3.293,0,0,1-1.23,1.047,3.55,3.55,0,0,1-1.629.391A3.482,3.482,0,0,1,26.043,16a4.59,4.59,0,0,1-1.02-3.152v-.242a5.089,5.089,0,0,1,.453-2.2,3.451,3.451,0,0,1,1.3-1.492,3.7,3.7,0,0,1,2-.531,3.39,3.39,0,0,1,2.363.852,3.043,3.043,0,0,1,1,2.211H30.781a1.992,1.992,0,0,0-.621-1.348,1.932,1.932,0,0,0-1.379-.527,2.023,2.023,0,0,0-1.707.793,3.724,3.724,0,0,0-.605,2.293v.273a3.65,3.65,0,0,0,.6,2.25A2.033,2.033,0,0,0,28.789,15.977ZM35.344,17H33.9V8.547h1.445ZM33.781,6.3A.863.863,0,0,1,34,5.711a.807.807,0,0,1,.637-.242.819.819,0,0,1,.641.242.854.854,0,0,1,.219.594.826.826,0,0,1-.219.586.834.834,0,0,1-.641.234A.821.821,0,0,1,34,6.891.834.834,0,0,1,33.781,6.3Zm5.234,2.242.039.938a3.122,3.122,0,0,1,2.508-1.094A2.417,2.417,0,0,1,43.977,9.75a3.2,3.2,0,0,1,1.1-.984,3.242,3.242,0,0,1,1.6-.375q2.781,0,2.828,2.945V17H48.055V11.422a1.941,1.941,0,0,0-.414-1.355,1.823,1.823,0,0,0-1.391-.449,1.917,1.917,0,0,0-1.336.48,1.949,1.949,0,0,0-.617,1.293V17H42.844V11.461a1.613,1.613,0,0,0-1.8-1.844,1.934,1.934,0,0,0-1.945,1.211V17H37.648V8.547ZM53.25,17H51.8V8.547H53.25ZM51.688,6.3a.863.863,0,0,1,.215-.594.807.807,0,0,1,.637-.242.819.819,0,0,1,.641.242A.854.854,0,0,1,53.4,6.3a.826.826,0,0,1-.219.586.834.834,0,0,1-.641.234.821.821,0,0,1-.637-.234A.834.834,0,0,1,51.688,6.3ZM59.07,17.156a3.693,3.693,0,0,1-2.8-1.129,4.19,4.19,0,0,1-1.078-3.02v-.266a5.073,5.073,0,0,1,.48-2.246A3.748,3.748,0,0,1,57.02,8.949a3.378,3.378,0,0,1,1.871-.559,3.166,3.166,0,0,1,2.563,1.086,4.7,4.7,0,0,1,.914,3.109v.6H56.641a3,3,0,0,0,.73,2.02,2.3,2.3,0,0,0,1.777.77,2.517,2.517,0,0,0,1.3-.312,3.259,3.259,0,0,0,.93-.828l.883.688A3.55,3.55,0,0,1,59.07,17.156Zm-.18-7.578a1.928,1.928,0,0,0-1.469.637A3.1,3.1,0,0,0,56.688,12h4.234v-.109a2.753,2.753,0,0,0-.594-1.707A1.815,1.815,0,0,0,58.891,9.578Zm6.516-1.031.047,1.063a3.08,3.08,0,0,1,2.531-1.219q2.68,0,2.7,3.023V17H69.242V11.406a1.946,1.946,0,0,0-.418-1.352,1.675,1.675,0,0,0-1.277-.437,2.086,2.086,0,0,0-1.234.375,2.546,2.546,0,0,0-.828.984V17H64.039V8.547ZM74.828,6.5V8.547h1.578V9.664H74.828v5.249a1.173,1.173,0,0,0,.211.763.888.888,0,0,0,.719.254,3.5,3.5,0,0,0,.688-.094V17a4.215,4.215,0,0,1-1.109.155,1.8,1.8,0,0,1-1.461-.586,2.517,2.517,0,0,1-.492-1.664V9.664H71.844V8.547h1.539V6.5Zm2.727,6.2a4.993,4.993,0,0,1,.488-2.234A3.643,3.643,0,0,1,79.4,8.93a3.7,3.7,0,0,1,1.988-.539,3.565,3.565,0,0,1,2.793,1.2,4.6,4.6,0,0,1,1.066,3.18v.1a5.036,5.036,0,0,1-.473,2.215,3.589,3.589,0,0,1-1.352,1.527,3.743,3.743,0,0,1-2.02.547,3.556,3.556,0,0,1-2.785-1.2A4.575,4.575,0,0,1,77.555,12.8Zm1.453.172a3.616,3.616,0,0,0,.652,2.258,2.211,2.211,0,0,0,3.5-.012A3.955,3.955,0,0,0,83.8,12.7a3.61,3.61,0,0,0-.66-2.254,2.1,2.1,0,0,0-1.754-.863,2.075,2.075,0,0,0-1.727.852A3.925,3.925,0,0,0,79.008,12.867Z" transform="translate(662.325 9481.421)" fill="#12263f"/>
    <path id="Trazado_794968" data-name="Trazado 794968" d="M3.258,5.625l3.719,9.281L10.7,5.625h1.945V17h-1.5V12.57l.141-4.781L7.547,17H6.4L2.672,7.813,2.82,12.57V17H1.32V5.625ZM20.281,17a3.036,3.036,0,0,1-.2-.891,3.225,3.225,0,0,1-2.406,1.047,2.984,2.984,0,0,1-2.051-.707,2.287,2.287,0,0,1-.8-1.793,2.39,2.39,0,0,1,1-2.051,4.733,4.733,0,0,1,2.824-.73h1.406v-.664A1.623,1.623,0,0,0,19.6,10a1.821,1.821,0,0,0-1.336-.449,2.107,2.107,0,0,0-1.3.391,1.151,1.151,0,0,0-.523.945H14.992a2,2,0,0,1,.449-1.223,3.066,3.066,0,0,1,1.219-.934,4.1,4.1,0,0,1,1.691-.344,3.342,3.342,0,0,1,2.289.73,2.635,2.635,0,0,1,.859,2.012v3.891a4.757,4.757,0,0,0,.3,1.852V17Zm-2.4-1.1a2.54,2.54,0,0,0,1.289-.352,2.127,2.127,0,0,0,.883-.914V12.9H18.922q-2.656,0-2.656,1.555a1.316,1.316,0,0,0,.453,1.063A1.742,1.742,0,0,0,17.883,15.9Zm5.531-3.2a4.952,4.952,0,0,1,.922-3.129A3.137,3.137,0,0,1,29.1,9.406V5h1.445V17H29.219l-.07-.906a2.943,2.943,0,0,1-2.414,1.063,2.887,2.887,0,0,1-2.395-1.2,5.008,5.008,0,0,1-.926-3.141Zm1.445.164a3.749,3.749,0,0,0,.594,2.25,1.92,1.92,0,0,0,1.641.813A2.108,2.108,0,0,0,29.1,14.7V10.813a2.125,2.125,0,0,0-1.992-1.2,1.929,1.929,0,0,0-1.656.82A4.128,4.128,0,0,0,24.859,12.867Zm13.148,3.3a3.07,3.07,0,0,1-2.477.992,2.628,2.628,0,0,1-2.059-.785,3.4,3.4,0,0,1-.715-2.324v-5.5H34.2v5.461q0,1.922,1.563,1.922a2.163,2.163,0,0,0,2.2-1.234V8.547h1.445V17H38.039ZM45.7,9.844a4.331,4.331,0,0,0-.711-.055A1.9,1.9,0,0,0,43.055,11v6H41.609V8.547h1.406l.023.977a2.251,2.251,0,0,1,2.016-1.133A1.477,1.477,0,0,1,45.7,8.5Zm4.836,7.313a3.693,3.693,0,0,1-2.8-1.129,4.19,4.19,0,0,1-1.078-3.02v-.266a5.073,5.073,0,0,1,.48-2.246A3.748,3.748,0,0,1,48.48,8.949a3.378,3.378,0,0,1,1.871-.559,3.166,3.166,0,0,1,2.563,1.086,4.7,4.7,0,0,1,.914,3.109v.6H48.1a3,3,0,0,0,.73,2.02,2.3,2.3,0,0,0,1.777.77,2.517,2.517,0,0,0,1.3-.312,3.259,3.259,0,0,0,.93-.828l.883.688A3.55,3.55,0,0,1,50.531,17.156Zm-.18-7.578a1.928,1.928,0,0,0-1.469.637A3.1,3.1,0,0,0,48.148,12h4.234v-.109a2.753,2.753,0,0,0-.594-1.707A1.815,1.815,0,0,0,50.352,9.578Zm6.508,6.242H61.8V17H55.094V15.938l4.664-6.2H55.164v-1.2H61.57V9.57Z" transform="translate(804.075 9481.421)" fill="#12263f"/>
    <path id="Trazado_794967" data-name="Trazado 794967" d="M1.32,17V5.625H4.531a5.169,5.169,0,0,1,2.625.656A4.438,4.438,0,0,1,8.918,8.148a6.078,6.078,0,0,1,.629,2.781v.727a6.1,6.1,0,0,1-.621,2.82,4.369,4.369,0,0,1-1.773,1.859A5.5,5.5,0,0,1,4.469,17ZM2.82,6.852v8.922H4.4a3.434,3.434,0,0,0,2.7-1.079,4.458,4.458,0,0,0,.965-3.073v-.665a4.529,4.529,0,0,0-.91-3.014A3.239,3.239,0,0,0,4.57,6.852Zm12.273,10.3a3.693,3.693,0,0,1-2.8-1.129,4.19,4.19,0,0,1-1.078-3.02v-.266A5.073,5.073,0,0,1,11.7,10.5a3.748,3.748,0,0,1,1.344-1.547,3.378,3.378,0,0,1,1.871-.559,3.166,3.166,0,0,1,2.563,1.086,4.7,4.7,0,0,1,.914,3.109v.6H12.664a3,3,0,0,0,.73,2.02,2.3,2.3,0,0,0,1.777.77,2.517,2.517,0,0,0,1.3-.312,3.259,3.259,0,0,0,.93-.828l.883.688A3.55,3.55,0,0,1,15.094,17.156Zm-.18-7.578a1.928,1.928,0,0,0-1.469.637A3.1,3.1,0,0,0,12.711,12h4.234v-.109a2.753,2.753,0,0,0-.594-1.707A1.815,1.815,0,0,0,14.914,9.578Zm8.539,6.4a2.082,2.082,0,0,0,1.352-.469,1.649,1.649,0,0,0,.641-1.172h1.367a2.621,2.621,0,0,1-.5,1.383,3.293,3.293,0,0,1-1.23,1.047,3.55,3.55,0,0,1-1.629.391A3.482,3.482,0,0,1,20.707,16a4.59,4.59,0,0,1-1.02-3.152v-.242a5.089,5.089,0,0,1,.453-2.2,3.451,3.451,0,0,1,1.3-1.492,3.7,3.7,0,0,1,2-.531,3.39,3.39,0,0,1,2.363.852,3.043,3.043,0,0,1,1,2.211H25.445a1.992,1.992,0,0,0-.621-1.348,1.932,1.932,0,0,0-1.379-.527,2.023,2.023,0,0,0-1.707.793,3.724,3.724,0,0,0-.605,2.293v.273a3.65,3.65,0,0,0,.6,2.25A2.033,2.033,0,0,0,23.453,15.977ZM30.008,17H28.563V5h1.445Zm3.883,0H32.445V8.547h1.445ZM32.328,6.3a.863.863,0,0,1,.215-.594.807.807,0,0,1,.637-.242.819.819,0,0,1,.641.242.854.854,0,0,1,.219.594.826.826,0,0,1-.219.586.834.834,0,0,1-.641.234.821.821,0,0,1-.637-.234A.834.834,0,0,1,32.328,6.3Zm6.664,8.734,2.094-6.492h1.477L39.531,17h-1.1L35.367,8.547h1.477Zm8.469,2.117a3.693,3.693,0,0,1-2.8-1.129,4.19,4.19,0,0,1-1.078-3.02v-.266a5.073,5.073,0,0,1,.48-2.246A3.748,3.748,0,0,1,45.41,8.949a3.378,3.378,0,0,1,1.871-.559,3.166,3.166,0,0,1,2.563,1.086,4.7,4.7,0,0,1,.914,3.109v.6H45.031a3,3,0,0,0,.73,2.02,2.3,2.3,0,0,0,1.777.77,2.517,2.517,0,0,0,1.3-.312,3.259,3.259,0,0,0,.93-.828l.883.688A3.55,3.55,0,0,1,47.461,17.156Zm-.18-7.578a1.928,1.928,0,0,0-1.469.637A3.1,3.1,0,0,0,45.078,12h4.234v-.109a2.753,2.753,0,0,0-.594-1.707A1.815,1.815,0,0,0,47.281,9.578Z" transform="translate(946.844 9481.421)" fill="#12263f"/>
    <path id="Trazado_794965" data-name="Trazado 794965" d="M1.016,17V5.625H5a5.232,5.232,0,0,1,3.141.793,2.712,2.712,0,0,1,1.07,2.324,2.57,2.57,0,0,1-.43,1.473,2.482,2.482,0,0,1-1.2.934,2.4,2.4,0,0,1,1.379.883,2.61,2.61,0,0,1,.5,1.625,3,3,0,0,1-1.047,2.484A4.713,4.713,0,0,1,5.438,17Zm2.344-4.953v3.07H5.367a1.938,1.938,0,0,0,1.293-.395,1.353,1.353,0,0,0,.465-1.09,1.428,1.428,0,0,0-1.617-1.586Zm0-1.656H5.094q1.773-.031,1.773-1.414a1.307,1.307,0,0,0-.449-1.113A2.363,2.363,0,0,0,5,7.523H3.359Zm11.609,6.766a4.15,4.15,0,0,1-3.027-1.141,4.054,4.054,0,0,1-1.168-3.039v-.219a5.106,5.106,0,0,1,.492-2.277A3.612,3.612,0,0,1,12.66,8.934a3.914,3.914,0,0,1,2.059-.543,3.508,3.508,0,0,1,2.73,1.094,4.444,4.444,0,0,1,1,3.1v.922H13.063a2.1,2.1,0,0,0,.66,1.328,2,2,0,0,0,1.395.5,2.437,2.437,0,0,0,2.039-.945l1.109,1.242a3.389,3.389,0,0,1-1.375,1.121A4.511,4.511,0,0,1,14.969,17.156Zm-.258-6.945a1.411,1.411,0,0,0-1.09.455,2.357,2.357,0,0,0-.535,1.3h3.141v-.181a1.681,1.681,0,0,0-.406-1.165A1.456,1.456,0,0,0,14.711,10.211ZM21.8,8.547l.07.977A2.951,2.951,0,0,1,24.3,8.391a2.453,2.453,0,0,1,2,.789,3.682,3.682,0,0,1,.672,2.359V17H24.719V11.594a1.465,1.465,0,0,0-.312-1.043,1.4,1.4,0,0,0-1.039-.324,1.553,1.553,0,0,0-1.43.813V17H19.68V8.547Zm10.773,8.609a4.15,4.15,0,0,1-3.027-1.141,4.054,4.054,0,0,1-1.168-3.039v-.219a5.106,5.106,0,0,1,.492-2.277A3.612,3.612,0,0,1,30.27,8.934a3.914,3.914,0,0,1,2.059-.543,3.508,3.508,0,0,1,2.73,1.094,4.444,4.444,0,0,1,1,3.1v.922H30.672a2.1,2.1,0,0,0,.66,1.328,2,2,0,0,0,1.395.5,2.437,2.437,0,0,0,2.039-.945l1.109,1.242A3.389,3.389,0,0,1,34.5,16.754,4.511,4.511,0,0,1,32.578,17.156Zm-.258-6.945a1.411,1.411,0,0,0-1.09.455,2.357,2.357,0,0,0-.535,1.3h3.141v-.181a1.681,1.681,0,0,0-.406-1.165A1.456,1.456,0,0,0,32.32,10.211ZM37.883,17V10.2H36.625V8.547h1.258V8.156a3.17,3.17,0,0,1,.98-2.457,3.945,3.945,0,0,1,2.723-.863,9.031,9.031,0,0,1,2.563.461L43.82,7.164a10,10,0,0,0-1.187-.293,5.835,5.835,0,0,0-.906-.066q-1.578,0-1.578,1.4v.344h1.664V10.2H40.148V17Zm7.32,0H42.938V8.547H45.2Zm5.383-1.664a1.481,1.481,0,0,0,1.016-.344,1.2,1.2,0,0,0,.406-.914h2.117a2.9,2.9,0,0,1-.469,1.574,3.093,3.093,0,0,1-1.262,1.109,3.949,3.949,0,0,1-1.77.395A3.67,3.67,0,0,1,47.766,16a4.56,4.56,0,0,1-1.047-3.184v-.148a4.508,4.508,0,0,1,1.039-3.117,3.627,3.627,0,0,1,2.852-1.164,3.555,3.555,0,0,1,2.543.9,3.2,3.2,0,0,1,.973,2.4H52.008a1.551,1.551,0,0,0-.406-1.072,1.51,1.51,0,0,0-2.223.163,3.333,3.333,0,0,0-.4,1.866v.235a3.375,3.375,0,0,0,.4,1.878A1.377,1.377,0,0,0,50.586,15.336ZM57.8,17H55.531V8.547H57.8ZM55.4,6.359a1.112,1.112,0,0,1,.34-.836,1.465,1.465,0,0,1,1.848,0,1.105,1.105,0,0,1,.344.836,1.108,1.108,0,0,1-.348.844,1.448,1.448,0,0,1-1.836,0A1.108,1.108,0,0,1,55.4,6.359ZM59.3,12.7a5.013,5.013,0,0,1,.484-2.242A3.546,3.546,0,0,1,61.184,8.93,4.069,4.069,0,0,1,63.3,8.391,3.849,3.849,0,0,1,66.09,9.438,4.2,4.2,0,0,1,67.3,12.281l.016.578a4.418,4.418,0,0,1-1.086,3.121,4.209,4.209,0,0,1-5.832,0A4.5,4.5,0,0,1,59.3,12.8Zm2.258.16a3.16,3.16,0,0,0,.453,1.843,1.628,1.628,0,0,0,2.578.008,3.457,3.457,0,0,0,.461-2.015,3.128,3.128,0,0,0-.461-1.831,1.5,1.5,0,0,0-1.3-.649,1.474,1.474,0,0,0-1.281.646A3.516,3.516,0,0,0,61.563,12.856Zm11.719,1.808a.727.727,0,0,0-.41-.652,4.659,4.659,0,0,0-1.316-.426q-3.016-.633-3.016-2.562a2.323,2.323,0,0,1,.934-1.879,3.766,3.766,0,0,1,2.441-.754,4.053,4.053,0,0,1,2.574.758,2.388,2.388,0,0,1,.965,1.969H73.2a1.092,1.092,0,0,0-.312-.8A1.322,1.322,0,0,0,71.906,10a1.351,1.351,0,0,0-.883.258.814.814,0,0,0-.312.656.7.7,0,0,0,.355.605,3.657,3.657,0,0,0,1.2.4,9.8,9.8,0,0,1,1.422.379,2.336,2.336,0,0,1,1.789,2.273,2.2,2.2,0,0,1-.992,1.871,4.28,4.28,0,0,1-2.562.715,4.47,4.47,0,0,1-1.887-.379,3.166,3.166,0,0,1-1.293-1.039,2.414,2.414,0,0,1-.469-1.426h2.141a1.179,1.179,0,0,0,.445.922,1.766,1.766,0,0,0,1.109.32,1.635,1.635,0,0,0,.98-.246A.766.766,0,0,0,73.281,14.664Z" transform="translate(936.844 9794.356)" fill="#12263f"/>
    <path id="Trazado_794966" data-name="Trazado 794966" d="M5.219,14.18,7.8,5.625h2.609L6.445,17H4L.055,5.625h2.6Zm10,2.977a4.15,4.15,0,0,1-3.027-1.141,4.054,4.054,0,0,1-1.168-3.039v-.219a5.106,5.106,0,0,1,.492-2.277A3.612,3.612,0,0,1,12.91,8.934a3.914,3.914,0,0,1,2.059-.543A3.508,3.508,0,0,1,17.7,9.484a4.444,4.444,0,0,1,1,3.1v.922H13.313a2.1,2.1,0,0,0,.66,1.328,2,2,0,0,0,1.395.5,2.437,2.437,0,0,0,2.039-.945l1.109,1.242a3.389,3.389,0,0,1-1.375,1.121A4.511,4.511,0,0,1,15.219,17.156Zm-.258-6.945a1.411,1.411,0,0,0-1.09.455,2.357,2.357,0,0,0-.535,1.3h3.141v-.181a1.681,1.681,0,0,0-.406-1.165A1.456,1.456,0,0,0,14.961,10.211Zm7.094-1.664.07.977a2.951,2.951,0,0,1,2.43-1.133,2.453,2.453,0,0,1,2,.789,3.682,3.682,0,0,1,.672,2.359V17H24.969V11.594a1.465,1.465,0,0,0-.312-1.043,1.4,1.4,0,0,0-1.039-.324,1.553,1.553,0,0,0-1.43.813V17H19.93V8.547Zm9.586-2.078V8.547h1.445V10.2H31.641v4.219a1.007,1.007,0,0,0,.18.672.9.9,0,0,0,.688.2,3.6,3.6,0,0,0,.664-.055v1.711a4.648,4.648,0,0,1-1.367.2,2.156,2.156,0,0,1-2.422-2.4V10.2H28.148V8.547h1.234V6.469ZM39.242,17a2.507,2.507,0,0,1-.227-.758,2.732,2.732,0,0,1-2.133.914,3,3,0,0,1-2.059-.719,2.312,2.312,0,0,1-.816-1.812,2.389,2.389,0,0,1,1-2.062,4.915,4.915,0,0,1,2.879-.727h1.039v-.484a1.393,1.393,0,0,0-.3-.937,1.183,1.183,0,0,0-.949-.352,1.345,1.345,0,0,0-.895.273.929.929,0,0,0-.324.75H34.2a2.268,2.268,0,0,1,.453-1.359,3,3,0,0,1,1.281-.98,4.669,4.669,0,0,1,1.859-.355,3.689,3.689,0,0,1,2.48.785,2.747,2.747,0,0,1,.918,2.207v3.664a4.041,4.041,0,0,0,.336,1.82V17Zm-1.867-1.57a1.945,1.945,0,0,0,.922-.223,1.462,1.462,0,0,0,.625-.6V13.156h-.844q-1.7,0-1.8,1.172l-.008.133a.9.9,0,0,0,.3.7A1.153,1.153,0,0,0,37.375,15.43ZM47.5,14.664a.727.727,0,0,0-.41-.652,4.659,4.659,0,0,0-1.316-.426q-3.016-.633-3.016-2.562a2.323,2.323,0,0,1,.934-1.879,3.766,3.766,0,0,1,2.441-.754,4.053,4.053,0,0,1,2.574.758,2.388,2.388,0,0,1,.965,1.969H47.414a1.092,1.092,0,0,0-.312-.8A1.322,1.322,0,0,0,46.125,10a1.351,1.351,0,0,0-.883.258.814.814,0,0,0-.312.656.7.7,0,0,0,.355.605,3.657,3.657,0,0,0,1.2.4,9.8,9.8,0,0,1,1.422.379A2.336,2.336,0,0,1,49.7,14.57a2.2,2.2,0,0,1-.992,1.871,4.28,4.28,0,0,1-2.562.715,4.47,4.47,0,0,1-1.887-.379,3.166,3.166,0,0,1-1.293-1.039,2.414,2.414,0,0,1-.469-1.426h2.141a1.179,1.179,0,0,0,.445.922,1.766,1.766,0,0,0,1.109.32,1.635,1.635,0,0,0,.98-.246A.766.766,0,0,0,47.5,14.664Z" transform="translate(969.735 9695.185)" fill="#12263f"/>
    <path id="Trazado_28140" data-name="Trazado 28140" d="M357.59,1902.981s113.652-19.6,149.935-58.8,66.681-80.075,99.288-128.812c3.827-5.723,7.259-10.5,10.192-14.4a34.232,34.232,0,0,1,27.372-13.6h83.229a34.3,34.3,0,0,1,20.219,6.576c18.319,13.364,58.785,51.7,112.41,154.438" transform="translate(148.801 7844.295)" fill="none" stroke="#00223d" stroke-linecap="round" stroke-linejoin="round" stroke-width="2"/>
    <g id="Grupo_17624" data-name="Grupo 17624" transform="translate(505.31 9643.799)">
      <g id="Grupo_17621" data-name="Grupo 17621" transform="translate(0 159.127)">
        <path id="Trazado_28141" data-name="Trazado 28141" d="M358.168,1815.645a1.079,1.079,0,0,1-.158-2.146s1.119-.169,3.173-.512a1.069,1.069,0,0,1,1.244.888,1.081,1.081,0,0,1-.888,1.242c-2.082.348-3.209.517-3.209.517A1.131,1.131,0,0,1,358.168,1815.645Z" transform="translate(-357.089 -1812.967)" fill="#00223d"/>
      </g>
      <g id="Grupo_17622" data-name="Grupo 17622" transform="translate(9.59)">
        <path id="Trazado_28142" data-name="Trazado 28142" d="M362.608,1899.459a1.08,1.08,0,0,1-.19-2.143c1.892-.341,4.03-.741,6.391-1.2a1.081,1.081,0,0,1,.41,2.123c-2.369.458-4.518.855-6.416,1.2A1.188,1.188,0,0,1,362.608,1899.459Zm12.792-2.469a1.081,1.081,0,0,1-.214-2.14c2.017-.408,4.142-.853,6.363-1.33a1.081,1.081,0,0,1,.451,2.115c-2.227.475-4.36.92-6.384,1.334A1.043,1.043,0,0,1,375.4,1896.991Zm12.734-2.73a1.08,1.08,0,0,1-.235-2.134q3.078-.691,6.334-1.456a1.078,1.078,0,1,1,.495,2.1q-3.266.771-6.354,1.464A1.143,1.143,0,0,1,388.133,1894.261Zm12.675-2.983a1.079,1.079,0,0,1-.257-2.127q3.094-.764,6.3-1.587a1.08,1.08,0,0,1,.538,2.093q-3.217.826-6.324,1.589A1.072,1.072,0,0,1,400.809,1891.278Zm12.608-3.242a1.08,1.08,0,0,1-.279-2.123q3.1-.829,6.265-1.719a1.08,1.08,0,0,1,.583,2.08q-3.178.891-6.289,1.728A1.228,1.228,0,0,1,413.417,1888.036Zm12.535-3.516a1.079,1.079,0,0,1-.3-2.114q3.091-.91,6.22-1.869a1.081,1.081,0,0,1,.633,2.067q-3.139.958-6.246,1.873A1.145,1.145,0,0,1,425.952,1884.521Zm12.442-3.821a1.08,1.08,0,0,1-.33-2.108q3.074-.991,6.166-2.03a1.079,1.079,0,1,1,.691,2.045q-3.1,1.049-6.2,2.039A1.051,1.051,0,0,1,438.394,1880.7Zm12.321-4.154a1.08,1.08,0,0,1-.358-2.1q3.052-1.079,6.1-2.209a1.08,1.08,0,0,1,.754,2.024q-3.062,1.14-6.131,2.222A1.051,1.051,0,0,1,450.715,1876.547Zm12.2-4.537a1.08,1.08,0,0,1-.393-2.086q3.029-1.185,6.028-2.425a1.08,1.08,0,0,1,.825,2q-3.016,1.247-6.067,2.442A1.1,1.1,0,0,1,462.915,1872.009Zm386.9-3.985a1.081,1.081,0,0,1-.913-.5q-1.672-2.634-3.538-5.436a1.079,1.079,0,1,1,1.8-1.2c1.253,1.877,2.443,3.708,3.566,5.477a1.083,1.083,0,0,1-.912,1.658Zm-374.868-1a1.08,1.08,0,0,1-.434-2.069q2.984-1.305,5.909-2.667a1.079,1.079,0,0,1,.911,1.957q-2.948,1.374-5.952,2.689A1.108,1.108,0,0,1,474.951,1867.027Zm11.8-5.494a1.082,1.082,0,0,1-.482-2.05q2.922-1.448,5.76-2.957a1.08,1.08,0,1,1,1.015,1.907q-2.864,1.523-5.814,2.987A1.089,1.089,0,0,1,486.747,1861.533Zm355.857-4.35a1.078,1.078,0,0,1-.888-.464q-1.808-2.6-3.743-5.306a1.079,1.079,0,1,1,1.754-1.257q1.944,2.711,3.764,5.332a1.08,1.08,0,0,1-.887,1.7Zm-344.372-1.764a1.08,1.08,0,0,1-.538-2.017q2.835-1.623,5.555-3.313a1.08,1.08,0,0,1,1.14,1.833q-2.75,1.714-5.622,3.352A1.076,1.076,0,0,1,498.233,1855.418Zm11.043-6.875a1.08,1.08,0,0,1-.607-1.974c1.8-1.222,3.568-2.482,5.253-3.745a1.08,1.08,0,1,1,1.3,1.728c-1.713,1.283-3.507,2.563-5.337,3.805A1.076,1.076,0,0,1,509.275,1848.544Zm325.75-1.944a1.073,1.073,0,0,1-.87-.443q-1.9-2.572-3.881-5.209a1.08,1.08,0,0,1,1.726-1.3q1.989,2.637,3.894,5.231a1.08,1.08,0,0,1-.868,1.719Zm-315.36-5.87a1.08,1.08,0,0,1-.693-1.909l.41-.346q2.258-1.917,4.535-3.861a1.079,1.079,0,1,1,1.4,1.642q-2.277,1.946-4.54,3.866l-.425.358A1.072,1.072,0,0,1,519.666,1840.73Zm307.529-4.531a1.079,1.079,0,0,1-.858-.421q-1.963-2.552-3.987-5.131a1.08,1.08,0,1,1,1.7-1.333q2.028,2.585,4,5.147a1.08,1.08,0,0,1-.855,1.739Zm-297.64-3.92a1.08,1.08,0,0,1-.7-1.9q2.449-2.112,4.909-4.248a1.081,1.081,0,1,1,1.419,1.63q-2.465,2.138-4.92,4.255A1.078,1.078,0,0,1,529.555,1832.279Zm289.608-6.328a1.074,1.074,0,0,1-.845-.406q-2.018-2.531-4.073-5.062a1.08,1.08,0,1,1,1.676-1.363q2.06,2.543,4.084,5.08a1.079,1.079,0,0,1-.842,1.752Zm-279.79-2.194a1.071,1.071,0,0,1-.812-.367,1.083,1.083,0,0,1,.1-1.527q2.449-2.135,4.89-4.282a1.079,1.079,0,1,1,1.425,1.619q-2.443,2.151-4.894,4.292A1.084,1.084,0,0,1,539.373,1823.757Zm271.583-7.926a1.08,1.08,0,0,1-.834-.391q-2.067-2.511-4.153-5a1.079,1.079,0,1,1,1.654-1.387q2.093,2.5,4.164,5.015a1.077,1.077,0,0,1-.147,1.52A1.064,1.064,0,0,1,810.956,1815.831Zm-261.81-.665a1.081,1.081,0,0,1-.715-1.889q2.443-2.158,4.87-4.318a1.079,1.079,0,0,1,1.436,1.611q-2.43,2.164-4.874,4.326A1.085,1.085,0,0,1,549.146,1815.166Zm9.729-8.651a1.081,1.081,0,0,1-.721-1.886L563,1800.29a1.08,1.08,0,0,1,1.443,1.607l-4.846,4.343A1.074,1.074,0,0,1,558.875,1806.514Zm243.729-.665a1.068,1.068,0,0,1-.823-.38q-2.116-2.485-4.229-4.935a1.081,1.081,0,1,1,1.635-1.415q2.119,2.456,4.237,4.952a1.079,1.079,0,0,1-.821,1.778Zm-234.049-8.025a1.08,1.08,0,0,1-.723-1.881l4.823-4.363a1.079,1.079,0,1,1,1.451,1.6l-4.827,4.367A1.085,1.085,0,0,1,568.555,1797.824Zm225.544-1.832a1.088,1.088,0,0,1-.812-.367q-2.161-2.466-4.3-4.87a1.081,1.081,0,0,1,1.613-1.438q2.145,2.41,4.315,4.883a1.08,1.08,0,0,1-.812,1.793Zm-215.9-6.9a1.08,1.08,0,0,1-.728-1.879l4.805-4.382a1.081,1.081,0,0,1,1.458,1.6l-4.81,4.384A1.075,1.075,0,0,1,578.2,1789.087Zm207.241-2.81a1.084,1.084,0,0,1-.8-.354q-2.212-2.446-4.388-4.794a1.081,1.081,0,0,1,1.587-1.469q2.18,2.362,4.4,4.812a1.08,1.08,0,0,1-.8,1.806ZM587.8,1780.313a1.08,1.08,0,0,1-.73-1.875l4.792-4.4a1.08,1.08,0,0,1,1.462,1.59l-4.795,4.4A1.071,1.071,0,0,1,587.8,1780.313Zm188.795-3.594a1.079,1.079,0,0,1-.784-.337q-2.28-2.413-4.492-4.7a1.08,1.08,0,0,1,1.553-1.5q2.213,2.287,4.507,4.713a1.079,1.079,0,0,1-.784,1.822ZM597.378,1771.5a1.08,1.08,0,0,1-.732-1.872l4.775-4.419a1.079,1.079,0,0,1,1.466,1.584l-4.777,4.421A1.07,1.07,0,0,1,597.378,1771.5Zm170.159-4.136a1.085,1.085,0,0,1-.764-.315q-2.381-2.384-4.626-4.555a1.079,1.079,0,1,1,1.5-1.553q2.258,2.181,4.654,4.581a1.079,1.079,0,0,1-.762,1.842Zm-160.617-4.71a1.079,1.079,0,0,1-.734-1.87l4.758-4.436a1.08,1.08,0,1,1,1.475,1.578l-4.762,4.441A1.078,1.078,0,0,1,606.92,1762.657Zm151.235-4.324a1.085,1.085,0,0,1-.73-.28q-2.556-2.346-4.846-4.285a1.079,1.079,0,1,1,1.393-1.647c1.544,1.3,3.185,2.758,4.913,4.337a1.08,1.08,0,0,1-.73,1.876Zm-141.715-4.55a1.081,1.081,0,0,1-.724-1.884,49.216,49.216,0,0,1,5.227-4.1,1.079,1.079,0,0,1,1.216,1.784,47.288,47.288,0,0,0-5,3.922A1.074,1.074,0,0,1,616.44,1753.783Zm131.714-3.771a1.061,1.061,0,0,1-.615-.193,47.341,47.341,0,0,0-5.451-3.259,1.079,1.079,0,0,1,.981-1.922,49.49,49.49,0,0,1,5.7,3.406,1.08,1.08,0,0,1-.615,1.967Zm-121-3.523a1.079,1.079,0,0,1-.484-2.045,49.605,49.605,0,0,1,6.131-2.553,1.08,1.08,0,0,1,.7,2.045,47.74,47.74,0,0,0-5.864,2.438A1.067,1.067,0,0,1,627.158,1746.489Zm109.445-2.36a1.06,1.06,0,0,1-.354-.059,47.7,47.7,0,0,0-6.127-1.68,1.081,1.081,0,0,1,.432-2.119,49.711,49.711,0,0,1,6.4,1.758,1.08,1.08,0,0,1-.354,2.1Zm-97.172-1.8a1.08,1.08,0,0,1-.205-2.14,49.82,49.82,0,0,1,6.594-.821,1.065,1.065,0,0,1,1.138,1.017,1.08,1.08,0,0,1-1.017,1.138,46.828,46.828,0,0,0-6.3.788A1.306,1.306,0,0,1,639.432,1742.328Zm84.468-.777c-.026,0-.05,0-.073,0q-1.532-.1-3.08-.1H717.4a1.08,1.08,0,0,1,0-2.16h3.35q1.617,0,3.222.106a1.08,1.08,0,0,1-.069,2.157Zm-13-.1h-6.5a1.08,1.08,0,1,1,0-2.16h6.5a1.08,1.08,0,0,1,0,2.16Zm-13,0h-6.5a1.08,1.08,0,1,1,0-2.16h6.5a1.08,1.08,0,0,1,0,2.16Zm-13,0h-6.5a1.08,1.08,0,1,1,0-2.16h6.5a1.08,1.08,0,0,1,0,2.16Zm-13,0h-6.5a1.08,1.08,0,1,1,0-2.16h6.5a1.08,1.08,0,0,1,0,2.16Zm-13,0h-6.5a1.08,1.08,0,0,1,0-2.16h6.5a1.08,1.08,0,0,1,0,2.16Z" transform="translate(-361.53 -1739.287)" fill="#00223d"/>
      </g>
      <g id="Grupo_17623" data-name="Grupo 17623" transform="translate(500.011 131.824)">
        <path id="Trazado_28143" data-name="Trazado 28143" d="M591.3,1805.281a1.08,1.08,0,0,1-.942-.551q-.761-1.354-1.6-2.779a1.081,1.081,0,0,1,1.862-1.1c.566.964,1.11,1.9,1.624,2.819a1.078,1.078,0,0,1-.939,1.609Z" transform="translate(-588.608 -1800.325)" fill="#00223d"/>
      </g>
    </g>
  </g>
</svg>
