<svg xmlns="http://www.w3.org/2000/svg" xmlns:xlink="http://www.w3.org/1999/xlink" width="823" height="236.156" viewBox="0 0 823 236.156">
  <defs>
    <clipPath id="clip-path">
      <rect id="Rectángulo_361578" data-name="Rectángulo 361578" width="198" height="91" fill="#ffa686" stroke="#707070" stroke-width="1"/>
    </clipPath>
    <clipPath id="clip-path-2">
      <rect id="Rectángulo_361579" data-name="Rectángulo 361579" width="198" height="102" transform="translate(0 0.275)" fill="#f2f7df" stroke="#707070" stroke-width="1"/>
    </clipPath>
    <filter id="Elipse_5259" x="26" y="33" width="144" height="144" filterUnits="userSpaceOnUse">
      <feOffset dy="3" input="SourceAlpha"/>
      <feGaussianBlur stdDeviation="3" result="blur"/>
      <feFlood flood-opacity="0.161"/>
      <feComposite operator="in" in2="blur"/>
      <feComposite in="SourceGraphic"/>
    </filter>
    <clipPath id="clip-path-3">
      <rect id="Rectángulo_361581" data-name="Rectángulo 361581" width="199" height="91" transform="translate(-0.15)" fill="#ffa686" stroke="#707070" stroke-width="1"/>
    </clipPath>
    <clipPath id="clip-path-4">
      <rect id="Rectángulo_361580" data-name="Rectángulo 361580" width="199" height="102" transform="translate(-0.15 0.275)" fill="#f2f7df" stroke="#707070" stroke-width="1"/>
    </clipPath>
    <filter id="Elipse_5262" x="234" y="38" width="144" height="144" filterUnits="userSpaceOnUse">
      <feOffset dy="3" input="SourceAlpha"/>
      <feGaussianBlur stdDeviation="3" result="blur-2"/>
      <feFlood flood-opacity="0.161"/>
      <feComposite operator="in" in2="blur-2"/>
      <feComposite in="SourceGraphic"/>
    </filter>
    <clipPath id="clip-path-5">
      <rect id="Rectángulo_361583" data-name="Rectángulo 361583" width="199" height="91" transform="translate(-0.3)" fill="#ffa686" stroke="#707070" stroke-width="1"/>
    </clipPath>
    <clipPath id="clip-path-6">
      <rect id="Rectángulo_361582" data-name="Rectángulo 361582" width="199" height="102" transform="translate(-0.3 0.275)" fill="#f2f7df" stroke="#707070" stroke-width="1"/>
    </clipPath>
    <filter id="Elipse_5267" x="446" y="33" width="144" height="144" filterUnits="userSpaceOnUse">
      <feOffset dy="3" input="SourceAlpha"/>
      <feGaussianBlur stdDeviation="3" result="blur-3"/>
      <feFlood flood-opacity="0.161"/>
      <feComposite operator="in" in2="blur-3"/>
      <feComposite in="SourceGraphic"/>
    </filter>
    <clipPath id="clip-path-7">
      <rect id="Rectángulo_361583-2" data-name="Rectángulo 361583" width="199" height="91" transform="translate(-0.3)" fill="#afafaf" stroke="#707070" stroke-width="1"/>
    </clipPath>
    <filter id="Elipse_5267-2" x="650" y="33" width="144" height="144" filterUnits="userSpaceOnUse">
      <feOffset dy="3" input="SourceAlpha"/>
      <feGaussianBlur stdDeviation="3" result="blur-4"/>
      <feFlood flood-opacity="0.161"/>
      <feComposite operator="in" in2="blur-4"/>
      <feComposite in="SourceGraphic"/>
    </filter>
  </defs>
  <g id="Grupo_1085516" data-name="Grupo 1085516" transform="translate(-390 -9046)">
    <g id="Grupo_1084197" data-name="Grupo 1084197" transform="translate(-210 5820)">
      <g id="Enmascarar_grupo_1083809" data-name="Enmascarar grupo 1083809" transform="translate(600 3237)" clip-path="url(#clip-path)">
        <circle id="Elipse_5255" data-name="Elipse 5255" cx="91" cy="91" r="91" transform="translate(7)" fill="#ffa686"/>
        <circle id="Elipse_5256" data-name="Elipse 5256" cx="63" cy="63" r="63" transform="translate(35 28)" fill="#fff"/>
      </g>
      <g id="Enmascarar_grupo_1083810" data-name="Enmascarar grupo 1083810" transform="translate(600 3332.725)" clip-path="url(#clip-path-2)">
        <circle id="Elipse_5257" data-name="Elipse 5257" cx="91" cy="91" r="91" transform="translate(7 -95.725)" fill="#ffe4da"/>
        <circle id="Elipse_5258" data-name="Elipse 5258" cx="63" cy="63" r="63" transform="translate(35 -67.725)" fill="#fff"/>
      </g>
      <g transform="matrix(1, 0, 0, 1, 600, 3226)" filter="url(#Elipse_5259)">
        <circle id="Elipse_5259-2" data-name="Elipse 5259" cx="63" cy="63" r="63" transform="translate(35 39)" fill="#fff"/>
      </g>
    </g>
    <g id="Grupo_1084198" data-name="Grupo 1084198" transform="translate(-212 5822)">
      <g id="Enmascarar_grupo_1083812" data-name="Enmascarar grupo 1083812" transform="translate(1005.85 3422) rotate(180)" clip-path="url(#clip-path-3)">
        <circle id="Elipse_5263" data-name="Elipse 5263" cx="91" cy="91" r="91" transform="translate(6.85)" fill="#adce32"/>
        <circle id="Elipse_5264" data-name="Elipse 5264" cx="63" cy="63" r="63" transform="translate(34.85 28)" fill="#fff"/>
      </g>
      <g id="Enmascarar_grupo_1083811" data-name="Enmascarar grupo 1083811" transform="translate(1005.85 3326.275) rotate(180)" clip-path="url(#clip-path-4)">
        <path id="Trazado_716714" data-name="Trazado 716714" d="M91.056,0A91.056,91.056,0,1,1,0,91.056,91.056,91.056,0,0,1,91.056,0Z" transform="translate(7.004 -95.725)" fill="#e7fc98"/>
        <circle id="Elipse_5261" data-name="Elipse 5261" cx="63" cy="63" r="63" transform="translate(34.85 -67.725)" fill="#fff"/>
      </g>
      <g transform="matrix(1, 0, 0, 1, 602, 3224)" filter="url(#Elipse_5262)">
        <circle id="Elipse_5262-2" data-name="Elipse 5262" cx="63" cy="63" r="63" transform="translate(369 170) rotate(180)" fill="#fff"/>
      </g>
    </g>
    <g id="Grupo_1084199" data-name="Grupo 1084199" transform="translate(-210 5820)">
      <g id="Enmascarar_grupo_1083814" data-name="Enmascarar grupo 1083814" transform="translate(1020.299 3237)" clip-path="url(#clip-path-5)">
        <circle id="Elipse_5268" data-name="Elipse 5268" cx="91" cy="91" r="91" transform="translate(6.7)" fill="#ffd947"/>
        <circle id="Elipse_5269" data-name="Elipse 5269" cx="63" cy="63" r="63" transform="translate(34.7 28)" fill="#fff"/>
      </g>
      <g id="Enmascarar_grupo_1083813" data-name="Enmascarar grupo 1083813" transform="translate(1020.299 3332.725)" clip-path="url(#clip-path-6)">
        <circle id="Elipse_5265" data-name="Elipse 5265" cx="91" cy="91" r="91" transform="translate(6.7 -95.725)" fill="#fff1ba"/>
        <circle id="Elipse_5266" data-name="Elipse 5266" cx="63" cy="63" r="63" transform="translate(34.7 -67.725)" fill="#fff"/>
      </g>
      <g transform="matrix(1, 0, 0, 1, 600, 3226)" filter="url(#Elipse_5267)">
        <circle id="Elipse_5267-3" data-name="Elipse 5267" cx="63" cy="63" r="63" transform="translate(455 39)" fill="#fff"/>
      </g>
    </g>
    <g id="Grupo_1084204" data-name="Grupo 1084204" transform="translate(-6 5820)">
      <g id="Enmascarar_grupo_1083814-2" data-name="Enmascarar grupo 1083814" transform="translate(1020.299 3237)" clip-path="url(#clip-path-7)">
        <circle id="Elipse_5268-2" data-name="Elipse 5268" cx="91" cy="91" r="91" transform="translate(6.7)" fill="#afafaf"/>
        <circle id="Elipse_5269-2" data-name="Elipse 5269" cx="63" cy="63" r="63" transform="translate(34.7 28)" fill="#afafaf"/>
      </g>
      <g id="Enmascarar_grupo_1083813-2" data-name="Enmascarar grupo 1083813" transform="translate(1020.299 3332.725)" clip-path="url(#clip-path-6)">
        <circle id="Elipse_5265-2" data-name="Elipse 5265" cx="91" cy="91" r="91" transform="translate(6.7 -95.725)" fill="#e8e8e8"/>
        <circle id="Elipse_5266-2" data-name="Elipse 5266" cx="63" cy="63" r="63" transform="translate(34.7 -67.725)" fill="#fff"/>
      </g>
      <g transform="matrix(1, 0, 0, 1, 396, 3226)" filter="url(#Elipse_5267-2)">
        <circle id="Elipse_5267-4" data-name="Elipse 5267" cx="63" cy="63" r="63" transform="translate(659 39)" fill="#fff"/>
      </g>
    </g>
    <circle id="Elipse_5634" data-name="Elipse 5634" cx="7" cy="7" r="7" transform="translate(481 9248)" fill="#ffa686"/>
    <circle id="Elipse_5635" data-name="Elipse 5635" cx="7" cy="7" r="7" transform="translate(690 9248)" fill="#adce32"/>
    <circle id="Elipse_5636" data-name="Elipse 5636" cx="7" cy="7" r="7" transform="translate(902 9248)" fill="#ffd947"/>
    <circle id="Elipse_5637" data-name="Elipse 5637" cx="7" cy="7" r="7" transform="translate(1106 9248)" fill="#636363"/>
    <path id="Trazado_794963" data-name="Trazado 794963" d="M-29.367-4.008V0h-2.344V-11.375h4.438a5.134,5.134,0,0,1,2.254.469,3.454,3.454,0,0,1,1.5,1.332A3.714,3.714,0,0,1-23-7.609a3.266,3.266,0,0,1-1.145,2.637,4.767,4.767,0,0,1-3.168.965Zm0-1.9h2.094a2.059,2.059,0,0,0,1.418-.437,1.591,1.591,0,0,0,.488-1.25,1.876,1.876,0,0,0-.492-1.352,1.839,1.839,0,0,0-1.359-.531h-2.148Zm12.578-.43A6.134,6.134,0,0,0-17.6-6.4a1.654,1.654,0,0,0-1.68.867V0h-2.258V-8.453h2.133l.063,1.008a2.092,2.092,0,0,1,1.883-1.164,2.366,2.366,0,0,1,.7.1Zm.453,2.031a5.013,5.013,0,0,1,.484-2.242A3.546,3.546,0,0,1-14.457-8.07a4.069,4.069,0,0,1,2.113-.539A3.849,3.849,0,0,1-9.551-7.562,4.2,4.2,0,0,1-8.344-4.719l.016.578A4.418,4.418,0,0,1-9.414-1.02,3.775,3.775,0,0,1-12.328.156a3.793,3.793,0,0,1-2.918-1.172A4.5,4.5,0,0,1-16.336-4.2Zm2.258.16A3.16,3.16,0,0,0-13.625-2.3a1.5,1.5,0,0,0,1.3.638,1.5,1.5,0,0,0,1.281-.63,3.457,3.457,0,0,0,.461-2.015,3.128,3.128,0,0,0-.461-1.831,1.5,1.5,0,0,0-1.3-.649,1.474,1.474,0,0,0-1.281.646A3.516,3.516,0,0,0-14.078-4.144Zm6.789-.145A5.094,5.094,0,0,1-6.4-7.437,2.877,2.877,0,0,1-3.977-8.609a2.589,2.589,0,0,1,2.039.922V-12H.328V0H-1.711L-1.82-.9A2.657,2.657,0,0,1-3.992.156,2.869,2.869,0,0,1-6.387-1.02,5.258,5.258,0,0,1-7.289-4.289Zm2.258.168A3.337,3.337,0,0,0-4.617-2.3a1.349,1.349,0,0,0,1.2.634,1.511,1.511,0,0,0,1.477-.884V-5.889A1.489,1.489,0,0,0-3.4-6.773Q-5.031-6.773-5.031-4.121ZM7.141-.859A2.831,2.831,0,0,1,4.828.156,2.67,2.67,0,0,1,2.754-.625a3.335,3.335,0,0,1-.73-2.289V-8.453H4.281v5.467q0,1.322,1.2,1.322a1.63,1.63,0,0,0,1.578-.8V-8.453H9.328V0H7.2Zm7.406-.8a1.481,1.481,0,0,0,1.016-.344,1.2,1.2,0,0,0,.406-.914h2.117a2.9,2.9,0,0,1-.469,1.574A3.093,3.093,0,0,1,16.355-.238a3.949,3.949,0,0,1-1.77.395A3.67,3.67,0,0,1,11.727-1,4.56,4.56,0,0,1,10.68-4.18v-.148a4.508,4.508,0,0,1,1.039-3.117A3.627,3.627,0,0,1,14.57-8.609a3.555,3.555,0,0,1,2.543.9,3.2,3.2,0,0,1,.973,2.4H15.969a1.551,1.551,0,0,0-.406-1.072,1.354,1.354,0,0,0-1.031-.412,1.36,1.36,0,0,0-1.191.575,3.333,3.333,0,0,0-.4,1.866v.235a3.375,3.375,0,0,0,.4,1.878A1.377,1.377,0,0,0,14.547-1.664Zm7.531-8.867v2.078h1.445V-6.8H22.078v4.219a1.007,1.007,0,0,0,.18.672.9.9,0,0,0,.688.2,3.6,3.6,0,0,0,.664-.055V-.047a4.648,4.648,0,0,1-1.367.2,2.156,2.156,0,0,1-2.422-2.4V-6.8H18.586V-8.453H19.82v-2.078ZM24.2-4.3a5.013,5.013,0,0,1,.484-2.242A3.546,3.546,0,0,1,26.074-8.07a4.069,4.069,0,0,1,2.113-.539A3.849,3.849,0,0,1,30.98-7.562a4.2,4.2,0,0,1,1.207,2.844l.016.578A4.418,4.418,0,0,1,31.117-1.02,3.775,3.775,0,0,1,28.2.156a3.793,3.793,0,0,1-2.918-1.172A4.5,4.5,0,0,1,24.2-4.2Zm2.258.16A3.16,3.16,0,0,0,26.906-2.3a1.5,1.5,0,0,0,1.3.638,1.5,1.5,0,0,0,1.281-.63,3.457,3.457,0,0,0,.461-2.015,3.128,3.128,0,0,0-.461-1.831,1.5,1.5,0,0,0-1.3-.649,1.474,1.474,0,0,0-1.281.646A3.516,3.516,0,0,0,26.453-4.144Z" transform="translate(486 9282)" fill="#12263f"/>
    <path id="Trazado_794960" data-name="Trazado 794960" d="M-19.859-4.008V0H-22.2V-11.375h4.438a5.134,5.134,0,0,1,2.254.469,3.454,3.454,0,0,1,1.5,1.332,3.714,3.714,0,0,1,.523,1.965,3.266,3.266,0,0,1-1.145,2.637,4.767,4.767,0,0,1-3.168.965Zm0-1.9h2.094a2.059,2.059,0,0,0,1.418-.437,1.591,1.591,0,0,0,.488-1.25,1.876,1.876,0,0,0-.492-1.352,1.839,1.839,0,0,0-1.359-.531h-2.148Zm12.578-.43A6.134,6.134,0,0,0-8.094-6.4a1.654,1.654,0,0,0-1.68.867V0h-2.258V-8.453H-9.9l.063,1.008A2.092,2.092,0,0,1-7.953-8.609a2.366,2.366,0,0,1,.7.1ZM-2.3.156A4.15,4.15,0,0,1-5.332-.984,4.054,4.054,0,0,1-6.5-4.023v-.219A5.106,5.106,0,0,1-6.008-6.52,3.612,3.612,0,0,1-4.613-8.066a3.914,3.914,0,0,1,2.059-.543A3.508,3.508,0,0,1,.176-7.516a4.444,4.444,0,0,1,1,3.1v.922H-4.211a2.1,2.1,0,0,0,.66,1.328,2,2,0,0,0,1.395.5A2.437,2.437,0,0,0-.117-2.609L.992-1.367A3.389,3.389,0,0,1-.383-.246,4.511,4.511,0,0,1-2.3.156Zm-.258-6.945a1.411,1.411,0,0,0-1.09.455,2.357,2.357,0,0,0-.535,1.3h3.141v-.181a1.681,1.681,0,0,0-.406-1.165A1.456,1.456,0,0,0-2.562-6.789ZM5.969-1.664a1.481,1.481,0,0,0,1.016-.344,1.2,1.2,0,0,0,.406-.914H9.508a2.9,2.9,0,0,1-.469,1.574A3.093,3.093,0,0,1,7.777-.238a3.949,3.949,0,0,1-1.77.395A3.67,3.67,0,0,1,3.148-1,4.56,4.56,0,0,1,2.1-4.18v-.148A4.508,4.508,0,0,1,3.141-7.445,3.627,3.627,0,0,1,5.992-8.609a3.555,3.555,0,0,1,2.543.9,3.2,3.2,0,0,1,.973,2.4H7.391a1.551,1.551,0,0,0-.406-1.072,1.354,1.354,0,0,0-1.031-.412,1.36,1.36,0,0,0-1.191.575,3.333,3.333,0,0,0-.4,1.866v.235a3.375,3.375,0,0,0,.4,1.878A1.377,1.377,0,0,0,5.969-1.664ZM13.18,0H10.914V-8.453H13.18Zm-2.4-10.641a1.112,1.112,0,0,1,.34-.836,1.277,1.277,0,0,1,.926-.328,1.28,1.28,0,0,1,.922.328,1.105,1.105,0,0,1,.344.836,1.108,1.108,0,0,1-.348.844,1.283,1.283,0,0,1-.918.328,1.283,1.283,0,0,1-.918-.328A1.108,1.108,0,0,1,10.781-10.641ZM14.688-4.3a5.013,5.013,0,0,1,.484-2.242A3.546,3.546,0,0,1,16.566-8.07a4.069,4.069,0,0,1,2.113-.539,3.849,3.849,0,0,1,2.793,1.047A4.2,4.2,0,0,1,22.68-4.719l.016.578A4.418,4.418,0,0,1,21.609-1.02,3.775,3.775,0,0,1,18.7.156a3.793,3.793,0,0,1-2.918-1.172A4.5,4.5,0,0,1,14.688-4.2Zm2.258.16A3.16,3.16,0,0,0,17.4-2.3a1.5,1.5,0,0,0,1.3.638,1.5,1.5,0,0,0,1.281-.63,3.457,3.457,0,0,0,.461-2.015,3.128,3.128,0,0,0-.461-1.831,1.5,1.5,0,0,0-1.3-.649,1.474,1.474,0,0,0-1.281.646A3.516,3.516,0,0,0,16.945-4.144Z" transform="translate(697 9282)" fill="#12263f"/>
    <path id="Trazado_794961" data-name="Trazado 794961" d="M-16.57-4.008V0h-2.344V-11.375h4.438a5.134,5.134,0,0,1,2.254.469,3.454,3.454,0,0,1,1.5,1.332A3.714,3.714,0,0,1-10.2-7.609a3.266,3.266,0,0,1-1.145,2.637,4.767,4.767,0,0,1-3.168.965Zm0-1.9h2.094a2.059,2.059,0,0,0,1.418-.437,1.591,1.591,0,0,0,.488-1.25,1.876,1.876,0,0,0-.492-1.352,1.839,1.839,0,0,0-1.359-.531H-16.57ZM-6.359,0H-8.625V-12h2.266ZM.4,0A2.507,2.507,0,0,1,.172-.758,2.732,2.732,0,0,1-1.961.156,3,3,0,0,1-4.02-.562a2.312,2.312,0,0,1-.816-1.812,2.389,2.389,0,0,1,1-2.062A4.915,4.915,0,0,1-.961-5.164H.078v-.484a1.393,1.393,0,0,0-.3-.937,1.183,1.183,0,0,0-.949-.352,1.345,1.345,0,0,0-.895.273.929.929,0,0,0-.324.75H-4.648A2.268,2.268,0,0,1-4.2-7.273a3,3,0,0,1,1.281-.98,4.669,4.669,0,0,1,1.859-.355,3.689,3.689,0,0,1,2.48.785,2.747,2.747,0,0,1,.918,2.207v3.664A4.041,4.041,0,0,0,2.68-.133V0ZM-1.469-1.57a1.945,1.945,0,0,0,.922-.223,1.462,1.462,0,0,0,.625-.6V-3.844H-.766q-1.7,0-1.8,1.172l-.008.133a.9.9,0,0,0,.3.7A1.153,1.153,0,0,0-1.469-1.57Zm8.141-.25H10.8V0H3.789V-1.375L7.766-6.633H3.906v-1.82H10.68v1.33ZM17.117,0a2.507,2.507,0,0,1-.227-.758,2.732,2.732,0,0,1-2.133.914A3,3,0,0,1,12.7-.562a2.312,2.312,0,0,1-.816-1.812,2.389,2.389,0,0,1,1-2.062,4.915,4.915,0,0,1,2.879-.727H16.8v-.484a1.393,1.393,0,0,0-.3-.937,1.183,1.183,0,0,0-.949-.352,1.345,1.345,0,0,0-.895.273.929.929,0,0,0-.324.75H12.07a2.268,2.268,0,0,1,.453-1.359,3,3,0,0,1,1.281-.98,4.669,4.669,0,0,1,1.859-.355,3.689,3.689,0,0,1,2.48.785,2.747,2.747,0,0,1,.918,2.207v3.664A4.041,4.041,0,0,0,19.4-.133V0ZM15.25-1.57a1.945,1.945,0,0,0,.922-.223,1.462,1.462,0,0,0,.625-.6V-3.844h-.844q-1.7,0-1.8,1.172l-.008.133a.9.9,0,0,0,.3.7A1.153,1.153,0,0,0,15.25-1.57Z" transform="translate(908 9282)" fill="#12263f"/>
    <path id="Trazado_794962" data-name="Trazado 794962" d="M-35.848-4.008V0h-2.344V-11.375h4.438a5.134,5.134,0,0,1,2.254.469A3.454,3.454,0,0,1-30-9.574a3.714,3.714,0,0,1,.523,1.965,3.266,3.266,0,0,1-1.145,2.637,4.767,4.767,0,0,1-3.168.965Zm0-1.9h2.094a2.059,2.059,0,0,0,1.418-.437,1.591,1.591,0,0,0,.488-1.25,1.876,1.876,0,0,0-.492-1.352A1.839,1.839,0,0,0-33.7-9.477h-2.148Zm12.578-.43a6.134,6.134,0,0,0-.812-.062,1.654,1.654,0,0,0-1.68.867V0H-28.02V-8.453h2.133l.063,1.008a2.092,2.092,0,0,1,1.883-1.164,2.366,2.366,0,0,1,.7.1Zm.453,2.031a5.013,5.013,0,0,1,.484-2.242A3.546,3.546,0,0,1-20.937-8.07a4.069,4.069,0,0,1,2.113-.539,3.849,3.849,0,0,1,2.793,1.047,4.2,4.2,0,0,1,1.207,2.844l.016.578A4.418,4.418,0,0,1-15.895-1.02,3.775,3.775,0,0,1-18.809.156a3.793,3.793,0,0,1-2.918-1.172A4.5,4.5,0,0,1-22.816-4.2Zm2.258.16A3.16,3.16,0,0,0-20.105-2.3a1.5,1.5,0,0,0,1.3.638,1.5,1.5,0,0,0,1.281-.63,3.457,3.457,0,0,0,.461-2.015,3.128,3.128,0,0,0-.461-1.831,1.5,1.5,0,0,0-1.3-.649,1.474,1.474,0,0,0-1.281.646A3.516,3.516,0,0,0-20.559-4.144ZM-11.3-8.453l.07.945a2.971,2.971,0,0,1,2.43-1.1A2.255,2.255,0,0,1-6.559-7.32,2.9,2.9,0,0,1-4.02-8.609a2.521,2.521,0,0,1,2.047.8A3.681,3.681,0,0,1-1.3-5.4V0H-3.566V-5.391a1.61,1.61,0,0,0-.281-1.051,1.246,1.246,0,0,0-.992-.332A1.409,1.409,0,0,0-6.246-5.8L-6.238,0H-8.5V-5.383a1.59,1.59,0,0,0-.289-1.062,1.259,1.259,0,0,0-.984-.328,1.463,1.463,0,0,0-1.391.8V0h-2.258V-8.453ZM.082-4.3A5.013,5.013,0,0,1,.566-6.547,3.546,3.546,0,0,1,1.961-8.07a4.069,4.069,0,0,1,2.113-.539A3.849,3.849,0,0,1,6.867-7.562,4.2,4.2,0,0,1,8.074-4.719l.016.578A4.418,4.418,0,0,1,7-1.02,3.775,3.775,0,0,1,4.09.156,3.793,3.793,0,0,1,1.172-1.016,4.5,4.5,0,0,1,.082-4.2Zm2.258.16A3.16,3.16,0,0,0,2.793-2.3a1.5,1.5,0,0,0,1.3.638,1.5,1.5,0,0,0,1.281-.63,3.457,3.457,0,0,0,.461-2.015A3.128,3.128,0,0,0,5.371-6.14a1.5,1.5,0,0,0-1.3-.649,1.474,1.474,0,0,0-1.281.646A3.516,3.516,0,0,0,2.34-4.144ZM13-1.664a1.481,1.481,0,0,0,1.016-.344,1.2,1.2,0,0,0,.406-.914h2.117a2.9,2.9,0,0,1-.469,1.574A3.093,3.093,0,0,1,14.8-.238a3.949,3.949,0,0,1-1.77.395A3.67,3.67,0,0,1,10.176-1,4.56,4.56,0,0,1,9.129-4.18v-.148a4.508,4.508,0,0,1,1.039-3.117A3.627,3.627,0,0,1,13.02-8.609a3.555,3.555,0,0,1,2.543.9,3.2,3.2,0,0,1,.973,2.4H14.418a1.551,1.551,0,0,0-.406-1.072,1.354,1.354,0,0,0-1.031-.412,1.36,1.36,0,0,0-1.191.575,3.333,3.333,0,0,0-.4,1.866v.235a3.375,3.375,0,0,0,.4,1.878A1.377,1.377,0,0,0,13-1.664ZM20.207,0H17.941V-8.453h2.266Zm-2.4-10.641a1.112,1.112,0,0,1,.34-.836,1.277,1.277,0,0,1,.926-.328,1.28,1.28,0,0,1,.922.328,1.105,1.105,0,0,1,.344.836,1.108,1.108,0,0,1-.348.844,1.283,1.283,0,0,1-.918.328,1.283,1.283,0,0,1-.918-.328A1.108,1.108,0,0,1,17.809-10.641ZM21.715-4.3A5.013,5.013,0,0,1,22.2-6.547,3.546,3.546,0,0,1,23.594-8.07a4.069,4.069,0,0,1,2.113-.539A3.849,3.849,0,0,1,28.5-7.562a4.2,4.2,0,0,1,1.207,2.844l.016.578A4.418,4.418,0,0,1,28.637-1.02,3.775,3.775,0,0,1,25.723.156,3.793,3.793,0,0,1,22.8-1.016,4.5,4.5,0,0,1,21.715-4.2Zm2.258.16A3.16,3.16,0,0,0,24.426-2.3a1.5,1.5,0,0,0,1.3.638A1.5,1.5,0,0,0,27-2.294a3.457,3.457,0,0,0,.461-2.015A3.128,3.128,0,0,0,27-6.14a1.5,1.5,0,0,0-1.3-.649,1.474,1.474,0,0,0-1.281.646A3.516,3.516,0,0,0,23.973-4.144ZM26.152-12h2.461L26.449-9.578H24.613Zm7.039,3.547.07.977a2.951,2.951,0,0,1,2.43-1.133,2.453,2.453,0,0,1,2,.789,3.682,3.682,0,0,1,.672,2.359V0H36.105V-5.406a1.465,1.465,0,0,0-.312-1.043,1.4,1.4,0,0,0-1.039-.324,1.553,1.553,0,0,0-1.43.813V0H31.066V-8.453Z" transform="translate(1112 9282)" fill="#12263f"/>
    <g id="Grupo_1084912" data-name="Grupo 1084912" transform="translate(456.516 9111.329)">
      <path id="Trazado_27997" data-name="Trazado 27997" d="M1551.348,206.052a315.646,315.646,0,0,0-42,0,8.565,8.565,0,0,0-7.975,7.74,169.059,169.059,0,0,0,0,31.339,8.565,8.565,0,0,0,7.975,7.739,315.636,315.636,0,0,0,42,0,8.565,8.565,0,0,0,7.974-7.739,168.954,168.954,0,0,0,0-31.339A8.565,8.565,0,0,0,1551.348,206.052Z" transform="translate(-1499.107 -184.913)" fill="#dd636e"/>
      <path id="Trazado_27998" data-name="Trazado 27998" d="M1511.14,246.468a10.619,10.619,0,0,0,2.743,6.977q-2.265-.118-4.532-.269a8.566,8.566,0,0,1-7.975-7.739,169.072,169.072,0,0,1,0-31.34,8.567,8.567,0,0,1,7.975-7.739q2.265-.15,4.532-.269a10.62,10.62,0,0,0-2.743,6.977A289.47,289.47,0,0,0,1511.14,246.468Z" transform="translate(-1499.107 -185.218)" fill="#da4a54"/>
      <ellipse id="Elipse_1076" data-name="Elipse 1076" cx="20.014" cy="15.812" rx="20.014" ry="15.812" transform="translate(11.228 29.391)" fill="#f9efda"/>
      <path id="Trazado_27999" data-name="Trazado 27999" d="M1547.966,185.5h0a3.757,3.757,0,0,0,1.634-2.507,22.046,22.046,0,0,0,0-7.448,3.747,3.747,0,0,0-3.564-3.126q-16.051-.536-32.1,0a3.747,3.747,0,0,0-3.564,3.126,22.052,22.052,0,0,0,0,7.448A3.757,3.757,0,0,0,1512,185.5h0c-6.1,3.865-14.4,6.086-11.716,11.276s9.787-3.053,14-2.383-1.654,11.1,3.353,11.1,7.768-8.715,12.344-8.715,7.337,8.715,12.344,8.715-.863-10.428,3.353-11.1,11.32,7.573,14,2.383S1554.065,189.365,1547.966,185.5Z" transform="translate(-1498.738 -171.131)" fill="#ffe07d"/>
      <path id="Trazado_28000" data-name="Trazado 28000" d="M1519.983,183.052a9.476,9.476,0,0,0,.833,3.452l0-.945c-2.605,3.237-5.995,5.322-6.221,8.965a1.992,1.992,0,0,0-.309-.072c-4.217-.67-11.32,7.573-14,2.383s5.615-7.412,11.715-11.276h0a3.756,3.756,0,0,1-1.633-2.507,22.049,22.049,0,0,1,0-7.447,3.744,3.744,0,0,1,3.564-3.126q3.542-.118,7.082-.184a7.4,7.4,0,0,0-1.029,3.309,43.152,43.152,0,0,0,0,7.447Z" transform="translate(-1498.738 -171.191)" fill="#ffd064"/>
      <path id="Trazado_28001" data-name="Trazado 28001" d="M1546.117,233.786c5.389,0,8.49-3.435,7.257-4.668s-2.579,1.163-3.628,1.163.448-2.11-.651-2.531-1.986,2.386-3.087,2.386-1.988-2.808-3.087-2.386.4,2.531-.65,2.531-2.4-2.4-3.628-1.163,1.868,4.668,7.257,4.668" transform="translate(-1514.766 -194.192)" fill="#b3e59f"/>
      <path id="Trazado_28002" data-name="Trazado 28002" d="M1545.959,234.537h-.059c-5.389,0-8.49-3.436-7.258-4.668s2.58,1.163,3.628,1.163a.441.441,0,0,0,.241-.058C1542.733,232.477,1544.028,234.537,1545.959,234.537Z" transform="translate(-1514.767 -194.943)" fill="#95d6a4"/>
      <path id="Trazado_28003" data-name="Trazado 28003" d="M1544.94,237.627c-5.049,0-9.142.081-9.142,5.13a13.673,13.673,0,0,0,.532,3.553,17.791,17.791,0,0,0,3.733,7.033q.354.389.731.731a6.257,6.257,0,0,0,4.146,1.837c2.214,0,4.243-1.559,5.826-3.734a17.574,17.574,0,0,0,3.316-9.419c0-5.049-4.093-5.13-9.141-5.13Z" transform="translate(-1513.697 -198.31)" fill="#dd636e"/>
      <path id="Trazado_28004" data-name="Trazado 28004" d="M1544.939,255.91c-5.049,0-9.141-8.1-9.141-13.153s4.092-5.13,9.141-5.13c-2.364,0-4.281.081-4.281,5.13S1542.575,255.91,1544.939,255.91Z" transform="translate(-1513.697 -198.31)" fill="#da4a54"/>
      <g id="Grupo_17560" data-name="Grupo 17560" transform="translate(0 0)">
        <path id="Trazado_28005" data-name="Trazado 28005" d="M1534.053,237.909a14.744,14.744,0,0,0,.568,3.824,18.7,18.7,0,0,0,3.962,7.45c.257.282.526.55.8.8a7.178,7.178,0,0,0,4.832,2.1c2.341,0,4.7-1.475,6.651-4.155a18.658,18.658,0,0,0,3.511-10.019c0-2.72-1.118-4.539-3.324-5.408-.154-.06-.314-.115-.475-.166a5.094,5.094,0,0,0,2.186-2.583,2.037,2.037,0,0,0-.463-2.087c-1.335-1.335-2.791-.312-3.566.288a1.723,1.723,0,0,0-1.069-1.888c-1.3-.5-2.211.7-2.814,1.494a6.946,6.946,0,0,1-.637.762,7.016,7.016,0,0,1-.638-.762c-.6-.793-1.517-1.992-2.814-1.494a1.722,1.722,0,0,0-1.07,1.888c-.775-.6-2.23-1.622-3.566-.287a2.037,2.037,0,0,0-.462,2.087,5.1,5.1,0,0,0,2.186,2.582c-.162.051-.321.105-.475.166-2.206.869-3.324,2.688-3.324,5.407Zm18.283,0a16.713,16.713,0,0,1-3.121,8.819c-1.553,2.137-3.329,3.313-5,3.313a5.224,5.224,0,0,1-3.46-1.571c-.225-.205-.449-.428-.664-.664a16.846,16.846,0,0,1-3.5-6.615,12.7,12.7,0,0,1-.5-3.282c0-3.738,2.35-4.109,8.121-4.109,2.246,0,4.564,0,6.09.6,1,.395,2.031,1.121,2.031,3.508Zm-14.735-8.827a.336.336,0,0,1,.032-.025,3.541,3.541,0,0,1,.917.593,3.247,3.247,0,0,0,1.928.922,1.378,1.378,0,0,0,1.09-.482,1.723,1.723,0,0,0,.291-1.418l.095.125c.581.764,1.24,1.63,2.262,1.63s1.68-.866,2.262-1.63l.095-.125a1.724,1.724,0,0,0,.291,1.417,1.377,1.377,0,0,0,1.09.482,3.247,3.247,0,0,0,1.928-.922,3.53,3.53,0,0,1,.918-.592.33.33,0,0,1,.031.025c-.02.425-1.229,2.052-4.18,2.7-.768-.026-1.551-.027-2.328-.027h-.107c-.811,0-1.631,0-2.434.028-2.952-.652-4.162-2.28-4.181-2.7Z" transform="translate(-1512.973 -193.462)" fill="#00223d"/>
        <path id="Trazado_28006" data-name="Trazado 28006" d="M1542.29,244.653a1.02,1.02,0,0,0-1.021,1.021V247a1.021,1.021,0,1,0,2.041,0v-1.326A1.02,1.02,0,0,0,1542.29,244.653Z" transform="translate(-1515.969 -201.226)" fill="#00223d"/>
        <path id="Trazado_28007" data-name="Trazado 28007" d="M1550.7,244.653a1.02,1.02,0,0,0-1.021,1.021V247a1.021,1.021,0,1,0,2.041,0v-1.326a1.02,1.02,0,0,0-1.021-1.021Z" transform="translate(-1519.461 -201.226)" fill="#00223d"/>
        <path id="Trazado_28008" data-name="Trazado 28008" d="M1559.116,244.653a1.02,1.02,0,0,0-1.021,1.021V247a1.021,1.021,0,1,0,2.041,0v-1.326A1.021,1.021,0,0,0,1559.116,244.653Z" transform="translate(-1522.953 -201.226)" fill="#00223d"/>
        <path id="Trazado_28009" data-name="Trazado 28009" d="M1546.5,254.356a1.02,1.02,0,0,0-1.021,1.021V256.7a1.021,1.021,0,1,0,2.041,0v-1.325A1.02,1.02,0,0,0,1546.5,254.356Z" transform="translate(-1517.714 -205.254)" fill="#00223d"/>
        <path id="Trazado_28010" data-name="Trazado 28010" d="M1554.909,254.356a1.02,1.02,0,0,0-1.021,1.021V256.7a1.021,1.021,0,0,0,2.041,0v-1.325A1.02,1.02,0,0,0,1554.909,254.356Z" transform="translate(-1521.206 -205.254)" fill="#00223d"/>
        <path id="Trazado_28011" data-name="Trazado 28011" d="M1558.994,197.733a4.8,4.8,0,0,0,.869-1.213c1.136-2.2.746-4.239-1.157-6.072a28.632,28.632,0,0,0-6.347-3.986c-1.145-.6-2.319-1.211-3.442-1.865a4.784,4.784,0,0,0,.96-2.158,23.188,23.188,0,0,0,0-7.789,4.785,4.785,0,0,0-4.536-3.975c-1.661-.056-3.3-.1-4.885-.137h-.023a1.021,1.021,0,0,0-.023,2.041c1.573.036,3.209.082,4.863.137a2.739,2.739,0,0,1,2.592,2.277,21.182,21.182,0,0,1,0,7.1,2.75,2.75,0,0,1-1.024,1.7,126.71,126.71,0,0,1-14.3,1.186c1.512-1.072,3.16-2.6,3.277-4.235a2.853,2.853,0,0,0-1.394-2.6,3.111,3.111,0,0,0-3.654-.133,1.54,1.54,0,1,1-3.041,0,3.11,3.11,0,0,0-3.654.133,2.852,2.852,0,0,0-1.395,2.6c.117,1.634,1.765,3.163,3.277,4.234a126.48,126.48,0,0,1-14.291-1.185,2.752,2.752,0,0,1-1.024-1.7,21.156,21.156,0,0,1,0-7.1,2.738,2.738,0,0,1,2.592-2.277c7.674-.257,15.447-.329,23.1-.215h.015a1.021,1.021,0,0,0,.015-2.041c-7.689-.115-15.5-.042-23.2.216a4.786,4.786,0,0,0-4.537,3.975,23.181,23.181,0,0,0,0,7.789,4.791,4.791,0,0,0,.96,2.157c-1.123.653-2.3,1.267-3.443,1.866a28.616,28.616,0,0,0-6.346,3.986c-1.9,1.832-2.293,3.876-1.157,6.072a4.819,4.819,0,0,0,.869,1.213,9.569,9.569,0,0,0-.251,1.459,170.651,170.651,0,0,0,0,31.528,9.544,9.544,0,0,0,8.922,8.663c6.991.466,14.028.7,21.067.7s14.077-.233,21.066-.7a9.545,9.545,0,0,0,8.923-8.663,170.873,170.873,0,0,0,0-31.527,9.471,9.471,0,0,0-.251-1.46Zm-27.1-18.009a1.025,1.025,0,0,1,.577-.191,1.352,1.352,0,0,1,.776.289c.561.4.541.678.534.784-.065.924-1.7,2.282-3.268,3.269C1530.447,182.157,1530.874,180.4,1531.9,179.724Zm-7.178.882c-.008-.106-.028-.388.534-.784a1.352,1.352,0,0,1,.776-.289,1.025,1.025,0,0,1,.577.191c1.024.677,1.451,2.434,1.382,4.152C1526.424,182.891,1524.786,181.533,1524.72,180.606Zm-17.624,7.666c1.463-.764,2.973-1.555,4.4-2.435a128.7,128.7,0,0,0,16.615,1.228,4.442,4.442,0,0,1-2.931,2.05,1.021,1.021,0,1,0,.47,1.986,4.1,4.1,0,0,1,7.21,0,1.021,1.021,0,0,0,.47-1.986,4.439,4.439,0,0,1-2.931-2.05,128.655,128.655,0,0,0,16.618-1.229c1.425.88,2.934,1.671,4.4,2.436,5.7,2.979,8.054,4.57,6.636,7.311a1.988,1.988,0,0,1-1.133,1.093c-1.3.4-3.439-.75-5.508-1.865-2.257-1.215-4.591-2.472-6.616-2.151a2.854,2.854,0,0,0-2.435,2.764,16.254,16.254,0,0,0,.164,3.856c.189,1.6.424,3.589-.134,4.217-.054.061-.221.249-.789.249-2.093,0-3.922-2.111-5.689-4.152-1.943-2.243-3.952-4.563-6.656-4.563s-4.712,2.32-6.655,4.563c-1.767,2.041-3.595,4.152-5.688,4.152-.567,0-.734-.188-.789-.249-.558-.628-.323-2.619-.134-4.218a16.248,16.248,0,0,0,.164-3.856,2.853,2.853,0,0,0-2.434-2.763c-2.026-.321-4.36.935-6.617,2.151-2.068,1.114-4.208,2.266-5.507,1.865a1.99,1.99,0,0,1-1.134-1.093c-1.417-2.74.934-4.332,6.636-7.311Zm25.519,10.721a26.356,26.356,0,0,0-6.723,0c1.1-1.115,2.2-1.92,3.361-1.92S1531.514,197.878,1532.616,198.993Zm24.6,31.538a7.513,7.513,0,0,1-7.027,6.815,316.177,316.177,0,0,1-41.862,0,7.512,7.512,0,0,1-7.025-6.815,168.537,168.537,0,0,1,0-31.151c.02-.219.053-.438.092-.655,2.03.386,4.391-.885,6.678-2.117,1.958-1.055,3.985-2.145,5.328-1.932.255.04.6.1.732,1.026a15.036,15.036,0,0,1-.169,3.337c-.209,1.772-.424,3.592.1,4.922a15.1,15.1,0,0,0-5.839,11.648c0,4.585,2.255,8.868,6.35,12.06a1.021,1.021,0,1,0,1.255-1.61c-3.587-2.8-5.563-6.507-5.563-10.449a13.132,13.132,0,0,1,5.168-10.132,3.378,3.378,0,0,0,1.481.311c2.8,0,4.834-2.109,6.759-4.314a24.127,24.127,0,0,1,11.168,0c1.926,2.2,3.964,4.314,6.76,4.314a3.383,3.383,0,0,0,1.48-.31,13.133,13.133,0,0,1,5.168,10.132c0,8.156-8.52,14.792-18.993,14.792a23,23,0,0,1-10.143-2.291,1.021,1.021,0,0,0-.9,1.83,25.052,25.052,0,0,0,11.048,2.5,23.857,23.857,0,0,0,14.785-4.851c4.03-3.184,6.25-7.439,6.25-11.982a15.1,15.1,0,0,0-5.838-11.647c.523-1.329.308-3.15.1-4.922a15.038,15.038,0,0,1-.17-3.337c.128-.93.478-.986.733-1.027,1.344-.213,3.37.877,5.328,1.932,2.287,1.232,4.648,2.5,6.678,2.117.04.217.073.436.093.656a168.887,168.887,0,0,1,0,31.15Z" transform="translate(-1498.013 -170.407)" fill="#00223d"/>
      </g>
    </g>
    <g id="Grupo_1084913" data-name="Grupo 1084913" transform="translate(661 9122.039)">
      <path id="Trazado_27994" data-name="Trazado 27994" d="M715.794,186.567v-5.15H645.867v38.216h69.927V191.717" transform="translate(-644.417 -180.062)" fill="#8de0a8"/>
      <g id="Grupo_17558" data-name="Grupo 17558" transform="translate(1.449 6.776)">
        <rect id="Rectángulo_4375" data-name="Rectángulo 4375" width="69.927" height="20.994" transform="translate(0 32.796)" fill="#81cc96"/>
        <path id="Trazado_27995" data-name="Trazado 27995" d="M675.762,190.307h-14.5a6.506,6.506,0,0,1-6.505,6.505v14.364a6.506,6.506,0,0,1,6.505,6.505h46.075a6.506,6.506,0,0,1,6.506-6.505V196.812a6.506,6.506,0,0,1-6.506-6.505h-14.5" transform="translate(-649.336 -190.307)" fill="#81cc96"/>
      </g>
      <rect id="Rectángulo_4376" data-name="Rectángulo 4376" width="17.076" height="59.21" transform="translate(27.875 1.356)" fill="#fcd577"/>
      <rect id="Rectángulo_4377" data-name="Rectángulo 4377" width="17.076" height="20.994" transform="translate(27.875 39.572)" fill="#eac36e"/>
      <path id="Trazado_27996" data-name="Trazado 27996" d="M714.772,187.055a1.355,1.355,0,0,0,1.356-1.355v-5.15a1.355,1.355,0,0,0-1.356-1.355H644.846a1.355,1.355,0,0,0-1.356,1.355v59.21a1.355,1.355,0,0,0,1.356,1.356h69.927a1.355,1.355,0,0,0,1.355-1.356V190.85a1.355,1.355,0,1,0-2.711,0v26.562H689.7V214.7h13.145a1.355,1.355,0,0,0,1.356-1.355,5.156,5.156,0,0,1,5.15-5.15,1.355,1.355,0,0,0,1.356-1.355V192.476a1.355,1.355,0,0,0-1.356-1.356,5.155,5.155,0,0,1-5.15-5.15,1.355,1.355,0,0,0-1.356-1.356H689.7v-2.71h23.716V185.7A1.355,1.355,0,0,0,714.772,187.055Zm-68.572-5.15h23.716v2.71H656.772a1.355,1.355,0,0,0-1.356,1.355,5.156,5.156,0,0,1-5.15,5.15,1.355,1.355,0,0,0-1.356,1.355V206.84a1.355,1.355,0,0,0,1.356,1.355,5.156,5.156,0,0,1,5.15,5.15,1.356,1.356,0,0,0,1.356,1.356h13.144v2.711H646.2Zm0,48.713h5.24a1.355,1.355,0,1,0,0-2.711H646.2V225.37h23.716v2.537H655.958a1.355,1.355,0,1,0,0,2.711h13.958v2.539H646.2Zm23.716-7.958H646.2v-2.539h23.716v2.539ZM646.2,235.868h23.716v2.537H646.2Zm26.426,2.537V220.122h14.365v18.283Zm40.791-10.5H689.7v-2.537h23.716v2.537Zm-23.716,10.5v-7.787h23.716v2.539h-20.6a1.355,1.355,0,0,0,0,2.711h20.6v2.537Zm23.716-18.283v2.539H689.7v-2.539Zm-11.81-32.8A7.884,7.884,0,0,0,708,193.715V205.6a7.883,7.883,0,0,0-6.389,6.388H689.7V187.326Zm-14.617,30.086H672.627v-9.957a1.355,1.355,0,1,0-2.71,0v4.535H658.01a7.883,7.883,0,0,0-6.389-6.388V193.715a7.884,7.884,0,0,0,6.389-6.389h11.906v15.611a1.355,1.355,0,1,0,2.71,0V181.905h14.365v35.506Z" transform="translate(-643.49 -179.195)" fill="#00223d"/>
    </g>
    <g id="Grupo_1084914" data-name="Grupo 1084914" transform="translate(873.766 9107.898)">
      <g id="Grupo_17555" data-name="Grupo 17555" transform="translate(1.047 1.047)">
        <g id="Grupo_17554" data-name="Grupo 17554">
          <path id="Trazado_27962" data-name="Trazado 27962" d="M1814.709,53.426h4.112v9.531h-4.112Z" transform="translate(-1796.552 -41.279)" fill="#eef5f6"/>
          <path id="Trazado_27963" data-name="Trazado 27963" d="M1818.54,53.426h2.58v9.531h-2.58Z" transform="translate(-1797.802 -41.279)" fill="#deecf1"/>
          <path id="Trazado_27964" data-name="Trazado 27964" d="M1856.127,53.426h4.112v9.531h-4.112Z" transform="translate(-1810.071 -41.279)" fill="#eef5f6"/>
          <path id="Trazado_27965" data-name="Trazado 27965" d="M1805.085,79.716h43.654v35.318h-43.654Z" transform="translate(-1793.41 -49.86)" fill="#aee4a4"/>
          <path id="Trazado_27966" data-name="Trazado 27966" d="M1867.1,79.716h4.249v35.318H1867.1Z" transform="translate(-1813.654 -49.86)" fill="#8dd5a7"/>
          <path id="Trazado_27967" data-name="Trazado 27967" d="M1853.791,114.321h-5.882l-.682-1.4-1.413,1.4h-8.534a.7.7,0,0,1-.7-.7v-6.876l1.4-1.353-1.4-.74V97.778a.7.7,0,0,1,.7-.7h8.534l1.047,1.4,1.047-1.4h5.882a.7.7,0,0,1,.7.7v15.846a.7.7,0,0,1-.7.7Z" transform="translate(-1803.691 -55.528)" fill="#a4ccff"/>
          <path id="Trazado_27968" data-name="Trazado 27968" d="M1864.039,97.08h-4.188a.7.7,0,0,1,.7.7v15.846a.7.7,0,0,1-.7.7h4.188a.7.7,0,0,0,.7-.7v-6.876l-1.4-1.409,1.4-.684V97.778A.7.7,0,0,0,1864.039,97.08Z" transform="translate(-1811.286 -55.528)" fill="#8bb3ea"/>
          <path id="Trazado_27969" data-name="Trazado 27969" d="M1822.942,120.677l-11.548-1.4v-21.5a.7.7,0,0,1,.7-.7h10.152a.7.7,0,0,1,.7.7Z" transform="translate(-1795.47 -55.528)" fill="#b57f5f"/>
          <path id="Trazado_27970" data-name="Trazado 27970" d="M1828.068,97.08h-3.109a.7.7,0,0,1,.7.7v22.9l3.109-1.4v-21.5A.7.7,0,0,0,1828.068,97.08Z" transform="translate(-1799.897 -55.528)" fill="#9f6e50"/>
          <path id="Trazado_27971" data-name="Trazado 27971" d="M1859.958,53.426h2.58v9.531h-2.58Z" transform="translate(-1811.321 -41.279)" fill="#deecf1"/>
          <path id="Trazado_27972" data-name="Trazado 27972" d="M1850.846,130.055h-59.6a3.49,3.49,0,0,0-3.49,3.49v1.423a.7.7,0,0,0,.7.7h65.187a.7.7,0,0,0,.7-.7v-1.423A3.49,3.49,0,0,0,1850.846,130.055Z" transform="translate(-1787.753 -66.291)" fill="#7f8c93"/>
          <path id="Trazado_27973" data-name="Trazado 27973" d="M1883.5,130.055h-4.258a3.49,3.49,0,0,1,3.49,3.49v1.423a.7.7,0,0,1-.7.7h4.257a.7.7,0,0,0,.7-.7v-1.423A3.49,3.49,0,0,0,1883.5,130.055Z" transform="translate(-1817.616 -66.291)" fill="#455b6b"/>
          <path id="Trazado_27974" data-name="Trazado 27974" d="M1866.716,84.372a4.65,4.65,0,0,1-5.16-5.021l-1.4-5.584h10.321v5.584c0,2.85-.915,5.021-3.765,5.021Z" transform="translate(-1811.387 -47.918)" fill="#ffa686"/>
          <path id="Trazado_27975" data-name="Trazado 27975" d="M1871.586,73.767v5.584a5.162,5.162,0,0,1-3.765,4.968,5.159,5.159,0,0,0,6.556-4.968V75.163Z" transform="translate(-1813.888 -47.918)" fill="#eb8662"/>
          <path id="Trazado_27976" data-name="Trazado 27976" d="M1846.293,50.125h-37.6a1.4,1.4,0,0,1-1.4-1.4V36.789a1.4,1.4,0,0,1,1.4-1.4h37.6a1.4,1.4,0,0,1,1.4,1.4v11.94A1.4,1.4,0,0,1,1846.293,50.125Z" transform="translate(-1794.133 -35.393)" fill="#ffa686"/>
          <path id="Trazado_27977" data-name="Trazado 27977" d="M1867.352,35.393h-3.662a1.4,1.4,0,0,1,1.4,1.4v11.94a1.4,1.4,0,0,1-1.4,1.4h3.662a1.4,1.4,0,0,0,1.4-1.4V36.789A1.4,1.4,0,0,0,1867.352,35.393Z" transform="translate(-1812.539 -35.393)" fill="#eb8662"/>
          <path id="Trazado_27978" data-name="Trazado 27978" d="M1821.02,116.213h-4.411a.6.6,0,0,1-.6-.6v-2.878a.6.6,0,0,1,.6-.6h4.411a.6.6,0,0,1,.6.6v2.878A.6.6,0,0,1,1821.02,116.213Z" transform="translate(-1796.976 -60.443)" fill="#eef5f6"/>
          <path id="Trazado_27979" data-name="Trazado 27979" d="M1824.294,112.137h-1.675a.6.6,0,0,1,.6.6v2.877a.6.6,0,0,1-.6.6h1.675a.6.6,0,0,0,.6-.6v-2.877A.6.6,0,0,0,1824.294,112.137Z" transform="translate(-1799.133 -60.443)" fill="#deecf1"/>
          <path id="Trazado_27980" data-name="Trazado 27980" d="M1851.394,84.511a5.16,5.16,0,0,1-5.16-5.16l-1.4-5.584,11.717,1.4v4.188A5.161,5.161,0,0,1,1851.394,84.511Z" transform="translate(-1806.386 -47.918)" fill="#eef5f6"/>
          <path id="Trazado_27981" data-name="Trazado 27981" d="M1836.072,84.511a5.16,5.16,0,0,1-5.16-5.16l-1.4-5.584,11.717,1.4v4.188A5.16,5.16,0,0,1,1836.072,84.511Z" transform="translate(-1801.384 -47.918)" fill="#ffa686"/>
          <path id="Trazado_27982" data-name="Trazado 27982" d="M1820.749,84.511a5.161,5.161,0,0,1-5.161-5.16l-1.4-5.584,11.717,1.4v4.188A5.16,5.16,0,0,1,1820.749,84.511Z" transform="translate(-1796.383 -47.918)" fill="#eef5f6"/>
          <path id="Trazado_27983" data-name="Trazado 27983" d="M1806.1,84.511a5.161,5.161,0,0,1-5.16-5.16V75.163l10.321-1.4v5.584A5.161,5.161,0,0,1,1806.1,84.511Z" transform="translate(-1792.058 -47.918)" fill="#ffa686"/>
          <path id="Trazado_27984" data-name="Trazado 27984" d="M1849.059,65h-46.021a2.094,2.094,0,0,0-2.094,2.094V72.3h50.209V67.093A2.093,2.093,0,0,0,1849.059,65Z" transform="translate(-1792.058 -45.057)" fill="#b57f5f"/>
          <path id="Trazado_27985" data-name="Trazado 27985" d="M1873.093,65H1870.3a2.094,2.094,0,0,1,2.094,2.094V72.3h2.791V67.093A2.093,2.093,0,0,0,1873.093,65Z" transform="translate(-1814.697 -45.057)" fill="#9f6e50"/>
        </g>
      </g>
      <g id="Grupo_17556" data-name="Grupo 17556" transform="translate(0 0)">
        <path id="Trazado_27986" data-name="Trazado 27986" d="M1853.131,117.738h-7.138v-5.083a1.047,1.047,0,0,0-2.094,0v5.083h-26.737V97.271a1.747,1.747,0,0,0-1.745-1.745h-11.549a1.746,1.746,0,0,0-1.745,1.745v20.467h-2.156V99.927a1.047,1.047,0,1,0-2.094,0v17.811h-7.138a4.542,4.542,0,0,0-4.537,4.537V123.7a1.747,1.747,0,0,0,1.745,1.745h67.979a1.747,1.747,0,0,0,1.745-1.745v-1.423A4.542,4.542,0,0,0,1853.131,117.738ZM1804.217,97.62h10.85v20.107h-10.85Zm48.914,22.212a2.446,2.446,0,0,1,2.442,2.442v1.074h-67.281v-1.074a2.446,2.446,0,0,1,2.443-2.442Z" transform="translate(-1786.199 -53.973)" fill="#00223d"/>
        <path id="Trazado_27987" data-name="Trazado 27987" d="M1826.539,49.07a1.047,1.047,0,0,0,1.047-1.047V44.777h3.65v3.246a1.047,1.047,0,0,0,2.094,0v-8.3a1.047,1.047,0,0,0-2.094,0v2.961h-3.65V39.723a1.047,1.047,0,0,0-2.094,0v8.3A1.047,1.047,0,0,0,1826.539,49.07Z" transform="translate(-1799.025 -35.417)" fill="#00223d"/>
        <path id="Trazado_27988" data-name="Trazado 27988" d="M1816.675,46.977a2.879,2.879,0,0,1-2.117-.887,1.047,1.047,0,0,0-1.551,1.406,5,5,0,0,0,3.668,1.574,3.433,3.433,0,0,0,3.5-2.662c.207-1.161-.319-2.678-2.419-3.452-1.018-.375-1.965-.784-2.258-.912a.566.566,0,0,1-.2-.531.824.824,0,0,1,.654-.657,2.759,2.759,0,0,1,2.276.526,1.047,1.047,0,0,0,1.341-1.607,4.847,4.847,0,0,0-4.221-.924,2.93,2.93,0,0,0-2.123,2.365,2.649,2.649,0,0,0,1.181,2.621,1.062,1.062,0,0,0,.146.079c.048.022,1.191.53,2.479,1.006.362.133,1.192.509,1.083,1.12a1.39,1.39,0,0,1-1.44.936Z" transform="translate(-1794.861 -35.417)" fill="#00223d"/>
        <path id="Trazado_27989" data-name="Trazado 27989" d="M1857.771,48.023V45.459l1.264,0a3.39,3.39,0,1,0,0-6.779h-2.311a1.057,1.057,0,0,0-1.047,1.047v8.3a1.047,1.047,0,0,0,2.094,0Zm1.264-7.254a1.3,1.3,0,1,1,0,2.591c-.292,0-.793,0-1.254,0,0-.476,0-1,0-1.3,0-.255,0-.8,0-1.3Z" transform="translate(-1808.877 -35.417)" fill="#00223d"/>
        <path id="Trazado_27990" data-name="Trazado 27990" d="M1848.994,43.873a5.2,5.2,0,1,0-5.2,5.2A5.2,5.2,0,0,0,1848.994,43.873Zm-8.3,0a3.1,3.1,0,1,1,3.1,3.1A3.107,3.107,0,0,1,1840.694,43.873Z" transform="translate(-1803.303 -35.417)" fill="#00223d"/>
        <path id="Trazado_27991" data-name="Trazado 27991" d="M1836.774,95.526a1.747,1.747,0,0,0-1.745,1.745v15.846a1.746,1.746,0,0,0,1.745,1.745h19.163a1.747,1.747,0,0,0,1.745-1.745V97.271a1.747,1.747,0,0,0-1.745-1.745Zm18.813,8.621H1847.4V97.62h8.185Zm-10.279-6.526v6.526h-8.185V97.62Zm-8.185,8.62h8.185v6.527h-8.185Zm10.28,6.527V106.24h8.185v6.527Z" transform="translate(-1802.137 -53.973)" fill="#00223d"/>
        <path id="Trazado_27992" data-name="Trazado 27992" d="M1822.122,108.666l-1.941-3.366a1.466,1.466,0,0,0-2.627-.011l-2.054,3.417a1.647,1.647,0,0,0-1.045,1.531v2.878a1.648,1.648,0,0,0,1.646,1.646h5.528a1.648,1.648,0,0,0,1.646-1.646v-2.878A1.649,1.649,0,0,0,1822.122,108.666Zm-2.46-.075h-1.65l.842-1.4Zm1.52,4.076h-4.633v-1.982h4.633Z" transform="translate(-1795.422 -56.896)" fill="#00223d"/>
        <path id="Trazado_27993" data-name="Trazado 27993" d="M1853.087,56.921a3.144,3.144,0,0,0-3.14-3.14h-6.132V50.664h2.549a2.446,2.446,0,0,0,2.443-2.443V36.281a2.446,2.446,0,0,0-2.443-2.443h-25.976a1.047,1.047,0,0,0,0,2.094h25.976a.349.349,0,0,1,.349.349v11.94a.349.349,0,0,1-.349.349h-40.25a.35.35,0,0,1-.349-.349V36.281a.35.35,0,0,1,.349-.349h9.8a1.047,1.047,0,1,0,0-2.094h-9.8a2.446,2.446,0,0,0-2.442,2.443v11.94a2.446,2.446,0,0,0,2.442,2.443h2.549v3.117h-6.132a3.144,3.144,0,0,0-3.14,3.14v9.4a6.2,6.2,0,0,0,2.79,5.178v3.733a1.047,1.047,0,1,0,2.093,0V72.382a7.585,7.585,0,0,1,11.645.143,6.2,6.2,0,0,1,10.322,0,6.2,6.2,0,0,1,10.321,0,6.2,6.2,0,0,1,10.321,0,6.209,6.209,0,0,0,1.324-.143V87.957a1.047,1.047,0,0,0,2.094,0V71.5a6.207,6.207,0,0,0,2.79-5.179v-9.4ZM1805.6,70.432a4.119,4.119,0,0,1-4.114-4.114V63.177h8.228v3.141A4.118,4.118,0,0,1,1805.6,70.432Zm10.321,0a4.118,4.118,0,0,1-4.113-4.114V63.177h8.227v3.141A4.118,4.118,0,0,1,1815.917,70.432Zm10.322,0a4.118,4.118,0,0,1-4.114-4.114V63.177h8.227v3.141A4.118,4.118,0,0,1,1826.239,70.432Zm10.321,0a4.119,4.119,0,0,1-4.114-4.114V63.177h8.227v3.141A4.119,4.119,0,0,1,1836.559,70.432Zm10.321,0a4.119,4.119,0,0,1-4.114-4.114V63.177h8.228v3.141A4.118,4.118,0,0,1,1846.88,70.432Zm-5.159-16.651h-3.067V50.664h3.067Zm-25.805,0V50.664h20.645v3.117Zm-5.16-3.117h3.067v3.117h-3.067Zm-9.273,6.257a1.048,1.048,0,0,1,1.047-1.047h47.417a1.048,1.048,0,0,1,1.047,1.047v4.161h-49.511Z" transform="translate(-1790.504 -33.838)" fill="#00223d"/>
      </g>
    </g>
    <g id="Grupo_1084915" data-name="Grupo 1084915" transform="translate(1075.122 9113.567)">
      <path id="Trazado_28012" data-name="Trazado 28012" d="M1368.375,393.442a4.715,4.715,0,0,1,.331-5.5,15.173,15.173,0,1,0-23.513-19.182,9.533,9.533,0,0,1-9.84,3.346,19.838,19.838,0,0,0-22.12,29.641h7.24a30.389,30.389,0,0,0,9.593-1.558l12.845-4.28v7.006h1.168a3.5,3.5,0,0,1,3.5,3.5v4.671a3.5,3.5,0,0,1-3.5,3.5h-1.168v7.006l-12.845-4.281a30.435,30.435,0,0,0-4.963-1.193,24.5,24.5,0,1,0,43.27-22.677Z" transform="translate(-1303.201 -362.03)" fill="#afafaf"/>
      <path id="Trazado_28013" data-name="Trazado 28013" d="M1340.979,402.907a2.335,2.335,0,0,0,2.335-2.335v-5.839a2.335,2.335,0,0,0-2.335-2.335h-1.168a2.335,2.335,0,0,1-2.335-2.335v-3.5a2.335,2.335,0,0,0-4.671,0v3.5a2.335,2.335,0,0,1-2.335,2.335H1329.3v10.51Z" transform="translate(-1310.611 -370.201)" fill="#fff5e0"/>
      <path id="Trazado_28014" data-name="Trazado 28014" d="M1312.125,449.113l1.36,14.013a1.168,1.168,0,0,0,1.168,1.167h6.813a1.168,1.168,0,0,0,1.168-1.168,1.139,1.139,0,0,0-.014-.177l-3.489-13.836Z" transform="translate(-1303.944 -395.388)" fill="#7d7d7d"/>
      <path id="Trazado_28015" data-name="Trazado 28015" d="M1364.823,439.8a3.5,3.5,0,0,0,3.5-3.5v-4.671a3.5,3.5,0,0,0-3.5-3.5h-1.168V439.8Z" transform="translate(-1323.946 -387.239)" fill="#f2a811"/>
      <path id="Trazado_28016" data-name="Trazado 28016" d="M1307.68,440.223V426.211a7.006,7.006,0,0,0,0,14.012Z" transform="translate(-1299.499 -386.498)" fill="#7d7d7d"/>
      <path id="Trazado_28017" data-name="Trazado 28017" d="M1316.8,440.223V426.211h-4.671v14.012Z" transform="translate(-1303.944 -386.498)" fill="#f2a811"/>
      <path id="Trazado_28018" data-name="Trazado 28018" d="M1333.771,420.949a30.383,30.383,0,0,1-9.6,1.558h-4.415V436.52h4.415a31,31,0,0,1,9.6,1.558l12.845,4.281V416.669Z" transform="translate(-1306.907 -382.794)" fill="#d9d9d9"/>
      <path id="Trazado_28019" data-name="Trazado 28019" d="M1380.63,391.456a9.342,9.342,0,1,0-9.342-9.342A9.342,9.342,0,0,0,1380.63,391.456Z" transform="translate(-1326.909 -365.755)" fill="#fff5e0"/>
      <g id="Grupo_17562" data-name="Grupo 17562" transform="translate(14.02 11.688)">
        <path id="Trazado_28020" data-name="Trazado 28020" d="M1382.74,380.407v9.342l7.007-4.671Z" transform="translate(-1345.374 -380.407)" fill="#ffd947"/>
        <path id="Trazado_28021" data-name="Trazado 28021" d="M1326.339,407.352V395.675h-4.671V408.52h4.671Z" transform="translate(-1321.668 -386.333)" fill="#ffd947"/>
        <path id="Trazado_28022" data-name="Trazado 28022" d="M1391.943,430.42l-1.911,1.273-1.909-1.273a2.336,2.336,0,0,0-2.947.292l-.5.5a2.335,2.335,0,0,0,0,3.3h0l5.354,5.354,5.355-5.354a2.335,2.335,0,0,0,0-3.3h0l-.5-.5a2.336,2.336,0,0,0-2.947-.292Z" transform="translate(-1345.86 -399.668)" fill="#ffd947"/>
      </g>
      <path id="Trazado_28023" data-name="Trazado 28023" d="M1305.868,416.119l1.26,12.923a2.336,2.336,0,0,0,2.336,2.335h6.813a2.334,2.334,0,0,0,1.773-.817,2.387,2.387,0,0,0,.514-1.985L1315.44,416.2h.584a29.109,29.109,0,0,1,3.861.278,25.643,25.643,0,0,0,23.29,14.9q1.156,0,2.335-.1a25.879,25.879,0,0,0,23.238-23.494,25.494,25.494,0,0,0-3.822-15.681,3.562,3.562,0,0,1,.246-4.146,16.344,16.344,0,0,0-25.328-20.664,8.373,8.373,0,0,1-8.622,2.963,20.961,20.961,0,0,0-8.29-.593,21.194,21.194,0,0,0-18.142,17.976,20.889,20.889,0,0,0,2.01,12.222,8.166,8.166,0,0,0-.934,16.263Zm2.235-2.257V402.185h2.335v11.677Zm8.173,15.18-6.82-.117-1.238-12.728h4.81Zm-3.5-15.18V402.185h3.247a31.443,31.443,0,0,0,9.97-1.619l5.466-1.821V417.3l-5.466-1.821a31.445,31.445,0,0,0-9.97-1.618ZM1337.3,396.8v22.45l-3.5-1.168V397.966Zm-30.19-8.859a18.675,18.675,0,0,1,23.488-15.437,10.705,10.705,0,0,0,11.056-3.73,14,14,0,1,1,21.7,17.7,5.9,5.9,0,0,0-.414,6.862,23.323,23.323,0,1,1-40.182,23.657c.838.2,1.672.427,2.5.7l12.845,4.28a1.161,1.161,0,0,0,1.533-1.107v-5.839a4.67,4.67,0,0,0,4.671-4.671v-4.671a4.671,4.671,0,0,0-4.671-4.671v-5.838a1.169,1.169,0,0,0-1.537-1.109l-12.845,4.281a29.165,29.165,0,0,1-9.228,1.5h-6.558a18.558,18.558,0,0,1-2.358-11.911Zm32.526,15.414a2.335,2.335,0,0,1,2.335,2.335v4.671a2.335,2.335,0,0,1-2.335,2.335Zm-33.865-1.051v11.443a5.839,5.839,0,0,1,0-11.443Z" transform="translate(-1298.754 -361.304)" fill="#00223d"/>
      <path id="Trazado_28024" data-name="Trazado 28024" d="M1325.485,439.571h4.671v2.335h-4.671Z" transform="translate(-1309.13 -391.684)" fill="#00223d"/>
      <path id="Trazado_28025" data-name="Trazado 28025" d="M1325.485,431.937h4.671v2.335h-4.671Z" transform="translate(-1309.13 -388.721)" fill="#00223d"/>
      <path id="Trazado_28026" data-name="Trazado 28026" d="M1381.449,390.037a1.168,1.168,0,0,0,1.2-.058l7.006-4.671a1.168,1.168,0,0,0,0-1.943l-7.006-4.671a1.168,1.168,0,0,0-1.816.972v9.342A1.167,1.167,0,0,0,1381.449,390.037Zm1.719-8.189,3.736,2.488-3.736,2.488Z" transform="translate(-1330.613 -367.978)" fill="#00223d"/>
      <path id="Trazado_28027" data-name="Trazado 28027" d="M1379.89,391.883a10.509,10.509,0,1,0-10.509-10.509A10.509,10.509,0,0,0,1379.89,391.883Zm0-18.683a8.174,8.174,0,1,1-8.173,8.174A8.174,8.174,0,0,1,1379.89,373.2Z" transform="translate(-1326.168 -365.015)" fill="#00223d"/>
      <path id="Trazado_28028" data-name="Trazado 28028" d="M1320.927,404.5h4.671a1.167,1.167,0,0,0,1.167-1.167h10.51a3.5,3.5,0,0,0,3.5-3.5v-5.839a3.5,3.5,0,0,0-3.5-3.5h-1.168a1.168,1.168,0,0,1-1.168-1.168v-3.5a3.5,3.5,0,1,0-7.006,0v3.5a1.168,1.168,0,0,1-1.168,1.168,1.168,1.168,0,0,0-1.167-1.168h-4.671a1.168,1.168,0,0,0-1.168,1.168v12.845A1.168,1.168,0,0,0,1320.927,404.5Zm9.342-15.18v-3.5a1.168,1.168,0,1,1,2.335,0v3.5a3.5,3.5,0,0,0,3.5,3.5h1.168a1.167,1.167,0,0,1,1.167,1.167v5.839a1.167,1.167,0,0,1-1.167,1.167h-10.51v-8.174A3.5,3.5,0,0,0,1330.269,389.321Zm-8.174,2.335h2.335v10.51h-2.335Z" transform="translate(-1306.907 -369.46)" fill="#00223d"/>
      <path id="Trazado_28029" data-name="Trazado 28029" d="M1390.553,428.7l-1.262.842-1.262-.842a3.513,3.513,0,0,0-4.42.437l-.5.5a3.5,3.5,0,0,0,0,4.953l5.355,5.354a1.168,1.168,0,0,0,1.651,0l5.355-5.354a3.5,3.5,0,0,0,0-4.953l-.5-.5a3.516,3.516,0,0,0-4.42-.437Zm2.77,2.088.5.5a1.167,1.167,0,0,1,0,1.651h0l-4.529,4.528-4.528-4.524a1.167,1.167,0,0,1,0-1.651l.5-.5a1.168,1.168,0,0,1,1.474-.146l1.909,1.273a1.167,1.167,0,0,0,1.3,0l1.911-1.273a1.167,1.167,0,0,1,1.472.145Z" transform="translate(-1331.099 -387.238)" fill="#00223d"/>
      <path id="Trazado_28030" data-name="Trazado 28030" d="M1371.346,417.06l1.169-4.67,2.264.567-1.169,4.671Z" transform="translate(-1326.931 -381.134)" fill="#00223d"/>
      <path id="Trazado_28031" data-name="Trazado 28031" d="M1376.162,421.114l4.671-2.335,1.044,2.089-4.671,2.335Z" transform="translate(-1328.8 -383.614)" fill="#00223d"/>
      <path id="Trazado_28032" data-name="Trazado 28032" d="M1371.345,456.852l2.265-.566,1.167,4.671-2.264.566Z" transform="translate(-1326.931 -398.172)" fill="#00223d"/>
      <path id="Trazado_28033" data-name="Trazado 28033" d="M1376.162,453.312l1.044-2.089,4.671,2.335-1.044,2.089Z" transform="translate(-1328.8 -396.207)" fill="#00223d"/>
      <path id="Trazado_28034" data-name="Trazado 28034" d="M1300.674,395.072h2.335c0-15.846,9.4-25.689,24.522-25.689v-2.335C1310.965,367.047,1300.674,377.79,1300.674,395.072Z" transform="translate(-1299.499 -363.533)" fill="#00223d"/>
    </g>
  </g>
</svg>
