<svg xmlns="http://www.w3.org/2000/svg" width="757.035" height="594.987" viewBox="0 0 757.035 594.987">
  <g id="Grupo_1085518" data-name="Grupo 1085518" transform="translate(-418.327 -10387.05)">
    <g id="Grupo_17626" data-name="Grupo 17626" transform="translate(570.793 10509.717)">
      <rect id="Rectángulo_4415" data-name="Rectángulo 4415" width="302.285" height="236.16" fill="#eff5d6"/>
      <rect id="Rectángulo_4416" data-name="Rectángulo 4416" width="302.285" height="236.16" transform="translate(0 236.16)" fill="#e8e8e8"/>
      <rect id="Rectángulo_4417" data-name="Rectángulo 4417" width="302.285" height="236.16" transform="translate(302.285)" fill="#e8e8e8"/>
      <rect id="Rectángulo_4418" data-name="Rectángulo 4418" width="302.285" height="236.16" transform="translate(302.285 236.16)" fill="#eff5d6"/>
    </g>
    <path id="Trazado_28144" data-name="Trazado 28144" d="M802.346,2144.94V1685.979l6.183,6.651,1.922-1.79-10.732-11.54-10.729,11.54,1.922,1.79,6.186-6.657v458.973l-6.186-6.657-1.922,1.79,10.729,11.541,10.732-11.541-1.922-1.79Z" transform="translate(-273.327 8830.417)" fill="#12263f"/>
    <path id="Trazado_28145" data-name="Trazado 28145" d="M816.679,1671.186H1406.84l-6.651,6.183,1.79,1.922,11.54-10.732-11.54-10.729-1.79,1.922,6.657,6.187H816.673l6.657-6.187-1.79-1.922L810,1668.559l11.54,10.732,1.79-1.922Z" transform="translate(-239.207 8795.55)" fill="#12263f"/>
    <path id="Trazado_794977" data-name="Trazado 794977" d="M2.729,10.744V14H.825V4.758H4.431a4.171,4.171,0,0,1,1.831.381A2.807,2.807,0,0,1,7.478,6.221a3.018,3.018,0,0,1,.425,1.6,2.654,2.654,0,0,1-.93,2.142,3.873,3.873,0,0,1-2.574.784Zm0-1.542h1.7a1.673,1.673,0,0,0,1.152-.355,1.293,1.293,0,0,0,.4-1.016,1.524,1.524,0,0,0-.4-1.1,1.494,1.494,0,0,0-1.1-.432H2.729Zm10.22-.349a4.984,4.984,0,0,0-.66-.051,1.344,1.344,0,0,0-1.365.7V14H9.09V7.132h1.733l.051.819A1.7,1.7,0,0,1,12.4,7a1.922,1.922,0,0,1,.571.083Zm4.043,5.275a3.372,3.372,0,0,1-2.46-.927,3.294,3.294,0,0,1-.949-2.469v-.178a4.149,4.149,0,0,1,.4-1.85,2.935,2.935,0,0,1,1.133-1.257A3.18,3.18,0,0,1,16.79,7a2.85,2.85,0,0,1,2.219.889,3.611,3.611,0,0,1,.809,2.52v.749H15.444a1.7,1.7,0,0,0,.536,1.079,1.621,1.621,0,0,0,1.133.406,1.98,1.98,0,0,0,1.657-.768l.9,1.009a2.754,2.754,0,0,1-1.117.911A3.665,3.665,0,0,1,16.993,14.127Zm-.209-5.643a1.146,1.146,0,0,0-.885.37,1.915,1.915,0,0,0-.435,1.058h2.552V9.765a1.366,1.366,0,0,0-.33-.947A1.183,1.183,0,0,0,16.783,8.484Zm5.8-1.352.057.768A2.414,2.414,0,0,1,24.61,7a1.832,1.832,0,0,1,1.822,1.047A2.358,2.358,0,0,1,28.495,7a2.049,2.049,0,0,1,1.663.651A2.991,2.991,0,0,1,30.7,9.614V14H28.863V9.62a1.308,1.308,0,0,0-.229-.854,1.013,1.013,0,0,0-.806-.27,1.145,1.145,0,0,0-1.143.787L26.692,14H24.857V9.626a1.292,1.292,0,0,0-.235-.863,1.023,1.023,0,0,0-.8-.267,1.189,1.189,0,0,0-1.13.647V14H20.858V7.132ZM34.049,14H32.208V7.132h1.841ZM32.1,5.354a.9.9,0,0,1,.276-.679,1.19,1.19,0,0,1,1.5,0,.9.9,0,0,1,.279.679.9.9,0,0,1-.282.686,1.177,1.177,0,0,1-1.492,0A.9.9,0,0,1,32.1,5.354ZM39.673,13.3a2.3,2.3,0,0,1-1.879.825,2.17,2.17,0,0,1-1.685-.635,2.71,2.71,0,0,1-.594-1.86v-4.5H37.35v4.442q0,1.074.978,1.074A1.325,1.325,0,0,0,39.609,12V7.132H41.45V14H39.724Zm4.881-6.17.057.768A2.414,2.414,0,0,1,46.585,7a1.832,1.832,0,0,1,1.822,1.047A2.358,2.358,0,0,1,50.47,7a2.049,2.049,0,0,1,1.663.651,2.991,2.991,0,0,1,.546,1.958V14H50.838V9.62a1.308,1.308,0,0,0-.229-.854A1.013,1.013,0,0,0,49.8,8.5a1.145,1.145,0,0,0-1.143.787L48.667,14H46.833V9.626a1.292,1.292,0,0,0-.235-.863,1.023,1.023,0,0,0-.8-.267,1.189,1.189,0,0,0-1.13.647V14H42.834V7.132Z" transform="translate(600 10603.331)" fill="#00223d"/>
    <path id="Trazado_794973" data-name="Trazado 794973" d="M7.438,14.656H3.328L2.547,17H.055L4.289,5.625H6.461L10.719,17H8.227Zm-3.477-1.9H6.8L5.375,8.5ZM14.016,17H11.75V5h2.266ZM18.578,6.469V8.547h1.445V10.2H18.578v4.219a1.007,1.007,0,0,0,.18.672.9.9,0,0,0,.688.2,3.6,3.6,0,0,0,.664-.055v1.711a4.648,4.648,0,0,1-1.367.2,2.156,2.156,0,0,1-2.422-2.4V10.2H15.086V8.547H16.32V6.469ZM20.7,12.7a5.013,5.013,0,0,1,.484-2.242A3.546,3.546,0,0,1,22.574,8.93a4.069,4.069,0,0,1,2.113-.539A3.849,3.849,0,0,1,27.48,9.438a4.2,4.2,0,0,1,1.207,2.844l.016.578a4.418,4.418,0,0,1-1.086,3.121A3.775,3.775,0,0,1,24.7,17.156a3.793,3.793,0,0,1-2.918-1.172A4.5,4.5,0,0,1,20.7,12.8Zm2.258.16a3.16,3.16,0,0,0,.453,1.843,1.628,1.628,0,0,0,2.578.008,3.457,3.457,0,0,0,.461-2.015,3.128,3.128,0,0,0-.461-1.831,1.5,1.5,0,0,0-1.3-.649,1.474,1.474,0,0,0-1.281.646A3.516,3.516,0,0,0,22.953,12.856Z" transform="translate(535.841 10382.05)" fill="#00223d"/>
    <path id="Trazado_794972" data-name="Trazado 794972" d="M7.438,14.656H3.328L2.547,17H.055L4.289,5.625H6.461L10.719,17H8.227Zm-3.477-1.9H6.8L5.375,8.5ZM14.016,17H11.75V5h2.266ZM18.578,6.469V8.547h1.445V10.2H18.578v4.219a1.007,1.007,0,0,0,.18.672.9.9,0,0,0,.688.2,3.6,3.6,0,0,0,.664-.055v1.711a4.648,4.648,0,0,1-1.367.2,2.156,2.156,0,0,1-2.422-2.4V10.2H15.086V8.547H16.32V6.469ZM26.18,17a2.507,2.507,0,0,1-.227-.758,2.732,2.732,0,0,1-2.133.914,3,3,0,0,1-2.059-.719,2.312,2.312,0,0,1-.816-1.812,2.389,2.389,0,0,1,1-2.062,4.915,4.915,0,0,1,2.879-.727h1.039v-.484a1.393,1.393,0,0,0-.3-.937,1.183,1.183,0,0,0-.949-.352,1.345,1.345,0,0,0-.895.273.929.929,0,0,0-.324.75H21.133a2.268,2.268,0,0,1,.453-1.359,3,3,0,0,1,1.281-.98,4.669,4.669,0,0,1,1.859-.355,3.689,3.689,0,0,1,2.48.785,2.747,2.747,0,0,1,.918,2.207v3.664a4.041,4.041,0,0,0,.336,1.82V17Zm-1.867-1.57a1.945,1.945,0,0,0,.922-.223,1.462,1.462,0,0,0,.625-.6V13.156h-.844q-1.7,0-1.8,1.172l-.008.133a.9.9,0,0,0,.3.7A1.153,1.153,0,0,0,24.313,15.43Z" transform="translate(418.272 10485.932)" fill="#00223d"/>
    <path id="Trazado_794975" data-name="Trazado 794975" d="M1.016,17V5.625H5a5.232,5.232,0,0,1,3.141.793,2.712,2.712,0,0,1,1.07,2.324,2.57,2.57,0,0,1-.43,1.473,2.482,2.482,0,0,1-1.2.934,2.4,2.4,0,0,1,1.379.883,2.61,2.61,0,0,1,.5,1.625,3,3,0,0,1-1.047,2.484A4.713,4.713,0,0,1,5.438,17Zm2.344-4.953v3.07H5.367a1.938,1.938,0,0,0,1.293-.395,1.353,1.353,0,0,0,.465-1.09,1.428,1.428,0,0,0-1.617-1.586Zm0-1.656H5.094q1.773-.031,1.773-1.414a1.307,1.307,0,0,0-.449-1.113A2.363,2.363,0,0,0,5,7.523H3.359ZM15.977,17a2.507,2.507,0,0,1-.227-.758,2.732,2.732,0,0,1-2.133.914,3,3,0,0,1-2.059-.719,2.312,2.312,0,0,1-.816-1.812,2.389,2.389,0,0,1,1-2.062,4.915,4.915,0,0,1,2.879-.727h1.039v-.484a1.393,1.393,0,0,0-.3-.937,1.183,1.183,0,0,0-.949-.352,1.345,1.345,0,0,0-.895.273.929.929,0,0,0-.324.75H10.93a2.268,2.268,0,0,1,.453-1.359,3,3,0,0,1,1.281-.98,4.669,4.669,0,0,1,1.859-.355A3.689,3.689,0,0,1,17,9.176a2.747,2.747,0,0,1,.918,2.207v3.664a4.041,4.041,0,0,0,.336,1.82V17Zm-1.867-1.57a1.945,1.945,0,0,0,.922-.223,1.462,1.462,0,0,0,.625-.6V13.156h-.844q-1.7,0-1.8,1.172L13,14.461a.9.9,0,0,0,.3.7A1.153,1.153,0,0,0,14.109,15.43Zm7.938-6.883v8.914a3.024,3.024,0,0,1-.742,2.176,2.821,2.821,0,0,1-2.141.777,4.591,4.591,0,0,1-1.117-.133V18.492a4.238,4.238,0,0,0,.711.07q1.023,0,1.023-1.086V8.547ZM19.6,6.359a1.112,1.112,0,0,1,.34-.836,1.47,1.47,0,0,1,1.852,0,1.112,1.112,0,0,1,.34.836,1.108,1.108,0,0,1-.348.844,1.448,1.448,0,0,1-1.836,0A1.108,1.108,0,0,1,19.6,6.359ZM23.461,12.7a5.013,5.013,0,0,1,.484-2.242A3.546,3.546,0,0,1,25.34,8.93a4.069,4.069,0,0,1,2.113-.539,3.849,3.849,0,0,1,2.793,1.047,4.2,4.2,0,0,1,1.207,2.844l.016.578a4.418,4.418,0,0,1-1.086,3.121,3.775,3.775,0,0,1-2.914,1.176,3.793,3.793,0,0,1-2.918-1.172,4.5,4.5,0,0,1-1.09-3.187Zm2.258.16a3.16,3.16,0,0,0,.453,1.843,1.628,1.628,0,0,0,2.578.008,3.457,3.457,0,0,0,.461-2.015,3.128,3.128,0,0,0-.461-1.831,1.5,1.5,0,0,0-1.3-.649,1.474,1.474,0,0,0-1.281.646A3.516,3.516,0,0,0,25.719,12.856Z" transform="translate(1138.625 10382.05)" fill="#00223d"/>
    <path id="Trazado_794976" data-name="Trazado 794976" d="M12.84,13.211A4.025,4.025,0,0,1,11.484,16.1a4.76,4.76,0,0,1-3.223,1.055A4.28,4.28,0,0,1,4.82,15.684a6.038,6.038,0,0,1-1.254-4.043v-.7a6.819,6.819,0,0,1,.578-2.891A4.332,4.332,0,0,1,5.8,6.137a4.629,4.629,0,0,1,2.5-.668,4.637,4.637,0,0,1,3.172,1.055,4.326,4.326,0,0,1,1.391,2.961H10.512a2.376,2.376,0,0,0-.613-1.6,2.271,2.271,0,0,0-1.605-.5,1.991,1.991,0,0,0-1.754.84,4.707,4.707,0,0,0-.6,2.605V11.7a5.038,5.038,0,0,0,.559,2.7,1.954,1.954,0,0,0,1.762.852,2.314,2.314,0,0,0,1.621-.5,2.241,2.241,0,0,0,.613-1.535ZM19.129,17a2.507,2.507,0,0,1-.227-.758,2.732,2.732,0,0,1-2.133.914,3,3,0,0,1-2.059-.719,2.312,2.312,0,0,1-.816-1.812,2.389,2.389,0,0,1,1-2.062,4.915,4.915,0,0,1,2.879-.727h1.039v-.484a1.393,1.393,0,0,0-.3-.937,1.183,1.183,0,0,0-.949-.352,1.345,1.345,0,0,0-.895.273.929.929,0,0,0-.324.75H14.082a2.268,2.268,0,0,1,.453-1.359,3,3,0,0,1,1.281-.98,4.669,4.669,0,0,1,1.859-.355,3.689,3.689,0,0,1,2.48.785,2.747,2.747,0,0,1,.918,2.207v3.664a4.041,4.041,0,0,0,.336,1.82V17Zm-1.867-1.57a1.945,1.945,0,0,0,.922-.223,1.462,1.462,0,0,0,.625-.6V13.156h-.844q-1.7,0-1.8,1.172l-.008.133a.9.9,0,0,0,.3.7A1.153,1.153,0,0,0,17.262,15.43ZM25.191,17H22.926V5h2.266Zm4.242,0H27.168V8.547h2.266Zm-2.4-10.641a1.112,1.112,0,0,1,.34-.836,1.465,1.465,0,0,1,1.848,0,1.105,1.105,0,0,1,.344.836,1.108,1.108,0,0,1-.348.844,1.448,1.448,0,0,1-1.836,0A1.108,1.108,0,0,1,27.035,6.359Zm3.906,6.352a5.094,5.094,0,0,1,.887-3.148,2.877,2.877,0,0,1,2.426-1.172,2.589,2.589,0,0,1,2.039.922V5h2.266V17H36.519l-.109-.9a2.657,2.657,0,0,1-2.172,1.055,2.869,2.869,0,0,1-2.395-1.176A5.258,5.258,0,0,1,30.941,12.711Zm2.258.168a3.337,3.337,0,0,0,.414,1.823,1.349,1.349,0,0,0,1.2.634,1.511,1.511,0,0,0,1.477-.884V11.111a1.489,1.489,0,0,0-1.461-.884Q33.2,10.227,33.2,12.879ZM45.207,17a2.507,2.507,0,0,1-.227-.758,2.732,2.732,0,0,1-2.133.914,3,3,0,0,1-2.059-.719,2.312,2.312,0,0,1-.816-1.812,2.389,2.389,0,0,1,1-2.062,4.915,4.915,0,0,1,2.879-.727h1.039v-.484a1.393,1.393,0,0,0-.3-.937,1.183,1.183,0,0,0-.949-.352,1.345,1.345,0,0,0-.895.273.929.929,0,0,0-.324.75H40.16a2.268,2.268,0,0,1,.453-1.359,3,3,0,0,1,1.281-.98,4.669,4.669,0,0,1,1.859-.355,3.689,3.689,0,0,1,2.48.785,2.747,2.747,0,0,1,.918,2.207v3.664a4.041,4.041,0,0,0,.336,1.82V17ZM43.34,15.43a1.945,1.945,0,0,0,.922-.223,1.462,1.462,0,0,0,.625-.6V13.156h-.844q-1.7,0-1.8,1.172l-.008.133a.9.9,0,0,0,.3.7A1.153,1.153,0,0,0,43.34,15.43Zm5.2-2.719a5.094,5.094,0,0,1,.887-3.148,2.877,2.877,0,0,1,2.426-1.172,2.589,2.589,0,0,1,2.039.922V5h2.266V17H54.113L54,16.1a2.657,2.657,0,0,1-2.172,1.055,2.869,2.869,0,0,1-2.395-1.176A5.258,5.258,0,0,1,48.535,12.711Zm2.258.168a3.337,3.337,0,0,0,.414,1.823,1.349,1.349,0,0,0,1.2.634,1.511,1.511,0,0,0,1.477-.884V11.111a1.489,1.489,0,0,0-1.461-.884Q50.793,10.227,50.793,12.879Z" transform="translate(431.141 10719.39)" fill="#00223d"/>
    <path id="Trazado_794974" data-name="Trazado 794974" d="M3.359,12.992V17H1.016V5.625H5.453a5.134,5.134,0,0,1,2.254.469A3.454,3.454,0,0,1,9.2,7.426a3.714,3.714,0,0,1,.523,1.965,3.266,3.266,0,0,1-1.145,2.637,4.767,4.767,0,0,1-3.168.965Zm0-1.9H5.453a2.059,2.059,0,0,0,1.418-.437,1.591,1.591,0,0,0,.488-1.25,1.876,1.876,0,0,0-.492-1.352,1.839,1.839,0,0,0-1.359-.531H3.359Zm12.578-.43a6.134,6.134,0,0,0-.812-.062,1.654,1.654,0,0,0-1.68.867V17H11.188V8.547H13.32l.063,1.008a2.092,2.092,0,0,1,1.883-1.164,2.366,2.366,0,0,1,.7.1Zm4.977,6.492a4.15,4.15,0,0,1-3.027-1.141,4.054,4.054,0,0,1-1.168-3.039v-.219a5.106,5.106,0,0,1,.492-2.277,3.612,3.612,0,0,1,1.395-1.547,3.914,3.914,0,0,1,2.059-.543,3.508,3.508,0,0,1,2.73,1.094,4.444,4.444,0,0,1,1,3.1v.922H19.008a2.1,2.1,0,0,0,.66,1.328,2,2,0,0,0,1.395.5,2.437,2.437,0,0,0,2.039-.945l1.109,1.242a3.389,3.389,0,0,1-1.375,1.121A4.511,4.511,0,0,1,20.914,17.156Zm-.258-6.945a1.411,1.411,0,0,0-1.09.455,2.357,2.357,0,0,0-.535,1.3h3.141v-.181a1.681,1.681,0,0,0-.406-1.165A1.456,1.456,0,0,0,20.656,10.211Zm8.531,5.125a1.481,1.481,0,0,0,1.016-.344,1.2,1.2,0,0,0,.406-.914h2.117a2.9,2.9,0,0,1-.469,1.574A3.093,3.093,0,0,1,31,16.762a3.949,3.949,0,0,1-1.77.395A3.67,3.67,0,0,1,26.367,16,4.56,4.56,0,0,1,25.32,12.82v-.148a4.508,4.508,0,0,1,1.039-3.117,3.627,3.627,0,0,1,2.852-1.164,3.555,3.555,0,0,1,2.543.9,3.2,3.2,0,0,1,.973,2.4H30.609a1.551,1.551,0,0,0-.406-1.072,1.51,1.51,0,0,0-2.223.163,3.333,3.333,0,0,0-.4,1.866v.235a3.375,3.375,0,0,0,.4,1.878A1.377,1.377,0,0,0,29.188,15.336ZM36.4,17H34.133V8.547H36.4ZM34,6.359a1.112,1.112,0,0,1,.34-.836,1.465,1.465,0,0,1,1.848,0,1.105,1.105,0,0,1,.344.836,1.108,1.108,0,0,1-.348.844,1.448,1.448,0,0,1-1.836,0A1.108,1.108,0,0,1,34,6.359ZM37.906,12.7a5.013,5.013,0,0,1,.484-2.242A3.546,3.546,0,0,1,39.785,8.93,4.069,4.069,0,0,1,41.9,8.391a3.849,3.849,0,0,1,2.793,1.047A4.2,4.2,0,0,1,45.9,12.281l.016.578a4.418,4.418,0,0,1-1.086,3.121,4.209,4.209,0,0,1-5.832,0,4.5,4.5,0,0,1-1.09-3.187Zm2.258.16a3.16,3.16,0,0,0,.453,1.843,1.628,1.628,0,0,0,2.578.008,3.457,3.457,0,0,0,.461-2.015A3.128,3.128,0,0,0,43.2,10.86a1.5,1.5,0,0,0-1.3-.649,1.474,1.474,0,0,0-1.281.646A3.516,3.516,0,0,0,40.164,12.856Z" transform="translate(806.953 10416)" fill="#00223d"/>
    <path id="Trazado_794980" data-name="Trazado 794980" d="M8.341,14h-1.9L2.729,7.919V14H.825V4.758h1.9l3.713,6.094V4.758h1.9ZM9.6,10.5a4.073,4.073,0,0,1,.394-1.822,2.881,2.881,0,0,1,1.133-1.238A3.306,3.306,0,0,1,12.841,7a3.128,3.128,0,0,1,2.269.851,3.414,3.414,0,0,1,.981,2.311l.013.47a3.59,3.59,0,0,1-.882,2.536,3.067,3.067,0,0,1-2.368.955,3.082,3.082,0,0,1-2.371-.952,3.653,3.653,0,0,1-.885-2.59Zm1.834.13a2.567,2.567,0,0,0,.368,1.5,1.323,1.323,0,0,0,2.095.006A2.809,2.809,0,0,0,14.27,10.5,2.542,2.542,0,0,0,13.9,9.012a1.217,1.217,0,0,0-1.054-.528,1.2,1.2,0,0,0-1.041.524A2.857,2.857,0,0,0,11.432,10.633Zm11.9,2.015a1.2,1.2,0,0,0,.825-.279.979.979,0,0,0,.33-.743H26.2a2.353,2.353,0,0,1-.381,1.279,2.513,2.513,0,0,1-1.025.9,3.208,3.208,0,0,1-1.438.321,2.982,2.982,0,0,1-2.323-.936,3.705,3.705,0,0,1-.851-2.587v-.121a3.663,3.663,0,0,1,.844-2.533A2.947,2.947,0,0,1,23.347,7a2.889,2.889,0,0,1,2.066.733A2.6,2.6,0,0,1,26.2,9.69h-1.72a1.261,1.261,0,0,0-.33-.871,1.227,1.227,0,0,0-1.806.132,2.708,2.708,0,0,0-.327,1.516v.191a2.742,2.742,0,0,0,.324,1.526A1.119,1.119,0,0,0,23.328,12.648ZM26.965,10.5a4.073,4.073,0,0,1,.394-1.822,2.881,2.881,0,0,1,1.133-1.238A3.306,3.306,0,0,1,30.208,7a3.127,3.127,0,0,1,2.269.851,3.414,3.414,0,0,1,.981,2.311l.013.47a3.59,3.59,0,0,1-.882,2.536,3.42,3.42,0,0,1-4.739,0,3.653,3.653,0,0,1-.885-2.59Zm1.834.13a2.567,2.567,0,0,0,.368,1.5,1.323,1.323,0,0,0,2.095.006,2.809,2.809,0,0,0,.375-1.637,2.542,2.542,0,0,0-.375-1.488,1.217,1.217,0,0,0-1.054-.528,1.2,1.2,0,0,0-1.041.524A2.857,2.857,0,0,0,28.8,10.633Zm7.522-3.5.057.768A2.414,2.414,0,0,1,38.353,7a1.832,1.832,0,0,1,1.822,1.047A2.358,2.358,0,0,1,42.237,7a2.049,2.049,0,0,1,1.663.651,2.991,2.991,0,0,1,.546,1.958V14H42.605V9.62a1.308,1.308,0,0,0-.229-.854,1.013,1.013,0,0,0-.806-.27,1.145,1.145,0,0,0-1.143.787L40.435,14H38.6V9.626a1.292,1.292,0,0,0-.235-.863,1.023,1.023,0,0,0-.8-.267,1.189,1.189,0,0,0-1.13.647V14H34.6V7.132Zm15.717,3.5a4.119,4.119,0,0,1-.72,2.542,2.31,2.31,0,0,1-1.946.955A2.14,2.14,0,0,1,47.69,13.4v3.237H45.855V7.132h1.7l.063.673A2.156,2.156,0,0,1,49.359,7a2.326,2.326,0,0,1,1.974.939,4.231,4.231,0,0,1,.7,2.59ZM50.2,10.5a2.7,2.7,0,0,0-.34-1.479,1.106,1.106,0,0,0-.987-.521,1.2,1.2,0,0,0-1.187.66v2.812a1.222,1.222,0,0,0,1.2.679Q50.2,12.648,50.2,10.5Zm6.132,3.631a3.372,3.372,0,0,1-2.46-.927,3.294,3.294,0,0,1-.949-2.469v-.178a4.149,4.149,0,0,1,.4-1.85A2.935,2.935,0,0,1,54.46,7.446,3.18,3.18,0,0,1,56.132,7a2.85,2.85,0,0,1,2.219.889,3.611,3.611,0,0,1,.809,2.52v.749H54.787a1.7,1.7,0,0,0,.536,1.079,1.621,1.621,0,0,0,1.133.406,1.98,1.98,0,0,0,1.657-.768l.9,1.009A2.754,2.754,0,0,1,57.9,13.8,3.665,3.665,0,0,1,56.335,14.127Zm-.209-5.643a1.146,1.146,0,0,0-.885.37,1.915,1.915,0,0,0-.435,1.058h2.552V9.765a1.366,1.366,0,0,0-.33-.947A1.183,1.183,0,0,0,56.126,8.484ZM62.4,5.443V7.132h1.174V8.478H62.4v3.428a.818.818,0,0,0,.146.546.733.733,0,0,0,.559.165,2.925,2.925,0,0,0,.54-.044v1.39a3.776,3.776,0,0,1-1.111.165,1.752,1.752,0,0,1-1.968-1.949v-3.7h-1V7.132h1V5.443ZM66.53,14H64.689V7.132H66.53ZM64.581,5.354a.9.9,0,0,1,.276-.679,1.19,1.19,0,0,1,1.5,0,.9.9,0,0,1,.279.679.9.9,0,0,1-.282.686,1.177,1.177,0,0,1-1.492,0A.9.9,0,0,1,64.581,5.354Zm5.656.089V7.132h1.174V8.478H70.237v3.428a.818.818,0,0,0,.146.546.733.733,0,0,0,.559.165,2.926,2.926,0,0,0,.54-.044v1.39a3.777,3.777,0,0,1-1.111.165A1.752,1.752,0,0,1,68.4,12.178v-3.7h-1V7.132h1V5.443ZM74.369,14H72.528V7.132h1.841ZM72.42,5.354a.9.9,0,0,1,.276-.679,1.19,1.19,0,0,1,1.5,0,.9.9,0,0,1,.279.679.9.9,0,0,1-.282.686,1.177,1.177,0,0,1-1.492,0A.9.9,0,0,1,72.42,5.354Zm6.03,6.4,1.276-4.627h1.917L79.327,14H77.575L75.258,7.132h1.917ZM86.334,14a2.037,2.037,0,0,1-.184-.616,2.22,2.22,0,0,1-1.733.743,2.439,2.439,0,0,1-1.673-.584,1.878,1.878,0,0,1-.663-1.473,1.941,1.941,0,0,1,.809-1.676A3.994,3.994,0,0,1,85.23,9.8h.844V9.411a1.132,1.132,0,0,0-.244-.762.961.961,0,0,0-.771-.286,1.093,1.093,0,0,0-.727.222.755.755,0,0,0-.263.609H82.234a1.843,1.843,0,0,1,.368-1.1,2.434,2.434,0,0,1,1.041-.8A3.794,3.794,0,0,1,85.154,7a3,3,0,0,1,2.015.638,2.232,2.232,0,0,1,.746,1.793v2.977a3.284,3.284,0,0,0,.273,1.479V14Zm-1.517-1.276a1.58,1.58,0,0,0,.749-.181,1.188,1.188,0,0,0,.508-.486V10.877h-.686q-1.377,0-1.466.952l-.006.108a.734.734,0,0,0,.241.565A.937.937,0,0,0,84.817,12.724Z" transform="translate(600.498 10838.113)" fill="#00223d"/>
    <path id="Trazado_794978" data-name="Trazado 794978" d="M6.043,12.1H2.7L2.069,14H.044l3.44-9.242H5.25L8.709,14H6.684ZM3.218,10.553H5.529L4.367,7.094Zm5.948-.038a4.139,4.139,0,0,1,.72-2.558A2.338,2.338,0,0,1,11.857,7a2.1,2.1,0,0,1,1.657.749V4.25h1.841V14H13.7l-.089-.73a2.159,2.159,0,0,1-1.765.857A2.331,2.331,0,0,1,9.9,13.172,4.272,4.272,0,0,1,9.166,10.515ZM11,10.652a2.711,2.711,0,0,0,.336,1.481,1.1,1.1,0,0,0,.978.515,1.227,1.227,0,0,0,1.2-.718V9.215A1.21,1.21,0,0,0,12.327,8.5Q11,8.5,11,10.652Zm8.938,3.475a3.372,3.372,0,0,1-2.46-.927,3.294,3.294,0,0,1-.949-2.469v-.178a4.149,4.149,0,0,1,.4-1.85,2.935,2.935,0,0,1,1.133-1.257A3.18,3.18,0,0,1,19.735,7a2.85,2.85,0,0,1,2.219.889,3.611,3.611,0,0,1,.809,2.52v.749H18.389a1.7,1.7,0,0,0,.536,1.079,1.621,1.621,0,0,0,1.133.406,1.98,1.98,0,0,0,1.657-.768l.9,1.009A2.754,2.754,0,0,1,21.5,13.8,3.665,3.665,0,0,1,19.938,14.127Zm-.209-5.643a1.146,1.146,0,0,0-.885.37,1.915,1.915,0,0,0-.435,1.058H20.96V9.765a1.366,1.366,0,0,0-.33-.947A1.183,1.183,0,0,0,19.729,8.484Zm6.932,4.164a1.2,1.2,0,0,0,.825-.279.979.979,0,0,0,.33-.743h1.72a2.353,2.353,0,0,1-.381,1.279,2.513,2.513,0,0,1-1.025.9,3.208,3.208,0,0,1-1.438.321,2.982,2.982,0,0,1-2.323-.936,3.705,3.705,0,0,1-.851-2.587v-.121a3.663,3.663,0,0,1,.844-2.533A2.947,2.947,0,0,1,26.679,7a2.889,2.889,0,0,1,2.066.733,2.6,2.6,0,0,1,.79,1.952h-1.72a1.261,1.261,0,0,0-.33-.871,1.227,1.227,0,0,0-1.806.132,2.708,2.708,0,0,0-.327,1.516v.191a2.742,2.742,0,0,0,.324,1.526A1.119,1.119,0,0,0,26.66,12.648ZM34.7,13.3a2.3,2.3,0,0,1-1.879.825,2.17,2.17,0,0,1-1.685-.635,2.71,2.71,0,0,1-.594-1.86v-4.5h1.834v4.442q0,1.074.978,1.074A1.325,1.325,0,0,0,34.633,12V7.132h1.841V14H34.747Zm7.141.7a2.037,2.037,0,0,1-.184-.616,2.22,2.22,0,0,1-1.733.743,2.439,2.439,0,0,1-1.673-.584,1.878,1.878,0,0,1-.663-1.473,1.941,1.941,0,0,1,.809-1.676,3.994,3.994,0,0,1,2.339-.59h.844V9.411a1.132,1.132,0,0,0-.244-.762.961.961,0,0,0-.771-.286,1.093,1.093,0,0,0-.727.222.755.755,0,0,0-.263.609H37.737a1.843,1.843,0,0,1,.368-1.1,2.434,2.434,0,0,1,1.041-.8A3.794,3.794,0,0,1,40.657,7a3,3,0,0,1,2.015.638,2.232,2.232,0,0,1,.746,1.793v2.977a3.284,3.284,0,0,0,.273,1.479V14ZM40.32,12.724a1.58,1.58,0,0,0,.749-.181,1.188,1.188,0,0,0,.508-.486V10.877h-.686q-1.377,0-1.466.952l-.006.108a.734.734,0,0,0,.241.565A.937.937,0,0,0,40.32,12.724Zm4.221-2.209a4.139,4.139,0,0,1,.72-2.558A2.338,2.338,0,0,1,47.233,7a2.1,2.1,0,0,1,1.657.749V4.25H50.73V14H49.074l-.089-.73a2.159,2.159,0,0,1-1.765.857,2.331,2.331,0,0,1-1.946-.955A4.272,4.272,0,0,1,44.542,10.515Zm1.834.137a2.711,2.711,0,0,0,.336,1.481,1.1,1.1,0,0,0,.978.515,1.227,1.227,0,0,0,1.2-.718V9.215A1.21,1.21,0,0,0,47.7,8.5Q46.376,8.5,46.376,10.652ZM56.132,14a2.037,2.037,0,0,1-.184-.616,2.22,2.22,0,0,1-1.733.743,2.439,2.439,0,0,1-1.673-.584,1.878,1.878,0,0,1-.663-1.473,1.941,1.941,0,0,1,.809-1.676,3.994,3.994,0,0,1,2.339-.59h.844V9.411a1.132,1.132,0,0,0-.244-.762.961.961,0,0,0-.771-.286,1.093,1.093,0,0,0-.727.222.755.755,0,0,0-.263.609H52.032a1.843,1.843,0,0,1,.368-1.1,2.434,2.434,0,0,1,1.041-.8A3.794,3.794,0,0,1,54.952,7a3,3,0,0,1,2.015.638,2.232,2.232,0,0,1,.746,1.793v2.977a3.284,3.284,0,0,0,.273,1.479V14Zm-1.517-1.276a1.58,1.58,0,0,0,.749-.181,1.188,1.188,0,0,0,.508-.486V10.877h-.686q-1.377,0-1.466.952l-.006.108a.734.734,0,0,0,.241.565A.937.937,0,0,0,54.615,12.724ZM2.729,26.344V29.6H.825V20.358H4.431a4.171,4.171,0,0,1,1.831.381,2.807,2.807,0,0,1,1.216,1.082,3.018,3.018,0,0,1,.425,1.6,2.654,2.654,0,0,1-.93,2.142,3.873,3.873,0,0,1-2.574.784Zm0-1.542h1.7a1.673,1.673,0,0,0,1.152-.355,1.293,1.293,0,0,0,.4-1.016,1.524,1.524,0,0,0-.4-1.1,1.494,1.494,0,0,0-1.1-.432H2.729Zm10.22-.349a4.984,4.984,0,0,0-.66-.051,1.344,1.344,0,0,0-1.365.7V29.6H9.09V22.732h1.733l.051.819A1.7,1.7,0,0,1,12.4,22.6a1.922,1.922,0,0,1,.571.083Zm4.043,5.275a3.372,3.372,0,0,1-2.46-.927,3.294,3.294,0,0,1-.949-2.469v-.178a4.149,4.149,0,0,1,.4-1.85,2.935,2.935,0,0,1,1.133-1.257A3.18,3.18,0,0,1,16.79,22.6a2.85,2.85,0,0,1,2.219.889,3.611,3.611,0,0,1,.809,2.52v.749H15.444a1.7,1.7,0,0,0,.536,1.079,1.621,1.621,0,0,0,1.133.406,1.98,1.98,0,0,0,1.657-.768l.9,1.009a2.754,2.754,0,0,1-1.117.911A3.665,3.665,0,0,1,16.993,29.727Zm-.209-5.643a1.146,1.146,0,0,0-.885.37,1.915,1.915,0,0,0-.435,1.058h2.552v-.147a1.366,1.366,0,0,0-.33-.947A1.183,1.183,0,0,0,16.783,24.084Zm6.932,4.164a1.2,1.2,0,0,0,.825-.279.979.979,0,0,0,.33-.743h1.72a2.353,2.353,0,0,1-.381,1.279,2.513,2.513,0,0,1-1.025.9,3.208,3.208,0,0,1-1.438.321,2.982,2.982,0,0,1-2.323-.936,3.705,3.705,0,0,1-.851-2.587v-.121a3.663,3.663,0,0,1,.844-2.533,2.947,2.947,0,0,1,2.317-.946,2.889,2.889,0,0,1,2.066.733,2.6,2.6,0,0,1,.79,1.952H24.87a1.261,1.261,0,0,0-.33-.871,1.227,1.227,0,0,0-1.806.132,2.708,2.708,0,0,0-.327,1.516v.191a2.742,2.742,0,0,0,.324,1.526A1.119,1.119,0,0,0,23.715,28.248ZM29.574,29.6H27.733V22.732h1.841Zm-1.949-8.646a.9.9,0,0,1,.276-.679,1.19,1.19,0,0,1,1.5,0,.969.969,0,0,1,0,1.365,1.177,1.177,0,0,1-1.492,0A.9.9,0,0,1,27.625,20.954ZM30.8,26.1a4.073,4.073,0,0,1,.394-1.822,2.881,2.881,0,0,1,1.133-1.238,3.306,3.306,0,0,1,1.717-.438,3.128,3.128,0,0,1,2.269.851,3.414,3.414,0,0,1,.981,2.311l.013.47a3.59,3.59,0,0,1-.882,2.536,3.42,3.42,0,0,1-4.739,0,3.653,3.653,0,0,1-.885-2.59Zm1.834.13A2.567,2.567,0,0,0,33,27.73a1.323,1.323,0,0,0,2.095.006,2.809,2.809,0,0,0,.375-1.637,2.542,2.542,0,0,0-.375-1.488,1.217,1.217,0,0,0-1.054-.528A1.2,1.2,0,0,0,33,24.608,2.857,2.857,0,0,0,32.633,26.233Zm6.379,4.161H37.648l3.4-10.036h1.365Zm11.654-3.872a3.27,3.27,0,0,1-1.1,2.349,3.868,3.868,0,0,1-2.618.857,3.478,3.478,0,0,1-2.8-1.2,4.906,4.906,0,0,1-1.019-3.285v-.565a5.54,5.54,0,0,1,.47-2.349,3.52,3.52,0,0,1,1.343-1.558,4.2,4.2,0,0,1,4.605.314,3.515,3.515,0,0,1,1.13,2.406h-1.9a1.93,1.93,0,0,0-.5-1.3,1.845,1.845,0,0,0-1.3-.4,1.618,1.618,0,0,0-1.425.682,3.824,3.824,0,0,0-.486,2.117v.7a4.093,4.093,0,0,0,.454,2.19,1.588,1.588,0,0,0,1.431.692,1.88,1.88,0,0,0,1.317-.4,1.821,1.821,0,0,0,.5-1.247Zm5.11,3.079a2.037,2.037,0,0,1-.184-.616,2.22,2.22,0,0,1-1.733.743,2.439,2.439,0,0,1-1.673-.584,1.878,1.878,0,0,1-.663-1.473,1.941,1.941,0,0,1,.809-1.676,3.994,3.994,0,0,1,2.339-.59h.844v-.394a1.132,1.132,0,0,0-.244-.762.961.961,0,0,0-.771-.286,1.093,1.093,0,0,0-.727.222.755.755,0,0,0-.263.609H51.676a1.843,1.843,0,0,1,.368-1.1,2.434,2.434,0,0,1,1.041-.8A3.794,3.794,0,0,1,54.6,22.6a3,3,0,0,1,2.015.638,2.232,2.232,0,0,1,.746,1.793v2.977a3.284,3.284,0,0,0,.273,1.479V29.6ZM54.26,28.324a1.58,1.58,0,0,0,.749-.181,1.188,1.188,0,0,0,.508-.486V26.477h-.686q-1.377,0-1.466.952l-.006.108a.734.734,0,0,0,.241.565A.937.937,0,0,0,54.26,28.324ZM60.7,29.6H58.862V19.85H60.7Zm3.447,0H62.309V22.732h1.841ZM62.2,20.954a.9.9,0,0,1,.276-.679,1.19,1.19,0,0,1,1.5,0,.969.969,0,0,1,0,1.365,1.177,1.177,0,0,1-1.492,0A.9.9,0,0,1,62.2,20.954Zm3.174,5.161a4.139,4.139,0,0,1,.72-2.558,2.338,2.338,0,0,1,1.971-.952,2.1,2.1,0,0,1,1.657.749v-3.5h1.841V29.6H69.907l-.089-.73a2.159,2.159,0,0,1-1.765.857,2.331,2.331,0,0,1-1.946-.955A4.272,4.272,0,0,1,65.375,26.115Zm1.834.137a2.711,2.711,0,0,0,.336,1.481,1.1,1.1,0,0,0,.978.515,1.227,1.227,0,0,0,1.2-.718V24.815a1.21,1.21,0,0,0-1.187-.718Q67.209,24.1,67.209,26.252ZM76.965,29.6a2.037,2.037,0,0,1-.184-.616,2.22,2.22,0,0,1-1.733.743,2.439,2.439,0,0,1-1.673-.584,1.878,1.878,0,0,1-.663-1.473,1.941,1.941,0,0,1,.809-1.676,3.994,3.994,0,0,1,2.339-.59h.844v-.394a1.132,1.132,0,0,0-.244-.762.961.961,0,0,0-.771-.286,1.093,1.093,0,0,0-.727.222.755.755,0,0,0-.263.609H72.865a1.843,1.843,0,0,1,.368-1.1,2.434,2.434,0,0,1,1.041-.8,3.794,3.794,0,0,1,1.511-.289,3,3,0,0,1,2.015.638,2.232,2.232,0,0,1,.746,1.793v2.977a3.284,3.284,0,0,0,.273,1.479V29.6Zm-1.517-1.276a1.58,1.58,0,0,0,.749-.181,1.188,1.188,0,0,0,.508-.486V26.477H76.02q-1.377,0-1.466.952l-.006.108a.734.734,0,0,0,.241.565A.937.937,0,0,0,75.448,28.324Zm4.221-2.209a4.139,4.139,0,0,1,.72-2.558,2.338,2.338,0,0,1,1.971-.952,2.1,2.1,0,0,1,1.657.749v-3.5h1.841V29.6H84.2l-.089-.73a2.159,2.159,0,0,1-1.765.857,2.331,2.331,0,0,1-1.946-.955A4.272,4.272,0,0,1,79.669,26.115Zm1.834.137a2.711,2.711,0,0,0,.336,1.481,1.1,1.1,0,0,0,.978.515,1.227,1.227,0,0,0,1.2-.718V24.815a1.21,1.21,0,0,0-1.187-.718Q81.5,24.1,81.5,26.252Z" transform="translate(937.755 10603.331)" fill="#00223d"/>
    <path id="Trazado_794981" data-name="Trazado 794981" d="M6.386,9.995H2.729V12.47H7.021V14H.825V4.758H7.008V6.3H2.729V8.5H6.386Zm4.367,2.653a1.2,1.2,0,0,0,.825-.279.979.979,0,0,0,.33-.743h1.72a2.353,2.353,0,0,1-.381,1.279,2.513,2.513,0,0,1-1.025.9,3.208,3.208,0,0,1-1.438.321,2.982,2.982,0,0,1-2.323-.936A3.705,3.705,0,0,1,7.611,10.6v-.121a3.663,3.663,0,0,1,.844-2.533A2.947,2.947,0,0,1,10.772,7a2.889,2.889,0,0,1,2.066.733,2.6,2.6,0,0,1,.79,1.952h-1.72a1.261,1.261,0,0,0-.33-.871,1.1,1.1,0,0,0-.838-.335,1.1,1.1,0,0,0-.968.467,2.708,2.708,0,0,0-.327,1.516v.191a2.742,2.742,0,0,0,.324,1.526A1.119,1.119,0,0,0,10.753,12.648ZM14.39,10.5a4.073,4.073,0,0,1,.394-1.822,2.881,2.881,0,0,1,1.133-1.238A3.306,3.306,0,0,1,17.634,7a3.127,3.127,0,0,1,2.269.851,3.414,3.414,0,0,1,.981,2.311l.013.47a3.59,3.59,0,0,1-.882,2.536,3.067,3.067,0,0,1-2.368.955,3.082,3.082,0,0,1-2.371-.952,3.653,3.653,0,0,1-.885-2.59Zm1.834.13a2.567,2.567,0,0,0,.368,1.5,1.323,1.323,0,0,0,2.095.006,2.809,2.809,0,0,0,.375-1.637,2.542,2.542,0,0,0-.375-1.488,1.217,1.217,0,0,0-1.054-.528,1.2,1.2,0,0,0-1.041.524A2.857,2.857,0,0,0,16.225,10.633Zm7.49-3.5.057.793A2.4,2.4,0,0,1,25.746,7a1.993,1.993,0,0,1,1.625.641,2.991,2.991,0,0,1,.546,1.917V14H26.083V9.607a1.19,1.19,0,0,0-.254-.847,1.137,1.137,0,0,0-.844-.263,1.262,1.262,0,0,0-1.162.66V14H21.988V7.132ZM29.021,10.5a4.073,4.073,0,0,1,.394-1.822,2.881,2.881,0,0,1,1.133-1.238A3.306,3.306,0,0,1,32.265,7a3.128,3.128,0,0,1,2.269.851,3.414,3.414,0,0,1,.981,2.311l.013.47a3.59,3.59,0,0,1-.882,2.536,3.42,3.42,0,0,1-4.739,0,3.653,3.653,0,0,1-.885-2.59Zm1.834.13a2.567,2.567,0,0,0,.368,1.5,1.323,1.323,0,0,0,2.095.006,2.809,2.809,0,0,0,.375-1.637,2.542,2.542,0,0,0-.375-1.488,1.217,1.217,0,0,0-1.054-.528,1.2,1.2,0,0,0-1.041.524A2.857,2.857,0,0,0,30.856,10.633ZM32.627,4.25h2L32.868,6.218H31.376Zm5.751,2.882.057.768A2.414,2.414,0,0,1,40.409,7a1.832,1.832,0,0,1,1.822,1.047A2.358,2.358,0,0,1,44.294,7a2.049,2.049,0,0,1,1.663.651A2.991,2.991,0,0,1,46.5,9.614V14H44.662V9.62a1.308,1.308,0,0,0-.229-.854,1.013,1.013,0,0,0-.806-.27,1.145,1.145,0,0,0-1.143.787L42.491,14H40.657V9.626a1.292,1.292,0,0,0-.235-.863,1.023,1.023,0,0,0-.8-.267,1.189,1.189,0,0,0-1.13.647V14H36.658V7.132ZM49.848,14H48.007V7.132h1.841ZM47.9,5.354a.9.9,0,0,1,.276-.679,1.19,1.19,0,0,1,1.5,0,.9.9,0,0,1,.279.679.9.9,0,0,1-.282.686,1.177,1.177,0,0,1-1.492,0A.9.9,0,0,1,47.9,5.354Zm6.316,7.293a1.2,1.2,0,0,0,.825-.279.979.979,0,0,0,.33-.743h1.72a2.353,2.353,0,0,1-.381,1.279,2.513,2.513,0,0,1-1.025.9,3.208,3.208,0,0,1-1.438.321,2.982,2.982,0,0,1-2.323-.936,3.705,3.705,0,0,1-.851-2.587v-.121a3.663,3.663,0,0,1,.844-2.533A2.947,2.947,0,0,1,54.234,7a2.889,2.889,0,0,1,2.066.733,2.6,2.6,0,0,1,.79,1.952h-1.72a1.261,1.261,0,0,0-.33-.871,1.227,1.227,0,0,0-1.806.132,2.708,2.708,0,0,0-.327,1.516v.191a2.742,2.742,0,0,0,.324,1.526A1.119,1.119,0,0,0,54.215,12.648ZM62.118,14a2.037,2.037,0,0,1-.184-.616,2.22,2.22,0,0,1-1.733.743,2.439,2.439,0,0,1-1.673-.584,1.878,1.878,0,0,1-.663-1.473,1.941,1.941,0,0,1,.809-1.676,3.994,3.994,0,0,1,2.339-.59h.844V9.411a1.132,1.132,0,0,0-.244-.762.961.961,0,0,0-.771-.286,1.093,1.093,0,0,0-.727.222.755.755,0,0,0-.263.609H58.018a1.843,1.843,0,0,1,.368-1.1,2.434,2.434,0,0,1,1.041-.8A3.794,3.794,0,0,1,60.938,7a3,3,0,0,1,2.015.638A2.232,2.232,0,0,1,63.7,9.436v2.977a3.284,3.284,0,0,0,.273,1.479V14ZM60.6,12.724a1.58,1.58,0,0,0,.749-.181,1.188,1.188,0,0,0,.508-.486V10.877h-.686q-1.377,0-1.466.952l-.006.108a.734.734,0,0,0,.241.565A.937.937,0,0,0,60.6,12.724Z" transform="translate(937.755 10839.489)" fill="#00223d"/>
  </g>
</svg>
